%
T1C.012F095S3
X090055Y102723
X090239Y103063
X090694Y103057
X090705Y102559
X091164Y103055
X091192Y10258
X091592Y102547
X091598Y102949
X094797Y102949
X095127Y102522
X095998Y102285
X096523Y102301
X096535Y101834
X096541Y101299
X09706Y102858
X097088Y102348
X097099Y101842
X097111Y101321
X097568Y102862
X097623Y102334
X098111Y102889
X098111Y102364
X098695Y102906
X0994Y102926
X099367Y103328
X099353Y103862
X099326Y104328
X099326Y104809
X098668Y103321
X098666Y103854
X098666Y104328
X098666Y104809
X098447Y105108
X098097Y103307
X098097Y10383
X098097Y104328
X098097Y104809
X097568Y103307
X097568Y103819
X097568Y104328
X097568Y104809
X097433Y10516
X09743Y105515
X09706Y103307
X09706Y10385
X09706Y104328
X09706Y104809
X095158Y104514
X09515Y105236
X095137Y103346
X095133Y103846
X094816Y104096
X094809Y104891
X091963Y104029
X091959Y104488
X091955Y104924
X091592Y105113
X09158Y104024
X091576Y104582
X091145Y103561
X091145Y104598
X091139Y105164
X091123Y104082
X090688Y103567
X090662Y104084
X090651Y104613
X090645Y105166
X090227Y103572
X090213Y104113
X09019Y104625
X09019Y105166
X089121Y105555
X088805Y106848
X088965Y106303
X089473Y106447
X090551Y106061
X091063Y10708
X091717Y106447
X092426Y107139
X093482Y106061
X093971Y106143
X094479Y106137
X095801Y107559
X096869Y107555
X096883Y107117
X096914Y106643
X097435Y107561
X097449Y107123
X097478Y106662
X098125Y107566
X098137Y107129
X09815Y106648
X098818Y107549
X098826Y107135
X099513Y107549
X099533Y107141
X100326Y107556
X104689Y107156
X104898Y108023
X103716Y108711
X103671Y109928
X10057Y108419
X097314Y108834
X096135Y108914
X096135Y110633
X095023Y108959
X094404Y110646
X091113Y108976
X090563Y109566
X090096Y109221
X087112Y110416
X08635Y110506
X086313Y108275
X085901Y108555
X085622Y108861
X085428Y109205
X085411Y110346
X085376Y109961
X084815Y109074
X084522Y10868
X08436Y10991
X083477Y112529
X083866Y11131
X08446Y111267
X084815Y111625
X085057Y111984
X085352Y111715
X085364Y111295
X085588Y112209
X085606Y110719
X085887Y11091
X085926Y112787
X085944Y112424
X088075Y111701
X088289Y112271
X088469Y111459
X088666Y112871
X089047Y112767
X089186Y11099
X089453Y113019
X089489Y111191
X089793Y110777
X089916Y112502
X091799Y112799
X09219Y113078
X094375Y112402
X094377Y112775
X096724Y11066
X096724Y111424
X097314Y111531
X100097Y111261
X101601Y111076
X104757Y11148
X105171Y111476
X105197Y110939
X105546Y111195
X105171Y11341
X10157Y115093
X101552Y115527
X101238Y115296
X100882Y115082
X100882Y115527
X094125Y114007
X093957Y11364
X093416Y113593
X092504Y113363
X090428Y113197
X088963Y114957
X086829Y115552
X086334Y114511
X086036Y115363
X085709Y115203
X084803Y115232
X083813Y114339
X083813Y11505
X083547Y113591
X083532Y114062
X083479Y114701
X08446Y116298
X084801Y116648
X085102Y117003
X085413Y115693
X085413Y117331
X085709Y117669
X086036Y118005
X086877Y116679
X091143Y117619
X091153Y118095
X094871Y117855
X100332Y116212
X100865Y115919
X101541Y117849
X093424Y119478
X086334Y118677
T2C.01969F095S3
X081089Y107186
X084374Y103389
X085901Y107727
X087389Y100782
X105216Y105828
X104501Y114451
X104121Y111498
X102324Y113193
X102306Y113814
X099256Y114066
X095484Y115279
X089926Y115455
X08378Y108693
X082887Y114701
X08126Y109187
X082264Y115736
X086217Y119669
X091719Y119904
X092084Y115748
X093108Y119904
X094025Y115748
X095484Y118603
T3C.035F197S55
X087597Y118668
X087597Y119668
T4C.03543F197S55
X080433Y110486
T5C.037F197S55
X098256Y101558
X099256Y101558
X100256Y101558
X101256Y101558
X10344Y102496
X106432Y102496
X107561Y104402
X108561Y104402
X109157Y100656
X110006Y104402
X110157Y100656
X111006Y104402
X111157Y100656
X111006Y110558
X110006Y110558
X108561Y110558
X107561Y110558
X077936Y110124
X077936Y107913
X077936Y106913
X077936Y115269
X077936Y113124
X077936Y112124
X077936Y111124
X089488Y114529
X090488Y114529
X091488Y114529
X092488Y114529
X093488Y114529
X098408Y112197
X099408Y112197
X100408Y112197
X106051Y11298
X106051Y11198
X106051Y11398
X106051Y11498
X106051Y11598
X100952Y119481
X099952Y119481
X098952Y119481
X097952Y119481
X077936Y119269
X077936Y116269
X077936Y117269
X077936Y118269
T6C.15748F035S9
X101181Y105012G85X101969Y105012
X101181Y109646G85X101969Y109646
M30
