%
T1C.012F095S3
X078975Y106418
X078475Y106418
X077975Y106418
X078975Y106918
X078475Y106918
X077975Y106918
X077475Y106918
X078975Y107418
X077975Y107418
X077475Y107418
X078475Y107418
X077475Y107918
X077975Y107918
X077475Y108418
X078475Y108418
X078475Y108918
X077975Y108918
X078163Y109182
X078475Y109418
X077975Y109418
X078889Y110494
X079423Y111183
X078725Y114315
X078475Y116918
X077975Y116918
X077517Y116942
X078975Y118918
X078975Y119418
X077975Y119918
X077475Y119918
X077475Y120418
X079475Y119418
X081475Y117918
X081962Y11562
X079888Y114665
X079512Y11465
X080975Y111918
X080475Y111918
X079975Y111918
X081626Y11113
X08192Y110863
X080975Y110418
X080475Y110418
X079975Y110418
X079475Y110418
X079981Y110026
X08048Y110024
X079465Y110014
X080993Y110007
X081516Y107713
X079475Y107418
X079975Y107418
X080475Y107418
X080975Y107418
X079475Y106918
X080475Y106918
X080975Y106918
X079975Y106918
X081516Y106701
X080975Y106418
X079475Y106418
X080475Y106418
X079975Y106418
X082975Y104918
X082496Y105176
X081975Y105418
X083475Y105418
X083475Y106418
X083475Y106918
X082975Y106918
X083975Y106918
X083477Y107255
X083927Y108132
X083975Y108918
X083975Y109418
X083174Y11099
X082807Y111932
X082191Y112262
X082191Y113916
X082133Y116249
X082989Y116249
X084893Y117542
X085091Y11564
X085329Y115339
X086303Y110372
X084559Y109615
X085746Y109615
X086823Y109514
X084568Y108132
X086139Y107605
X085781Y107345
X085434Y105342
X086889Y103748
X087422Y102985
X088182Y103256
X088737Y103567
X091541Y104395
X090906Y104439
X091454Y105525
X090214Y10653
X089594Y107223
X088721Y107389
X089295Y109046
X088928Y110104
X089443Y110382
X090346Y115133
X090002Y115447
X089531Y115717
X088399Y116036
X092588Y11922
X093205Y119211
X092989Y118241
X09278Y117935
X092605Y116548
X093017Y116113
X09303Y115701
X093039Y115311
X092655Y115031
X092652Y114585
X092471Y112982
X092812Y112749
X093064Y112484
X093167Y112044
X093438Y111599
X093457Y109343
X093933Y109343
X093933Y108886
X093457Y108886
X093661Y107387
X094334Y103509
X094334Y102905
X094334Y102369
X094738Y102369
X094738Y102905
X094738Y103509
X095938Y108886
X095938Y109343
X094482Y109343
X096928Y10973
X096001Y113304
X096928Y114532
X095993Y117003
X096482Y117143
X09683Y11715
X095008Y117804
X098322Y118569
X098861Y118433
X097396Y116907
X099281Y116241
X097181Y115689
X097556Y115683
X097192Y115293
X099342Y115277
X097455Y115054
X097974Y114814
X099056Y114756
X098786Y113799
X099145Y11326
X097192Y110792
X097798Y110685
X097789Y109694
X097526Y107567
X099059Y104947
X09845Y104326
X099953Y106291
X100236Y107703
X100478Y112532
X100125Y112532
X101763Y113193
X100932Y114756
X099627Y115504
X101237Y115684
X099933Y115753
X099558Y115979
X099901Y116223
X10072Y116507
X100326Y116548
X099546Y117748
X101114Y118332
X102447Y117103
X103126Y116828
X103485Y116634
X103592Y116267
X103732Y114164
X102537Y112252
X103091Y112121
X103421Y111913
X103732Y111694
X104051Y111454
X104365Y111146
X102875Y110899
X103177Y107981
X105081Y1109
X105634Y111185
X106392Y112898
X106108Y113353
T2C.01969F095S3
X076965Y106579
X07928Y118194
X083395Y119277
X090547Y119068
X091427Y118378
X090538Y118368
X091427Y117829
X09172Y117196
X09071Y113356
X08883Y108372
X086534Y107972
X086595Y102464
X088672Y100399
X096839Y108181
X092731Y113356
X092293Y114031
X095223Y114046
X092293Y11792
X097312Y117504
X098637Y117103
X100245Y103781
X101406Y103252
X097735Y103019
X101371Y101808
X101301Y100942
X100069Y10068
X101643Y100521
X100982Y100505
X10689Y100787
X102949Y101
X10248Y103252
X104008Y105815
X105081Y113391
X104461Y118253
X108465Y101488
X109252Y101488
X108465Y100787
X109252Y100787
X107677Y100787
T3C.035F197S55
X110105Y101007
X110105Y102385
T4C.03543F197S55
X084835Y119016
T5C.037F197S55
X076965Y121038
X077753Y121038
X07854Y121038
X079328Y121038
X080115Y121038
X080902Y121038
X08169Y121038
X082477Y121038
X086085Y117818
X086085Y116818
X086085Y115818
X086085Y114818
X086085Y113818
X086085Y112818
X086085Y111818
X086442Y10649
X085442Y10649
X083981Y105979
X083981Y104979
X083981Y103979
X090716Y10296
X091716Y10296
X088442Y10649
X087442Y10649
X089442Y10649
X09126Y110244
X095721Y11936
X096721Y11936
X09326Y110244
X09226Y110244
X092716Y10296
X093716Y10296
X101853Y11936
X102853Y11936
X103853Y11936
X097721Y11936
X098721Y11936
X099721Y11936
X104853Y11936
X107585Y112962
X108585Y112962
X108561Y110558
X107561Y110558
X104687Y108832
X104687Y105839
X107561Y104402
X108561Y104402
X110006Y104402
X111006Y104402
X110006Y110558
X111006Y110558
X109585Y112962
X110585Y112962
T6C.06F089S55
X096307Y101404
X097907Y101404
T7C.15748F035S9
X101181Y105012G85X101969Y105012
X101181Y109646G85X101969Y109646
M30
