*
*
G04 PADS 9.5 Build Number: 522968 generated Gerber (RS-274-X) file*
G04 PC Version=2.1*
*
%IN "stm32l151_nbiot_parking"*%
*
%MOIN*%
*
%FSLAX35Y35*%
*
*
*
*
G04 PC Standard Apertures*
*
*
G04 Thermal Relief Aperture macro.*
%AMTER*
1,1,$1,0,0*
1,0,$1-$2,0,0*
21,0,$3,$4,0,0,45*
21,0,$3,$4,0,0,135*
%
*
*
G04 Annular Aperture macro.*
%AMANN*
1,1,$1,0,0*
1,0,$2,0,0*
%
*
*
G04 Odd Aperture macro.*
%AMODD*
1,1,$1,0,0*
1,0,$1-0.005,0,0*
%
*
*
G04 PC Custom Aperture Macros*
*
*
*
*
*
*
G04 PC Aperture Table*
*
%ADD064C,0.001*%
%ADD080C,0.01181*%
%ADD090R,0.06394X0.06394*%
%ADD091C,0.06394*%
%ADD102C,0.04331*%
%ADD149R,0.03994X0.03994*%
%ADD177C,0.08268*%
%ADD201R,0.04194X0.03394*%
%ADD209R,0.03394X0.04194*%
%ADD210R,0.10236X0.04331*%
%ADD215R,0.05606X0.05394*%
%ADD247R,0.04331X0.10236*%
%ADD250C,0.10394*%
%ADD252R,0.05394X0.05606*%
%ADD253R,0.05394X0.03994*%
%ADD260R,0.01378X0.05118*%
%ADD261R,0.05118X0.01378*%
%ADD295R,0.16142X0.08268*%
%ADD317R,0.02894X0.02394*%
%ADD320R,0.02394X0.02894*%
%ADD321R,0.05197X0.03976*%
%ADD346R,0.03543X0.09843*%
%ADD347R,0.09843X0.03543*%
%ADD349R,0.05118X0.02756*%
%ADD350R,0.05118X0.06693*%
%ADD352R,0.06299X0.04331*%
%ADD353R,0.05512X0.02677*%
%ADD354R,0.05512X0.02874*%
%ADD355R,0.06693X0.07874*%
%ADD362R,0.0689X0.01575*%
%ADD363R,0.01575X0.0689*%
%ADD380R,0.02756X0.05118*%
%ADD382R,0.02677X0.05512*%
%ADD383R,0.02874X0.05512*%
%ADD384R,0.07874X0.06693*%
%ADD396O,0.06894X0.02894*%
%ADD397O,0.27953X0.20079*%
%ADD406O,0.09055X0.0374*%
%ADD407R,0.09055X0.0374*%
%ADD408R,0.05925X0.03937*%
%ADD409O,0.04331X0.04528*%
%ADD410O,0.04528X0.09055*%
*
*
*
*
G04 PC Circuitry*
G04 Layer Name stm32l151_nbiot_parking - circuitry*
%LPD*%
*
*
G04 PC Custom Flashes*
G04 Layer Name stm32l151_nbiot_parking - flashes*
%LPD*%
*
*
G04 PC Circuitry*
G04 Layer Name stm32l151_nbiot_parking - circuitry*
%LPD*%
*
G54D64*
G54D80*
G01X943938Y1066860D02*
X946576D01*
Y1071978*
X943938*
Y1066860*
X944410D02*
Y1071978D01*
X945001Y1066860D02*
Y1071978D01*
X945591Y1066860D02*
Y1071978D01*
X946182Y1066860D02*
Y1071978D01*
X950513Y1066860D02*
X953050D01*
Y1071978*
X950513*
Y1066860*
X950906D02*
Y1071978D01*
X951497Y1066860D02*
Y1071978D01*
X952087Y1066860D02*
Y1071978D01*
X952678Y1066860D02*
Y1071978D01*
X955911Y1149816D02*
Y1152454D01*
X950793*
Y1149816*
X955911*
X950990D02*
Y1152454D01*
X951580Y1149816D02*
Y1152454D01*
X952171Y1149816D02*
Y1152454D01*
X952761Y1149816D02*
Y1152454D01*
X953352Y1149816D02*
Y1152454D01*
X953942Y1149816D02*
Y1152454D01*
X954533Y1149816D02*
Y1152454D01*
X955123Y1149816D02*
Y1152454D01*
X955714Y1149816D02*
Y1152454D01*
X955911Y1156391D02*
Y1158929D01*
X950793*
Y1156391*
X955911*
X950990D02*
Y1158929D01*
X951580Y1156391D02*
Y1158929D01*
X952171Y1156391D02*
Y1158929D01*
X952761Y1156391D02*
Y1158929D01*
X953352Y1156391D02*
Y1158929D01*
X953942Y1156391D02*
Y1158929D01*
X954533Y1156391D02*
Y1158929D01*
X955123Y1156391D02*
Y1158929D01*
X955714Y1156391D02*
Y1158929D01*
X911054Y1017214D02*
G75*
G03X911054I-3740J0D01*
G01X998503Y1105084D02*
G03X998503I-3741J0D01*
G01X895713Y1125560D02*
G03X895713I-3741J0D01*
G01X911054Y1017214D02*
G03X911054I-3740J0D01*
G01X998503Y1105084D02*
G03X998503I-3741J0D01*
G01X895713Y1125560D02*
G03X895713I-3741J0D01*
G01X903608Y1017724D02*
X911019D01*
X903615Y1016661D02*
X911013D01*
X903921Y1018787D02*
X910707D01*
X903940Y1015598D02*
X910687D01*
X904661Y1019850D02*
X909967D01*
X904703Y1014535D02*
X909924D01*
X906764Y1020913D02*
X907864D01*
X991057Y1105594D02*
X998468D01*
X991063Y1104531D02*
X998462D01*
X991369Y1106657D02*
X998156D01*
X991389Y1103469D02*
X998136D01*
X992110Y1107720D02*
X997415D01*
X992152Y1102406D02*
X997373D01*
X994212Y1108783D02*
X995313D01*
X888267Y1126071D02*
X895678D01*
X888273Y1125008D02*
X895672D01*
X888579Y1127134D02*
X895366D01*
X888599Y1123945D02*
X895346D01*
X889320Y1128197D02*
X894625D01*
X889362Y1122882D02*
X894583D01*
X891422Y1129260D02*
X892523D01*
X763780Y1055118D02*
Y1216535D01*
X830709*
Y1204724*
X1059843*
Y1145669*
X1118110*
Y1094488*
X1066929*
Y1055118*
X1118110*
Y1000000*
X862205*
X803150Y1055118*
X763780*
G54D90*
X957209Y1193603D03*
X860847Y1118177D03*
X894420Y1064899D03*
X907164Y1029603D03*
X839811Y1039786D03*
X1046872Y1088316D03*
X1018534Y1193603D03*
X1105854Y1129622D03*
X1110063Y1044024D03*
X1085610D03*
Y1105582D03*
X1110063D03*
X769654Y1210383D03*
G54D91*
X967209Y1193603D03*
X977209D03*
X987209D03*
X997209D03*
X860847Y1128177D03*
Y1138177D03*
Y1148177D03*
Y1158177D03*
Y1168177D03*
Y1178177D03*
X884420Y1064899D03*
X874420D03*
X864420D03*
X854420D03*
X917164Y1029603D03*
X927164D03*
X937164D03*
X932597Y1102438D03*
X922597D03*
X912597D03*
X839811Y1049786D03*
Y1059786D03*
X1046872Y1058395D03*
X1028534Y1193603D03*
X1038534D03*
X1048534D03*
X1095854Y1129622D03*
X1085854D03*
X1075854D03*
X1100063Y1044024D03*
X1075610D03*
Y1105582D03*
X1100063D03*
X1101046Y1023850D03*
Y1010071D03*
X777528Y1210383D03*
X785402D03*
X793276D03*
X801150D03*
X809024D03*
X816898D03*
X824772D03*
G54D102*
X907284Y1017261D03*
X994733Y1105131D03*
X891943Y1125608D03*
X884917Y1055430D03*
G54D149*
X883108Y1076229D03*
Y1083729D03*
X1008853Y1077086D03*
Y1069586D03*
X828401Y1180218D03*
Y1187718D03*
X892950Y1086449D03*
Y1078949D03*
G54D177*
X848348Y1190157D03*
G54D201*
X929111Y1049464D03*
X922911D03*
X1037258Y1036326D03*
X1031058D03*
X822186Y1192778D03*
X828386D03*
X883009Y1106947D03*
X876809D03*
X883009Y1112853D03*
X876809D03*
X883009Y1101042D03*
X876809D03*
X883009Y1089231D03*
X876809D03*
X883009Y1095136D03*
X876809D03*
X922911Y1054976D03*
X929111D03*
X1000686Y1020013D03*
X994486D03*
X978144Y1134871D03*
X984344D03*
X1029380Y1137996D03*
X1023180D03*
X956923Y1102437D03*
X963123D03*
X1050809Y1141670D03*
X1044609D03*
Y1161170D03*
X1050809D03*
X1044609Y1172979D03*
X1050809D03*
X1029329Y1131926D03*
X1023129D03*
X1050344Y1036326D03*
X1044144D03*
X1050344Y1042093D03*
X1044144D03*
X866251Y1053417D03*
X860051D03*
X977889Y1102437D03*
X971689D03*
X977536Y1049466D03*
X983736D03*
X965333Y1036413D03*
X971533D03*
X965333Y1030192D03*
X971533D03*
X915662Y1049464D03*
X909462D03*
X929111Y1043952D03*
X922911D03*
X1044609Y1167075D03*
X1050809D03*
X965645Y1066275D03*
X971845D03*
X1050809Y1155264D03*
X1044609D03*
X1000686Y1014107D03*
X994486D03*
G54D209*
X978135Y1175045D03*
Y1168845D03*
X1007226Y1013813D03*
Y1020013D03*
X892370Y1053530D03*
Y1047330D03*
X812263Y1192730D03*
Y1186530D03*
X983736Y1057926D03*
Y1064126D03*
X806357Y1192730D03*
Y1186530D03*
X800452Y1192730D03*
Y1186530D03*
X945804Y1088010D03*
Y1081810D03*
X971105Y1043265D03*
Y1049465D03*
X964933D03*
Y1043265D03*
X879245Y1024642D03*
Y1018442D03*
X873620Y1024642D03*
Y1018442D03*
X935420Y1068061D03*
Y1061861D03*
X884870Y1024642D03*
Y1018442D03*
X1045127Y1022160D03*
Y1028360D03*
X1019021Y1020055D03*
Y1026255D03*
X1024802D03*
Y1020055D03*
G54D210*
X911392Y1075165D03*
Y1063354D03*
X925142Y1075165D03*
Y1063354D03*
X780084Y1177895D03*
Y1189706D03*
X1073894Y1028391D03*
Y1016580D03*
X953352Y1160328D03*
Y1148517D03*
G54D215*
X857839Y1045362D03*
Y1036362D03*
X953902Y1090809D03*
Y1081809D03*
G54D247*
X954450Y1069419D03*
X942639D03*
X1034693Y1009997D03*
X1022882D03*
G54D250*
X963068Y1014042D03*
X979068D03*
G54D252*
X966683Y1058401D03*
X975683D03*
G54D253*
X875108Y1079979D03*
X1016853Y1073336D03*
X820401Y1183968D03*
X900950Y1082699D03*
G54D260*
X1013106Y1171025D03*
X1011138D03*
X1009169D03*
X1007201D03*
X1005232D03*
X1003264D03*
X1001295D03*
X999327D03*
X997358D03*
X995390D03*
X993421D03*
X991452D03*
Y1137915D03*
X993421D03*
X995389D03*
X997358D03*
X999327D03*
X1001295D03*
X1003264D03*
X1005232D03*
X1007201D03*
X1009169D03*
X1011138D03*
X1013106D03*
G54D261*
X1018815Y1143624D03*
Y1145592D03*
Y1147561D03*
Y1149529D03*
Y1151498D03*
Y1153466D03*
Y1155435D03*
Y1157403D03*
Y1159372D03*
Y1161340D03*
Y1163309D03*
Y1165277D03*
X985744D03*
Y1163309D03*
Y1161340D03*
Y1159372D03*
Y1157403D03*
Y1155435D03*
Y1153466D03*
Y1151498D03*
Y1149529D03*
Y1147561D03*
Y1145592D03*
Y1143624D03*
G54D295*
X1057504Y1016584D03*
Y1028395D03*
G54D317*
X821452Y1083203D03*
X816452D03*
X821452Y1071392D03*
X816452D03*
X858035Y1190157D03*
X863035D03*
G54D320*
X854597D03*
Y1195157D03*
X866472Y1190157D03*
Y1195157D03*
X821465Y1074797D03*
Y1079797D03*
G54D321*
X1058001Y1007518D03*
X1045088D03*
G54D346*
X791355Y1091791D03*
X796355D03*
X801355D03*
X806355D03*
X811355D03*
X816355D03*
X821355D03*
X826355D03*
Y1170531D03*
X821355D03*
X816355D03*
X811355D03*
X806355D03*
X801355D03*
X796355D03*
X791355D03*
G54D347*
X777339Y1161161D03*
Y1156161D03*
Y1151161D03*
Y1146161D03*
Y1141161D03*
Y1136161D03*
Y1131161D03*
Y1126161D03*
Y1121161D03*
Y1116161D03*
Y1111161D03*
Y1106161D03*
Y1101161D03*
X840370D03*
Y1106161D03*
Y1111161D03*
Y1116161D03*
Y1121161D03*
Y1126161D03*
Y1131161D03*
Y1136161D03*
Y1141161D03*
Y1146161D03*
Y1151161D03*
Y1156161D03*
Y1161161D03*
G54D349*
X1025963Y1146512D03*
X1025962Y1150450D03*
G54D350*
X1050805Y1148402D03*
G54D352*
X965406Y1160269D03*
Y1149848D03*
G54D353*
X962789Y1087713D03*
Y1075902D03*
G54D354*
Y1081808D03*
G54D355*
X974600D03*
G54D362*
X883658Y1041424D03*
Y1043392D03*
Y1045361D03*
Y1047329D03*
X868895D03*
Y1045361D03*
Y1043392D03*
Y1041424D03*
G54D363*
X879229Y1051758D03*
X877261D03*
X875292D03*
X873324D03*
Y1036995D03*
X875292D03*
X877261D03*
X879229D03*
G54D380*
X1038474Y1030291D03*
X1034734D03*
X1030994D03*
Y1020055D03*
X1034734D03*
X1038474D03*
G54D382*
X912335Y1082731D03*
X924146D03*
G54D383*
X918240D03*
G54D384*
Y1094542D03*
G54D396*
X937262Y1054464D03*
Y1049464D03*
Y1044464D03*
Y1039464D03*
X956947D03*
Y1044464D03*
Y1049464D03*
Y1054464D03*
G54D397*
X1015748Y1050118D03*
Y1096457D03*
G54D406*
X940222Y1140313D03*
Y1145313D03*
Y1150313D03*
Y1155313D03*
Y1160313D03*
Y1165313D03*
Y1170313D03*
Y1175313D03*
Y1180313D03*
Y1185313D03*
Y1190313D03*
G54D407*
Y1195313D03*
G54D408*
X872619Y1195105D03*
Y1190105D03*
X872517Y1144711D03*
Y1139711D03*
G54D409*
X821470Y1065804D03*
G54D410*
X827277Y1059800D03*
X815663D03*
G74*
X0Y0D02*
M02*
