*
*
G04 PADS 9.5 Build Number: 522968 generated Gerber (RS-274-X) file*
G04 PC Version=2.1*
*
%IN "stm32l151_nbiot_parking"*%
*
%MOIN*%
*
%FSLAX35Y35*%
*
*
*
*
G04 PC Standard Apertures*
*
*
G04 Thermal Relief Aperture macro.*
%AMTER*
1,1,$1,0,0*
1,0,$1-$2,0,0*
21,0,$3,$4,0,0,45*
21,0,$3,$4,0,0,135*
%
*
*
G04 Annular Aperture macro.*
%AMANN*
1,1,$1,0,0*
1,0,$2,0,0*
%
*
*
G04 Odd Aperture macro.*
%AMODD*
1,1,$1,0,0*
1,0,$1-0.005,0,0*
%
*
*
G04 PC Custom Aperture Macros*
*
*
*
*
*
*
G04 PC Aperture Table*
*
%ADD019C,0.03937*%
%ADD064C,0.001*%
%ADD080C,0.01181*%
%ADD131R,0.036X0.036*%
%ADD178R,0.038X0.03*%
%ADD186R,0.03X0.038*%
%ADD187R,0.09843X0.03937*%
%ADD192R,0.05213X0.05*%
%ADD224R,0.03937X0.09843*%
%ADD228R,0.05X0.05213*%
%ADD229R,0.05X0.036*%
%ADD236R,0.00984X0.04724*%
%ADD237R,0.04724X0.00984*%
%ADD276R,0.15748X0.07874*%
%ADD310R,0.025X0.02*%
%ADD313R,0.02X0.025*%
%ADD314R,0.04803X0.03583*%
%ADD323R,0.0315X0.09449*%
%ADD324R,0.09449X0.0315*%
%ADD326R,0.04724X0.02362*%
%ADD327R,0.04724X0.06299*%
%ADD329R,0.05906X0.03937*%
%ADD330R,0.05118X0.02283*%
%ADD331R,0.05118X0.0248*%
%ADD332R,0.06299X0.0748*%
%ADD339R,0.06496X0.01181*%
%ADD340R,0.01181X0.06496*%
%ADD367R,0.02362X0.04724*%
%ADD369R,0.02283X0.05118*%
%ADD370R,0.0248X0.05118*%
%ADD371R,0.0748X0.06299*%
%ADD390O,0.065X0.025*%
%ADD400O,0.08661X0.03346*%
%ADD401R,0.08661X0.03346*%
%ADD402R,0.05531X0.03543*%
%ADD403O,0.03937X0.04134*%
%ADD404O,0.04134X0.08661*%
*
*
*
*
G04 PC Circuitry*
G04 Layer Name stm32l151_nbiot_parking - circuitry*
%LPD*%
*
*
G04 PC Custom Flashes*
G04 Layer Name stm32l151_nbiot_parking - flashes*
%LPD*%
*
*
G04 PC Circuitry*
G04 Layer Name stm32l151_nbiot_parking - circuitry*
%LPD*%
*
G54D19*
G01X907284Y1017261D03*
X994733Y1105131D03*
X891943Y1125608D03*
X884917Y1055430D03*
G54D64*
G54D80*
X944135Y1067057D02*
X946379D01*
Y1071781*
X944135*
Y1067057*
X944410D02*
Y1071781D01*
X945001Y1067057D02*
Y1071781D01*
X945591Y1067057D02*
Y1071781D01*
X946182Y1067057D02*
Y1071781D01*
X950709Y1067057D02*
X952854D01*
Y1071781*
X950709*
Y1067057*
X950906D02*
Y1071781D01*
X951497Y1067057D02*
Y1071781D01*
X952087Y1067057D02*
Y1071781D01*
X952678Y1067057D02*
Y1071781D01*
X955714Y1150013D02*
Y1152257D01*
X950990*
X950990D02*
Y1150013D01*
X950990D02*
X955714D01*
X950990D02*
Y1152257D01*
X951580Y1150013D02*
Y1152257D01*
X952171Y1150013D02*
Y1152257D01*
X952761Y1150013D02*
Y1152257D01*
X953352Y1150013D02*
Y1152257D01*
X953942Y1150013D02*
Y1152257D01*
X954533Y1150013D02*
Y1152257D01*
X955123Y1150013D02*
Y1152257D01*
X955714Y1156588D02*
Y1158732D01*
X950990*
X950990D02*
Y1156588D01*
X950990D02*
X955714D01*
X950990D02*
Y1158732D01*
X951580Y1156588D02*
Y1158732D01*
X952171Y1156588D02*
Y1158732D01*
X952761Y1156588D02*
Y1158732D01*
X953352Y1156588D02*
Y1158732D01*
X953942Y1156588D02*
Y1158732D01*
X954533Y1156588D02*
Y1158732D01*
X955123Y1156588D02*
Y1158732D01*
G54D131*
X883108Y1076229D03*
Y1083729D03*
X1008853Y1077086D03*
Y1069586D03*
X828401Y1180218D03*
Y1187718D03*
X892950Y1086449D03*
Y1078949D03*
G54D178*
X929111Y1049464D03*
X922911D03*
X1037258Y1036326D03*
X1031058D03*
X822186Y1192778D03*
X828386D03*
X883009Y1106947D03*
X876809D03*
X883009Y1112853D03*
X876809D03*
X883009Y1101042D03*
X876809D03*
X883009Y1089231D03*
X876809D03*
X883009Y1095136D03*
X876809D03*
X922911Y1054976D03*
X929111D03*
X1000686Y1020013D03*
X994486D03*
X978144Y1134871D03*
X984344D03*
X1029380Y1137996D03*
X1023180D03*
X956923Y1102437D03*
X963123D03*
X1050809Y1141670D03*
X1044609D03*
Y1161170D03*
X1050809D03*
X1044609Y1172979D03*
X1050809D03*
X1029329Y1131926D03*
X1023129D03*
X1050344Y1036326D03*
X1044144D03*
X1050344Y1042093D03*
X1044144D03*
X866251Y1053417D03*
X860051D03*
X977889Y1102437D03*
X971689D03*
X977536Y1049466D03*
X983736D03*
X965333Y1036413D03*
X971533D03*
X965333Y1030192D03*
X971533D03*
X915662Y1049464D03*
X909462D03*
X929111Y1043952D03*
X922911D03*
X1044609Y1167075D03*
X1050809D03*
X965645Y1066275D03*
X971845D03*
X1050809Y1155264D03*
X1044609D03*
X1000686Y1014107D03*
X994486D03*
G54D186*
X978135Y1175045D03*
Y1168845D03*
X1007226Y1013813D03*
Y1020013D03*
X892370Y1053530D03*
Y1047330D03*
X812263Y1192730D03*
Y1186530D03*
X983736Y1057926D03*
Y1064126D03*
X806357Y1192730D03*
Y1186530D03*
X800452Y1192730D03*
Y1186530D03*
X945804Y1088010D03*
Y1081810D03*
X971105Y1043265D03*
Y1049465D03*
X964933D03*
Y1043265D03*
X879245Y1024642D03*
Y1018442D03*
X873620Y1024642D03*
Y1018442D03*
X935420Y1068061D03*
Y1061861D03*
X884870Y1024642D03*
Y1018442D03*
X1045127Y1022160D03*
Y1028360D03*
X1019021Y1020055D03*
Y1026255D03*
X1024802D03*
Y1020055D03*
G54D187*
X911392Y1075165D03*
Y1063354D03*
X925142Y1075165D03*
Y1063354D03*
X780084Y1177895D03*
Y1189706D03*
X1073894Y1028391D03*
Y1016580D03*
X953352Y1160328D03*
Y1148517D03*
G54D192*
X857839Y1045362D03*
Y1036362D03*
X953902Y1090809D03*
Y1081809D03*
G54D224*
X954450Y1069419D03*
X942639D03*
X1034693Y1009997D03*
X1022882D03*
G54D228*
X966683Y1058401D03*
X975683D03*
G54D229*
X875108Y1079979D03*
X1016853Y1073336D03*
X820401Y1183968D03*
X900950Y1082699D03*
G54D236*
X1013106Y1171025D03*
X1011138D03*
X1009169D03*
X1007201D03*
X1005232D03*
X1003264D03*
X1001295D03*
X999327D03*
X997358D03*
X995390D03*
X993421D03*
X991452D03*
Y1137915D03*
X993421D03*
X995389D03*
X997358D03*
X999327D03*
X1001295D03*
X1003264D03*
X1005232D03*
X1007201D03*
X1009169D03*
X1011138D03*
X1013106D03*
G54D237*
X1018815Y1143624D03*
Y1145592D03*
Y1147561D03*
Y1149529D03*
Y1151498D03*
Y1153466D03*
Y1155435D03*
Y1157403D03*
Y1159372D03*
Y1161340D03*
Y1163309D03*
Y1165277D03*
X985744D03*
Y1163309D03*
Y1161340D03*
Y1159372D03*
Y1157403D03*
Y1155435D03*
Y1153466D03*
Y1151498D03*
Y1149529D03*
Y1147561D03*
Y1145592D03*
Y1143624D03*
G54D276*
X1057504Y1016584D03*
Y1028395D03*
G54D310*
X821452Y1083203D03*
X816452D03*
X821452Y1071392D03*
X816452D03*
X858035Y1190157D03*
X863035D03*
G54D313*
X854597D03*
Y1195157D03*
X866472Y1190157D03*
Y1195157D03*
X821465Y1074797D03*
Y1079797D03*
G54D314*
X1058001Y1007518D03*
X1045088D03*
G54D323*
X791355Y1091791D03*
X796355D03*
X801355D03*
X806355D03*
X811355D03*
X816355D03*
X821355D03*
X826355D03*
Y1170531D03*
X821355D03*
X816355D03*
X811355D03*
X806355D03*
X801355D03*
X796355D03*
X791355D03*
G54D324*
X777339Y1161161D03*
Y1156161D03*
Y1151161D03*
Y1146161D03*
Y1141161D03*
Y1136161D03*
Y1131161D03*
Y1126161D03*
Y1121161D03*
Y1116161D03*
Y1111161D03*
Y1106161D03*
Y1101161D03*
X840370D03*
Y1106161D03*
Y1111161D03*
Y1116161D03*
Y1121161D03*
Y1126161D03*
Y1131161D03*
Y1136161D03*
Y1141161D03*
Y1146161D03*
Y1151161D03*
Y1156161D03*
Y1161161D03*
G54D326*
X1025963Y1146512D03*
X1025962Y1150450D03*
G54D327*
X1050805Y1148402D03*
G54D329*
X965406Y1160269D03*
Y1149848D03*
G54D330*
X962789Y1087713D03*
Y1075902D03*
G54D331*
Y1081808D03*
G54D332*
X974600D03*
G54D339*
X883658Y1041424D03*
Y1043392D03*
Y1045361D03*
Y1047329D03*
X868895D03*
Y1045361D03*
Y1043392D03*
Y1041424D03*
G54D340*
X879229Y1051758D03*
X877261D03*
X875292D03*
X873324D03*
Y1036995D03*
X875292D03*
X877261D03*
X879229D03*
G54D367*
X1038474Y1030291D03*
X1034734D03*
X1030994D03*
Y1020055D03*
X1034734D03*
X1038474D03*
G54D369*
X912335Y1082731D03*
X924146D03*
G54D370*
X918240D03*
G54D371*
Y1094542D03*
G54D390*
X937262Y1054464D03*
Y1049464D03*
Y1044464D03*
Y1039464D03*
X956947D03*
Y1044464D03*
Y1049464D03*
Y1054464D03*
G54D400*
X940222Y1140313D03*
Y1145313D03*
Y1150313D03*
Y1155313D03*
Y1160313D03*
Y1165313D03*
Y1170313D03*
Y1175313D03*
Y1180313D03*
Y1185313D03*
Y1190313D03*
G54D401*
Y1195313D03*
G54D402*
X872619Y1195105D03*
Y1190105D03*
X872517Y1144711D03*
Y1139711D03*
G54D403*
X821470Y1065804D03*
G54D404*
X827277Y1059800D03*
X815663D03*
X0Y0D02*
M02*
