*
*
G04 PADS 9.5 Build Number: 522968 generated Gerber (RS-274-X) file*
G04 PC Version=2.1*
*
%IN "stm32l151_nbiot_parking"*%
*
%MOIN*%
*
%FSLAX35Y35*%
*
*
*
*
G04 PC Standard Apertures*
*
*
G04 Thermal Relief Aperture macro.*
%AMTER*
1,1,$1,0,0*
1,0,$1-$2,0,0*
21,0,$3,$4,0,0,45*
21,0,$3,$4,0,0,135*
%
*
*
G04 Annular Aperture macro.*
%AMANN*
1,1,$1,0,0*
1,0,$2,0,0*
%
*
*
G04 Odd Aperture macro.*
%AMODD*
1,1,$1,0,0*
1,0,$1-0.005,0,0*
%
*
*
G04 PC Custom Aperture Macros*
*
*
*
*
*
*
G04 PC Aperture Table*
*
%ADD019C,0.03937*%
%ADD064C,0.001*%
%ADD080C,0.01181*%
%ADD131R,0.036X0.036*%
%ADD178R,0.038X0.03*%
%ADD186R,0.03X0.038*%
%ADD187R,0.09843X0.03937*%
%ADD192R,0.05213X0.05*%
%ADD223R,0.03937X0.05906*%
%ADD224R,0.03937X0.09843*%
%ADD228R,0.05X0.05213*%
%ADD230R,0.036X0.05*%
%ADD236R,0.00984X0.04724*%
%ADD237R,0.04724X0.00984*%
%ADD308O,0.04134X0.03937*%
%ADD309O,0.08661X0.04134*%
%ADD310R,0.025X0.02*%
%ADD313R,0.02X0.025*%
%ADD323R,0.0315X0.09449*%
%ADD324R,0.09449X0.0315*%
%ADD326R,0.04724X0.02362*%
%ADD327R,0.04724X0.06299*%
%ADD330R,0.05118X0.02283*%
%ADD331R,0.05118X0.0248*%
%ADD332R,0.06299X0.0748*%
%ADD339R,0.06496X0.01181*%
%ADD340R,0.01181X0.06496*%
%ADD369R,0.02283X0.05118*%
%ADD370R,0.0248X0.05118*%
%ADD371R,0.0748X0.06299*%
%ADD373O,0.03346X0.08661*%
%ADD374R,0.03346X0.08661*%
%ADD375R,0.03543X0.05531*%
%ADD390O,0.065X0.025*%
*
*
*
*
G04 PC Circuitry*
G04 Layer Name stm32l151_nbiot_parking - circuitry*
%LPD*%
*
*
G04 PC Custom Flashes*
G04 Layer Name stm32l151_nbiot_parking - flashes*
%LPD*%
*
*
G04 PC Circuitry*
G04 Layer Name stm32l151_nbiot_parking - circuitry*
%LPD*%
*
G54D19*
G01X770260Y1197669D03*
X1090138Y1024991D03*
X1108457Y1136821D03*
X936250Y1164927D03*
G54D64*
G54D80*
X979475Y1150660D02*
X981719D01*
Y1155384*
X979475*
Y1150660*
X979750D02*
Y1155384D01*
X980341Y1150660D02*
Y1155384D01*
X980931Y1150660D02*
Y1155384D01*
X981522Y1150660D02*
Y1155384D01*
X986050Y1150660D02*
X988194D01*
Y1155384*
X986050*
Y1150660*
X986246D02*
Y1155384D01*
X986837Y1150660D02*
Y1155384D01*
X987427Y1150660D02*
Y1155384D01*
X988018Y1150660D02*
Y1155384D01*
G54D131*
X992057Y1101251D03*
X984557D03*
X1044642Y1063862D03*
X1037142D03*
X872140Y1155516D03*
X879640D03*
X871567Y1066614D03*
X864067D03*
X1033705Y1119735D03*
X1041205D03*
G54D178*
X863506Y1098553D03*
X869706D03*
X914743Y1101678D03*
X908543D03*
X975505Y1121972D03*
X969305D03*
X1003317Y1172977D03*
X1009517D03*
X936171Y1105353D03*
X929971D03*
Y1124852D03*
X936171D03*
X934350Y1157474D03*
X928150D03*
X859055Y1050476D03*
X865255D03*
X823072Y1117106D03*
X829272D03*
X823072Y1111200D03*
X829272D03*
X859055Y1044571D03*
X865255D03*
X859055Y1038665D03*
X865255D03*
X954540Y1121972D03*
X960740D03*
X954892Y1172975D03*
X948692D03*
X967095Y1186028D03*
X960895D03*
X967095Y1192249D03*
X960895D03*
X829272Y1105295D03*
X823072D03*
X1003317Y1178489D03*
X1009517D03*
Y1167465D03*
X1003317D03*
X905462Y1170599D03*
X899262D03*
X905462Y1176224D03*
X899262D03*
X929971Y1130758D03*
X936171D03*
X966783Y1156166D03*
X960583D03*
X936171Y1118946D03*
X929971D03*
X905462Y1164974D03*
X899262D03*
X829272Y1099389D03*
X823072D03*
G54D186*
X868735Y1142003D03*
Y1135803D03*
X859007Y1060399D03*
Y1066599D03*
X979055Y1101152D03*
Y1094952D03*
X967244Y1101152D03*
Y1094952D03*
X973149Y1101152D03*
Y1094952D03*
X948692Y1164515D03*
Y1158315D03*
X934237Y1183593D03*
Y1189793D03*
X986624Y1134431D03*
Y1140631D03*
X961323Y1179176D03*
Y1172976D03*
X967495D03*
Y1179176D03*
X1048538Y1167363D03*
Y1161163D03*
X835812Y1099095D03*
Y1105295D03*
X997874Y1149955D03*
Y1156155D03*
X955433Y1101152D03*
Y1094952D03*
X961338Y1101152D03*
Y1094952D03*
G54D187*
X1024475Y1161162D03*
Y1172973D03*
X1038225Y1161162D03*
Y1172974D03*
G54D192*
X978526Y1131632D03*
Y1140632D03*
G54D223*
X870468Y1173323D03*
X880890D03*
G54D224*
X873890Y1018298D03*
X862079D03*
X989790Y1153022D03*
X977979D03*
G54D228*
X926182Y1192005D03*
X917182D03*
X965745Y1164040D03*
X956745D03*
G54D230*
X988307Y1093251D03*
X1040892Y1055862D03*
X875890Y1163516D03*
X867817Y1058614D03*
X1037455Y1127735D03*
G54D236*
X898468Y1134708D03*
X896500D03*
X894531D03*
X892563D03*
X890594D03*
X888626D03*
X886657D03*
X884689D03*
X882720D03*
X880752D03*
X878783D03*
X876815D03*
Y1101598D03*
X878783D03*
X880752D03*
X882720D03*
X884689D03*
X886657D03*
X888626D03*
X890594D03*
X892563D03*
X894531D03*
X896500D03*
X898468D03*
G54D237*
X904177Y1107306D03*
Y1109275D03*
Y1111243D03*
Y1113212D03*
Y1115180D03*
Y1117149D03*
Y1119117D03*
Y1121086D03*
Y1123054D03*
Y1125023D03*
Y1126991D03*
Y1128960D03*
X871106D03*
Y1126991D03*
Y1125023D03*
Y1123054D03*
Y1121086D03*
Y1119117D03*
Y1117149D03*
Y1115180D03*
Y1113212D03*
Y1111243D03*
Y1109275D03*
Y1107306D03*
G54D308*
X985981Y1059684D03*
G54D309*
X991985Y1065491D03*
Y1053877D03*
G54D310*
X804329Y1111105D03*
X799329D03*
X804329Y1122980D03*
X799329D03*
X976988Y1059679D03*
X971988D03*
G54D313*
X980393Y1059666D03*
Y1054666D03*
X968582Y1059666D03*
Y1054666D03*
X804329Y1114543D03*
Y1119543D03*
G54D323*
X890624Y1015552D03*
X895624D03*
X900624D03*
X905624D03*
X910624D03*
X915624D03*
X920624D03*
X925624D03*
X930624D03*
X935624D03*
X940624D03*
X945624D03*
X950624D03*
Y1078584D03*
X945624D03*
X940624D03*
X935624D03*
X930624D03*
X925624D03*
X920624D03*
X915624D03*
X910624D03*
X905624D03*
X900624D03*
X895624D03*
X890624D03*
G54D324*
X959994Y1029568D03*
Y1034568D03*
Y1039568D03*
Y1044568D03*
Y1049568D03*
Y1054568D03*
Y1059568D03*
Y1064568D03*
X881254D03*
Y1059568D03*
Y1054568D03*
Y1049568D03*
Y1044568D03*
Y1039568D03*
Y1034568D03*
Y1029568D03*
G54D326*
X911325Y1110194D03*
Y1114132D03*
G54D327*
X936168Y1112084D03*
G54D330*
X969640Y1134728D03*
Y1146539D03*
G54D331*
Y1140633D03*
G54D332*
X957829D03*
G54D339*
X932579Y1170615D03*
Y1172583D03*
Y1174552D03*
Y1176520D03*
X917815D03*
Y1174552D03*
Y1172583D03*
Y1170615D03*
G54D340*
X922244Y1166186D03*
X924213D03*
X926181D03*
X928150D03*
Y1180950D03*
X926181D03*
X924213D03*
X922244D03*
G54D369*
X1037256Y1151722D03*
X1025445D03*
G54D370*
X1031350D03*
G54D371*
Y1139911D03*
G54D373*
X854173Y1196730D03*
X849173D03*
X844173D03*
X839173D03*
X834173D03*
X829173D03*
X824173D03*
X819173D03*
X814173D03*
X809173D03*
X804173D03*
G54D374*
X799173D03*
G54D375*
X799381Y1129127D03*
X804381D03*
X849775Y1129025D03*
X854775D03*
G54D390*
X995166Y1167977D03*
Y1172977D03*
Y1177977D03*
Y1182977D03*
X975481D03*
Y1177977D03*
Y1172977D03*
Y1167977D03*
X0Y0D02*
M02*
