*
*
G04 PADS 9.5 Build Number: 522968 generated Gerber (RS-274-X) file*
G04 PC Version=2.1*
*
%IN "stm32l151_nbiot_parking"*%
*
%MOIN*%
*
%FSLAX35Y35*%
*
*
*
*
G04 PC Standard Apertures*
*
*
G04 Thermal Relief Aperture macro.*
%AMTER*
1,1,$1,0,0*
1,0,$1-$2,0,0*
21,0,$3,$4,0,0,45*
21,0,$3,$4,0,0,135*
%
*
*
G04 Annular Aperture macro.*
%AMANN*
1,1,$1,0,0*
1,0,$2,0,0*
%
*
*
G04 Odd Aperture macro.*
%AMODD*
1,1,$1,0,0*
1,0,$1-0.005,0,0*
%
*
*
G04 PC Custom Aperture Macros*
*
*
*
*
*
*
G04 PC Aperture Table*
*
%ADD049C,0.01*%
%ADD051C,0.012*%
%ADD063C,0.005*%
%ADD064C,0.001*%
%ADD065C,0.00787*%
%ADD080C,0.01181*%
%ADD087C,0.004*%
%ADD138C,0.00591*%
%ADD146C,0.00394*%
%ADD344C,0.0025*%
%ADD395C,0.00394*%
*
*
*
*
G04 PC Circuitry*
G04 Layer Name stm32l151_nbiot_parking - circuitry*
%LPD*%
*
*
G04 PC Custom Flashes*
G04 Layer Name stm32l151_nbiot_parking - flashes*
%LPD*%
*
*
G04 PC Circuitry*
G04 Layer Name stm32l151_nbiot_parking - circuitry*
%LPD*%
*
G54D49*
G01X898000Y1171428D02*
Y1172428D01*
G54D51*
X947209Y1179823D02*
X1007209D01*
Y1203446*
X947209Y1203445*
Y1179823*
X1008534D02*
X1058534D01*
Y1203445*
X1008534*
Y1179823*
X1115854Y1143401D02*
X1065854D01*
Y1119779*
X1115854*
Y1143401*
X1114563Y1044024D02*
G75*
G03X1114563I-9500J0D01*
G01X1090110D02*
G03X1090110I-9500J0D01*
G01Y1105582D02*
G03X1090110I-9500J0D01*
G01X1114563D02*
G03X1114563I-9500J0D01*
G01X953068Y1000263D02*
X988659D01*
Y1023885*
X953068*
Y1000263*
G54D63*
X879706Y1169415D02*
X874906D01*
Y1174415*
X879706*
X882106Y1169415D02*
X886906D01*
Y1174415*
X882106*
X879706Y1163116D02*
X874906D01*
Y1168116*
X879706*
X882106Y1163116D02*
X886906D01*
Y1168116*
X882106*
X879706Y1175714D02*
X874906D01*
Y1180714*
X879706*
X882106Y1175714D02*
X886906D01*
Y1180714*
X882106*
X777666Y1145010D02*
Y1140924D01*
X772666D02*
G03X777666I2500J2589D01*
G01X772666D02*
Y1145010D01*
X777666Y1147410D02*
Y1151828D01*
X777662Y1151830D02*
G03X772662Y1151826I-2496J-3660D01*
G01X772666Y1151828D02*
Y1147410D01*
X784133Y1145053D02*
Y1140253D01*
X779133*
Y1145053*
X784133Y1147453D02*
Y1152253D01*
X779133*
Y1147453*
X935603Y1042107D02*
Y1038021D01*
X930603D02*
G03X935603I2500J2589D01*
G01X930603D02*
Y1042107D01*
X935603Y1044507D02*
Y1048925D01*
X935600Y1048927D02*
G03X930600Y1048923I-2497J-3660D01*
G01X930603Y1048925D02*
Y1044507D01*
X784133Y1124674D02*
Y1119874D01*
X779133*
Y1124674*
X784133Y1127074D02*
Y1131874D01*
X779133*
Y1127074*
X834368Y1114204D02*
Y1119004D01*
X839368*
Y1114204*
X834368Y1111804D02*
Y1107004D01*
X839368*
Y1111804*
X840592Y1114204D02*
Y1119004D01*
X845592*
Y1114204*
X840592Y1111804D02*
Y1107004D01*
X845592*
Y1111804*
X804805Y1158095D02*
Y1154009D01*
X799805D02*
G03X804805I2500J2589D01*
G01X799805D02*
Y1158095D01*
X804805Y1160495D02*
Y1164913D01*
X804802Y1164916D02*
G03X799802Y1164911I-2497J-3661D01*
G01X799805Y1164913D02*
Y1160495D01*
X811616D02*
Y1164581D01*
X816616D02*
G03X811616I-2500J-2588D01*
G01X816616D02*
Y1160495D01*
X811616Y1158095D02*
Y1153677D01*
X811619Y1153675D02*
G03X816619Y1153680I2497J3660D01*
G01X816616Y1153677D02*
Y1158095D01*
X805711Y1160495D02*
Y1164581D01*
X810711D02*
G03X805711I-2500J-2588D01*
G01X810711D02*
Y1160495D01*
X805711Y1158095D02*
Y1153677D01*
X805714Y1153675D02*
G03X810714Y1153680I2497J3660D01*
G01X810711Y1153677D02*
Y1158095D01*
X798900D02*
Y1154009D01*
X793900D02*
G03X798900I2500J2589D01*
G01X793900D02*
Y1158095D01*
X798900Y1160495D02*
Y1164913D01*
X798896Y1164916D02*
G03X793896Y1164911I-2496J-3661D01*
G01X793900Y1164913D02*
Y1160495D01*
X907000Y1168928D02*
Y1166428D01*
X902000*
X907000Y1174928D02*
Y1177428D01*
X902000*
X929665Y1042107D02*
Y1037307D01*
X924665*
Y1042107*
X929665Y1044507D02*
Y1049307D01*
X924665*
Y1044507*
X894810Y1173780D02*
Y1170499D01*
Y1173780D02*
X893788D01*
X893447Y1173624*
X893333Y1173467*
X893220Y1173155*
Y1172842*
X893333Y1172530*
X893447Y1172374*
X893788Y1172217*
X894810*
X894015D02*
X893220Y1170499D01*
X891970Y1173780D02*
X890720D01*
X891401Y1172530*
X891060*
X890833Y1172374*
X890720Y1172217*
X890606Y1171749*
Y1171436*
X890720Y1170967*
X890947Y1170655*
X891288Y1170499*
X891629*
X891970Y1170655*
X892083Y1170811*
X892197Y1171124*
X888106Y1172686D02*
X888220Y1172217D01*
X888447Y1171905*
X888788Y1171749*
X888901*
X889242Y1171905*
X889470Y1172217*
X889583Y1172686*
Y1172842*
X889470Y1173311*
X889242Y1173624*
X888901Y1173780*
X888788*
X888447Y1173624*
X888220Y1173311*
X888106Y1172686*
Y1171905*
X888220Y1171124*
X888447Y1170655*
X888788Y1170499*
X889015*
X889356Y1170655*
X889470Y1170967*
X895025Y1167003D02*
Y1163722D01*
Y1167003D02*
X894003D01*
X893662Y1166847*
X893548Y1166690*
X893434Y1166378*
Y1166065*
X893548Y1165753*
X893662Y1165597*
X894003Y1165440*
X895025*
X894230D02*
X893434Y1163722D01*
X892184Y1167003D02*
X890934D01*
X891616Y1165753*
X891275*
X891048Y1165597*
X890934Y1165440*
X890821Y1164972*
Y1164659*
X890934Y1164190*
X891162Y1163878*
X891503Y1163722*
X891843*
X892184Y1163878*
X892298Y1164034*
X892412Y1164347*
X889230Y1167003D02*
X889571Y1166847D01*
X889684Y1166534*
Y1166222*
X889571Y1165909*
X889343Y1165753*
X888889Y1165597*
X888548Y1165440*
X888321Y1165128*
X888207Y1164815*
Y1164347*
X888321Y1164034*
X888434Y1163878*
X888775Y1163722*
X889230*
X889571Y1163878*
X889684Y1164034*
X889798Y1164347*
Y1164815*
X889684Y1165128*
X889457Y1165440*
X889116Y1165597*
X888662Y1165753*
X888434Y1165909*
X888321Y1166222*
Y1166534*
X888434Y1166847*
X888775Y1167003*
X889230*
X894596Y1179854D02*
Y1176572D01*
Y1179854D02*
X893573D01*
X893232Y1179697*
X893118Y1179541*
X893005Y1179229*
Y1178916*
X893118Y1178604*
X893232Y1178447*
X893573Y1178291*
X894596*
X893800D02*
X893005Y1176572D01*
X890846Y1179854D02*
X891982Y1177666D01*
X890277*
X890846Y1179854D02*
Y1176572D01*
X888573Y1179854D02*
X888914Y1179697D01*
X889141Y1179229*
X889255Y1178447*
Y1177979*
X889141Y1177197*
X888914Y1176729*
X888573Y1176572*
X888346*
X888005Y1176729*
X887777Y1177197*
X887664Y1177979*
Y1178447*
X887777Y1179229*
X888005Y1179697*
X888346Y1179854*
X888573*
G54D64*
G54D65*
X831725Y1117812D02*
Y1057812D01*
X766725*
Y1117812*
X831725*
G54D80*
X763780Y1055118D02*
Y1216535D01*
X830709*
Y1204724*
X1059843*
Y1145669*
X1118110*
Y1094488*
X1066929*
Y1055118*
X1118110*
Y1000000*
X862205*
X803150Y1055118*
X763780*
X1000000Y1137795D02*
Y1000000D01*
X1011811Y1149606D02*
Y1000000D01*
X822835Y1204724D02*
Y1137795D01*
X1000000*
X834646Y1149606D02*
X1011811D01*
X834646D02*
Y1204724D01*
X1000000Y1039370D02*
X964567D01*
Y1051181*
X1000000*
Y1039370*
G54D87*
X880476Y1170695D02*
Y1173305D01*
X880546Y1170625D02*
G03Y1171925I237J650D01*
G01X880506Y1172035D02*
X881636Y1173165D01*
X880476Y1164396D02*
Y1167006D01*
X880546Y1164326D02*
G03Y1165626I237J650D01*
G01X880506Y1165736D02*
X881636Y1166866D01*
X880476Y1176994D02*
Y1179604D01*
X880546Y1176924D02*
G03Y1178224I237J650D01*
G01X880506Y1178334D02*
X881636Y1179464D01*
X774576Y1146370D02*
G03X776036I730J0D01*
G01X782853Y1145823D02*
X780243D01*
X782923Y1145893D02*
G03X781623I-650J237D01*
G01X781513Y1145853D02*
X780383Y1146983D01*
X932513Y1043467D02*
G03X933973I730J0D01*
G01X782853Y1125444D02*
X780243D01*
X782923Y1125514D02*
G03X781623I-650J236D01*
G01X781513Y1125474D02*
X780383Y1126604D01*
X835648Y1113434D02*
X838258D01*
X835578Y1113364D02*
G03X836878I650J-237D01*
G01X836988Y1113404D02*
X838118Y1112274D01*
X841872Y1113434D02*
X844482D01*
X841802Y1113364D02*
G03X843102I650J-237D01*
G01X843212Y1113404D02*
X844342Y1112274D01*
X801715Y1159455D02*
G03X803175I730J0D01*
G01X814706Y1159135D02*
G03X813246I-730J0D01*
G01X808801D02*
G03X807341I-730J0D01*
G01X795810Y1159455D02*
G03X797270I730J0D01*
G01X928385Y1042877D02*
X925775D01*
X928455Y1042947D02*
G03X927155I-650J237D01*
G01X927045Y1042907D02*
X925915Y1044037D01*
G54D138*
X793444Y1141918D02*
X817066D01*
Y1122233*
X793444*
Y1141918*
X985990Y1028584D02*
X982768D01*
X956431Y1030492D02*
Y1026395D01*
X958042Y1028443D02*
X954821D01*
X841167Y1066847D02*
X838751D01*
X830533Y1051156D02*
Y1047668D01*
Y1051156D02*
X829325D01*
X828922Y1050990*
X828788Y1050824*
X828654Y1050492*
Y1050159*
X828788Y1049827*
X828922Y1049661*
X829325Y1049495*
X830533*
X829593D02*
X828654Y1047668D01*
X827446Y1051156D02*
X825567Y1047668D01*
Y1051156D02*
X827446Y1047668D01*
X829597Y1041237D02*
Y1037749D01*
X830537Y1041237D02*
X828658D01*
X827450D02*
X825571Y1037749D01*
Y1041237D02*
X827450Y1037749D01*
X1045048Y1123316D02*
X1045183Y1123648D01*
X1045451Y1123981*
X1045720Y1124147*
X1046256*
X1046525Y1123981*
X1046793Y1123648*
X1046927Y1123316*
X1047062Y1122818*
Y1121988*
X1046927Y1121489*
X1046793Y1121157*
X1046525Y1120825*
X1046256Y1120659*
X1045720*
X1045451Y1120825*
X1045183Y1121157*
X1045048Y1121489*
X1043035Y1124147D02*
X1043304Y1123981D01*
X1043572Y1123648*
X1043706Y1123316*
X1043840Y1122818*
Y1121988*
X1043706Y1121489*
X1043572Y1121157*
X1043304Y1120825*
X1043035Y1120659*
X1042498*
X1042230Y1120825*
X1041961Y1121157*
X1041827Y1121489*
X1041693Y1121988*
Y1122818*
X1041827Y1123316*
X1041961Y1123648*
X1042230Y1123981*
X1042498Y1124147*
X1043035*
X1040485D02*
Y1120659D01*
Y1124147D02*
X1039411Y1120659D01*
X1038338Y1124147D02*
X1039411Y1120659D01*
X1038338Y1124147D02*
Y1120659D01*
X1034093Y1124029D02*
Y1120541D01*
X1032214Y1124029D02*
X1034093Y1121703D01*
X1033422Y1122534D02*
X1032214Y1120541D01*
X1030738Y1124029D02*
X1029261D01*
X1030067Y1122700*
X1029664*
X1029396Y1122534*
X1029261Y1122368*
X1029127Y1121869*
Y1121537*
X1029261Y1121039*
X1029530Y1120707*
X1029932Y1120541*
X1030335*
X1030738Y1120707*
X1030872Y1120873*
X1031006Y1121205*
X1055202Y1124176D02*
Y1120688D01*
X1053323Y1124176D02*
X1055202Y1121850D01*
X1054531Y1122681D02*
X1053323Y1120688D01*
X1051981Y1123345D02*
Y1123511D01*
X1051847Y1123843*
X1051712Y1124010*
X1051444Y1124176*
X1050907*
X1050639Y1124010*
X1050505Y1123843*
X1050370Y1123511*
Y1123179*
X1050505Y1122847*
X1050773Y1122349*
X1052115Y1120688*
X1050236*
X1063033Y1124078D02*
Y1120591D01*
X1061154Y1124078D02*
X1063033Y1121753D01*
X1062362Y1122584D02*
X1061154Y1120591D01*
X1059946Y1123414D02*
X1059677Y1123580D01*
X1059275Y1124078*
Y1120591*
X924896Y1115739D02*
Y1112251D01*
Y1115739D02*
X923017Y1112251D01*
Y1115739D02*
Y1112251D01*
X919796Y1114908D02*
X919930Y1115240D01*
X920199Y1115573*
X920467Y1115739*
X921004*
X921272Y1115573*
X921541Y1115240*
X921675Y1114908*
X921809Y1114410*
Y1113579*
X921675Y1113081*
X921541Y1112749*
X921272Y1112417*
X921004Y1112251*
X920467*
X920199Y1112417*
X919930Y1112749*
X919796Y1113081*
X935543Y1115718D02*
Y1112230D01*
X934335Y1115718D02*
Y1112230D01*
Y1115718D02*
X932591D01*
X934335Y1114057D02*
X933262D01*
X930577Y1115718D02*
X930846Y1115552D01*
X931114Y1115219*
X931248Y1114887*
X931383Y1114389*
Y1113558*
X931248Y1113060*
X931114Y1112728*
X930846Y1112396*
X930577Y1112230*
X930040*
X929772Y1112396*
X929504Y1112728*
X929369Y1113060*
X929235Y1113558*
Y1114389*
X929369Y1114887*
X929504Y1115219*
X929772Y1115552*
X930040Y1115718*
X930577*
X930175Y1112894D02*
X929369Y1111897D01*
X914911Y1115739D02*
Y1112251D01*
Y1115739D02*
X913032Y1112251D01*
Y1115739D02*
Y1112251D01*
X909811Y1114908D02*
X909945Y1115240D01*
X910213Y1115573*
X910482Y1115739*
X911018*
X911287Y1115573*
X911555Y1115240*
X911690Y1114908*
X911824Y1114410*
Y1113579*
X911690Y1113081*
X911555Y1112749*
X911287Y1112417*
X911018Y1112251*
X910482*
X910213Y1112417*
X909945Y1112749*
X909811Y1113081*
X854110Y1160088D02*
Y1156600D01*
Y1160088D02*
X852902D01*
X852500Y1159922*
X852365Y1159755*
X852231Y1159423*
Y1159091*
X852365Y1158759*
X852500Y1158593*
X852902Y1158427*
X854110*
X853171D02*
X852231Y1156600D01*
X851023Y1160088D02*
X849144Y1156600D01*
Y1160088D02*
X851023Y1156600D01*
X852797Y1169846D02*
Y1166358D01*
X853736Y1169846D02*
X851857D01*
X850649D02*
X848770Y1166358D01*
Y1169846D02*
X850649Y1166358D01*
X853160Y1147949D02*
X850744D01*
X852064Y1139278D02*
Y1136289D01*
X853272Y1137784D02*
X850856D01*
X865010Y1108937D02*
Y1105449D01*
Y1108937D02*
X864071D01*
X863668Y1108771*
X863400Y1108438*
X863266Y1108106*
X863131Y1107608*
Y1106778*
X863266Y1106279*
X863400Y1105947*
X863668Y1105615*
X864071Y1105449*
X865010*
X861924Y1108937D02*
Y1105449D01*
X858837Y1108438D02*
X859105Y1108771D01*
X859508Y1108937*
X860045*
X860045D02*
X860447Y1108771D01*
X860716Y1108438*
Y1108106*
X860581Y1107774*
X860447Y1107608*
X860179Y1107442*
X859373Y1107110*
X859105Y1106944*
X858971Y1106778*
X858837Y1106445*
Y1105947*
X859105Y1105615*
X859508Y1105449*
X860045*
X860045D02*
X860447Y1105615D01*
X860716Y1105947*
X855615Y1108106D02*
X855750Y1108438D01*
X856018Y1108771*
X856286Y1108937*
X856823*
X857092Y1108771*
X857360Y1108438*
X857494Y1108106*
X857629Y1107608*
Y1106778*
X857494Y1106279*
X857360Y1105947*
X857092Y1105615*
X856823Y1105449*
X856286*
X856018Y1105615*
X855750Y1105947*
X855615Y1106279*
X880423Y1130348D02*
Y1126860D01*
Y1130348D02*
X879215D01*
X878812Y1130181*
X878678Y1130015*
X878544Y1129683*
Y1129185*
X878678Y1128853*
X878812Y1128687*
X879215Y1128521*
X880423*
X877336Y1130348D02*
X876665Y1126860D01*
X875993Y1130348D02*
X876665Y1126860D01*
X875993Y1130348D02*
X875322Y1126860D01*
X874651Y1130348D02*
X875322Y1126860D01*
X873443Y1130348D02*
Y1126860D01*
Y1130348D02*
X872235D01*
X871833Y1130181*
X871699Y1130015*
X871564Y1129683*
Y1129351*
X871699Y1129019*
X871833Y1128853*
X872235Y1128687*
X873443*
X872504D02*
X871564Y1126860D01*
X868343Y1129517D02*
X868477Y1129849D01*
X868746Y1130181*
X869014Y1130348*
X869551*
X869819Y1130181*
X870088Y1129849*
X870222Y1129517*
X870356Y1129019*
Y1128188*
X870222Y1127690*
X870088Y1127358*
X869819Y1127026*
X869551Y1126860*
X869014*
X868746Y1127026*
X868477Y1127358*
X868343Y1127690*
X852177Y1179900D02*
X852446Y1180233D01*
X852848Y1180399*
X853385*
X853788Y1180233*
X854056Y1179900*
Y1179568*
X853922Y1179236*
X853788Y1179070*
X853520Y1178904*
X852714Y1178572*
X852446Y1178406*
X852312Y1178240*
X852312D02*
X852177Y1177907D01*
Y1177409*
X852446Y1177077*
X852848Y1176911*
X853385*
X853788Y1177077*
X854056Y1177409*
X850030Y1180399D02*
Y1176911D01*
X850969Y1180399D02*
X849090D01*
X846809D02*
X847882Y1176911D01*
X846809Y1180399D02*
X845735Y1176911D01*
X847480Y1178073D02*
X846138D01*
X843588Y1180399D02*
Y1176911D01*
X844527Y1180399D02*
X842648D01*
X1039204Y1177554D02*
Y1174564D01*
X1040412Y1176059D02*
X1037996D01*
X1017647Y1176003D02*
X1015231D01*
X1026724Y1177750D02*
Y1174262D01*
Y1177750D02*
X1025785D01*
X1025382Y1177584*
X1025114Y1177252*
X1024980Y1176920*
X1024845Y1176422*
Y1175591*
X1024980Y1175093*
X1025114Y1174761*
X1025382Y1174429*
X1025785Y1174262*
X1026724*
X1023637Y1177750D02*
Y1174262D01*
X1021624Y1177750D02*
X1021893Y1177584D01*
X1022161Y1177252*
X1022295Y1176920*
X1022429Y1176422*
Y1175591*
X1022295Y1175093*
X1022161Y1174761*
X1021893Y1174429*
X1021624Y1174262*
X1021087*
X1020819Y1174429*
X1020550Y1174761*
X1020416Y1175093*
X1020282Y1175591*
Y1176422*
X1020416Y1176920*
X1020550Y1177252*
X1020819Y1177584*
X1021087Y1177750*
X1021624*
X1034564Y1176887D02*
X1034698Y1177219D01*
X1034967Y1177552*
X1035235Y1177718*
X1035772*
X1036041Y1177552*
X1036309Y1177219*
X1036443Y1176887*
X1036577Y1176389*
Y1175558*
X1036443Y1175060*
X1036309Y1174728*
X1036041Y1174396*
X1035772Y1174230*
X1035235*
X1034967Y1174396*
X1034698Y1174728*
X1034564Y1175060*
X1033356Y1177718D02*
Y1174230D01*
X1031746*
X1030538Y1177718D02*
Y1174230D01*
X1028659Y1177718D02*
X1030538Y1175392D01*
X1029867Y1176223D02*
X1028659Y1174230D01*
X997843Y1178517D02*
Y1175528D01*
X999051Y1177022D02*
X996635D01*
X989083Y1176478D02*
X986667D01*
X952552Y1177538D02*
X952687Y1177870D01*
X952955Y1178202*
X953223Y1178369*
X953760*
X954029Y1178202*
X954297Y1177870*
X954431Y1177538*
X954566Y1177040*
Y1176209*
X954431Y1175711*
X954297Y1175379*
X954029Y1175047*
X953760Y1174881*
X953223*
X952955Y1175047*
X952687Y1175379*
X952552Y1175711*
X951344Y1178369D02*
Y1174881D01*
X949465Y1178369D02*
X951344Y1176043D01*
X950673Y1176874D02*
X949465Y1174881D01*
X948123Y1177538D02*
Y1177704D01*
X947989Y1178036*
X947855Y1178202*
X947586Y1178369*
X947050*
X946781Y1178202*
X946647Y1178036*
X946513Y1177704*
Y1177372*
X946647Y1177040*
X946915Y1176542*
X948257Y1174881*
X946378*
X960036Y1178156D02*
Y1174668D01*
X960975Y1178156D02*
X959096D01*
X957888D02*
X956009Y1174668D01*
Y1178156D02*
X957888Y1174668D01*
X967776Y1178387D02*
Y1174899D01*
Y1178387D02*
X966568D01*
X966165Y1178221*
X966031Y1178055*
X965897Y1177723*
Y1177390*
X966031Y1177058*
X966165Y1176892*
X966568Y1176726*
X967776*
X966836D02*
X965897Y1174899D01*
X964689Y1178387D02*
X962810Y1174899D01*
Y1178387D02*
X964689Y1174899D01*
X769881Y1203755D02*
Y1200765D01*
X771089Y1202260D02*
X768673D01*
X778444Y1202152D02*
X776028D01*
X804232Y1203971D02*
Y1200483D01*
Y1203971D02*
X803024D01*
X802622Y1203805*
X802487Y1203639*
X802353Y1203307*
Y1202974*
X802487Y1202642*
X802622Y1202476*
X803024Y1202310*
X804232*
X803293D02*
X802353Y1200483D01*
X801145Y1203971D02*
X799266Y1200483D01*
Y1203971D02*
X801145Y1200483D01*
X795184Y1203819D02*
Y1200331D01*
X796123Y1203819D02*
X794244D01*
X793036D02*
X791157Y1200331D01*
Y1203819D02*
X793036Y1200331D01*
X787533Y1203031D02*
X787667Y1203364D01*
X787935Y1203696*
X788204Y1203862*
X788741*
X789009Y1203696*
X789277Y1203364*
X789277D02*
X789412Y1203031D01*
X789546Y1202533*
Y1201703*
X789412Y1201204*
X789277Y1200872*
X789277D02*
X789009Y1200540D01*
X788741Y1200374*
X788204*
X787935Y1200540*
X787667Y1200872*
X787533Y1201204*
X786325Y1203862D02*
Y1200374D01*
X784446Y1203862D02*
X786325Y1201537D01*
X785654Y1202367D02*
X784446Y1200374D01*
X783104Y1203031D02*
Y1203198D01*
X782969Y1203530*
X782835Y1203696*
X782567Y1203862*
X782030*
X781761Y1203696*
X781627Y1203530*
X781493Y1203198*
Y1202865*
X781627Y1202533*
X781896Y1202035*
X783238Y1200374*
X781359*
X819394Y1204187D02*
Y1200699D01*
X817515Y1204187D02*
X819394Y1201862D01*
X818723Y1202693D02*
X817515Y1200699D01*
X816173Y1203357D02*
Y1203523D01*
X816038Y1203855*
X815904Y1204021*
X815636Y1204187*
X815099*
X814830Y1204021*
X814696Y1203855*
X814562Y1203523*
Y1203191*
X814696Y1202859*
X814965Y1202360*
X816307Y1200699*
X814428*
X810860Y1204170D02*
Y1200682D01*
X808981Y1204170D02*
X810860Y1201845D01*
X810188Y1202676D02*
X808981Y1200682D01*
X807773Y1203506D02*
X807504Y1203672D01*
X807102Y1204170*
Y1200682*
X829534Y1204169D02*
Y1200681D01*
X827655Y1204169D02*
X829534Y1201844D01*
X828863Y1202674D02*
X827655Y1200681D01*
X826179Y1204169D02*
X824702D01*
X825508Y1202840*
X825105*
X824837Y1202674*
X824702Y1202508*
X824568Y1202010*
Y1201678*
X824702Y1201179*
X824971Y1200847*
X825373Y1200681*
X825776*
X826179Y1200847*
X826313Y1201013*
X826447Y1201345*
G54D146*
X908304Y1020920D02*
X905889D01*
X917446Y1022587D02*
Y1019487D01*
X918654Y1021037D02*
X916238D01*
X932385Y1022034D02*
X931669Y1019709D01*
X930953Y1022034D02*
X931669Y1019709D01*
X929521Y1022034D02*
Y1019709D01*
X930148Y1022034D02*
X928895D01*
X928090D02*
Y1020373D01*
X928000Y1020041*
X927821Y1019819*
X927553Y1019709*
X927374*
X927105Y1019819*
X926926Y1020041*
X926837Y1020373*
Y1022034*
X926032D02*
Y1019709D01*
Y1022034D02*
X924779Y1019709D01*
Y1022034D02*
Y1019709D01*
X923974Y1022034D02*
Y1019709D01*
Y1022034D02*
X922810D01*
X923974Y1020927D02*
X923258D01*
X923974Y1019709D02*
X922810D01*
X944697Y1022034D02*
X943981Y1019709D01*
X943265Y1022034D02*
X943981Y1019709D01*
X942460Y1022034D02*
Y1019709D01*
Y1022034D02*
X941655D01*
X941386Y1021923*
X941297Y1021813*
X941297D02*
X941207Y1021591D01*
Y1021259*
X941297Y1021037*
X941386Y1020927*
X941655Y1020816*
X942460*
X939776Y1022034D02*
Y1019709D01*
X940402Y1022034D02*
X939149D01*
X937628D02*
X938344Y1019709D01*
X937628Y1022034D02*
X936912Y1019709D01*
X938076Y1020484D02*
X937181D01*
X935481Y1022034D02*
Y1019709D01*
X936107Y1022034D02*
X934854D01*
G54D344*
X1006930Y1177862D02*
Y1175362D01*
X1007043Y1174893*
X1007157Y1174737*
X1007384Y1174580*
X1007611*
X1007839Y1174737*
X1007952Y1174893*
X1008066Y1175362*
Y1175674*
X1005907Y1177237D02*
X1005680Y1177393D01*
X1005339Y1177862*
Y1174580*
X1004202Y1177080D02*
Y1177237D01*
X1004089Y1177549*
X1003975Y1177705*
X1003748Y1177862*
X1003293*
X1003066Y1177705*
X1002952Y1177549*
X1002839Y1177237*
Y1176924*
X1002952Y1176612*
X1003180Y1176143*
X1004316Y1174580*
X1002725*
X776482Y1155889D02*
X776572Y1156135D01*
X776751Y1156381*
X776930Y1156504*
X777288*
X777467Y1156381*
X777646Y1156135*
X777735Y1155889*
X777825Y1155520*
Y1154905*
X777735Y1154536*
X777646Y1154290*
X777467Y1154044*
X777288Y1153921*
X776930*
X776751Y1154044*
X776572Y1154290*
X776482Y1154536*
X775588Y1155889D02*
Y1156012D01*
X775498Y1156258*
X775409Y1156381*
X775230Y1156504*
X774872*
X774693Y1156381*
X774603Y1156258*
X774514Y1156012*
Y1155766*
X774603Y1155520*
X774782Y1155151*
X775677Y1153921*
X774424*
X772456Y1155643D02*
X772545Y1155274D01*
X772724Y1155028*
X772993Y1154905*
X773082*
X773351Y1155028*
X773530Y1155274*
X773619Y1155643*
Y1155766*
X773530Y1156135*
X773351Y1156381*
X773082Y1156504*
X772993*
X772724Y1156381*
X772545Y1156135*
X772456Y1155643*
Y1155028*
X772545Y1154413*
X772724Y1154044*
X772993Y1153921*
X773172*
X773440Y1154044*
X773530Y1154290*
X830833Y1055686D02*
Y1053718D01*
X830923Y1053349*
X831012Y1053226*
X831191Y1053103*
X831370*
X831549Y1053226*
X831638Y1053349*
X831728Y1053718*
Y1053964*
X828865Y1055686D02*
X829759D01*
X829849Y1054579*
X829759Y1054702*
X829491Y1054825*
X829223*
X828954Y1054702*
X828775Y1054456*
X828686Y1054087*
X828775Y1053841*
X828865Y1053472*
X829044Y1053226*
X829312Y1053103*
X829580*
X829849Y1053226*
X829938Y1053349*
X830028Y1053595*
X783820Y1156504D02*
Y1153921D01*
Y1156504D02*
X783015D01*
X782747Y1156381*
X782657Y1156258*
X782568Y1156012*
Y1155766*
X782657Y1155520*
X782747Y1155397*
X783015Y1155274*
X783820*
X783194D02*
X782568Y1153921D01*
X781762Y1156012D02*
X781583Y1156135D01*
X781315Y1156504*
Y1153921*
X780331Y1156504D02*
X779347D01*
X779883Y1155520*
X779615*
X779436Y1155397*
X779347Y1155274*
X779257Y1154905*
Y1154659*
X779347Y1154290*
X779525Y1154044*
X779794Y1153921*
X780062*
X780331Y1154044*
X780420Y1154167*
X780510Y1154413*
X933123Y1053318D02*
X933237Y1053630D01*
X933464Y1053943*
X933691Y1054099*
X934146*
X934373Y1053943*
X934601Y1053630*
X934714Y1053318*
X934828Y1052849*
Y1052068*
X934714Y1051599*
X934601Y1051286*
X934373Y1050974*
X934146Y1050818*
X933691*
X933464Y1050974*
X933237Y1051286*
X933123Y1051599*
X932101Y1053474D02*
X931873Y1053630D01*
X931532Y1054099*
Y1050818*
X834287Y1129891D02*
X836631D01*
X837099Y1129777*
X837412Y1129550*
X837568Y1129209*
Y1128982*
X837412Y1128641*
X837099Y1128414*
X836631Y1128300*
X834287*
Y1125800D02*
Y1126937D01*
X835693Y1127050*
X835537Y1126937*
X835381Y1126596*
Y1126255*
X835537Y1125914*
X835849Y1125687*
X836318Y1125573*
X836631Y1125687*
X837099Y1125800*
X837412Y1126027*
X837568Y1126368*
Y1126709*
X837412Y1127050*
X837256Y1127164*
X836943Y1127277*
X823623Y1145388D02*
Y1143543D01*
X823533Y1143174*
X823354Y1142928*
X823086Y1142805*
X822907*
X822639Y1142928*
X822460Y1143174*
X822370Y1143543*
Y1145388*
X821565Y1144896D02*
X821386Y1145019D01*
X821118Y1145388*
Y1142805*
X819239Y1145019D02*
X819328Y1145265D01*
X819596Y1145388*
X819775*
X820044Y1145265*
X820223Y1144896*
X820312Y1144281*
Y1143666*
X820223Y1143174*
X820044Y1142928*
X819775Y1142805*
X819686*
X819417Y1142928*
X819239Y1143174*
X819149Y1143543*
Y1143666*
X819239Y1144035*
X819417Y1144281*
X819686Y1144404*
X819775*
X820044Y1144281*
X820223Y1144035*
X820312Y1143666*
X777668Y1123436D02*
Y1120853D01*
Y1123436D02*
X776863D01*
X776595Y1123313*
X776505Y1123190*
X776416Y1122944*
Y1122698*
X776505Y1122452*
X776595Y1122329*
X776863Y1122206*
X777668*
X777042D02*
X776416Y1120853D01*
X775610Y1122944D02*
X775431Y1123067D01*
X775163Y1123436*
Y1120853*
X773821Y1123436D02*
X774089Y1123313D01*
X774268Y1122944*
X774358Y1122329*
Y1121960*
X774268Y1121345*
X774089Y1120976*
X773821Y1120853*
X773642*
X773373Y1120976*
X773195Y1121345*
X773105Y1121960*
Y1122329*
X773195Y1122944*
X773373Y1123313*
X773642Y1123436*
X773821*
X838658Y1122581D02*
Y1119997D01*
Y1122581D02*
X837853D01*
X837585Y1122458*
X837495Y1122335*
X837406Y1122089*
Y1121843*
X837495Y1121597*
X837585Y1121474*
X837853Y1121351*
X838658*
X838032D02*
X837406Y1119997D01*
X836600Y1122089D02*
X836421Y1122212D01*
X836153Y1122581*
Y1119997*
X835258Y1121966D02*
Y1122089D01*
X835169Y1122335*
X835079Y1122458*
X834900Y1122581*
X834542*
X834363Y1122458*
X834274Y1122335*
X834184Y1122089*
Y1121843*
X834274Y1121597*
X834453Y1121228*
X835348Y1119997*
X834095*
X845103Y1122640D02*
Y1120056D01*
Y1122640D02*
X844298D01*
X844029Y1122517*
X843940Y1122394*
X843851Y1122148*
Y1121901*
X843940Y1121655*
X844029Y1121532*
X844298Y1121409*
X845103*
X844477D02*
X843851Y1120056D01*
X843045Y1122148D02*
X842866Y1122271D01*
X842598Y1122640*
Y1120056*
X841793Y1122148D02*
X841614Y1122271D01*
X841345Y1122640*
Y1120056*
X803253Y1168344D02*
X803342Y1168590D01*
X803521Y1168836*
X803700Y1168959*
X804058*
X804237Y1168836*
X804416Y1168590*
X804505Y1168344*
X804595Y1167975*
Y1167360*
X804505Y1166991*
X804416Y1166745*
X804237Y1166499*
X804058Y1166376*
X803700*
X803521Y1166499*
X803342Y1166745*
X803253Y1166991*
X802269Y1168959D02*
X801284D01*
X801821Y1167975*
X801553*
X801374Y1167852*
X801284Y1167729*
X801195Y1167360*
Y1167114*
X801284Y1166745*
X801463Y1166499*
X801732Y1166376*
X802000*
X802269Y1166499*
X802358Y1166622*
X802448Y1166868*
X800390Y1168467D02*
X800211Y1168590D01*
X799942Y1168959*
Y1166376*
X815535Y1168475D02*
X815625Y1168721D01*
X815804Y1168967*
X815983Y1169090*
X816341*
X816519Y1168967*
X816698Y1168721*
X816788Y1168475*
X816877Y1168106*
Y1167491*
X816788Y1167122*
X816698Y1166876*
X816519Y1166630*
X816341Y1166507*
X815983*
X815804Y1166630*
X815625Y1166876*
X815535Y1167122*
X814640Y1168475D02*
Y1168598D01*
X814551Y1168844*
X814461Y1168967*
X814283Y1169090*
X813925*
X813746Y1168967*
X813656Y1168844*
X813567Y1168598*
Y1168352*
X813656Y1168106*
X813835Y1167737*
X814730Y1166507*
X813477*
X812225Y1169090D02*
X812493Y1168967D01*
X812582Y1168721*
Y1168475*
X812493Y1168229*
X812314Y1168106*
X811956Y1167983*
X811688Y1167860*
X811509Y1167614*
X811419Y1167368*
Y1166999*
X811509Y1166753*
X811598Y1166630*
X811867Y1166507*
X812225*
X812493Y1166630*
X812582Y1166753*
X812672Y1166999*
Y1167368*
X812582Y1167614*
X812404Y1167860*
X812135Y1167983*
X811777Y1168106*
X811598Y1168229*
X811509Y1168475*
Y1168721*
X811598Y1168967*
X811867Y1169090*
X812225*
X808939Y1172369D02*
X809029Y1172615D01*
X809208Y1172861*
X809387Y1172984*
X809745*
X809924Y1172861*
X810103Y1172615*
X810192Y1172369*
X810282Y1172000*
Y1171385*
X810192Y1171016*
X810103Y1170770*
X809924Y1170523*
X809745Y1170400*
X809387*
X809208Y1170523*
X809029Y1170770*
X808939Y1171016*
X808045Y1172369D02*
Y1172492D01*
X807955Y1172738*
X807866Y1172861*
X807687Y1172984*
X807329*
X807150Y1172861*
X807060Y1172738*
X806971Y1172492*
Y1172246*
X807060Y1172000*
X807239Y1171631*
X808134Y1170400*
X806881*
X804823Y1172984D02*
X805718Y1170400D01*
X806076Y1172984D02*
X804823D01*
X797292Y1172264D02*
X797382Y1172510D01*
X797561Y1172756*
X797740Y1172879*
X798098*
X798277Y1172756*
X798456Y1172510*
X798545Y1172264*
X798635Y1171895*
Y1171280*
X798545Y1170911*
X798456Y1170665*
X798277Y1170419*
X798098Y1170295*
X797740*
X797561Y1170419*
X797382Y1170665*
X797292Y1170911*
X796308Y1172879D02*
X795324D01*
X795861Y1171895*
X795592*
X795413Y1171772*
X795324Y1171649*
X795234Y1171280*
Y1171034*
X795324Y1170665*
X795503Y1170419*
X795771Y1170295*
X796040*
X796308Y1170419*
X796398Y1170542*
X796487Y1170788*
X793892Y1172879D02*
X794161Y1172756D01*
X794340Y1172387*
X794429Y1171772*
Y1171403*
X794340Y1170788*
X794161Y1170419*
X793892Y1170295*
X793713*
X793445Y1170419*
X793266Y1170788*
X793176Y1171403*
Y1171772*
X793266Y1172387*
X793445Y1172756*
X793713Y1172879*
X793892*
X910985Y1175726D02*
X910862Y1175547D01*
X910616Y1175368*
X910370Y1175278*
X910001Y1175189*
X909386*
X909017Y1175278*
X908771Y1175368*
X908525Y1175547*
X908402Y1175726*
Y1176084*
X908525Y1176263*
X908771Y1176442*
X909017Y1176531*
X909386Y1176621*
X910001*
X910370Y1176531*
X910616Y1176442*
X910862Y1176263*
X910985Y1176084*
Y1175726*
X908894Y1175994D02*
X908156Y1176531D01*
X910493Y1177426D02*
X910616Y1177605D01*
X910985Y1177873*
X908402*
X1057461Y1177867D02*
Y1175899D01*
X1057551Y1175529*
X1057640Y1175406*
X1057819Y1175283*
X1057998*
X1058177Y1175406*
X1058267Y1175529*
X1058356Y1175899*
Y1176145*
X1056567Y1177252D02*
Y1177375D01*
X1056477Y1177621*
X1056388Y1177744*
X1056209Y1177867*
X1055851*
X1055672Y1177744*
X1055582Y1177621*
X1055493Y1177375*
Y1177129*
X1055582Y1176883*
X1055761Y1176514*
X1056656Y1175283*
X1055403*
X841390Y1192410D02*
X843974Y1193126D01*
X841390Y1192410D02*
X843974Y1191694D01*
X843112Y1192857D02*
Y1191963D01*
X841390Y1190889D02*
X843974D01*
X841390D02*
X843974Y1189636D01*
X841390D02*
X843974D01*
X841390Y1188205D02*
X843974D01*
X841390Y1188831D02*
Y1187578D01*
X841882Y1186773D02*
X841759Y1186594D01*
X841390Y1186326*
X843974*
X923754Y1048162D02*
Y1044880D01*
Y1048162D02*
X922731D01*
X922391Y1048005*
X922277Y1047849*
X922163Y1047537*
Y1047224*
X922277Y1046912*
X922391Y1046755*
X922731Y1046599*
X923754*
X922959D02*
X922163Y1044880D01*
X920913Y1048162D02*
X919663D01*
X920345Y1046912*
X920004*
X919777Y1046755*
X919663Y1046599*
X919550Y1046130*
Y1045818*
X919663Y1045349*
X919891Y1045037*
X920231Y1044880*
X920572*
X920913Y1045037*
X921027Y1045193*
X921141Y1045505*
X918300Y1048162D02*
X917050D01*
X917731Y1046912*
X917391*
X917163Y1046755*
X917050Y1046599*
X916936Y1046130*
Y1045818*
X917050Y1045349*
X917277Y1045037*
X917618Y1044880*
X917959*
X918300Y1045037*
X918413Y1045193*
X918527Y1045505*
X1063098Y1142981D02*
Y1140481D01*
X1063212Y1140012*
X1063326Y1139856*
X1063553Y1139699*
X1063780*
X1064008Y1139856*
X1064008D02*
X1064121Y1140012D01*
X1064235Y1140481*
Y1140793*
X1062076Y1142356D02*
X1061848Y1142512D01*
X1061508Y1142981*
X1061508D02*
Y1139699D01*
X1060485Y1142356D02*
X1060258Y1142512D01*
X1060258D02*
X1059917Y1142981D01*
Y1139699*
X991313Y1003795D02*
Y1001826D01*
X991402Y1001457*
X991492Y1001334*
X991671Y1001211*
X991850*
X992029Y1001334*
X992029D02*
X992118Y1001457D01*
X992207Y1001826*
Y1002072*
X990507Y1003302D02*
X990328Y1003425D01*
X990060Y1003795*
Y1001211*
G54D395*
X831806Y1124949D02*
X832396D01*
Y1130461*
X831806*
X824325Y1124949D02*
X823735D01*
Y1130461*
X824325*
X833381Y1125933D02*
Y1123965D01*
X831806*
G74*
X0Y0D02*
M02*
