*
*
G04 PADS 9.5 Build Number: 522968 generated Gerber (RS-274-X) file*
G04 PC Version=2.1*
*
%IN "stm32l151_nbiot_parking"*%
*
%MOIN*%
*
%FSLAX35Y35*%
*
*
*
*
G04 PC Standard Apertures*
*
*
G04 Thermal Relief Aperture macro.*
%AMTER*
1,1,$1,0,0*
1,0,$1-$2,0,0*
21,0,$3,$4,0,0,45*
21,0,$3,$4,0,0,135*
%
*
*
G04 Annular Aperture macro.*
%AMANN*
1,1,$1,0,0*
1,0,$2,0,0*
%
*
*
G04 Odd Aperture macro.*
%AMODD*
1,1,$1,0,0*
1,0,$1-0.005,0,0*
%
*
*
G04 PC Custom Aperture Macros*
*
*
*
*
*
*
G04 PC Aperture Table*
*
%ADD049C,0.01*%
%ADD051C,0.012*%
%ADD062C,0.007*%
%ADD063C,0.005*%
%ADD064C,0.001*%
%ADD065C,0.00787*%
%ADD066C,0.00787*%
%ADD080C,0.01181*%
%ADD087C,0.004*%
%ADD138C,0.00591*%
%ADD145C,0.003*%
%ADD146C,0.00394*%
%ADD147C,0.00802*%
%ADD344C,0.0025*%
*
*
*
*
G04 PC Circuitry*
G04 Layer Name stm32l151_nbiot_parking - circuitry*
%LPD*%
*
G54D64*
G01X1115158Y1119917D02*
X1115140Y1119954D01*
X1114994Y1119905*
X1114956Y1119908*
X1114832Y1119970*
X1114809Y1119993*
X1114747Y1120117*
X1114742Y1120139*
Y1122389*
X1113909*
Y1122354*
X1114120Y1122301*
X1114130Y1122297*
X1114255Y1122235*
X1114277Y1122213*
X1114339Y1122089*
X1114345Y1122066*
Y1120326*
X1114330Y1120290*
X1114143Y1120104*
X1114136Y1120098*
X1113949Y1119973*
X1113931Y1119966*
X1113621Y1119904*
X1113611Y1119903*
X1113424*
X1113397Y1119911*
X1113210Y1120035*
X1113190Y1120061*
X1113128Y1120248*
X1113127Y1120254*
X1113064Y1120565*
X1113063Y1120574*
Y1122389*
X1112231*
Y1122365*
X1112367*
X1112390Y1122360*
X1112514Y1122297*
X1112537Y1122275*
X1112599Y1122151*
X1112602Y1122141*
X1112665Y1121892*
X1112666Y1121880*
Y1120332*
X1112725Y1120098*
X1112963Y1119740*
X1113129Y1119630*
X1113354*
X1113716Y1119750*
X1113954Y1119869*
X1114259Y1120175*
X1114345Y1120139*
Y1119630*
X1114410*
X1115158Y1119917*
X1111820Y1121073D02*
X1111760Y1121553D01*
X1111520Y1121972*
X1111101Y1122331*
X1110563Y1122451*
X1110563D02*
X1110205Y1122391D01*
X1109909Y1122272*
X1109670Y1122033*
X1109428Y1121731*
X1109308Y1121370*
X1109248Y1121008*
X1109308Y1120528*
X1109550Y1120105*
X1109727Y1119868*
X1110204Y1119630*
X1110498*
X1110862Y1119690*
X1111161Y1119810*
X1111459Y1120048*
X1111638Y1120347*
X1111759Y1120711*
X1111820Y1121073*
X1111361Y1120823D02*
X1111360Y1120817D01*
X1111298Y1120319*
X1111298D02*
X1111295Y1120307D01*
X1111171Y1119996*
X1111160Y1119980*
X1110973Y1119793*
X1110948Y1119779*
X1110637Y1119717*
X1110611Y1119719*
X1110238Y1119843*
X1110215Y1119859*
X1109966Y1120170*
X1109958Y1120184*
X1109772Y1120681*
X1109769Y1120693*
X1109707Y1121253*
Y1121258*
Y1121569*
X1109710Y1121588*
X1109834Y1121897*
X1109896Y1122082*
X1109915Y1122108*
X1110102Y1122232*
X1110111Y1122237*
X1110422Y1122361*
X1110450Y1122364*
X1110761Y1122302*
X1110787Y1122288*
X1111035Y1122039*
X1111045Y1122026*
X1111293Y1121529*
X1111298Y1121511*
X1111361Y1120828*
Y1120823*
X1108961Y1119716D02*
X1108824D01*
X1108802Y1119722*
X1108677Y1119784*
X1108664Y1119793*
X1108664D02*
X1108602Y1119855D01*
X1108590Y1119875*
X1108528Y1120061*
X1108526Y1120077*
Y1121687*
X1108466Y1121924*
X1108346Y1122165*
X1108233Y1122335*
X1108064Y1122391*
X1107832Y1122449*
X1107480Y1122332*
X1107239Y1122151*
X1106928Y1121903*
X1106847Y1121942*
Y1123943*
X1106782*
X1106034Y1123656*
X1106052Y1123619*
X1106198Y1123668*
X1106236Y1123665*
X1106360Y1123603*
X1106382Y1123581*
X1106445Y1123456*
X1106450Y1123434*
Y1120077*
X1106445Y1120055*
X1106320Y1119806*
X1106285Y1119779*
X1106015Y1119725*
Y1119692*
X1107282*
Y1119716*
X1107146*
X1107123Y1119722*
X1106999Y1119784*
X1106986Y1119793*
X1106924Y1119855*
X1106915Y1119868*
X1106852Y1119993*
X1106847Y1120015*
Y1121755*
X1106867Y1121795*
X1107113Y1121980*
X1107235Y1122102*
X1107262Y1122116*
X1107635Y1122178*
X1107655Y1122177*
X1107904Y1122115*
X1107936Y1122089*
X1108061Y1121840*
X1108063Y1121833*
X1108126Y1121647*
X1108128Y1121631*
Y1120015*
X1108120Y1119987*
X1107995Y1119801*
X1107989Y1119793*
X1107927Y1119731*
X1107892Y1119716*
X1107693*
Y1119692*
X1108961*
Y1119716*
X1108567Y1127786D02*
X1108058D01*
X1108008Y1127836*
Y1130459*
X1107774*
X1105932Y1127759*
Y1127451*
X1107561*
X1107611Y1127401*
Y1126332*
X1108008*
Y1127401*
X1108058Y1127451*
X1108567*
Y1127786*
X1107611Y1129950D02*
Y1127836D01*
X1107561Y1127786*
X1106193*
X1106151Y1127863*
X1107519Y1129977*
X1107611Y1129950*
X1105728Y1122389D02*
X1103466D01*
Y1121743*
X1103504*
X1103617Y1122082*
X1103629Y1122102*
X1103754Y1122226*
X1103767Y1122235*
X1103891Y1122297*
X1103913Y1122303*
X1105094*
X1105134Y1122223*
X1103279Y1119750*
Y1119692*
X1105728*
Y1120400*
X1105693*
X1105642Y1120195*
Y1120077*
X1105627Y1120042*
X1105441Y1119855*
X1105421Y1119843*
X1105235Y1119781*
X1105219Y1119778*
X1103913*
X1103873Y1119858*
X1105728Y1122332*
Y1122389*
X1102931Y1122265D02*
X1102173D01*
X1102150Y1122270*
X1101908Y1122391*
X1101550Y1122451*
X1101134Y1122391*
X1100777Y1122153*
X1100542Y1121859*
X1100483Y1121447*
X1100601Y1120975*
X1100961Y1120675*
X1100965Y1120601*
X1100720Y1120356*
X1100487Y1120007*
X1100537Y1119859*
X1100773Y1119682*
X1100778Y1119607*
X1100598Y1119426*
X1100539Y1119309*
X1100533Y1119300*
X1100296Y1119003*
Y1118904*
X1100350Y1118742*
X1100518Y1118629*
X1100943Y1118447*
X1101425Y1118387*
X1102093Y1118509*
X1102637Y1118811*
X1102872Y1119104*
X1102930Y1119392*
X1102872Y1119621*
X1102761Y1119788*
X1102349Y1119965*
X1102048*
X1102042*
X1101548Y1120027*
X1101116*
X1101100Y1120030*
X1100914Y1120092*
X1100885Y1120117*
X1100823Y1120241*
Y1120286*
X1100885Y1120410*
X1100894Y1120423*
X1101081Y1120610*
X1101123Y1120624*
X1101551Y1120563*
X1101966Y1120622*
X1102261Y1120859*
X1102499Y1121155*
X1102557Y1121507*
X1102498Y1121864*
X1102377Y1122106*
X1102421Y1122178*
X1102931*
Y1122265*
X1102161Y1121382D02*
X1102160Y1121374D01*
X1102098Y1121001*
X1102096Y1120994*
X1102034Y1120807*
X1102014Y1120781*
X1101827Y1120657*
X1101812Y1120650*
X1101563Y1120588*
X1101539*
X1101290Y1120650*
X1101275Y1120657*
X1101088Y1120781*
X1101068Y1120807*
X1101068D02*
X1100944Y1121180D01*
X1100942Y1121189*
X1100880Y1121624*
X1100879Y1121631*
X1100880Y1121641*
X1100943Y1121952*
X1100947Y1121964*
X1101071Y1122213*
X1101081Y1122226*
X1101205Y1122350*
X1101228Y1122363*
X1101477Y1122426*
X1101501*
X1101750Y1122363*
X1101765Y1122357*
X1101952Y1122232*
X1101971Y1122206*
X1102096Y1121833*
X1102098Y1121825*
X1102160Y1121390*
X1102161Y1121382*
X1102842Y1119253D02*
X1102780Y1119067D01*
X1102768Y1119047*
X1102581Y1118861*
X1102564Y1118850*
X1102253Y1118725*
X1102241Y1118722*
X1101744Y1118660*
X1101731*
X1101234Y1118722*
X1101224Y1118724*
X1100851Y1118849*
X1100832Y1118861*
X1100708Y1118985*
X1100698Y1118998*
X1100636Y1119122*
X1100632Y1119157*
X1100694Y1119405*
X1100703Y1119423*
X1100889Y1119672*
X1100937Y1119691*
X1101368Y1119630*
X1102421*
X1102437Y1119627*
X1102624Y1119565*
X1102643Y1119553*
X1102768Y1119429*
X1102777Y1119416*
X1102839Y1119291*
X1102842Y1119253*
X1105435Y1127196D02*
X1105401Y1127213D01*
X1105115Y1126813*
X1105100Y1126799*
X1104789Y1126612*
X1104782Y1126609*
X1104471Y1126484*
X1104461Y1126482*
X1104461D02*
X1104088Y1126419D01*
X1104072*
X1103637Y1126481*
X1103631Y1126483*
X1103195Y1126607*
X1103195D02*
X1103174Y1126620D01*
X1102863Y1126931*
X1102854Y1126944*
X1102667Y1127317*
X1102664Y1127325*
X1102540Y1127760*
X1102538Y1127768*
X1102476Y1128265*
X1102475Y1128271*
X1102476Y1128276*
X1102538Y1128898*
X1102539Y1128904*
X1102663Y1129463*
X1102667Y1129475*
X1102854Y1129848*
X1102863Y1129861*
X1103174Y1130172*
X1103193Y1130184*
X1103566Y1130308*
X1103574Y1130310*
X1103947Y1130372*
X1103962*
X1104397Y1130310*
X1104418Y1130302*
X1104791Y1130054*
X1104805Y1130040*
X1105054Y1129667*
X1105058Y1129659*
X1105293Y1129130*
X1105330*
X1105215Y1130459*
X1105163*
X1105054Y1130295*
X1105034Y1130278*
X1104910Y1130216*
X1104872Y1130213*
X1104686Y1130275*
X1104255Y1130398*
X1103892Y1130459*
X1103348Y1130398*
X1102862Y1130155*
X1102437Y1129852*
X1102135Y1129430*
X1101953Y1128883*
X1101892Y1128273*
X1102014Y1127604*
X1102318Y1126996*
X1102621Y1126692*
X1102922Y1126452*
X1103344Y1126331*
X1103831Y1126270*
X1104316Y1126331*
X1104800Y1126512*
X1105162Y1126814*
X1105435Y1127196*
X1100009Y1119716D02*
X1099873D01*
X1099837Y1119731*
X1099781Y1119787*
X1099664Y1119846*
X1099639Y1119875*
X1099577Y1120061*
X1099574Y1120077*
Y1121749*
X1099515Y1121987*
X1099396Y1122223*
X1099287Y1122333*
X1098879Y1122449*
X1098707Y1122392*
X1098704Y1122391*
X1098465Y1122331*
X1098229Y1122154*
X1097985Y1121849*
X1097896Y1121880*
Y1122451*
X1097831*
X1097083Y1122164*
X1097101Y1122127*
X1097246Y1122176*
X1097284Y1122173*
X1097408Y1122111*
X1097431Y1122089*
X1097493Y1121964*
X1097498Y1121942*
Y1120015*
X1097493Y1119993*
X1097431Y1119868*
X1097421Y1119855*
X1097297Y1119731*
X1097262Y1119716*
X1097063*
Y1119692*
X1098331*
Y1119716*
X1098194*
X1098172Y1119722*
X1098048Y1119784*
X1098025Y1119806*
X1097967Y1119923*
X1097910Y1119980*
X1097896Y1120015*
Y1121755*
X1097918Y1121797*
X1098291Y1122046*
X1098303Y1122052*
X1098676Y1122176*
X1098707*
X1098894Y1122114*
X1098913Y1122102*
X1099038Y1121977*
X1099044Y1121970*
X1099168Y1121783*
X1099177Y1121755*
Y1120015*
X1099168Y1119987*
X1099044Y1119801*
X1099015Y1119780*
X1098766Y1119718*
X1098754Y1119716*
X1098742*
Y1119692*
X1100009*
Y1119716*
X1101294Y1128393D02*
X1101233Y1129003D01*
X1100991Y1129489*
X1100687Y1129914*
X1100267Y1130214*
X1099721Y1130335*
X1098918Y1130397*
X1097292*
Y1130373*
X1097366*
X1097382Y1130370*
X1097755Y1130246*
X1097786Y1130214*
X1097848Y1130028*
X1097851Y1130012*
Y1126717*
X1097846Y1126695*
X1097784Y1126571*
X1097774Y1126558*
X1097650Y1126433*
X1097627Y1126420*
X1097378Y1126358*
X1097366Y1126356*
X1097292*
Y1126332*
X1099042*
X1099595Y1126394*
X1100084Y1126516*
X1100449Y1126698*
X1100810Y1126939*
X1100990Y1127239*
X1101174Y1127607*
X1101294Y1127969*
Y1128393*
X1100711Y1128334D02*
X1100710Y1128325D01*
X1100586Y1127579*
X1100579Y1127562*
X1100206Y1126940*
X1100193Y1126926*
X1099696Y1126553*
X1099684Y1126547*
X1099374Y1126422*
X1099355Y1126419*
X1098733*
X1098725*
X1098352Y1126482*
X1098352D02*
X1098310Y1126531D01*
X1098310D02*
Y1130136D01*
X1098310D02*
X1098351Y1130185D01*
X1098972Y1130310*
X1098990*
X1099363Y1130248*
X1099365Y1130247*
X1099676Y1130185*
X1099696Y1130176*
X1100193Y1129803*
X1100206Y1129789*
X1100579Y1129167*
X1100586Y1129149*
X1100710Y1128341*
X1100711Y1128334*
X1096884Y1119957D02*
X1096787Y1119908D01*
X1096765Y1119903*
X1096578*
X1096533Y1119930*
X1096471Y1120055*
X1096466Y1120077*
Y1121872*
X1096409Y1122042*
X1096177Y1122332*
X1095582Y1122451*
X1095163Y1122391*
X1094805Y1122212*
X1094634Y1122041*
X1094578Y1121818*
X1094631Y1121608*
X1094775Y1121560*
X1094920Y1121608*
X1094974Y1121824*
Y1122066*
X1094989Y1122102*
X1095113Y1122226*
X1095130Y1122237*
X1095441Y1122361*
X1095471Y1122363*
X1095720Y1122301*
X1095735Y1122294*
X1095922Y1122170*
X1095942Y1122144*
X1096004Y1121958*
X1096005Y1121952*
X1096068Y1121641*
X1096069Y1121631*
Y1121507*
X1096037Y1121460*
X1095416Y1121212*
X1094985Y1121027*
X1094689Y1120850*
X1094572Y1120616*
X1094454Y1120321*
X1094512Y1120031*
X1094626Y1119803*
X1094626D02*
X1094855Y1119689D01*
X1095088Y1119631*
X1095440Y1119689*
X1095616Y1119806*
X1095987Y1120115*
X1096069Y1120077*
Y1119849*
X1096175Y1119743*
X1096337Y1119635*
X1096675Y1119748*
X1096884Y1119957*
X1096069Y1121320D02*
Y1120264D01*
X1096046Y1120222*
X1095673Y1119973*
X1095655Y1119966*
X1095345Y1119904*
X1095335Y1119903*
X1095210*
X1095183Y1119911*
X1094996Y1120035*
X1094976Y1120061*
X1094976D02*
X1094852Y1120434D01*
X1094853Y1120469*
X1094978Y1120779*
X1094989Y1120796*
X1095113Y1120921*
X1095118Y1120925*
X1095367Y1121112*
X1095381Y1121119*
X1095566Y1121181*
X1095999Y1121366*
X1096069Y1121320*
X1094041Y1123757D02*
X1092463D01*
Y1123733*
X1092537*
X1092550Y1123731*
X1092798Y1123669*
X1092821Y1123656*
X1092946Y1123531*
X1092958Y1123512*
X1093020Y1123325*
X1093023Y1123310*
Y1121818*
X1092973Y1121768*
X1090983*
X1090933Y1121818*
Y1123310*
X1090939Y1123332*
X1091001Y1123456*
X1091004Y1123462*
X1091128Y1123648*
X1091158Y1123669*
X1091406Y1123731*
X1091418Y1123733*
X1091493*
Y1123757*
X1089914*
Y1123733*
X1089989*
X1089999Y1123732*
X1090309Y1123669*
X1090344Y1123643*
X1090406Y1123518*
X1090409Y1123512*
X1090471Y1123325*
X1090474Y1123310*
Y1120077*
X1090471Y1120061*
X1090409Y1119875*
X1090384Y1119846*
X1090260Y1119784*
X1090249Y1119780*
X1090001Y1119718*
X1089989Y1119716*
X1089914*
Y1119692*
X1091493*
Y1119716*
X1091418*
X1091406Y1119718*
X1091158Y1119780*
X1091134Y1119793*
X1091010Y1119917*
X1090998Y1119937*
X1090936Y1120123*
X1090933Y1120139*
Y1121631*
X1090983Y1121681*
X1092973*
X1093023Y1121631*
Y1120077*
X1093020Y1120061*
X1092958Y1119875*
X1092933Y1119846*
X1092808Y1119784*
X1092798Y1119780*
X1092550Y1119718*
X1092537Y1119716*
X1092463*
Y1119692*
X1094041*
Y1119716*
X1093967*
X1093955Y1119718*
X1093706Y1119780*
X1093683Y1119793*
X1093559Y1119917*
X1093547Y1119937*
X1093485Y1120123*
X1093482Y1120139*
Y1123310*
X1093487Y1123332*
X1093549Y1123456*
X1093553Y1123462*
X1093677Y1123648*
X1093706Y1123669*
X1093955Y1123731*
X1093967Y1123733*
X1094041*
Y1123757*
X1096922Y1127289D02*
X1096899D01*
X1096727Y1126944*
X1096722Y1126936*
X1096536Y1126687*
X1096521Y1126674*
X1096211Y1126488*
X1096197Y1126482*
X1095948Y1126420*
X1095936Y1126419*
X1094693*
X1094658Y1126433*
X1094533Y1126558*
X1094519Y1126593*
Y1128334*
X1094569Y1128384*
X1095687*
X1095703Y1128381*
X1095890Y1128319*
X1095902Y1128313*
X1096088Y1128189*
X1096110Y1128147*
Y1128029*
X1096162Y1127824*
X1096197*
Y1129030*
X1096164*
X1096109Y1128759*
X1096096Y1128733*
X1095847Y1128485*
X1095812Y1128470*
X1094569*
X1094519Y1128520*
Y1130261*
X1094569Y1130311*
X1095998*
X1096014Y1130308*
X1096201Y1130246*
X1096215Y1130238*
X1096463Y1130052*
X1096481Y1130028*
X1096543Y1129841*
X1096545Y1129835*
X1096599Y1129565*
X1096629*
X1096573Y1130397*
X1093500*
Y1130373*
X1093574*
X1093586Y1130371*
X1093835Y1130309*
X1093845Y1130305*
X1093969Y1130243*
X1093994Y1130214*
X1094057Y1130028*
X1094057D02*
X1094059Y1130012D01*
Y1126593*
X1094037Y1126551*
X1093850Y1126427*
X1093835Y1126420*
X1093586Y1126358*
X1093574Y1126356*
X1093500*
Y1126332*
X1096585*
X1096922Y1127289*
X1092715Y1127649D02*
X1092655Y1128009D01*
X1092537Y1128305*
X1092303Y1128540*
X1092001Y1128660*
X1091984Y1128742*
X1092231Y1128988*
X1092409Y1129226*
X1092469Y1129465*
X1092470Y1129468*
X1092528Y1129642*
X1092469Y1129933*
X1092353Y1130166*
X1092061Y1130400*
X1091647Y1130459*
X1091291Y1130399*
X1090994Y1130221*
X1090756Y1129982*
X1090595Y1129661*
X1090642Y1129638*
X1090990Y1129985*
X1091011Y1129998*
X1091447Y1130122*
X1091473Y1130123*
X1091473D02*
X1091721Y1130060D01*
X1091731Y1130057*
X1091980Y1129932*
X1092002Y1129910*
X1092127Y1129661*
X1092131Y1129651*
X1092193Y1129402*
Y1129378*
X1092068Y1128881*
X1092061Y1128865*
X1091937Y1128679*
X1091918Y1128662*
X1091421Y1128413*
X1091410Y1128409*
X1091293Y1128380*
X1091723Y1128257*
X1091731Y1128254*
X1092104Y1128067*
X1092127Y1128045*
X1092251Y1127796*
X1092255Y1127786*
X1092379Y1127289*
X1092380Y1127267*
X1092318Y1126956*
X1092308Y1126936*
X1092122Y1126687*
X1092112Y1126677*
X1091863Y1126491*
X1091845Y1126482*
X1091597Y1126420*
X1091585Y1126419*
X1091336*
X1091314Y1126424*
X1090827Y1126667*
X1090723*
X1090563Y1126614*
X1090522Y1126531*
X1090625Y1126325*
X1090845Y1126270*
X1091575*
X1091873Y1126389*
X1092178Y1126572*
X1092417Y1126751*
X1092655Y1127169*
X1092715Y1127649*
X1088136Y1119716D02*
X1087999D01*
X1087964Y1119731*
X1087908Y1119787*
X1087791Y1119846*
X1087766Y1119875*
X1087703Y1120061*
X1087701Y1120077*
Y1121749*
X1087641Y1121987*
X1087523Y1122223*
X1087414Y1122333*
X1087006Y1122449*
X1086834Y1122392*
X1086831Y1122391*
X1086592Y1122331*
X1086356Y1122154*
X1086111Y1121849*
X1086022Y1121880*
Y1122451*
X1085957*
X1085209Y1122164*
X1085227Y1122127*
X1085373Y1122176*
X1085411Y1122173*
X1085535Y1122111*
X1085558Y1122089*
X1085620Y1121964*
X1085625Y1121942*
Y1120015*
X1085620Y1119993*
X1085558Y1119868*
X1085548Y1119855*
X1085424Y1119731*
X1085389Y1119716*
X1085190*
Y1119692*
X1086458*
Y1119716*
X1086321*
X1086299Y1119722*
X1086174Y1119784*
X1086152Y1119806*
X1086093Y1119923*
X1086037Y1119980*
X1086022Y1120015*
Y1121755*
X1086045Y1121797*
X1086418Y1122046*
X1086430Y1122052*
X1086803Y1122176*
X1086834*
X1087021Y1122114*
X1087040Y1122102*
X1087165Y1121977*
X1087171Y1121970*
X1087295Y1121783*
X1087304Y1121755*
Y1120015*
X1087295Y1119987*
X1087171Y1119801*
X1087141Y1119780*
X1086893Y1119718*
X1086881Y1119716*
X1086868*
Y1119692*
X1088136*
Y1119716*
X1089607Y1127649D02*
X1089547Y1128009D01*
X1089429Y1128305*
X1089194Y1128540*
X1088893Y1128660*
X1088876Y1128742*
X1089122Y1128988*
X1089301Y1129226*
X1089360Y1129465*
X1089362Y1129468*
X1089420Y1129642*
X1089361Y1129933*
X1089245Y1130166*
X1088953Y1130400*
X1088539Y1130459*
X1088183Y1130399*
X1087886Y1130221*
X1087647Y1129982*
X1087487Y1129661*
X1087534Y1129638*
X1087882Y1129985*
X1087903Y1129998*
X1088338Y1130122*
X1088364Y1130123*
X1088613Y1130060*
X1088623Y1130057*
X1088872Y1129932*
X1088894Y1129910*
X1089019Y1129661*
X1089022Y1129651*
X1089085Y1129402*
Y1129378*
X1088960Y1128881*
X1088953Y1128865*
X1088829Y1128679*
X1088810Y1128662*
X1088312Y1128413*
X1088302Y1128409*
X1088185Y1128380*
X1088615Y1128257*
X1088623Y1128254*
X1088996Y1128067*
X1089019Y1128045*
X1089143Y1127796*
X1089147Y1127786*
X1089271Y1127289*
X1089272Y1127267*
X1089209Y1126956*
X1089200Y1126936*
X1089014Y1126687*
X1089004Y1126677*
X1088755Y1126491*
X1088737Y1126482*
X1088489Y1126420*
X1088477Y1126419*
X1088228*
X1088206Y1126424*
X1087719Y1126667*
X1087614*
X1087455Y1126614*
X1087414Y1126531*
X1087414D02*
X1087516Y1126325D01*
X1087737Y1126270*
X1088467*
X1088765Y1126389*
X1089070Y1126572*
X1089309Y1126751*
X1089547Y1127169*
X1089607Y1127649*
X1086251Y1126356D02*
X1086052D01*
X1086030Y1126362*
X1085905Y1126424*
X1085892Y1126433*
X1085768Y1126558*
X1085754Y1126593*
Y1130459*
X1085691*
X1084752Y1129990*
X1084774Y1129944*
X1085048Y1129999*
X1085058Y1130000*
X1085182*
X1085217Y1129985*
X1085342Y1129861*
X1085356Y1129825*
Y1126593*
X1085342Y1126558*
X1085217Y1126433*
X1085204Y1126424*
X1085080Y1126362*
X1085058Y1126356*
X1084859*
Y1126332*
X1086251*
Y1126356*
X1084841Y1119716D02*
X1084705D01*
X1084669Y1119731*
X1084483Y1119917*
X1084474Y1119930*
X1084411Y1120055*
X1084406Y1120077*
Y1122451*
X1084341*
X1083593Y1122164*
X1083611Y1122127*
X1083757Y1122176*
X1083795Y1122173*
X1083919Y1122111*
X1083941Y1122089*
X1084004Y1121964*
X1084009Y1121942*
Y1120077*
X1084004Y1120055*
X1083879Y1119806*
X1083857Y1119784*
X1083733Y1119722*
X1083710Y1119716*
X1083574*
Y1119692*
X1084841*
Y1119716*
X1084461Y1123624D02*
X1084355Y1123835D01*
X1084204Y1123936*
X1083996Y1123832*
X1083892Y1123624*
X1083993Y1123473*
X1084204Y1123367*
X1084358Y1123470*
X1084461Y1123624*
X1083702Y1127911D02*
X1082248D01*
Y1127513*
X1083702*
Y1127911*
X1081539Y1121432D02*
X1081487Y1121799D01*
X1081249Y1122156*
X1080954Y1122392*
X1080543Y1122451*
X1080061Y1122330*
X1079645Y1122093*
X1079407Y1121615*
X1079407D02*
X1079285Y1121007D01*
X1079345Y1120406*
X1079644Y1119987*
X1080001Y1119690*
X1080477Y1119630*
X1080832Y1119689*
X1081188Y1119927*
X1081427Y1120286*
X1081452Y1120360*
X1081440Y1120348*
X1081192Y1120161*
X1081189Y1120160*
X1081003Y1120035*
X1080975Y1120027*
X1080726*
X1080719Y1120028*
X1080284Y1120090*
X1080256Y1120104*
X1079945Y1120415*
X1079939Y1120422*
X1079690Y1120795*
X1079682Y1120817*
X1079620Y1121377*
Y1121382*
X1079670Y1121432*
X1081539*
X1081025Y1121818D02*
Y1121569D01*
X1080975Y1121519*
X1079670*
X1079621Y1121579*
X1079683Y1121890*
X1079692Y1121910*
X1079878Y1122158*
X1079891Y1122170*
X1080077Y1122294*
X1080093Y1122301*
X1080341Y1122363*
X1080372Y1122361*
X1080683Y1122237*
X1080700Y1122226*
X1080948Y1121977*
X1080958Y1121964*
X1081020Y1121840*
X1081025Y1121818*
X1081650Y1128395D02*
X1081528Y1129314D01*
X1081225Y1129981*
X1080806Y1130340*
X1080394Y1130458*
X1080162Y1130399*
X1079864Y1130280*
X1079566Y1129982*
X1079324Y1129498*
X1079201Y1128947*
X1079201D02*
X1079140Y1128333D01*
X1079201Y1127598*
X1079445Y1126929*
X1079687Y1126626*
X1079865Y1126448*
X1080101Y1126330*
X1080395Y1126271*
X1080685Y1126329*
X1080924Y1126508*
X1081227Y1126750*
X1081467Y1127171*
X1081589Y1127720*
X1081650Y1128395*
X1081191Y1128520D02*
Y1128516D01*
X1081129Y1127646*
Y1127645*
X1081067Y1127023*
X1081063Y1127010*
X1080939Y1126699*
X1080928Y1126682*
X1080617Y1126371*
X1080582Y1126356*
X1080395*
X1080377Y1126360*
X1080066Y1126484*
X1080045Y1126500*
X1079797Y1126810*
X1079787Y1126832*
X1079662Y1127453*
Y1127459*
X1079599Y1128268*
X1079599D02*
Y1128271D01*
Y1128274*
X1079662Y1129331*
X1079663Y1129340*
X1079787Y1129838*
X1079793Y1129851*
X1079979Y1130162*
X1079995Y1130178*
X1080181Y1130302*
X1080193Y1130308*
X1080379Y1130370*
X1080379D02*
X1080414Y1130369D01*
X1080725Y1130245*
X1080741Y1130234*
X1080928Y1130047*
X1080939Y1130031*
X1081063Y1129720*
X1081067Y1129707*
X1081129Y1129210*
Y1129208*
X1081191Y1128525*
Y1128520*
X1078936Y1119951D02*
X1078749Y1119904D01*
X1078715Y1119908*
X1078590Y1119970*
X1078568Y1119993*
X1078506Y1120117*
X1078501Y1120139*
Y1123943*
X1078436*
X1077688Y1123656*
X1077706Y1123619*
X1077851Y1123668*
X1077889Y1123665*
X1078014Y1123603*
X1078036Y1123581*
X1078098Y1123456*
X1078103Y1123434*
Y1122253*
X1078023Y1122213*
X1077784Y1122392*
X1077434Y1122450*
X1076958Y1122331*
X1076539Y1121973*
X1076298Y1121490*
X1076177Y1120945*
X1076237Y1120404*
X1076476Y1119985*
X1076831Y1119689*
X1077242Y1119631*
X1077659Y1119750*
X1077835Y1119867*
X1078018Y1120050*
X1078103Y1120015*
Y1119630*
X1078168*
X1078936Y1119925*
Y1119951*
X1078103Y1121569D02*
Y1120264D01*
X1078089Y1120228*
X1077840Y1119980*
X1077815Y1119966*
X1077504Y1119904*
X1077484*
X1077173Y1119966*
X1077152Y1119976*
X1076841Y1120224*
X1076828Y1120241*
X1076641Y1120614*
X1076636Y1120631*
X1076574Y1121190*
Y1121196*
Y1121202*
X1076636Y1121699*
X1076644Y1121721*
X1076893Y1122094*
X1076899Y1122102*
X1077086Y1122288*
X1077109Y1122301*
X1077357Y1122363*
X1077379Y1122364*
X1077690Y1122302*
X1077716Y1122288*
X1077964Y1122039*
X1077977Y1122018*
X1078101Y1121583*
X1078103Y1121569*
X1078348Y1126534D02*
X1078243Y1126745D01*
X1078092Y1126846*
X1077884Y1126742*
X1077780Y1126534*
X1077881Y1126383*
X1078092Y1126278*
X1078246Y1126380*
X1078348Y1126534*
X1075873Y1119957D02*
X1075776Y1119908D01*
X1075753Y1119903*
X1075567*
X1075522Y1119930*
X1075460Y1120055*
X1075455Y1120077*
Y1121872*
X1075398Y1122042*
X1075166Y1122332*
X1074571Y1122451*
X1074152Y1122391*
X1073794Y1122212*
X1073623Y1122041*
X1073567Y1121818*
X1073619Y1121608*
X1073764Y1121560*
X1073909Y1121608*
X1073963Y1121824*
Y1122066*
X1073977Y1122102*
X1074102Y1122226*
X1074118Y1122237*
X1074118D02*
X1074429Y1122361D01*
X1074460Y1122363*
X1074709Y1122301*
X1074724Y1122294*
X1074911Y1122170*
X1074930Y1122144*
X1074993Y1121958*
X1074994Y1121952*
X1075056Y1121641*
X1075057Y1121631*
Y1121507*
X1075026Y1121460*
X1074405Y1121212*
X1073973Y1121027*
X1073678Y1120850*
X1073561Y1120616*
X1073443Y1120321*
X1073501Y1120031*
X1073615Y1119803*
X1073615D02*
X1073844Y1119689D01*
X1074077Y1119631*
X1074429Y1119689*
X1074604Y1119806*
X1074975Y1120115*
X1075057Y1120077*
Y1119849*
X1075164Y1119743*
X1075326Y1119635*
X1075664Y1119748*
X1075873Y1119957*
X1075057Y1121320D02*
Y1120264D01*
X1075035Y1120222*
X1074662Y1119973*
X1074644Y1119966*
X1074333Y1119904*
X1074324Y1119903*
X1074199*
X1074171Y1119911*
X1073985Y1120035*
X1073965Y1120061*
X1073841Y1120434*
X1073838Y1120450*
X1073842Y1120469*
X1073966Y1120779*
X1073977Y1120796*
X1074102Y1120921*
X1074107Y1120925*
X1074356Y1121112*
X1074370Y1121119*
X1074554Y1121181*
X1074988Y1121366*
X1075057Y1121320*
X1076429Y1126356D02*
X1076230D01*
X1076208Y1126362*
X1076084Y1126424*
X1076071Y1126433*
X1075946Y1126558*
X1075932Y1126593*
Y1130459*
X1075869*
X1074930Y1129990*
X1074953Y1129944*
X1075226Y1129999*
X1075236Y1130000*
X1075360*
X1075395Y1129985*
X1075520Y1129861*
X1075534Y1129825*
Y1126593*
X1075520Y1126558*
X1075395Y1126433*
X1075382Y1126424*
X1075258Y1126362*
X1075236Y1126356*
X1075037*
Y1126332*
X1076429*
Y1126356*
X1073030Y1123757D02*
X1072055D01*
X1070452Y1120490*
X1070362Y1120492*
X1068883Y1123757*
X1067846*
Y1123733*
X1067983*
X1067999Y1123730*
X1068185Y1123668*
X1068205Y1123656*
X1068329Y1123531*
X1068341Y1123512*
X1068403Y1123325*
X1068406Y1123310*
Y1120077*
X1068401Y1120055*
X1068338Y1119930*
X1068329Y1119917*
X1068205Y1119793*
X1068182Y1119780*
X1067933Y1119718*
X1067921Y1119716*
X1067846*
Y1119692*
X1069114*
Y1119716*
X1068853*
X1068825Y1119725*
X1068639Y1119849*
X1068619Y1119875*
X1068557Y1120061*
X1068555Y1120077*
Y1123123*
X1068650Y1123144*
X1070252Y1119693*
X1071916Y1123145*
X1072011Y1123123*
Y1120077*
X1072006Y1120055*
X1071944Y1119930*
X1071935Y1119917*
X1071810Y1119793*
X1071787Y1119780*
X1071538Y1119718*
X1071526Y1119716*
X1071452*
Y1119692*
X1073030*
Y1119716*
X1072769*
X1072742Y1119725*
X1072555Y1119849*
X1072536Y1119875*
X1072473Y1120061*
X1072471Y1120077*
Y1123372*
X1072476Y1123394*
X1072538Y1123518*
X1072548Y1123531*
X1072672Y1123656*
X1072695Y1123669*
X1072944Y1123731*
X1072956Y1123733*
X1073030*
Y1123757*
X1073942Y1130397D02*
X1072799D01*
Y1130373*
X1072811*
X1072827Y1130370*
X1073014Y1130308*
X1073020Y1130305*
X1073145Y1130243*
X1073170Y1130214*
X1073232Y1130028*
X1073234Y1130012*
Y1129825*
X1073231Y1129807*
X1073107Y1129497*
X1072237Y1127135*
X1072144Y1127132*
X1071088Y1129556*
X1070964Y1129803*
X1070959Y1129825*
Y1130074*
X1070964Y1130096*
X1071026Y1130221*
X1071048Y1130243*
X1071173Y1130305*
X1071183Y1130309*
X1071394Y1130362*
Y1130397*
X1069815*
Y1130364*
X1070086Y1130310*
X1070112Y1130296*
X1070298Y1130109*
X1070307Y1130096*
X1070368Y1129975*
X1070491Y1129791*
X1070495Y1129783*
X1071974Y1126270*
X1072031*
X1073386Y1129719*
X1073511Y1130031*
X1073516Y1130040*
X1073640Y1130226*
X1073663Y1130245*
X1073942Y1130357*
Y1130397*
X1067900Y1119692D02*
Y1119716D01*
Y1123733D02*
Y1123757D01*
X1068000Y1119692D02*
Y1119735D01*
Y1123730D02*
Y1123757D01*
X1068100Y1119692D02*
Y1119760D01*
Y1123696D02*
Y1123757D01*
X1068200Y1119692D02*
Y1119789D01*
Y1123660D02*
Y1123757D01*
X1068300Y1119692D02*
Y1119888D01*
Y1123560D02*
Y1123757D01*
X1068400Y1119692D02*
Y1120053D01*
Y1123335D02*
Y1123757D01*
X1068500Y1119692D02*
Y1123757D01*
X1068600Y1119692D02*
Y1119933D01*
Y1123173D02*
Y1123757D01*
X1068700Y1119692D02*
Y1119808D01*
Y1123036D02*
Y1123757D01*
X1068800Y1119692D02*
Y1119742D01*
Y1122821D02*
Y1123757D01*
X1068900Y1119692D02*
Y1119716D01*
Y1122605D02*
Y1123720D01*
X1069000Y1119692D02*
Y1119716D01*
Y1122390D02*
Y1123499D01*
X1069100Y1119692D02*
Y1119716D01*
Y1122175D02*
Y1123278D01*
X1069200Y1121959D02*
Y1123057D01*
X1069300Y1121744D02*
Y1122836D01*
X1069400Y1121528D02*
Y1122615D01*
X1069500Y1121313D02*
Y1122395D01*
X1069600Y1121098D02*
Y1122174D01*
X1069700Y1120882D02*
Y1121953D01*
X1069800Y1120667D02*
Y1121732D01*
X1069900Y1120452D02*
Y1121511D01*
Y1130347D02*
Y1130397D01*
X1070000Y1120236D02*
Y1121290D01*
Y1130327D02*
Y1130397D01*
X1070100Y1120021D02*
Y1121070D01*
Y1130305D02*
Y1130397D01*
X1070200Y1119805D02*
Y1120849D01*
Y1130208D02*
Y1130397D01*
X1070300Y1119792D02*
Y1120628D01*
Y1130107D02*
Y1130397D01*
X1070400Y1120000D02*
Y1120463D01*
Y1129927D02*
Y1130397D01*
X1070500Y1120207D02*
Y1120588D01*
Y1129771D02*
Y1130397D01*
X1070600Y1120415D02*
Y1120792D01*
Y1129534D02*
Y1130397D01*
X1070700Y1120622D02*
Y1120995D01*
Y1129296D02*
Y1130397D01*
X1070800Y1120829D02*
Y1121199D01*
Y1129059D02*
Y1130397D01*
X1070900Y1121037D02*
Y1121403D01*
Y1128821D02*
Y1130397D01*
X1071000Y1121244D02*
Y1121607D01*
Y1128584D02*
Y1129731D01*
Y1130169D02*
Y1130397D01*
X1071100Y1121452D02*
Y1121811D01*
Y1128346D02*
Y1129527D01*
Y1130269D02*
Y1130397D01*
X1071200Y1121659D02*
Y1122015D01*
Y1128109D02*
Y1129298D01*
Y1130313D02*
Y1130397D01*
X1071300Y1121866D02*
Y1122218D01*
Y1127871D02*
Y1129069D01*
Y1130338D02*
Y1130397D01*
X1071400Y1122074D02*
Y1122422D01*
Y1127634D02*
Y1128839D01*
X1071500Y1119692D02*
Y1119716D01*
Y1122281D02*
Y1122626D01*
Y1127396D02*
Y1128610D01*
X1071600Y1119692D02*
Y1119733D01*
Y1122489D02*
Y1122830D01*
Y1127159D02*
Y1128380D01*
X1071700Y1119692D02*
Y1119758D01*
Y1122696D02*
Y1123034D01*
Y1126921D02*
Y1128151D01*
X1071800Y1119692D02*
Y1119785D01*
Y1122904D02*
Y1123238D01*
Y1126684D02*
Y1127921D01*
X1071900Y1119692D02*
Y1119883D01*
Y1123111D02*
Y1123442D01*
Y1126446D02*
Y1127692D01*
X1072000Y1119692D02*
Y1120043D01*
Y1123155D02*
Y1123645D01*
Y1126270D02*
Y1127463D01*
X1072100Y1119692D02*
Y1123757D01*
Y1126445D02*
Y1127233D01*
X1072200Y1119692D02*
Y1123757D01*
Y1126699D02*
Y1127104D01*
X1072300Y1119692D02*
Y1123757D01*
Y1126954D02*
Y1127307D01*
X1072400Y1119692D02*
Y1123757D01*
Y1127208D02*
Y1127578D01*
X1072500Y1119692D02*
Y1119981D01*
Y1123442D02*
Y1123757D01*
Y1127463D02*
Y1127850D01*
X1072600Y1119692D02*
Y1119819D01*
Y1123584D02*
Y1123757D01*
Y1127717D02*
Y1128121D01*
X1072700Y1119692D02*
Y1119752D01*
Y1123670D02*
Y1123757D01*
Y1127972D02*
Y1128393D01*
X1072800Y1119692D02*
Y1119716D01*
Y1123695D02*
Y1123757D01*
Y1128227D02*
Y1128664D01*
Y1130373D02*
Y1130397D01*
X1072900Y1119692D02*
Y1119716D01*
Y1123720D02*
Y1123757D01*
Y1128481D02*
Y1128936D01*
Y1130346D02*
Y1130397D01*
X1073000Y1119692D02*
Y1119716D01*
Y1123733D02*
Y1123757D01*
Y1128736D02*
Y1129207D01*
Y1130313D02*
Y1130397D01*
X1073100Y1128990D02*
Y1129478D01*
Y1130265D02*
Y1130397D01*
X1073200Y1129245D02*
Y1129730D01*
Y1130123D02*
Y1130397D01*
X1073300Y1129499D02*
Y1130397D01*
X1073400Y1129753D02*
Y1130397D01*
X1073500Y1120036D02*
Y1120463D01*
Y1130003D02*
Y1130397D01*
X1073600Y1119833D02*
Y1120694D01*
Y1121686D02*
Y1121950D01*
Y1130166D02*
Y1130397D01*
X1073700Y1119761D02*
Y1120863D01*
Y1121581D02*
Y1122118D01*
Y1130260D02*
Y1130397D01*
X1073800Y1119711D02*
Y1120923D01*
Y1121571D02*
Y1122215D01*
Y1130300D02*
Y1130397D01*
X1073900Y1119675D02*
Y1120257D01*
Y1120614D02*
Y1120983D01*
Y1121605D02*
Y1122265D01*
Y1130340D02*
Y1130397D01*
X1074000Y1119650D02*
Y1120025D01*
Y1120819D02*
Y1121038D01*
Y1122124D02*
Y1122315D01*
X1074100Y1119635D02*
Y1119959D01*
Y1120919D02*
Y1121081D01*
Y1122224D02*
Y1122365D01*
X1074200Y1119651D02*
Y1119903D01*
Y1120995D02*
Y1121124D01*
Y1122270D02*
Y1122398D01*
X1074300Y1119668D02*
Y1119903D01*
Y1121070D02*
Y1121167D01*
Y1122310D02*
Y1122412D01*
X1074400Y1119685D02*
Y1119917D01*
Y1121129D02*
Y1121210D01*
Y1122350D02*
Y1122426D01*
X1074500Y1119737D02*
Y1119937D01*
Y1121162D02*
Y1121250D01*
Y1122353D02*
Y1122441D01*
X1074600Y1119803D02*
Y1119957D01*
Y1121200D02*
Y1121290D01*
Y1122328D02*
Y1122445D01*
X1074700Y1119886D02*
Y1119999D01*
Y1121243D02*
Y1121330D01*
Y1122303D02*
Y1122425D01*
X1074800Y1119969D02*
Y1120065D01*
Y1121286D02*
Y1121370D01*
Y1122244D02*
Y1122405D01*
X1074900Y1120053D02*
Y1120132D01*
Y1121329D02*
Y1121410D01*
Y1122177D02*
Y1122385D01*
X1075000Y1120127D02*
Y1120199D01*
Y1121370D02*
Y1121450D01*
Y1121923D02*
Y1122365D01*
Y1129954D02*
Y1130025D01*
X1075100Y1119806D02*
Y1122345D01*
Y1126332D02*
Y1126356D01*
Y1129974D02*
Y1130075D01*
X1075200Y1119719D02*
Y1122289D01*
Y1126332D02*
Y1126356D01*
Y1129994D02*
Y1130125D01*
X1075300Y1119652D02*
Y1122164D01*
Y1126332D02*
Y1126383D01*
Y1130000D02*
Y1130175D01*
X1075400Y1119660D02*
Y1122036D01*
Y1126332D02*
Y1126438D01*
Y1129981D02*
Y1130225D01*
X1075500Y1119693D02*
Y1119975D01*
Y1126332D02*
Y1126538D01*
Y1129881D02*
Y1130275D01*
X1075600Y1119726D02*
Y1119903D01*
Y1126332D02*
Y1130325D01*
X1075700Y1119784D02*
Y1119903D01*
Y1126332D02*
Y1130375D01*
X1075800Y1119884D02*
Y1119920D01*
Y1126332D02*
Y1130425D01*
X1075900Y1126332D02*
Y1130459D01*
X1076000Y1126332D02*
Y1126504D01*
X1076100Y1126332D02*
Y1126416D01*
X1076200Y1120737D02*
Y1121049D01*
Y1126332D02*
Y1126366D01*
X1076300Y1120293D02*
Y1121494D01*
Y1126332D02*
Y1126356D01*
X1076400Y1120118D02*
Y1121694D01*
Y1126332D02*
Y1126356D01*
X1076500Y1119965D02*
Y1121894D01*
X1076600Y1119882D02*
Y1120956D01*
Y1121410D02*
Y1122025D01*
X1076700Y1119799D02*
Y1120496D01*
Y1121805D02*
Y1122110D01*
X1076800Y1119715D02*
Y1120296D01*
Y1121955D02*
Y1122196D01*
X1076900Y1119680D02*
Y1120177D01*
Y1122103D02*
Y1122282D01*
X1077000Y1119665D02*
Y1120097D01*
Y1122203D02*
Y1122342D01*
X1077100Y1119651D02*
Y1120017D01*
Y1122298D02*
Y1122367D01*
X1077200Y1119637D02*
Y1119961D01*
Y1122324D02*
Y1122392D01*
X1077300Y1119647D02*
Y1119941D01*
Y1122349D02*
Y1122417D01*
X1077400Y1119676D02*
Y1119921D01*
Y1122360D02*
Y1122442D01*
X1077500Y1119705D02*
Y1119903D01*
Y1122340D02*
Y1122439D01*
X1077600Y1119733D02*
Y1119923D01*
Y1122320D02*
Y1122423D01*
X1077700Y1119777D02*
Y1119943D01*
Y1122299D02*
Y1122406D01*
Y1123631D02*
Y1123660D01*
X1077800Y1119844D02*
Y1119963D01*
Y1122204D02*
Y1122380D01*
Y1123651D02*
Y1123699D01*
Y1126504D02*
Y1126574D01*
X1077900Y1119932D02*
Y1120039D01*
Y1122104D02*
Y1122305D01*
Y1123660D02*
Y1123737D01*
Y1126374D02*
Y1126750D01*
X1078000Y1120032D02*
Y1120139D01*
Y1121938D02*
Y1122230D01*
Y1123610D02*
Y1123776D01*
Y1126324D02*
Y1126800D01*
X1078100Y1120033D02*
Y1120246D01*
Y1121588D02*
Y1122235D01*
Y1123452D02*
Y1123814D01*
Y1126283D02*
Y1126841D01*
X1078200Y1119642D02*
Y1123853D01*
Y1126350D02*
Y1126774D01*
X1078300Y1119680D02*
Y1123891D01*
Y1126462D02*
Y1126631D01*
X1078400Y1119719D02*
Y1123930D01*
X1078500Y1119757D02*
Y1123943D01*
X1078600Y1119796D02*
Y1119965D01*
X1078700Y1119834D02*
Y1119915D01*
X1078800Y1119873D02*
Y1119917D01*
X1078900Y1119911D02*
Y1119942D01*
X1079200Y1127614D02*
Y1128932D01*
X1079300Y1120857D02*
Y1121082D01*
Y1127327D02*
Y1129391D01*
X1079400Y1120329D02*
Y1121582D01*
Y1127052D02*
Y1129650D01*
X1079500Y1120189D02*
Y1121802D01*
Y1126860D02*
Y1129850D01*
X1079600Y1120049D02*
Y1122002D01*
Y1126735D02*
Y1128261D01*
Y1128284D02*
Y1130016D01*
X1079700Y1119941D02*
Y1120781D01*
Y1121432D02*
Y1121519D01*
Y1121921D02*
Y1122124D01*
Y1126613D02*
Y1127266D01*
Y1129488D02*
Y1130116D01*
X1079800Y1119857D02*
Y1120631D01*
Y1121432D02*
Y1121519D01*
Y1122054D02*
Y1122181D01*
Y1126513D02*
Y1126806D01*
Y1129863D02*
Y1130216D01*
X1079900Y1119774D02*
Y1120481D01*
Y1121432D02*
Y1121519D01*
Y1122176D02*
Y1122238D01*
Y1126430D02*
Y1126681D01*
Y1130030D02*
Y1130295D01*
X1080000Y1119691D02*
Y1120360D01*
Y1121432D02*
Y1121519D01*
Y1122243D02*
Y1122295D01*
Y1126380D02*
Y1126556D01*
Y1130181D02*
Y1130335D01*
X1080100Y1119677D02*
Y1120260D01*
Y1121432D02*
Y1121519D01*
Y1122303D02*
Y1122340D01*
Y1126330D02*
Y1126471D01*
Y1130248D02*
Y1130375D01*
X1080200Y1119665D02*
Y1120160D01*
Y1121432D02*
Y1121519D01*
Y1122328D02*
Y1122365D01*
Y1126310D02*
Y1126431D01*
Y1130310D02*
Y1130409D01*
X1080300Y1119652D02*
Y1120087D01*
Y1121432D02*
Y1121519D01*
Y1122353D02*
Y1122390D01*
Y1126290D02*
Y1126391D01*
Y1130344D02*
Y1130434D01*
X1080400Y1119640D02*
Y1120073D01*
Y1121432D02*
Y1121519D01*
Y1122350D02*
Y1122415D01*
Y1126272D02*
Y1126356D01*
Y1130373D02*
Y1130456D01*
X1080500Y1119634D02*
Y1120059D01*
Y1121432D02*
Y1121519D01*
Y1122310D02*
Y1122440D01*
Y1126292D02*
Y1126356D01*
Y1130335D02*
Y1130427D01*
X1080600Y1119651D02*
Y1120045D01*
Y1121432D02*
Y1121519D01*
Y1122270D02*
Y1122442D01*
Y1126312D02*
Y1126360D01*
Y1130295D02*
Y1130399D01*
X1080700Y1119667D02*
Y1120030D01*
Y1121432D02*
Y1121519D01*
Y1122226D02*
Y1122428D01*
Y1126340D02*
Y1126454D01*
Y1130255D02*
Y1130370D01*
X1080800Y1119684D02*
Y1120027D01*
Y1121432D02*
Y1121519D01*
Y1122126D02*
Y1122414D01*
Y1126415D02*
Y1126554D01*
Y1130175D02*
Y1130342D01*
X1080900Y1119735D02*
Y1120027D01*
Y1121432D02*
Y1121519D01*
Y1122026D02*
Y1122399D01*
Y1126490D02*
Y1126654D01*
Y1130075D02*
Y1130259D01*
X1081000Y1119802D02*
Y1120034D01*
Y1121432D02*
Y1121526D01*
Y1121879D02*
Y1122355D01*
Y1126569D02*
Y1126851D01*
Y1129878D02*
Y1130174D01*
X1081100Y1119868D02*
Y1120100D01*
Y1121432D02*
Y1122275D01*
Y1126649D02*
Y1127356D01*
Y1129440D02*
Y1130088D01*
X1081200Y1119945D02*
Y1120168D01*
Y1121432D02*
Y1122195D01*
Y1126729D02*
Y1130002D01*
X1081300Y1120095D02*
Y1120243D01*
Y1121432D02*
Y1122079D01*
Y1126878D02*
Y1129815D01*
X1081400Y1120245D02*
Y1120318D01*
Y1121432D02*
Y1121929D01*
Y1127053D02*
Y1129595D01*
X1081500Y1121432D02*
Y1121706D01*
Y1127319D02*
Y1129375D01*
X1081600Y1127840D02*
Y1128773D01*
X1082300Y1127513D02*
Y1127911D01*
X1082400Y1127513D02*
Y1127911D01*
X1082500Y1127513D02*
Y1127911D01*
X1082600Y1127513D02*
Y1127911D01*
X1082700Y1127513D02*
Y1127911D01*
X1082800Y1127513D02*
Y1127911D01*
X1082900Y1127513D02*
Y1127911D01*
X1083000Y1127513D02*
Y1127911D01*
X1083100Y1127513D02*
Y1127911D01*
X1083200Y1127513D02*
Y1127911D01*
X1083300Y1127513D02*
Y1127911D01*
X1083400Y1127513D02*
Y1127911D01*
X1083500Y1127513D02*
Y1127911D01*
X1083600Y1119692D02*
Y1119716D01*
Y1122150D02*
Y1122166D01*
Y1127513D02*
Y1127911D01*
X1083700Y1119692D02*
Y1119716D01*
Y1122157D02*
Y1122205D01*
Y1127513D02*
Y1127911D01*
X1083800Y1119692D02*
Y1119755D01*
Y1122171D02*
Y1122243D01*
X1083900Y1119692D02*
Y1119848D01*
Y1122121D02*
Y1122282D01*
Y1123612D02*
Y1123639D01*
X1084000Y1119692D02*
Y1120048D01*
Y1121971D02*
Y1122320D01*
Y1123469D02*
Y1123834D01*
X1084100Y1119692D02*
Y1122359D01*
Y1123419D02*
Y1123884D01*
X1084200Y1119692D02*
Y1122397D01*
Y1123369D02*
Y1123934D01*
X1084300Y1119692D02*
Y1122436D01*
Y1123431D02*
Y1123872D01*
X1084400Y1119692D02*
Y1122451D01*
Y1123533D02*
Y1123745D01*
X1084500Y1119692D02*
Y1119900D01*
X1084600Y1119692D02*
Y1119800D01*
X1084700Y1119692D02*
Y1119716D01*
X1084800Y1119692D02*
Y1119716D01*
Y1129949D02*
Y1130014D01*
X1084900Y1126332D02*
Y1126356D01*
Y1129969D02*
Y1130064D01*
X1085000Y1126332D02*
Y1126356D01*
Y1129989D02*
Y1130114D01*
X1085100Y1126332D02*
Y1126372D01*
Y1130000D02*
Y1130164D01*
X1085200Y1119692D02*
Y1119716D01*
Y1126332D02*
Y1126422D01*
Y1129996D02*
Y1130214D01*
X1085300Y1119692D02*
Y1119716D01*
Y1122152D02*
Y1122199D01*
Y1126332D02*
Y1126516D01*
Y1129902D02*
Y1130264D01*
X1085400Y1119692D02*
Y1119718D01*
Y1122177D02*
Y1122237D01*
Y1126332D02*
Y1130314D01*
X1085500Y1119692D02*
Y1119807D01*
Y1122129D02*
Y1122276D01*
Y1126332D02*
Y1130364D01*
X1085600Y1119692D02*
Y1119953D01*
Y1122004D02*
Y1122314D01*
Y1126332D02*
Y1130414D01*
X1085700Y1119692D02*
Y1122352D01*
Y1126332D02*
Y1130459D01*
X1085800Y1119692D02*
Y1122391D01*
Y1126332D02*
Y1126526D01*
X1085900Y1119692D02*
Y1122429D01*
Y1126332D02*
Y1126427D01*
X1086000Y1119692D02*
Y1122451D01*
Y1126332D02*
Y1126377D01*
X1086100Y1119692D02*
Y1119910D01*
Y1121834D02*
Y1121838D01*
Y1126332D02*
Y1126356D01*
X1086200Y1119692D02*
Y1119771D01*
Y1121901D02*
Y1121959D01*
Y1126332D02*
Y1126356D01*
X1086300Y1119692D02*
Y1119721D01*
Y1121967D02*
Y1122084D01*
X1086400Y1119692D02*
Y1119716D01*
Y1122034D02*
Y1122187D01*
X1086500Y1122075D02*
Y1122262D01*
X1086600Y1122108D02*
Y1122333D01*
X1086700Y1122142D02*
Y1122358D01*
X1086800Y1122175D02*
Y1122383D01*
X1086900Y1119692D02*
Y1119720D01*
Y1122154D02*
Y1122414D01*
X1087000Y1119692D02*
Y1119745D01*
Y1122121D02*
Y1122447D01*
X1087100Y1119692D02*
Y1119770D01*
Y1122042D02*
Y1122422D01*
X1087200Y1119692D02*
Y1119844D01*
Y1121926D02*
Y1122394D01*
X1087300Y1119692D02*
Y1119996D01*
Y1121774D02*
Y1122365D01*
X1087400Y1119692D02*
Y1122337D01*
X1087500Y1119692D02*
Y1122246D01*
Y1126358D02*
Y1126629D01*
Y1129655D02*
Y1129688D01*
X1087600Y1119692D02*
Y1122070D01*
Y1126304D02*
Y1126663D01*
Y1129703D02*
Y1129888D01*
X1087700Y1119692D02*
Y1121753D01*
Y1126279D02*
Y1126667D01*
Y1129803D02*
Y1130035D01*
X1087800Y1119692D02*
Y1119841D01*
Y1126270D02*
Y1126627D01*
Y1129903D02*
Y1130135D01*
X1087900Y1119692D02*
Y1119791D01*
Y1126270D02*
Y1126577D01*
Y1129997D02*
Y1130229D01*
X1088000Y1119692D02*
Y1119716D01*
Y1126270D02*
Y1126527D01*
Y1130025D02*
Y1130289D01*
X1088100Y1119692D02*
Y1119716D01*
Y1126270D02*
Y1126477D01*
Y1130054D02*
Y1130349D01*
X1088200Y1126270D02*
Y1126427D01*
Y1128376D02*
Y1128384D01*
Y1130083D02*
Y1130402D01*
X1088300Y1126270D02*
Y1126419D01*
Y1128347D02*
Y1128409D01*
Y1130111D02*
Y1130419D01*
X1088400Y1126270D02*
Y1126419D01*
Y1128319D02*
Y1128457D01*
Y1130114D02*
Y1130435D01*
X1088500Y1126283D02*
Y1126423D01*
Y1128290D02*
Y1128507D01*
Y1130089D02*
Y1130452D01*
X1088600Y1126323D02*
Y1126448D01*
Y1128261D02*
Y1128557D01*
Y1130064D02*
Y1130450D01*
X1088700Y1126363D02*
Y1126473D01*
Y1128216D02*
Y1128607D01*
Y1130018D02*
Y1130436D01*
X1088800Y1126410D02*
Y1126524D01*
Y1128166D02*
Y1128657D01*
Y1129968D02*
Y1130421D01*
X1088900Y1126470D02*
Y1126599D01*
Y1128116D02*
Y1128657D01*
Y1128766D02*
Y1128785D01*
Y1129898D02*
Y1130407D01*
X1089000Y1126530D02*
Y1126674D01*
Y1128065D02*
Y1128617D01*
Y1128866D02*
Y1129040D01*
Y1129698D02*
Y1130362D01*
X1089100Y1126595D02*
Y1126802D01*
Y1127882D02*
Y1128577D01*
Y1128966D02*
Y1130282D01*
X1089200Y1126670D02*
Y1126936D01*
Y1127573D02*
Y1128534D01*
Y1129091D02*
Y1130202D01*
X1089300Y1126745D02*
Y1128434D01*
Y1129225D02*
Y1130056D01*
X1089400Y1126911D02*
Y1128334D01*
Y1129584D02*
Y1129740D01*
X1089500Y1127086D02*
Y1128127D01*
X1089600Y1127592D02*
Y1127691D01*
X1090000Y1119692D02*
Y1119718D01*
Y1123731D02*
Y1123757D01*
X1090100Y1119692D02*
Y1119743D01*
Y1123711D02*
Y1123757D01*
X1090200Y1119692D02*
Y1119768D01*
Y1123691D02*
Y1123757D01*
X1090300Y1119692D02*
Y1119804D01*
Y1123671D02*
Y1123757D01*
X1090400Y1119692D02*
Y1119858D01*
Y1123531D02*
Y1123757D01*
X1090500Y1119692D02*
Y1123757D01*
X1090600Y1119692D02*
Y1123757D01*
Y1126374D02*
Y1126626D01*
Y1129659D02*
Y1129671D01*
X1090700Y1119692D02*
Y1123757D01*
Y1126306D02*
Y1126660D01*
Y1129695D02*
Y1129871D01*
X1090800Y1119692D02*
Y1123757D01*
Y1126281D02*
Y1126667D01*
Y1129795D02*
Y1130027D01*
X1090900Y1119692D02*
Y1123757D01*
Y1126270D02*
Y1126631D01*
Y1129895D02*
Y1130127D01*
X1091000Y1119692D02*
Y1119932D01*
Y1121681D02*
Y1121768D01*
Y1123455D02*
Y1123757D01*
Y1126270D02*
Y1126581D01*
Y1129993D02*
Y1130224D01*
X1091100Y1119692D02*
Y1119827D01*
Y1121681D02*
Y1121768D01*
Y1123606D02*
Y1123757D01*
Y1126270D02*
Y1126531D01*
Y1130023D02*
Y1130284D01*
X1091200Y1119692D02*
Y1119769D01*
Y1121681D02*
Y1121768D01*
Y1123679D02*
Y1123757D01*
Y1126270D02*
Y1126481D01*
Y1130052D02*
Y1130344D01*
X1091300Y1119692D02*
Y1119744D01*
Y1121681D02*
Y1121768D01*
Y1123704D02*
Y1123757D01*
Y1126270D02*
Y1126431D01*
Y1128378D02*
Y1128382D01*
Y1130080D02*
Y1130401D01*
X1091400Y1119692D02*
Y1119719D01*
Y1121681D02*
Y1121768D01*
Y1123729D02*
Y1123757D01*
Y1126270D02*
Y1126419D01*
Y1128350D02*
Y1128407D01*
Y1130109D02*
Y1130417D01*
X1091500Y1121681D02*
Y1121768D01*
Y1126270D02*
Y1126419D01*
Y1128321D02*
Y1128453D01*
Y1130116D02*
Y1130434D01*
X1091600Y1121681D02*
Y1121768D01*
Y1126280D02*
Y1126421D01*
Y1128292D02*
Y1128503D01*
Y1130091D02*
Y1130451D01*
X1091700Y1121681D02*
Y1121768D01*
Y1126320D02*
Y1126446D01*
Y1128264D02*
Y1128553D01*
Y1130066D02*
Y1130451D01*
X1091800Y1121681D02*
Y1121768D01*
Y1126360D02*
Y1126471D01*
Y1128220D02*
Y1128603D01*
Y1130022D02*
Y1130437D01*
X1091900Y1121681D02*
Y1121768D01*
Y1126405D02*
Y1126518D01*
Y1128170D02*
Y1128653D01*
Y1129972D02*
Y1130423D01*
X1092000Y1121681D02*
Y1121768D01*
Y1126465D02*
Y1126593D01*
Y1128120D02*
Y1128661D01*
Y1128757D02*
Y1128773D01*
Y1129914D02*
Y1130408D01*
X1092100Y1121681D02*
Y1121768D01*
Y1126525D02*
Y1126668D01*
Y1128070D02*
Y1128621D01*
Y1128857D02*
Y1129007D01*
Y1129715D02*
Y1130369D01*
X1092200Y1121681D02*
Y1121768D01*
Y1126589D02*
Y1126791D01*
Y1127899D02*
Y1128581D01*
Y1128957D02*
Y1130289D01*
X1092300Y1121681D02*
Y1121768D01*
Y1126664D02*
Y1126925D01*
Y1127606D02*
Y1128541D01*
Y1129081D02*
Y1130209D01*
X1092400Y1121681D02*
Y1121768D01*
Y1126739D02*
Y1128442D01*
Y1129214D02*
Y1130072D01*
X1092500Y1119692D02*
Y1119716D01*
Y1121681D02*
Y1121768D01*
Y1123733D02*
Y1123757D01*
Y1126897D02*
Y1128342D01*
Y1129559D02*
Y1129781D01*
X1092600Y1119692D02*
Y1119730D01*
Y1121681D02*
Y1121768D01*
Y1123718D02*
Y1123757D01*
Y1127072D02*
Y1128147D01*
X1092700Y1119692D02*
Y1119755D01*
Y1121681D02*
Y1121768D01*
Y1123693D02*
Y1123757D01*
Y1127526D02*
Y1127740D01*
X1092800Y1119692D02*
Y1119780D01*
Y1121681D02*
Y1121768D01*
Y1123668D02*
Y1123757D01*
X1092900Y1119692D02*
Y1119829D01*
Y1121681D02*
Y1121768D01*
Y1123577D02*
Y1123757D01*
X1093000Y1119692D02*
Y1120001D01*
Y1121673D02*
Y1121776D01*
Y1123385D02*
Y1123757D01*
X1093100Y1119692D02*
Y1123757D01*
X1093200Y1119692D02*
Y1123757D01*
X1093300Y1119692D02*
Y1123757D01*
X1093400Y1119692D02*
Y1123757D01*
X1093500Y1119692D02*
Y1120077D01*
Y1123357D02*
Y1123757D01*
Y1126332D02*
Y1126356D01*
Y1130373D02*
Y1130397D01*
X1093600Y1119692D02*
Y1119876D01*
Y1123533D02*
Y1123757D01*
Y1126332D02*
Y1126361D01*
Y1130368D02*
Y1130397D01*
X1093700Y1119692D02*
Y1119782D01*
Y1123667D02*
Y1123757D01*
Y1126332D02*
Y1126386D01*
Y1130343D02*
Y1130397D01*
X1093800Y1119692D02*
Y1119756D01*
Y1123692D02*
Y1123757D01*
Y1126332D02*
Y1126411D01*
Y1130318D02*
Y1130397D01*
X1093900Y1119692D02*
Y1119731D01*
Y1123717D02*
Y1123757D01*
Y1126332D02*
Y1126460D01*
Y1130278D02*
Y1130397D01*
X1094000Y1119692D02*
Y1119716D01*
Y1123733D02*
Y1123757D01*
Y1126332D02*
Y1126527D01*
Y1130197D02*
Y1130397D01*
X1094100Y1126332D02*
Y1130397D01*
X1094200Y1126332D02*
Y1130397D01*
X1094300Y1126332D02*
Y1130397D01*
X1094400Y1126332D02*
Y1130397D01*
X1094500Y1120092D02*
Y1120435D01*
Y1126332D02*
Y1130397D01*
X1094600Y1119856D02*
Y1120671D01*
Y1121730D02*
Y1121905D01*
Y1126332D02*
Y1126491D01*
Y1128384D02*
Y1128470D01*
Y1130311D02*
Y1130397D01*
X1094700Y1119767D02*
Y1120856D01*
Y1121585D02*
Y1122107D01*
Y1126332D02*
Y1126419D01*
Y1128384D02*
Y1128470D01*
Y1130311D02*
Y1130397D01*
X1094800Y1119717D02*
Y1120916D01*
Y1121568D02*
Y1122207D01*
Y1126332D02*
Y1126419D01*
Y1128384D02*
Y1128470D01*
Y1130311D02*
Y1130397D01*
X1094900Y1119678D02*
Y1120291D01*
Y1120586D02*
Y1120976D01*
Y1121601D02*
Y1122259D01*
Y1126332D02*
Y1126419D01*
Y1128384D02*
Y1128470D01*
Y1130311D02*
Y1130397D01*
X1095000Y1119653D02*
Y1120033D01*
Y1120808D02*
Y1121034D01*
Y1122113D02*
Y1122309D01*
Y1126332D02*
Y1126419D01*
Y1128384D02*
Y1128470D01*
Y1130311D02*
Y1130397D01*
X1095100Y1119633D02*
Y1119966D01*
Y1120908D02*
Y1121077D01*
Y1122213D02*
Y1122359D01*
Y1126332D02*
Y1126419D01*
Y1128384D02*
Y1128470D01*
Y1130311D02*
Y1130397D01*
X1095200Y1119649D02*
Y1119904D01*
Y1120986D02*
Y1121119D01*
Y1122265D02*
Y1122396D01*
Y1126332D02*
Y1126419D01*
Y1128384D02*
Y1128470D01*
Y1130311D02*
Y1130397D01*
X1095300Y1119666D02*
Y1119903D01*
Y1121061D02*
Y1121162D01*
Y1122305D02*
Y1122410D01*
Y1126332D02*
Y1126419D01*
Y1128384D02*
Y1128470D01*
Y1130311D02*
Y1130397D01*
X1095400Y1119683D02*
Y1119915D01*
Y1121125D02*
Y1121205D01*
Y1122345D02*
Y1122425D01*
Y1126332D02*
Y1126419D01*
Y1128384D02*
Y1128470D01*
Y1130311D02*
Y1130397D01*
X1095500Y1119729D02*
Y1119935D01*
Y1121159D02*
Y1121246D01*
Y1122356D02*
Y1122439D01*
Y1126332D02*
Y1126419D01*
Y1128384D02*
Y1128470D01*
Y1130311D02*
Y1130397D01*
X1095600Y1119796D02*
Y1119955D01*
Y1121195D02*
Y1121286D01*
Y1122331D02*
Y1122447D01*
Y1126332D02*
Y1126419D01*
Y1128384D02*
Y1128470D01*
Y1130311D02*
Y1130397D01*
X1095700Y1119877D02*
Y1119991D01*
Y1121238D02*
Y1121326D01*
Y1122306D02*
Y1122427D01*
Y1126332D02*
Y1126419D01*
Y1128382D02*
Y1128470D01*
Y1130311D02*
Y1130397D01*
X1095800Y1119960D02*
Y1120058D01*
Y1121281D02*
Y1121366D01*
Y1122251D02*
Y1122407D01*
Y1126332D02*
Y1126419D01*
Y1128349D02*
Y1128470D01*
Y1130311D02*
Y1130397D01*
X1095900Y1120043D02*
Y1120124D01*
Y1121324D02*
Y1121406D01*
Y1122185D02*
Y1122387D01*
Y1126332D02*
Y1126419D01*
Y1128314D02*
Y1128538D01*
Y1130311D02*
Y1130397D01*
X1096000Y1120123D02*
Y1120191D01*
Y1121367D02*
Y1121446D01*
Y1121969D02*
Y1122367D01*
Y1126332D02*
Y1126433D01*
Y1128247D02*
Y1128638D01*
Y1130311D02*
Y1130397D01*
X1096100Y1119818D02*
Y1122347D01*
Y1126332D02*
Y1126458D01*
Y1128178D02*
Y1128738D01*
Y1130279D02*
Y1130397D01*
X1096200Y1119726D02*
Y1122303D01*
Y1126332D02*
Y1126483D01*
Y1130246D02*
Y1130397D01*
X1096300Y1119659D02*
Y1122178D01*
Y1126332D02*
Y1126542D01*
Y1130175D02*
Y1130397D01*
X1096400Y1119656D02*
Y1122053D01*
Y1126332D02*
Y1126602D01*
Y1130100D02*
Y1130397D01*
X1096500Y1119689D02*
Y1119997D01*
Y1126332D02*
Y1126662D01*
Y1129970D02*
Y1130397D01*
X1096600Y1119723D02*
Y1119903D01*
Y1126376D02*
Y1126773D01*
Y1129565D02*
Y1129994D01*
X1096700Y1119772D02*
Y1119903D01*
Y1126659D02*
Y1126907D01*
X1096800Y1119872D02*
Y1119915D01*
Y1126943D02*
Y1127090D01*
X1096900Y1127226D02*
Y1127289D01*
X1097100Y1119692D02*
Y1119716D01*
Y1122129D02*
Y1122170D01*
X1097200Y1119692D02*
Y1119716D01*
Y1122161D02*
Y1122209D01*
X1097300Y1119692D02*
Y1119734D01*
Y1122165D02*
Y1122247D01*
Y1126332D02*
Y1126356D01*
Y1130373D02*
Y1130397D01*
X1097400Y1119692D02*
Y1119834D01*
Y1122115D02*
Y1122286D01*
Y1126332D02*
Y1126363D01*
Y1130364D02*
Y1130397D01*
X1097500Y1119692D02*
Y1122324D01*
Y1126332D02*
Y1126388D01*
Y1130331D02*
Y1130397D01*
X1097600Y1119692D02*
Y1122363D01*
Y1126332D02*
Y1126413D01*
Y1130297D02*
Y1130397D01*
X1097700Y1119692D02*
Y1122401D01*
Y1126332D02*
Y1126483D01*
Y1130264D02*
Y1130397D01*
X1097800Y1119692D02*
Y1122440D01*
Y1126332D02*
Y1126603D01*
Y1130173D02*
Y1130397D01*
X1097900Y1119692D02*
Y1119994D01*
Y1121776D02*
Y1121859D01*
Y1126332D02*
Y1130397D01*
X1098000Y1119692D02*
Y1119856D01*
Y1121852D02*
Y1121868D01*
Y1126332D02*
Y1130397D01*
X1098100Y1119692D02*
Y1119757D01*
Y1121918D02*
Y1121993D01*
Y1126332D02*
Y1130397D01*
X1098200Y1119692D02*
Y1119716D01*
Y1121985D02*
Y1122118D01*
Y1126332D02*
Y1130397D01*
X1098300Y1119692D02*
Y1119716D01*
Y1122051D02*
Y1122207D01*
Y1126332D02*
Y1130397D01*
X1098400Y1122084D02*
Y1122282D01*
Y1126332D02*
Y1126474D01*
Y1130195D02*
Y1130397D01*
X1098500Y1122117D02*
Y1122340D01*
Y1126332D02*
Y1126457D01*
Y1130215D02*
Y1130397D01*
X1098600Y1122151D02*
Y1122365D01*
Y1126332D02*
Y1126440D01*
Y1130235D02*
Y1130397D01*
X1098700Y1122178D02*
Y1122390D01*
Y1126332D02*
Y1126424D01*
Y1130255D02*
Y1130397D01*
X1098800Y1119692D02*
Y1119726D01*
Y1122145D02*
Y1122423D01*
Y1126332D02*
Y1126419D01*
Y1130275D02*
Y1130397D01*
X1098900Y1119692D02*
Y1119751D01*
Y1122111D02*
Y1122443D01*
Y1126332D02*
Y1126419D01*
Y1130295D02*
Y1130397D01*
X1099000Y1119692D02*
Y1119776D01*
Y1122015D02*
Y1122415D01*
Y1126332D02*
Y1126419D01*
Y1130308D02*
Y1130391D01*
X1099100Y1119692D02*
Y1119885D01*
Y1121886D02*
Y1122386D01*
Y1126339D02*
Y1126419D01*
Y1130292D02*
Y1130383D01*
X1099200Y1119692D02*
Y1122357D01*
Y1126350D02*
Y1126419D01*
Y1130275D02*
Y1130375D01*
X1099300Y1119692D02*
Y1122320D01*
Y1126361D02*
Y1126419D01*
Y1130258D02*
Y1130368D01*
X1099400Y1119692D02*
Y1122216D01*
Y1126372D02*
Y1126433D01*
Y1130240D02*
Y1130360D01*
X1099500Y1119692D02*
Y1122016D01*
Y1126383D02*
Y1126473D01*
Y1130220D02*
Y1130352D01*
X1099600Y1119692D02*
Y1119991D01*
Y1126395D02*
Y1126513D01*
Y1130200D02*
Y1130345D01*
X1099700Y1119692D02*
Y1119828D01*
Y1126420D02*
Y1126556D01*
Y1130173D02*
Y1130337D01*
X1099800Y1119692D02*
Y1119768D01*
Y1126445D02*
Y1126631D01*
Y1130098D02*
Y1130318D01*
X1099900Y1119692D02*
Y1119716D01*
Y1126470D02*
Y1126706D01*
Y1130023D02*
Y1130296D01*
X1100000Y1119692D02*
Y1119716D01*
Y1126495D02*
Y1126781D01*
Y1129948D02*
Y1130273D01*
X1100100Y1126524D02*
Y1126856D01*
Y1129873D02*
Y1130251D01*
X1100200Y1126574D02*
Y1126932D01*
Y1129797D02*
Y1130229D01*
X1100300Y1118891D02*
Y1119008D01*
Y1126624D02*
Y1127097D01*
Y1129633D02*
Y1130190D01*
X1100400Y1118708D02*
Y1119133D01*
Y1126674D02*
Y1127263D01*
Y1129466D02*
Y1130119D01*
X1100500Y1118641D02*
Y1119258D01*
Y1119969D02*
Y1120027D01*
Y1121379D02*
Y1121566D01*
Y1126733D02*
Y1127430D01*
Y1129299D02*
Y1130047D01*
X1100600Y1118594D02*
Y1119428D01*
Y1119812D02*
Y1120177D01*
Y1120979D02*
Y1121932D01*
Y1126799D02*
Y1127666D01*
Y1129056D02*
Y1129976D01*
X1100700Y1118551D02*
Y1118995D01*
Y1119419D02*
Y1119528D01*
Y1119737D02*
Y1120327D01*
Y1120893D02*
Y1122057D01*
Y1126866D02*
Y1128266D01*
Y1128406D02*
Y1129896D01*
X1100800Y1118509D02*
Y1118893D01*
Y1119553D02*
Y1120436D01*
Y1120809D02*
Y1122169D01*
Y1126933D02*
Y1129756D01*
X1100900Y1118466D02*
Y1118832D01*
Y1119682D02*
Y1120099D01*
Y1120429D02*
Y1120536D01*
Y1120726D02*
Y1121484D01*
Y1121739D02*
Y1122235D01*
Y1127089D02*
Y1129616D01*
X1101000Y1118440D02*
Y1118799D01*
Y1119682D02*
Y1120063D01*
Y1120529D02*
Y1121013D01*
Y1122071D02*
Y1122302D01*
Y1127259D02*
Y1129470D01*
X1101100Y1118428D02*
Y1118766D01*
Y1119668D02*
Y1120030D01*
Y1120622D02*
Y1120774D01*
Y1122245D02*
Y1122369D01*
Y1127459D02*
Y1129270D01*
X1101200Y1118415D02*
Y1118732D01*
Y1119654D02*
Y1120027D01*
Y1120613D02*
Y1120707D01*
Y1122345D02*
Y1122401D01*
Y1127686D02*
Y1129070D01*
X1101300Y1118403D02*
Y1118714D01*
Y1119639D02*
Y1120027D01*
Y1120599D02*
Y1120648D01*
Y1122381D02*
Y1122415D01*
X1101400Y1118390D02*
Y1118701D01*
Y1119630D02*
Y1120027D01*
Y1120584D02*
Y1120623D01*
Y1122406D02*
Y1122429D01*
X1101500Y1118401D02*
Y1118689D01*
Y1119630D02*
Y1120027D01*
Y1120570D02*
Y1120598D01*
Y1122426D02*
Y1122444D01*
X1101600Y1118419D02*
Y1118676D01*
Y1119630D02*
Y1120021D01*
Y1120570D02*
Y1120597D01*
Y1122401D02*
Y1122443D01*
X1101700Y1118437D02*
Y1118664D01*
Y1119630D02*
Y1120008D01*
Y1120584D02*
Y1120622D01*
Y1122376D02*
Y1122426D01*
X1101800Y1118455D02*
Y1118667D01*
Y1119630D02*
Y1119996D01*
Y1120598D02*
Y1120647D01*
Y1122333D02*
Y1122409D01*
X1101900Y1118473D02*
Y1118679D01*
Y1119630D02*
Y1119983D01*
Y1120613D02*
Y1120705D01*
Y1122267D02*
Y1122393D01*
Y1128230D02*
Y1128352D01*
X1102000Y1118492D02*
Y1118692D01*
Y1119630D02*
Y1119971D01*
Y1120649D02*
Y1120772D01*
Y1122121D02*
Y1122345D01*
Y1127680D02*
Y1129023D01*
X1102100Y1118512D02*
Y1118704D01*
Y1119630D02*
Y1119965D01*
Y1120729D02*
Y1121015D01*
Y1121810D02*
Y1122295D01*
Y1127431D02*
Y1129323D01*
X1102200Y1118568D02*
Y1118717D01*
Y1119630D02*
Y1119965D01*
Y1120809D02*
Y1122265D01*
Y1127231D02*
Y1129520D01*
X1102300Y1118623D02*
Y1118744D01*
Y1119630D02*
Y1119965D01*
Y1120907D02*
Y1122265D01*
Y1127031D02*
Y1129660D01*
X1102400Y1118679D02*
Y1118784D01*
Y1119630D02*
Y1119943D01*
Y1121032D02*
Y1122059D01*
Y1122174D02*
Y1122265D01*
Y1126913D02*
Y1129800D01*
X1102500Y1118734D02*
Y1118824D01*
Y1119606D02*
Y1119900D01*
Y1121164D02*
Y1121850D01*
Y1122178D02*
Y1122265D01*
Y1126813D02*
Y1128072D01*
Y1128519D02*
Y1129897D01*
X1102600Y1118790D02*
Y1118880D01*
Y1119573D02*
Y1119857D01*
Y1122178D02*
Y1122265D01*
Y1126713D02*
Y1127549D01*
Y1129179D02*
Y1129968D01*
X1102700Y1118889D02*
Y1118980D01*
Y1119496D02*
Y1119814D01*
Y1122178D02*
Y1122265D01*
Y1126629D02*
Y1127251D01*
Y1129540D02*
Y1130040D01*
X1102800Y1119014D02*
Y1119128D01*
Y1119369D02*
Y1119730D01*
Y1122178D02*
Y1122265D01*
Y1126549D02*
Y1127051D01*
Y1129740D02*
Y1130111D01*
X1102900Y1119244D02*
Y1119510D01*
Y1122178D02*
Y1122265D01*
Y1126469D02*
Y1126894D01*
Y1129898D02*
Y1130174D01*
X1103000Y1126429D02*
Y1126794D01*
Y1129998D02*
Y1130224D01*
X1103100Y1126401D02*
Y1126694D01*
Y1130098D02*
Y1130274D01*
X1103200Y1126372D02*
Y1126606D01*
Y1130186D02*
Y1130324D01*
X1103300Y1119692D02*
Y1119777D01*
Y1126344D02*
Y1126577D01*
Y1130219D02*
Y1130374D01*
X1103400Y1119692D02*
Y1119910D01*
Y1126324D02*
Y1126549D01*
Y1130253D02*
Y1130404D01*
X1103500Y1119692D02*
Y1120044D01*
Y1121743D02*
Y1122389D01*
Y1126312D02*
Y1126520D01*
Y1130286D02*
Y1130415D01*
X1103600Y1119692D02*
Y1120177D01*
Y1122031D02*
Y1122389D01*
Y1126299D02*
Y1126492D01*
Y1130314D02*
Y1130426D01*
X1103700Y1119692D02*
Y1120310D01*
Y1122172D02*
Y1122389D01*
Y1126287D02*
Y1126472D01*
Y1130331D02*
Y1130438D01*
X1103800Y1119692D02*
Y1120444D01*
Y1122252D02*
Y1122389D01*
Y1126274D02*
Y1126458D01*
Y1130348D02*
Y1130449D01*
X1103900Y1119692D02*
Y1119780D01*
Y1119894D02*
Y1120577D01*
Y1122301D02*
Y1122389D01*
Y1126279D02*
Y1126444D01*
Y1130364D02*
Y1130457D01*
X1104000Y1119692D02*
Y1119778D01*
Y1120027D02*
Y1120710D01*
Y1122303D02*
Y1122389D01*
Y1126292D02*
Y1126430D01*
Y1130367D02*
Y1130441D01*
X1104100Y1119692D02*
Y1119778D01*
Y1120161D02*
Y1120844D01*
Y1122303D02*
Y1122389D01*
Y1126304D02*
Y1126421D01*
Y1130353D02*
Y1130424D01*
X1104200Y1119692D02*
Y1119778D01*
Y1120294D02*
Y1120977D01*
Y1122303D02*
Y1122389D01*
Y1126317D02*
Y1126438D01*
Y1130338D02*
Y1130407D01*
X1104300Y1119692D02*
Y1119778D01*
Y1120427D02*
Y1121110D01*
Y1122303D02*
Y1122389D01*
Y1126329D02*
Y1126455D01*
Y1130324D02*
Y1130385D01*
X1104400Y1119692D02*
Y1119778D01*
Y1120561D02*
Y1121244D01*
Y1122303D02*
Y1122389D01*
Y1126363D02*
Y1126471D01*
Y1130310D02*
Y1130357D01*
X1104500Y1119692D02*
Y1119778D01*
Y1120694D02*
Y1121377D01*
Y1122303D02*
Y1122389D01*
Y1126400D02*
Y1126496D01*
Y1130248D02*
Y1130328D01*
X1104600Y1119692D02*
Y1119778D01*
Y1120827D02*
Y1121510D01*
Y1122303D02*
Y1122389D01*
Y1126438D02*
Y1126536D01*
Y1130181D02*
Y1130300D01*
X1104700Y1119692D02*
Y1119778D01*
Y1120961D02*
Y1121644D01*
Y1122303D02*
Y1122389D01*
Y1126475D02*
Y1126576D01*
Y1130114D02*
Y1130270D01*
X1104800Y1119692D02*
Y1119778D01*
Y1121094D02*
Y1121777D01*
Y1122303D02*
Y1122389D01*
Y1126513D02*
Y1126619D01*
Y1130046D02*
Y1130237D01*
X1104900Y1119692D02*
Y1119778D01*
Y1121227D02*
Y1121910D01*
Y1122303D02*
Y1122389D01*
Y1126596D02*
Y1126679D01*
Y1129897D02*
Y1130212D01*
X1105000Y1119692D02*
Y1119778D01*
Y1121361D02*
Y1122044D01*
Y1122303D02*
Y1122389D01*
Y1126679D02*
Y1126739D01*
Y1129747D02*
Y1130261D01*
X1105100Y1119692D02*
Y1119778D01*
Y1121494D02*
Y1122177D01*
Y1122302D02*
Y1122389D01*
Y1126763D02*
Y1126799D01*
Y1129564D02*
Y1130365D01*
X1105200Y1119692D02*
Y1119778D01*
Y1121627D02*
Y1122389D01*
Y1126868D02*
Y1126932D01*
Y1129339D02*
Y1130459D01*
X1105300Y1119692D02*
Y1119803D01*
Y1121761D02*
Y1122389D01*
Y1127008D02*
Y1127072D01*
Y1129130D02*
Y1129479D01*
X1105400Y1119692D02*
Y1119836D01*
Y1121894D02*
Y1122389D01*
Y1127148D02*
Y1127212D01*
X1105500Y1119692D02*
Y1119915D01*
Y1122027D02*
Y1122389D01*
X1105600Y1119692D02*
Y1120015D01*
Y1122161D02*
Y1122389D01*
X1105700Y1119692D02*
Y1120400D01*
Y1122294D02*
Y1122389D01*
X1106000Y1127451D02*
Y1127858D01*
X1106100Y1119692D02*
Y1119742D01*
Y1123635D02*
Y1123681D01*
Y1127451D02*
Y1128005D01*
X1106200Y1119692D02*
Y1119762D01*
Y1123669D02*
Y1123719D01*
Y1127451D02*
Y1127786D01*
Y1127939D02*
Y1128151D01*
X1106300Y1119692D02*
Y1119785D01*
Y1123633D02*
Y1123758D01*
Y1127451D02*
Y1127786D01*
Y1128094D02*
Y1128298D01*
X1106400Y1119692D02*
Y1119966D01*
Y1123545D02*
Y1123796D01*
Y1127451D02*
Y1127786D01*
Y1128248D02*
Y1128445D01*
X1106500Y1119692D02*
Y1123835D01*
Y1127451D02*
Y1127786D01*
Y1128403D02*
Y1128591D01*
X1106600Y1119692D02*
Y1123873D01*
Y1127451D02*
Y1127786D01*
Y1128557D02*
Y1128738D01*
X1106700Y1119692D02*
Y1123912D01*
Y1127451D02*
Y1127786D01*
Y1128712D02*
Y1128885D01*
X1106800Y1119692D02*
Y1123943D01*
Y1127451D02*
Y1127786D01*
Y1128866D02*
Y1129031D01*
X1106900Y1119692D02*
Y1119897D01*
Y1121820D02*
Y1121892D01*
Y1127451D02*
Y1127786D01*
Y1129021D02*
Y1129178D01*
X1107000Y1119692D02*
Y1119783D01*
Y1121895D02*
Y1121960D01*
Y1127451D02*
Y1127786D01*
Y1129175D02*
Y1129325D01*
X1107100Y1119692D02*
Y1119733D01*
Y1121970D02*
Y1122040D01*
Y1127451D02*
Y1127786D01*
Y1129330D02*
Y1129471D01*
X1107200Y1119692D02*
Y1119716D01*
Y1122067D02*
Y1122120D01*
Y1127451D02*
Y1127786D01*
Y1129484D02*
Y1129618D01*
X1107300Y1122122D02*
Y1122197D01*
Y1127451D02*
Y1127786D01*
Y1129639D02*
Y1129765D01*
X1107400Y1122139D02*
Y1122272D01*
Y1127451D02*
Y1127786D01*
Y1129794D02*
Y1129911D01*
X1107500Y1122155D02*
Y1122339D01*
Y1127451D02*
Y1127786D01*
Y1129948D02*
Y1130058D01*
X1107600Y1122172D02*
Y1122372D01*
Y1127432D02*
Y1127805D01*
Y1129981D02*
Y1130205D01*
X1107700Y1119692D02*
Y1119716D01*
Y1122166D02*
Y1122406D01*
Y1126332D02*
Y1130351D01*
X1107800Y1119692D02*
Y1119716D01*
Y1122141D02*
Y1122439D01*
Y1126332D02*
Y1130459D01*
X1107900Y1119692D02*
Y1119717D01*
Y1122116D02*
Y1122432D01*
Y1126332D02*
Y1130459D01*
X1108000Y1119692D02*
Y1119807D01*
Y1121962D02*
Y1122407D01*
Y1126332D02*
Y1130459D01*
X1108100Y1119692D02*
Y1119957D01*
Y1121724D02*
Y1122379D01*
Y1127451D02*
Y1127786D01*
X1108200Y1119692D02*
Y1122346D01*
Y1127451D02*
Y1127786D01*
X1108300Y1119692D02*
Y1122234D01*
Y1127451D02*
Y1127786D01*
X1108400Y1119692D02*
Y1122057D01*
Y1127451D02*
Y1127786D01*
X1108500Y1119692D02*
Y1121789D01*
Y1127451D02*
Y1127786D01*
X1108600Y1119692D02*
Y1119858D01*
X1108700Y1119692D02*
Y1119772D01*
X1108800Y1119692D02*
Y1119722D01*
X1108900Y1119692D02*
Y1119716D01*
X1109300Y1120590D02*
Y1121322D01*
X1109400Y1120367D02*
Y1121646D01*
X1109500Y1120192D02*
Y1121821D01*
X1109600Y1120038D02*
Y1121946D01*
X1109700Y1119904D02*
Y1122063D01*
X1109800Y1119832D02*
Y1120606D01*
Y1121812D02*
Y1122163D01*
X1109900Y1119782D02*
Y1120340D01*
Y1122092D02*
Y1122263D01*
X1110000Y1119732D02*
Y1120128D01*
Y1122164D02*
Y1122309D01*
X1110100Y1119682D02*
Y1120003D01*
Y1122231D02*
Y1122349D01*
X1110200Y1119632D02*
Y1119878D01*
Y1122273D02*
Y1122389D01*
X1110300Y1119630D02*
Y1119823D01*
Y1122313D02*
Y1122407D01*
X1110400Y1119630D02*
Y1119789D01*
Y1122353D02*
Y1122423D01*
X1110500Y1119630D02*
Y1119756D01*
Y1122354D02*
Y1122440D01*
X1110600Y1119647D02*
Y1119722D01*
Y1122334D02*
Y1122442D01*
X1110700Y1119663D02*
Y1119730D01*
Y1122314D02*
Y1122420D01*
X1110800Y1119680D02*
Y1119750D01*
Y1122275D02*
Y1122398D01*
X1110900Y1119706D02*
Y1119770D01*
Y1122175D02*
Y1122376D01*
X1111000Y1119746D02*
Y1119820D01*
Y1122075D02*
Y1122353D01*
X1111100Y1119786D02*
Y1119920D01*
Y1121916D02*
Y1122331D01*
X1111200Y1119841D02*
Y1120070D01*
Y1121716D02*
Y1122246D01*
X1111300Y1119921D02*
Y1120334D01*
Y1121493D02*
Y1122161D01*
X1111400Y1120001D02*
Y1122075D01*
X1111500Y1120117D02*
Y1121989D01*
X1111600Y1120283D02*
Y1121832D01*
X1111700Y1120533D02*
Y1121657D01*
X1111800Y1120955D02*
Y1121230D01*
X1112300Y1122365D02*
Y1122389D01*
X1112400Y1122355D02*
Y1122389D01*
X1112500Y1122305D02*
Y1122389D01*
X1112600Y1122148D02*
Y1122389D01*
X1112700Y1120196D02*
Y1122389D01*
X1112800Y1119985D02*
Y1122389D01*
X1112900Y1119835D02*
Y1122389D01*
X1113000Y1119715D02*
Y1122389D01*
X1113100Y1119649D02*
Y1120387D01*
X1113200Y1119630D02*
Y1120044D01*
X1113300Y1119630D02*
Y1119975D01*
X1113400Y1119645D02*
Y1119909D01*
X1113500Y1119678D02*
Y1119903D01*
X1113600Y1119712D02*
Y1119903D01*
X1113700Y1119745D02*
Y1119920D01*
X1113800Y1119792D02*
Y1119940D01*
X1113900Y1119842D02*
Y1119960D01*
X1114000Y1119915D02*
Y1120007D01*
Y1122331D02*
Y1122389D01*
X1114100Y1120015D02*
Y1120074D01*
Y1122306D02*
Y1122389D01*
X1114200Y1120115D02*
Y1120160D01*
Y1122263D02*
Y1122389D01*
X1114300Y1120189D02*
Y1120260D01*
Y1122167D02*
Y1122389D01*
X1114400Y1119630D02*
Y1122389D01*
X1114500Y1119665D02*
Y1122389D01*
X1114600Y1119703D02*
Y1122389D01*
X1114700Y1119741D02*
Y1122389D01*
X1114800Y1119780D02*
Y1120011D01*
X1114900Y1119818D02*
Y1119936D01*
X1115000Y1119857D02*
Y1119907D01*
X1115100Y1119895D02*
Y1119941D01*
*
G04 PC Custom Flashes*
G04 Layer Name stm32l151_nbiot_parking - flashes*
%LPD*%
*
*
G04 PC Circuitry*
G04 Layer Name stm32l151_nbiot_parking - circuitry*
%LPD*%
*
G54D49*
X899692Y1107806D02*
G75*
G03X899692I-1802J0D01*
G01X1018570Y1158210D02*
Y1175926D01*
X1030381*
Y1158210*
X1018570*
X1021173Y1168224D02*
G03X1027973I3400J-0D01*
G01X1032320Y1158210D02*
Y1175926D01*
X1044131*
Y1158210*
X1032320*
X1034923Y1168224D02*
G03X1041723I3400J-0D01*
G01X793055Y1130523D02*
Y1195284D01*
X860184Y1130523D02*
X793055D01*
X860184Y1195284D02*
X793055D01*
X860184Y1130523D02*
Y1195284D01*
X793055Y1130523D02*
Y1195284D01*
X860184D02*
X793055D01*
X860184Y1130523D02*
Y1195284D01*
Y1130523D02*
X793055D01*
X857058Y1191726D02*
X845392D01*
X857058D02*
X857409Y1192077D01*
Y1201730*
X857405Y1201726D02*
X857409Y1201730D01*
X857405Y1201726D02*
X842791D01*
X837126D02*
X820905D01*
X837126Y1191726D02*
X837126D01*
X816968*
X821873Y1201726D02*
X796282D01*
X821864Y1191726D02*
X796273D01*
X846873Y1201726D02*
X821282D01*
X846864Y1191726D02*
X821273D01*
X847086Y1201726D02*
X837834D01*
X847086D02*
X847086D01*
Y1191726D02*
X796273D01*
Y1201717*
X796282Y1201726*
X847086D02*
X796282D01*
X988807Y1102351D02*
X987807D01*
X1041392Y1064962D02*
X1040392D01*
X875390Y1154416D02*
X876390D01*
X871047Y1177260D02*
X880890D01*
Y1169386*
X871047*
Y1177260*
X874568Y1175723D02*
Y1171523D01*
X876768*
X923182Y1188505D02*
X930182D01*
Y1195505*
X923182*
X920182Y1188505D02*
X913182D01*
Y1195505*
X920182*
X876842Y1012392D02*
X859126D01*
Y1024203*
X876842*
Y1012392*
X866828Y1014996D02*
G03Y1021796I0J3400D01*
G01X975026Y1134632D02*
Y1127632D01*
X982026*
Y1134632*
X975026Y1137632D02*
Y1144632D01*
X982026*
Y1137632*
X962745Y1160540D02*
X969745D01*
Y1167540*
X962745*
X959745Y1160540D02*
X952745D01*
Y1167540*
X959745*
X868317Y1067714D02*
X867317D01*
X1036955Y1118635D02*
X1037955D01*
X917323Y1169631D02*
Y1165694D01*
X921260*
X992742Y1147116D02*
X975026D01*
Y1158927*
X992742*
Y1147116*
X982728Y1149720D02*
G03Y1156520I0J3400D01*
G01X793377Y1081926D02*
Y1076863D01*
X791332Y1079394D02*
X795423D01*
X791683Y1068575D02*
X795774D01*
X1058368Y1168296D02*
X1062459D01*
X1045224Y1153058D02*
Y1147152D01*
Y1153058D02*
X1047270D01*
X1047951Y1152777*
X1048179Y1152496*
X1048406Y1151933*
Y1151371*
X1048179Y1150808*
X1047951Y1150527*
X1047270Y1150246*
X1045224*
X1046815D02*
X1048406Y1147152D01*
X1050451Y1153058D02*
X1053633Y1147152D01*
Y1153058D02*
X1050451Y1147152D01*
X1046932Y1142981D02*
Y1137075D01*
X1045341Y1142981D02*
X1048523D01*
X1050569D02*
X1053750Y1137075D01*
Y1142981D02*
X1050569Y1137075D01*
X1045888Y1132981D02*
Y1127075D01*
Y1132981D02*
X1048843D01*
X1045888Y1130169D02*
X1047706D01*
X1045888Y1127075D02*
X1048843D01*
X1050888Y1132981D02*
Y1127075D01*
Y1132981D02*
X1054070Y1127075D01*
Y1132981D02*
Y1127075D01*
X1051762Y1122099D02*
Y1117037D01*
X1049716Y1119568D02*
X1053807D01*
X1090456Y1016878D02*
X1094547D01*
X1097545Y1019706D02*
Y1013800D01*
Y1019706D02*
X1099591D01*
X1100273Y1019425*
X1100500Y1019144*
X1100727Y1018581*
Y1018019*
X1100500Y1017456*
X1100273Y1017175*
X1099591Y1016894*
X1097545*
X1099136D02*
X1100727Y1013800D01*
X1102773Y1019706D02*
X1105955Y1013800D01*
Y1019706D02*
X1102773Y1013800D01*
X1109331Y1019980D02*
Y1014073D01*
X1107740Y1019980D02*
X1110922D01*
X1112968D02*
X1116149Y1014073D01*
Y1019980D02*
X1112968Y1014073D01*
G54D51*
X1015815Y1190087D02*
X973315D01*
Y1200087*
X1012815*
X1015815Y1197087*
Y1190087*
X890945Y1200407D02*
X942126D01*
Y1139383*
X892882*
X890945Y1143289*
Y1200407*
X1086566Y1001557D02*
Y1011557D01*
X1116566*
Y1004557*
X1113566Y1001557*
X1086566*
X1072981Y1024956D02*
G03X1072981I-23622J0D01*
G01X1032446Y1007633D02*
Y1002515D01*
X1034446Y1005082D02*
X1030446D01*
X1065511Y1114796D02*
Y1164796D01*
X1055511*
Y1114796*
X1065511*
X1114563Y1044024D02*
G03X1114563I-9500J0D01*
G01X1090110D02*
G03X1090110I-9500J0D01*
G01Y1105582D02*
G03X1090110I-9500J0D01*
G01X1114563D02*
G03X1114563I-9500J0D01*
G54D62*
G01X887779Y1191682D02*
G03X887779I-11811J0D01*
G01X920739Y1189826D02*
G03X920750Y1194185I114J2179D01*
G01X976346Y1137075D02*
G03X980706Y1137064I2180J-114D01*
G01X960302Y1161861D02*
G03X960313Y1166220I114J2179D01*
G54D63*
G01X865406Y1101053D02*
X861320D01*
G03Y1096053I2589J-2500*
G01X865406*
X867806Y1101053D02*
X872224D01*
X872222Y1096050D02*
G03X872226Y1101050I-3656J2503D01*
G01X872224Y1096053D02*
X867806D01*
X912843Y1099178D02*
X916929D01*
G03Y1104178I-2589J2500*
G01X912843*
X910443Y1099178D02*
X906025D01*
X906027Y1104181D02*
G03X906022Y1099181I3656J-2503D01*
G01X906025Y1104178D02*
X910443D01*
X871235Y1140103D02*
Y1144189D01*
G03X866235I-2500J-2589*
G01Y1140103*
X871235Y1137703D02*
Y1133285D01*
X866232Y1133287D02*
G03X871232Y1133282I2503J3656D01*
G01X866235Y1133285D02*
Y1137703D01*
X973605Y1119472D02*
X977691D01*
G03Y1124472I-2588J2500*
G01X973605*
X971205Y1119472D02*
X966787D01*
X966790Y1124476D02*
G03X966785Y1119476I3655J-2504D01*
G01X966787Y1124472D02*
X971205D01*
X1005217Y1175477D02*
X1000417D01*
Y1170477*
X1005217*
X1007617Y1175477D02*
X1012417D01*
Y1170477*
X1007617*
X934271Y1102853D02*
X938357D01*
G03Y1107853I-2589J2500*
G01X934271*
X931871Y1102853D02*
X927453D01*
X927455Y1107856D02*
G03X927451Y1102856I3656J-2503D01*
G01X927453Y1107853D02*
X931871D01*
Y1127352D02*
X927785D01*
G03Y1122352I2589J-2500*
G01X931871*
X934271Y1127352D02*
X938689D01*
X938687Y1122349D02*
G03X938691Y1127349I-3656J2503D01*
G01X938689Y1122352D02*
X934271D01*
X932450Y1154974D02*
X936536D01*
G03Y1159974I-2589J2500*
G01X932450*
X930050Y1154974D02*
X925632D01*
X925634Y1159977D02*
G03X925630Y1154977I3656J-2503D01*
G01X925632Y1159974D02*
X930050D01*
X793305Y1130523D02*
G03X793305I-250J0D01*
G01Y1195284D02*
G03X793305I-250J0D01*
G01X860434Y1130523D02*
G03X860434I-250J0D01*
G01X793305D02*
G03X793305I-250J0D01*
G01X860434Y1195284D02*
G03X860434I-250J0D01*
G01X793305D02*
G03X793305I-250J0D01*
G01X860434Y1130523D02*
G03X860434I-250J0D01*
G01Y1195284D02*
G03X860434I-250J0D01*
G01X793305Y1130523D02*
G03X793305I-250J0D01*
G01Y1195284D02*
G03X793305I-250J0D01*
G01X860434D02*
G03X860434I-250J0D01*
G01X793305D02*
G03X793305I-250J0D01*
G01X860434Y1130523D02*
G03X860434I-250J0D01*
G01Y1195284D02*
G03X860434I-250J0D01*
G01Y1130523D02*
G03X860434I-250J0D01*
G01X793305D02*
G03X793305I-250J0D01*
G01X857308Y1191726D02*
G03X857308I-250J0D01*
G01X845642D02*
G03X845642I-250J0D01*
G01X857308D02*
G03X857308I-250J0D01*
G01X857659Y1192077D02*
G03X857659I-250J0D01*
G03X857659I-250J0*
G01Y1201730D02*
G03X857659I-250J0D01*
G01X857655Y1201726D02*
G03X857655I-250J0D01*
G01X857659Y1201730D02*
G03X857659I-250J0D01*
G01X857655Y1201726D02*
G03X857655I-250J0D01*
G01X843041D02*
G03X843041I-250J0D01*
G01X837376D02*
G03X837376I-250J0D01*
G01X821155D02*
G03X821155I-250J0D01*
G01X837376Y1191726D02*
G03X837376I-250J0D01*
G03X837376I-250J0*
G03X837376I-250J0*
G01X817218D02*
G03X817218I-250J0D01*
G01X822123Y1201726D02*
G03X822123I-250J0D01*
G01X796532D02*
G03X796532I-250J0D01*
G01X822114Y1191726D02*
G03X822114I-250J0D01*
G01X796523D02*
G03X796523I-250J0D01*
G01X847123Y1201726D02*
G03X847123I-250J0D01*
G01X821532D02*
G03X821532I-250J0D01*
G01X847114Y1191726D02*
G03X847114I-250J0D01*
G01X821523D02*
G03X821523I-250J0D01*
G01X847336Y1201726D02*
G03X847336I-250J0D01*
G01X838084D02*
G03X838084I-250J0D01*
G01X847336D02*
G03X847336I-250J0D01*
G03X847336I-250J0*
G01Y1191726D02*
G03X847336I-250J0D01*
G01X796523D02*
G03X796523I-250J0D01*
G03X796523I-250J0*
G01Y1201717D02*
G03X796523I-250J0D01*
G03X796523I-250J0*
G01X796532Y1201726D02*
G03X796532I-250J0D01*
G01X847336D02*
G03X847336I-250J0D01*
G01X796532D02*
G03X796532I-250J0D01*
G01X856507Y1062299D02*
Y1057499D01*
X861507*
Y1062299*
X856507Y1064699D02*
Y1069499D01*
X861507*
Y1064699*
X991307Y1093351D02*
X993807D01*
Y1098351*
X985307Y1093351D02*
X982807D01*
Y1098351*
X860955Y1052976D02*
X856869D01*
G03Y1047976I2588J-2500*
G01X860955*
X863355Y1052976D02*
X867773D01*
X867770Y1047973D02*
G03X867775Y1052973I-3655J2503D01*
G01X867773Y1047976D02*
X863355D01*
X981555Y1099252D02*
Y1103338D01*
G03X976555I-2500J-2589*
G01Y1099252*
X981555Y1096852D02*
Y1092434D01*
X976552Y1092436D02*
G03X981552Y1092432I2503J3656D01*
G01X976555Y1092434D02*
Y1096852D01*
X969744Y1099252D02*
Y1104052D01*
X964744*
Y1099252*
X969744Y1096852D02*
Y1092052D01*
X964744*
Y1096852*
X975649Y1099252D02*
Y1104052D01*
X970649*
Y1099252*
X975649Y1096852D02*
Y1092052D01*
X970649*
Y1096852*
X824972Y1119606D02*
X820886D01*
G03Y1114606I2589J-2500*
G01X824972*
X827372Y1119606D02*
X831790D01*
X831788Y1114602D02*
G03X831792Y1119602I-3656J2504D01*
G01X831790Y1114606D02*
X827372D01*
X824972Y1113700D02*
X820172D01*
Y1108700*
X824972*
X827372Y1113700D02*
X832172D01*
Y1108700*
X827372*
X1043892Y1055962D02*
X1046392D01*
Y1060962*
X1037892Y1055962D02*
X1035392D01*
Y1060962*
X951192Y1162615D02*
Y1166701D01*
G03X946192I-2500J-2589*
G01Y1162615*
X951192Y1160215D02*
Y1155797D01*
X946189Y1155799D02*
G03X951189Y1155794I2503J3656D01*
G01X946192Y1155797D02*
Y1160215D01*
X872890Y1163416D02*
X870390D01*
Y1158416*
X878890Y1163416D02*
X881390D01*
Y1158416*
X931737Y1185493D02*
Y1181407D01*
G03X936737I2500J2589*
G01Y1185493*
X931737Y1187893D02*
Y1192311D01*
X936740Y1192308D02*
G03X931740Y1192313I-2503J-3655D01*
G01X936737Y1192311D02*
Y1187893D01*
X860955Y1047071D02*
X856869D01*
G03Y1042071I2588J-2500*
G01X860955*
X863355Y1047071D02*
X867773D01*
X867770Y1042068D02*
G03X867775Y1047068I-3655J2503D01*
G01X867773Y1042071D02*
X863355D01*
X860955Y1041165D02*
X856869D01*
G03Y1036165I2588J-2500*
G01X860955*
X863355Y1041165D02*
X867773D01*
X867770Y1036162D02*
G03X867775Y1041162I-3655J2503D01*
G01X867773Y1036165D02*
X863355D01*
X956440Y1124472D02*
X951640D01*
Y1119472*
X956440*
X958840Y1124472D02*
X963640D01*
Y1119472*
X958840*
X984124Y1136331D02*
Y1132245D01*
G03X989124I2500J2589*
G01Y1136331*
X984124Y1138731D02*
Y1143149D01*
X989127Y1143147D02*
G03X984127Y1143151I-2503J-3656D01*
G01X989124Y1143149D02*
Y1138731D01*
X952992Y1170475D02*
X957792D01*
Y1175475*
X952992*
X950592Y1170475D02*
X945792D01*
Y1175475*
X950592*
X963823Y1177276D02*
Y1181362D01*
G03X958823I-2500J-2589*
G01Y1177276*
X963823Y1174876D02*
Y1170458D01*
X958820Y1170460D02*
G03X963820Y1170456I2503J3656D01*
G01X958823Y1170458D02*
Y1174876D01*
X964995D02*
Y1170076D01*
X969995*
Y1174876*
X964995Y1177276D02*
Y1182076D01*
X969995*
Y1177276*
X965195Y1183528D02*
X969995D01*
Y1188528*
X965195*
X962795Y1183528D02*
X957995D01*
Y1188528*
X962795*
X965195Y1189749D02*
X969995D01*
Y1194749*
X965195*
X962795Y1189749D02*
X957995D01*
Y1194749*
X962795*
X1051038Y1165463D02*
Y1169549D01*
G03X1046038I-2500J-2589*
G01Y1165463*
X1051038Y1163063D02*
Y1158645D01*
X1046035Y1158647D02*
G03X1051035Y1158643I2503J3656D01*
G01X1046038Y1158645D02*
Y1163063D01*
X827372Y1102795D02*
X832172D01*
Y1107795*
X827372*
X824972Y1102795D02*
X820172D01*
Y1107795*
X824972*
X1005217Y1180989D02*
X1000417D01*
Y1175989*
X1005217*
X1007617Y1180989D02*
X1012417D01*
Y1175989*
X1007617*
Y1164965D02*
X1012417D01*
Y1169965*
X1007617*
X1005217Y1164965D02*
X1000417D01*
Y1169965*
X1005217*
X870817Y1058714D02*
X873317D01*
Y1063714*
X864817Y1058714D02*
X862317D01*
Y1063714*
X833312Y1100995D02*
Y1096195D01*
X838312*
Y1100995*
X833312Y1103395D02*
Y1108195D01*
X838312*
Y1103395*
X903562Y1168099D02*
X908362D01*
Y1173099*
X903562*
X901162Y1168099D02*
X896362D01*
Y1173099*
X901162*
X903562Y1173724D02*
X907648D01*
G03Y1178724I-2589J2500*
G01X903562*
X901162Y1173724D02*
X896744D01*
X896746Y1178727D02*
G03X896742Y1173727I3656J-2503D01*
G01X896744Y1178724D02*
X901162D01*
X931871Y1133258D02*
X927071D01*
Y1128258*
X931871*
X934271Y1133258D02*
X939071D01*
Y1128258*
X934271*
X995374Y1151855D02*
Y1147769D01*
G03X1000374I2500J2589*
G01Y1151855*
X995374Y1154255D02*
Y1158673D01*
X1000378Y1158671D02*
G03X995378Y1158675I-2504J-3656D01*
G01X1000374Y1158673D02*
Y1154255D01*
X964883Y1153666D02*
X968969D01*
G03Y1158666I-2589J2500*
G01X964883*
X962483Y1153666D02*
X958065D01*
X958067Y1158669D02*
G03X958063Y1153669I3656J-2503D01*
G01X958065Y1158666D02*
X962483D01*
X1034455Y1127635D02*
X1031955D01*
Y1122635*
X1040455Y1127635D02*
X1042955D01*
Y1122635*
X934271Y1116446D02*
X938357D01*
G03Y1121446I-2589J2500*
G01X934271*
X931871Y1116446D02*
X927453D01*
X927455Y1121450D02*
G03X927451Y1116450I3656J-2504D01*
G01X927453Y1121446D02*
X931871D01*
X903562Y1162474D02*
X908362D01*
Y1167474*
X903562*
X901162Y1162474D02*
X896362D01*
Y1167474*
X901162*
X990048Y1165477D02*
Y1185477D01*
X980599*
Y1165477*
X984324*
X986324D02*
G03X984324I-1000J0D01*
G01X986324D02*
X990048D01*
X957933Y1099252D02*
Y1104052D01*
X952933*
Y1099252*
X957933Y1096852D02*
Y1092052D01*
X952933*
Y1096852*
X963838Y1099252D02*
Y1104052D01*
X958838*
Y1099252*
X963838Y1096852D02*
Y1092052D01*
X958838*
Y1096852*
X827372Y1096889D02*
X832172D01*
Y1101889*
X827372*
X824972Y1096889D02*
X820172D01*
Y1101889*
X824972*
G54D64*
G54D65*
X881254Y1018387D02*
Y1078544D01*
X959994*
Y1015552*
X884088*
X881254Y1018387*
X914727Y1115163D02*
X932727D01*
Y1109163*
X918727*
Y1111163*
X916727*
Y1109163*
X914727*
Y1115163*
X1040209Y1150737D02*
X1022709D01*
Y1140737*
X1040209*
Y1150737*
X989010Y1167689D02*
G03X989010I-1181J0D01*
G01X968655Y1131775D02*
Y1149275D01*
X958655*
Y1131775*
X968655*
G54D66*
X898390Y1105806D02*
X876390D01*
X875390*
Y1130306*
X899890*
Y1107306*
X898390Y1105806*
G54D80*
X763780Y1055118D02*
Y1204724D01*
X1066929*
Y1145669*
X1118110*
Y1094488*
X1062992*
Y1055118*
X1118110*
Y1000000*
X862205*
X803150Y1055118*
X763780*
X765606Y1089134D02*
X789277D01*
Y1059134*
X765606*
Y1089134*
Y1141240D02*
X789199D01*
Y1091240*
X765606*
Y1141240*
Y1202697D02*
X789199D01*
Y1142697*
X765606*
Y1202697*
X972565Y1001803D02*
Y1025421D01*
X1022565*
Y1001803*
X972565*
G54D87*
X866766Y1099423D02*
G03Y1097963I-0J-730D01*
G01X911483Y1100808D02*
G03Y1102268I-0J730D01*
G01X869605Y1138743D02*
G03X868145I-730J-0D01*
G01X972245Y1121102D02*
G03Y1122562I0J730D01*
G01X1005987Y1174197D02*
Y1171587D01*
X1006057Y1172967D02*
G03Y1174267I237J650D01*
G01X1006017Y1172857D02*
X1007147Y1171727D01*
X932911Y1104483D02*
G03Y1105943I-0J730D01*
G01X933231Y1125722D02*
G03Y1124262I-0J-730D01*
G01X931090Y1156604D02*
G03Y1158064I0J730D01*
G01X857787Y1063069D02*
X860397D01*
X859017Y1063139D02*
G03X857717I-650J237D01*
G01X859127Y1063099D02*
X860257Y1064229D01*
X862315Y1051346D02*
G03Y1049886I-0J-730D01*
G01X979925Y1097892D02*
G03X978465I-730J0D01*
G01X968464Y1098482D02*
X965854D01*
X967234Y1098412D02*
G03X968534I650J-236D01*
G01X967124Y1098452D02*
X965994Y1097322D01*
X974369Y1098482D02*
X971759D01*
X973139Y1098412D02*
G03X974439I650J-236D01*
G01X973029Y1098452D02*
X971899Y1097322D01*
X826332Y1117976D02*
G03Y1116516I-0J-730D01*
G01X825742Y1112420D02*
Y1109810D01*
X825812Y1111190D02*
G03Y1112490I237J650D01*
G01X825772Y1111080D02*
X826902Y1109950D01*
X949562Y1161255D02*
G03X948102I-730J-0D01*
G01X933367Y1186853D02*
G03X934827I730J-0D01*
G01X862315Y1045441D02*
G03Y1043981I-0J-730D01*
G01Y1039535D02*
G03Y1038075I-0J-730D01*
G01X957210Y1123192D02*
Y1120582D01*
X957280Y1121962D02*
G03Y1123262I236J650D01*
G01X957240Y1121852D02*
X958370Y1120722D01*
X985754Y1137691D02*
G03X987214I730J-0D01*
G01X952222Y1171755D02*
Y1174365D01*
X952152Y1172985D02*
G03Y1171685I-237J-650D01*
G01X952192Y1173095D02*
X951062Y1174225D01*
X962193Y1175916D02*
G03X960733I-730J-0D01*
G01X966275Y1175646D02*
X968885D01*
X967505Y1175716D02*
G03X966205I-650J237D01*
G01X967615Y1175676D02*
X968745Y1176806D01*
X964425Y1184808D02*
Y1187418D01*
X964355Y1186038D02*
G03Y1184738I-236J-650D01*
G01X964395Y1186148D02*
X963265Y1187278D01*
X964425Y1191029D02*
Y1193639D01*
X964355Y1192259D02*
G03Y1190959I-236J-650D01*
G01X964395Y1192369D02*
X963265Y1193499D01*
X1049408Y1164103D02*
G03X1047948I-730J0D01*
G01X826602Y1104075D02*
Y1106685D01*
X826532Y1105305D02*
G03Y1104005I-237J-650D01*
G01X826572Y1105415D02*
X825442Y1106545D01*
X1005987Y1179709D02*
Y1177099D01*
X1006057Y1178479D02*
G03Y1179779I237J650D01*
G01X1006017Y1178369D02*
X1007147Y1177239D01*
X1006847Y1166245D02*
Y1168855D01*
X1006777Y1167475D02*
G03Y1166175I-236J-650D01*
G01X1006817Y1167585D02*
X1005687Y1168715D01*
X834592Y1101765D02*
X837202D01*
X835822Y1101835D02*
G03X834522I-650J236D01*
G01X835932Y1101795D02*
X837062Y1102925D01*
X902792Y1169379D02*
Y1171989D01*
X902722Y1170609D02*
G03Y1169309I-236J-650D01*
G01X902762Y1170719D02*
X901632Y1171849D01*
X902202Y1175354D02*
G03Y1176814I0J730D01*
G01X932641Y1131978D02*
Y1129368D01*
X932711Y1130748D02*
G03Y1132048I236J650D01*
G01X932671Y1130638D02*
X933801Y1129508D01*
X997004Y1153215D02*
G03X998464I730J0D01*
G01X963523Y1155296D02*
G03Y1156756I-0J730D01*
G01X932911Y1118076D02*
G03Y1119536I-0J730D01*
G01X902792Y1163754D02*
Y1166364D01*
X902722Y1164984D02*
G03Y1163684I-236J-650D01*
G01X902762Y1165094D02*
X901632Y1166224D01*
X956653Y1098482D02*
X954043D01*
X955423Y1098412D02*
G03X956723I650J-236D01*
G01X955313Y1098452D02*
X954183Y1097322D01*
X962558Y1098482D02*
X959948D01*
X961328Y1098412D02*
G03X962628I650J-236D01*
G01X961218Y1098452D02*
X960088Y1097322D01*
X826602Y1098169D02*
Y1100779D01*
X826532Y1099399D02*
G03Y1098099I-237J-650D01*
G01X826572Y1099509D02*
X825442Y1100639D01*
X796204Y1109771D02*
Y1112355D01*
X796204D02*
X795131D01*
X792983Y1110386D02*
X793073Y1110140D01*
X793252Y1109894*
X793431Y1109771*
X793789*
X793968Y1109894*
X794147Y1110140*
X794236Y1110386*
X794325Y1110755*
Y1111370*
X794236Y1111739*
X794147Y1111985*
X793968Y1112232*
X793789Y1112355*
X793431*
X793252Y1112232*
X793073Y1111985*
X792983Y1111739*
X792089Y1110386D02*
Y1110263D01*
X791999Y1110017*
X791910Y1109894*
X791731Y1109771*
X791373*
X791194Y1109894*
X791104Y1110017*
X791015Y1110263*
Y1110509*
X791104Y1110755*
X791283Y1111124*
X792178Y1112355*
X790925*
X796204Y1121646D02*
Y1124230D01*
X796204D02*
X795131D01*
X792983Y1122261D02*
X793073Y1122015D01*
X793252Y1121769*
X793431Y1121646*
X793789*
X793968Y1121769*
X794147Y1122015*
X794236Y1122261*
X794325Y1122630*
Y1123245*
X794236Y1123614*
X794147Y1123861*
X793968Y1124107*
X793789Y1124230*
X793431*
X793252Y1124107*
X793073Y1123861*
X792983Y1123614*
X791999Y1121646D02*
X791015D01*
X791552Y1122630*
X791283*
X791104Y1122753*
X791015Y1122876*
X790925Y1123245*
Y1123491*
X791015Y1123861*
X791194Y1124107*
X791462Y1124230*
X791731*
X791999Y1124107*
X792089Y1123984*
X792178Y1123738*
X809881Y1121106D02*
X807297D01*
Y1120032*
X809266Y1117885D02*
X809512Y1117974D01*
X809758Y1118153*
X809881Y1118332*
Y1118690*
X809758Y1118869*
X809512Y1119048*
X809266Y1119138*
X808897Y1119227*
X808281*
X807912Y1119138*
X807666Y1119048*
X807420Y1118869*
X807297Y1118690*
Y1118332*
X807420Y1118153*
X807666Y1117974*
X807912Y1117885*
X809389Y1117080D02*
X809512Y1116901D01*
X809881Y1116632*
X807297*
G54D138*
X928020Y1200712D02*
X1065815D01*
Y1114492*
X928020*
Y1200712*
G54D145*
X803079Y1109105D02*
X806129D01*
G03Y1113105I-3464J2000*
G01X803079*
X800579Y1109105D02*
X797529D01*
Y1113105D02*
G03Y1109105I2856J-2000D01*
G01Y1113105D02*
X800579D01*
X801230Y1110105D02*
G03X801228Y1112105I287J1000D01*
G01X803079Y1120980D02*
X806129D01*
G03Y1124980I-3464J2000*
G01X803079*
X800579Y1120980D02*
X797529D01*
Y1124980D02*
G03Y1120980I2856J-2000D01*
G01Y1124980D02*
X800579D01*
X801230Y1121980D02*
G03X801228Y1123980I287J1000D01*
G01X975738Y1057679D02*
X978788D01*
G03Y1061679I-3464J2000*
G01X975738*
X973238Y1057679D02*
X970188D01*
Y1061679D02*
G03Y1057679I2856J-2000D01*
G01Y1061679D02*
X973238D01*
X973889Y1058679D02*
G03X973887Y1060679I286J1000D01*
G01X982393Y1058416D02*
Y1061466D01*
G03X978393I-2000J-3464*
G01Y1058416*
X982393Y1055916D02*
Y1052866D01*
X978393D02*
G03X982393I2000J2856D01*
G01X978393D02*
Y1055916D01*
X981394Y1056567D02*
G03X979394Y1056565I-1001J286D01*
G01X970582Y1058416D02*
Y1061466D01*
G03X966582I-2000J-3464*
G01Y1058416*
X970582Y1055916D02*
Y1052866D01*
X966582D02*
G03X970582I2000J2856D01*
G01X966582D02*
Y1055916D01*
X969583Y1056567D02*
G03X967583Y1056565I-1001J286D01*
G01X802329Y1115793D02*
Y1112743D01*
G03X806329I2000J3464*
G01Y1115793*
X802329Y1118293D02*
Y1121343D01*
X806329D02*
G03X802329I-2000J-2857D01*
G01X806329D02*
Y1118293D01*
X803329Y1117642D02*
G03X805329Y1117644I1000J-287D01*
G54D146*
G01X996021Y1056239D02*
X988344D01*
Y1063129*
X996021*
Y1056239*
X1018008Y1194292D02*
X1019082Y1190675D01*
X1020156Y1194292D02*
X1019082Y1190675D01*
X1021364Y1194292D02*
Y1190675D01*
Y1194292D02*
X1022572D01*
X1022974Y1194120*
X1023109Y1193947*
X1023243Y1193603*
Y1193086*
X1023109Y1192742*
X1022974Y1192569*
X1022572Y1192397*
X1021364*
X1025390Y1194292D02*
Y1190675D01*
X1024451Y1194292D02*
X1026330D01*
X1028611D02*
X1027538Y1190675D01*
X1028611Y1194292D02*
X1029685Y1190675D01*
X1027940Y1191880D02*
X1029283D01*
X1031833Y1194292D02*
Y1190675D01*
X1030893Y1194292D02*
X1032772D01*
X1036093Y1194350D02*
X1037167Y1190733D01*
X1038241Y1194350D02*
X1037167Y1190733D01*
X1040388Y1194350D02*
Y1190733D01*
X1039449Y1194350D02*
X1041328D01*
X1042536D02*
Y1191767D01*
X1042670Y1191250*
X1042938Y1190906*
X1043341Y1190733*
X1043609*
X1044012Y1190906*
X1044281Y1191250*
X1044415Y1191767*
Y1194350*
X1045623D02*
Y1190733D01*
Y1194350D02*
X1047502Y1190733D01*
Y1194350D02*
Y1190733D01*
X1048710Y1194350D02*
Y1190733D01*
Y1194350D02*
X1050454D01*
X1048710Y1192628D02*
X1049783D01*
X1048710Y1190733D02*
X1050454D01*
X1056363Y1194322D02*
Y1191222D01*
X1055155Y1192772D02*
X1057571D01*
X1061424Y1192674D02*
X1063840D01*
X983381Y1129881D02*
Y1126264D01*
X984589Y1129881D02*
Y1126264D01*
Y1129881D02*
X986334D01*
X984589Y1128159D02*
X985663D01*
X988347Y1129881D02*
X988079Y1129709D01*
X987810Y1129365*
X987676Y1129020*
X987542Y1128503*
Y1127642*
X987676Y1127125*
X987810Y1126781*
X988079Y1126436*
X988347Y1126264*
X988884*
X989153Y1126436*
X989421Y1126781*
X989555Y1127125*
X989690Y1127642*
Y1128503*
X989555Y1129020*
X989421Y1129365*
X989153Y1129709*
X988884Y1129881*
X988347*
X988750Y1126953D02*
X989555Y1125920D01*
X994045Y1130018D02*
Y1126401D01*
Y1130018D02*
X995924Y1126401D01*
Y1130018D02*
Y1126401D01*
X999145Y1129157D02*
X999011Y1129501D01*
X998742Y1129846*
X998474Y1130018*
X997937*
X997669Y1129846*
X997400Y1129501*
X997266Y1129157*
X997132Y1128640*
Y1127779*
X997266Y1127262*
X997400Y1126918*
X997669Y1126573*
X997937Y1126401*
X998474*
X998742Y1126573*
X999011Y1126918*
X999145Y1127262*
X1004025Y1130018D02*
Y1126401D01*
Y1130018D02*
X1005904Y1126401D01*
Y1130018D02*
Y1126401D01*
X1009125Y1129157D02*
X1008991Y1129501D01*
X1008722Y1129846*
X1008454Y1130018*
X1007917*
X1007649Y1129846*
X1007380Y1129501*
X1007246Y1129157*
X1007112Y1128640*
Y1127779*
X1007246Y1127262*
X1007380Y1126918*
X1007649Y1126573*
X1007917Y1126401*
X1008454*
X1008722Y1126573*
X1008991Y1126918*
X1009125Y1127262*
X973069Y1034429D02*
Y1028125D01*
X976251Y1034429D02*
X973069Y1030226D01*
X974206Y1031727D02*
X976251Y1028125D01*
X978751Y1034429D02*
X981251D01*
X979888Y1032028*
X980569*
X981024Y1031727*
X981251Y1031427*
X981479Y1030527*
Y1029926*
X981251Y1029026*
X980797Y1028425*
X980115Y1028125*
X979433*
X978751Y1028425*
X978524Y1028725*
X978297Y1029326*
X986576Y1032987D02*
X986348Y1033587D01*
X985894Y1034188*
X985439Y1034488*
X984530*
X984076Y1034188*
X983621Y1033587*
X983394Y1032987*
X983167Y1032086*
Y1030585*
X983394Y1029685*
X983621Y1029084*
X984076Y1028484*
X984530Y1028184*
X985439*
X985894Y1028484*
X986348Y1029084*
X986576Y1029685*
X989985Y1034488D02*
X989530Y1034188D01*
X989076Y1033587*
X988848Y1032987*
X988621Y1032086*
Y1030585*
X988848Y1029685*
X989076Y1029084*
X989530Y1028484*
X989985Y1028184*
X990894*
X991348Y1028484*
X991803Y1029084*
X992030Y1029685*
X992257Y1030585*
Y1032086*
X992030Y1032987*
X991803Y1033587*
X991348Y1034188*
X990894Y1034488*
X989985*
X994303D02*
Y1028184D01*
Y1034488D02*
X996121Y1028184D01*
X997939Y1034488D02*
X996121Y1028184D01*
X997939Y1034488D02*
Y1028184D01*
X1001916Y1034078D02*
Y1027773D01*
X1005097Y1034078D02*
X1001916Y1029875D01*
X1003052Y1031376D02*
X1005097Y1027773D01*
X1007370Y1032577D02*
Y1032877D01*
X1007597Y1033477*
X1007825Y1033777*
X1008279Y1034078*
X1009188*
X1009643Y1033777*
X1009870Y1033477*
X1010097Y1032877*
Y1032276*
X1009870Y1031676*
X1009416Y1030775*
X1007143Y1027773*
X1010325*
X1015469Y1033785D02*
Y1027481D01*
X1018651Y1033785D02*
X1015469Y1029582D01*
X1016606Y1031083D02*
X1018651Y1027481D01*
X1020697Y1032584D02*
X1021151Y1032884D01*
X1021833Y1033785*
Y1027481*
G54D147*
X885868Y1184202D02*
Y1181682D01*
X886968Y1182882D02*
X884268D01*
G54D344*
X1017845Y1199573D02*
Y1197229D01*
X1017959Y1196761*
X1018186Y1196448*
X1018527Y1196292*
X1018754*
X1019095Y1196448*
X1019323Y1196761*
X1019323D02*
X1019436Y1197229D01*
Y1199573*
X1020573Y1198792D02*
Y1198948D01*
X1020573D02*
X1020686Y1199261D01*
X1020800Y1199417*
X1021027Y1199573*
X1021482*
X1021709Y1199417*
X1021823Y1199261*
X1021823D02*
X1021936Y1198948D01*
Y1198636*
X1021823Y1198323*
X1021823D02*
X1021595Y1197854D01*
X1020459Y1196292*
X1022050*
X1023186Y1198792D02*
Y1198948D01*
X1023300Y1199261*
X1023413Y1199417*
X1023641Y1199573*
X1024095*
X1024323Y1199417*
X1024323D02*
X1024436Y1199261D01*
X1024550Y1198948*
Y1198636*
X1024436Y1198323*
X1024209Y1197854*
X1023073Y1196292*
X1023073D02*
X1024663D01*
X893549Y1149933D02*
X895517D01*
X895886Y1149843*
X896009Y1149754*
X896132Y1149575*
Y1149396*
X896009Y1149217*
X895886Y1149128*
X895517Y1149038*
X895271*
X893549Y1150917D02*
Y1151901D01*
X894533Y1151365*
Y1151633*
X894656Y1151812*
X894779Y1151901*
X895148Y1151991*
X895394*
X895763Y1151901*
X896009Y1151722*
X896132Y1151454*
Y1151186*
X896009Y1150917*
X895886Y1150828*
X895640Y1150738*
X862479Y1103757D02*
X862390Y1104003D01*
X862211Y1104249*
X862032Y1104372*
X861674*
X861495Y1104249*
X861316Y1104003*
X861227Y1103757*
X861137Y1103388*
Y1102773*
X861227Y1102404*
X861316Y1102158*
X861495Y1101911*
X861495D02*
X861674Y1101788D01*
X862032*
X862211Y1101911*
X862211D02*
X862390Y1102158D01*
X862479Y1102404*
X863285Y1103880D02*
X863464Y1104003D01*
X863732Y1104372*
Y1101788*
X864627Y1103757D02*
Y1103880D01*
X864716Y1104126*
X864806Y1104249*
X864985Y1104372*
X865343*
X865522Y1104249*
X865611Y1104126*
X865700Y1103880*
Y1103634*
X865611Y1103388*
X865432Y1103019*
X864537Y1101788*
X865790*
X920414Y1102196D02*
X920325Y1102442D01*
X920146Y1102688*
X919967Y1102811*
X919609*
X919430Y1102688*
X919251Y1102442*
X919162Y1102196*
X919072Y1101827*
Y1101212*
X919162Y1100843*
X919251Y1100597*
X919430Y1100351*
X919609Y1100228*
X919967*
X920146Y1100351*
X920325Y1100597*
X920414Y1100843*
X921220Y1102319D02*
X921399Y1102442D01*
X921667Y1102811*
Y1100228*
X922472Y1102319D02*
X922651Y1102442D01*
X922920Y1102811*
Y1100228*
X869481Y1130376D02*
X869727Y1130465D01*
X869973Y1130644*
X870096Y1130823*
Y1131181*
X869973Y1131360*
X869727Y1131539*
X869481Y1131628*
X869112Y1131718*
X868497*
X868128Y1131628*
X867882Y1131539*
X867636Y1131360*
X867513Y1131181*
Y1130823*
X867636Y1130644*
X867882Y1130465*
X868128Y1130376*
X869604Y1129570D02*
X869727Y1129392D01*
X870096Y1129123*
X867513*
X870096Y1127781D02*
X869973Y1128049D01*
X869604Y1128228*
X868989Y1128318*
X868620*
X868005Y1128228*
X867636Y1128049*
X867513Y1127781*
Y1127602*
X867636Y1127334*
X868005Y1127155*
X868620Y1127065*
X868989*
X869604Y1127155*
X869973Y1127334*
X870096Y1127602*
Y1127781*
X967468Y1126506D02*
X967222Y1126417D01*
X966976Y1126238*
X966853Y1126059*
Y1125701*
X966976Y1125522*
X967222Y1125343*
X967468Y1125254*
X967837Y1125164*
X968452*
X968821Y1125254*
X969067Y1125343*
X969314Y1125522*
X969437Y1125701*
Y1126059*
X969314Y1126238*
X969067Y1126417*
X968821Y1126506*
X966853Y1128206D02*
X968575Y1127312D01*
Y1128654*
X966853Y1128206D02*
X969437D01*
X966853Y1129638D02*
Y1130622D01*
X967837Y1130085*
Y1130354*
X967960Y1130533*
X968083Y1130622*
X968452Y1130712*
X968698*
X969067Y1130622*
X969314Y1130443*
X969437Y1130175*
Y1129906*
X969314Y1129638*
X969190Y1129549*
X968944Y1129459*
X956144Y1013010D02*
Y1011165D01*
X956234Y1010796*
X956413Y1010550*
X956681Y1010427*
X956860*
X957128Y1010550*
X957307Y1010796*
X957397Y1011165*
Y1013010*
X958649D02*
X958381Y1012887D01*
X958292Y1012641*
Y1012395*
X958381Y1012149*
X958560Y1012026*
X958918Y1011903*
X959186Y1011780*
X959365Y1011534*
X959455Y1011288*
Y1010919*
X959365Y1010673*
X959276Y1010550*
X959007Y1010427*
X958649*
X958381Y1010550*
X958292Y1010673*
X958202Y1010919*
Y1011288*
X958292Y1011534*
X958471Y1011780*
X958739Y1011903*
X959097Y1012026*
X959276Y1012149*
X959365Y1012395*
Y1012641*
X959276Y1012887*
X959007Y1013010*
X958649*
X900239Y1106101D02*
Y1104372D01*
X900329Y1104027*
X900508Y1103796*
X900776Y1103681*
X900955*
X901223Y1103796*
X901402Y1104027*
X901492Y1104372*
Y1106101*
X902297Y1105640D02*
X902476Y1105755D01*
X902745Y1106101*
Y1103681*
X1020125Y1178963D02*
X1020035Y1179209D01*
X1019856Y1179455*
X1019678Y1179578*
X1019320*
X1019141Y1179455*
X1018962Y1179209*
X1018872Y1178963*
X1018783Y1178594*
Y1177979*
X1018872Y1177610*
X1018962Y1177364*
X1019141Y1177118*
X1019320Y1176995*
X1019678*
X1019856Y1177118*
X1020035Y1177364*
X1020125Y1177610*
X1022093Y1179578D02*
X1021199D01*
X1021109Y1178471*
X1021199Y1178594*
X1021467Y1178717*
X1021735*
X1022004Y1178594*
X1022183Y1178348*
X1022272Y1177979*
X1022183Y1177733*
X1022093Y1177364*
X1021914Y1177118*
X1021646Y1176995*
X1021378*
X1021109Y1177118*
X1021020Y1177241*
X1020930Y1177487*
X1023257Y1179578D02*
X1024241D01*
X1023704Y1178594*
X1023972*
X1024151Y1178471*
X1024241Y1178348*
X1024330Y1177979*
Y1177733*
X1024241Y1177364*
X1024062Y1177118*
X1023793Y1176995*
X1023525*
X1023257Y1177118*
X1023167Y1177241*
X1023078Y1177487*
X1033406Y1178885D02*
X1033317Y1179131D01*
X1033138Y1179377*
X1032959Y1179500*
X1032601*
X1032422Y1179377*
X1032243Y1179131*
X1032154Y1178885*
X1032064Y1178516*
Y1177901*
X1032154Y1177532*
X1032243Y1177286*
X1032422Y1177040*
X1032601Y1176917*
X1032959*
X1033138Y1177040*
X1033317Y1177286*
X1033406Y1177532*
X1035375Y1179500D02*
X1034480D01*
X1034391Y1178393*
X1034480Y1178516*
X1034748Y1178639*
X1035017*
X1035285Y1178516*
X1035464Y1178270*
X1035554Y1177901*
X1035464Y1177655*
X1035375Y1177286*
X1035196Y1177040*
X1034927Y1176917*
X1034659*
X1034391Y1177040*
X1034301Y1177163*
X1034212Y1177409*
X1037254Y1179500D02*
X1036359Y1177778D01*
X1037701*
X1037254Y1179500D02*
Y1176917D01*
X1013521Y1170981D02*
X1016105D01*
X1013521D02*
Y1171786D01*
X1013644Y1172055*
X1013767Y1172144*
X1014014Y1172233*
X1014260*
X1014506Y1172144*
X1014629Y1172055*
X1014752Y1171786*
Y1170981*
Y1171607D02*
X1016105Y1172233D01*
X1014014Y1173039D02*
X1013891Y1173218D01*
X1013521Y1173486*
X1016105*
X1014383Y1175455D02*
X1014752Y1175365D01*
X1014998Y1175186*
X1015121Y1174918*
Y1174828*
X1014998Y1174560*
X1014752Y1174381*
X1014383Y1174291*
X1014260*
X1013891Y1174381*
X1013644Y1174560*
X1013521Y1174828*
Y1174918*
X1013644Y1175186*
X1013891Y1175365*
X1014383Y1175455*
X1014998*
X1015613Y1175365*
X1015982Y1175186*
X1016105Y1174918*
Y1174739*
X1015982Y1174470*
X1015736Y1174381*
X941999Y1105915D02*
X941909Y1106161D01*
X941730Y1106407*
X941552Y1106531*
X941194*
X941015Y1106407*
X940836Y1106161*
X940746Y1105915*
X940657Y1105546*
Y1104931*
X940746Y1104562*
X940836Y1104316*
X941015Y1104070*
X941194Y1103947*
X941552*
X941730Y1104070*
X941909Y1104316*
X941999Y1104562*
X943699Y1106531D02*
X942804Y1104808D01*
X944146*
X943699Y1106531D02*
Y1103947D01*
X941843Y1125603D02*
X941753Y1125849D01*
X941574Y1126095*
X941395Y1126218*
X941037*
X940858Y1126095*
X940679Y1125849*
X940590Y1125603*
X940501Y1125234*
Y1124619*
X940590Y1124250*
X940679Y1124004*
X940858Y1123758*
X941037Y1123635*
X941395*
X941574Y1123758*
X941753Y1124004*
X941843Y1124250*
X943811Y1125357D02*
X943722Y1124988D01*
X943543Y1124742*
X943274Y1124619*
X943185*
X942916Y1124742*
X942737Y1124988*
X942648Y1125357*
Y1125480*
X942737Y1125849*
X942916Y1126095*
X943185Y1126218*
X943274*
X943543Y1126095*
X943722Y1125849*
X943811Y1125357*
Y1124742*
X943722Y1124127*
X943543Y1123758*
X943274Y1123635*
X943095*
X942827Y1123758*
X942737Y1124004*
X922251Y1156940D02*
X922005Y1156851D01*
X921758Y1156672*
X921635Y1156493*
Y1156135*
X921758Y1155956*
X922005Y1155777*
X922251Y1155688*
X922620Y1155598*
X923235*
X923604Y1155688*
X923850Y1155777*
X924096Y1155956*
X924219Y1156135*
Y1156493*
X924096Y1156672*
X923850Y1156851*
X923604Y1156940*
X922128Y1157746D02*
X922005Y1157925D01*
X921635Y1158193*
X924219*
X921635Y1159893D02*
X923358Y1158998D01*
Y1160341*
X921635Y1159893D02*
X924219D01*
X1081992Y1004219D02*
Y1002251D01*
X1081902Y1001882*
X1081813Y1001758*
X1081634Y1001635*
X1081455*
X1081276Y1001758*
X1081187Y1001882*
X1081097Y1002251*
Y1002497*
X1082797Y1003727D02*
X1082976Y1003850D01*
X1083245Y1004219*
Y1001635*
X1084587Y1004219D02*
X1084318Y1004096D01*
X1084139Y1003727*
X1084050Y1003112*
Y1002743*
X1084139Y1002128*
X1084318Y1001758*
X1084587Y1001635*
X1084766*
X1085034Y1001758*
X1085213Y1002128*
X1085302Y1002743*
Y1003112*
X1085213Y1003727*
X1085034Y1004096*
X1084766Y1004219*
X1084587*
X845766Y1126372D02*
Y1128100D01*
X845677Y1128446*
X845498Y1128676*
X845229Y1128791*
X845051*
X844782Y1128676*
X844603Y1128446*
X844514Y1128100*
Y1126372*
X843708Y1126833D02*
X843529Y1126717D01*
X843529D02*
X843261Y1126372D01*
Y1128791*
X841292Y1126372D02*
X842187D01*
X842277Y1127409*
X842187Y1127294*
X841919Y1127178*
X841650*
X841382Y1127294*
X841203Y1127524*
X841114Y1127870*
X841203Y1128100*
X841292Y1128446*
X841471Y1128676*
X841740Y1128791*
X842008*
X842277Y1128676*
X842366Y1128561*
X842456Y1128331*
X1061582Y1049571D02*
Y1047603D01*
X1061493Y1047234*
X1061403Y1047111*
X1061224Y1046988*
X1061224D02*
X1061046D01*
X1060867Y1047111*
X1060777Y1047234*
X1060688Y1047603*
Y1047849*
X1063551Y1048710D02*
X1063461Y1048341D01*
X1063282Y1048095*
X1063014Y1047972*
X1062925*
X1062656Y1048095*
X1062477Y1048341*
X1062388Y1048710*
Y1048833*
X1062477Y1049202*
X1062656Y1049448*
X1062925Y1049571*
X1063014*
X1063282Y1049448*
X1063461Y1049202*
X1063551Y1048710*
Y1048095*
X1063461Y1047480*
X1063282Y1047111*
X1063014Y1046988*
X1062835*
X1062567Y1047111*
X1062477Y1047357*
X1051089Y1115320D02*
X1052935D01*
X1053304Y1115410*
X1053550Y1115589*
X1053673Y1115857*
Y1116036*
X1053550Y1116305*
X1053304Y1116483*
X1053304D02*
X1052935Y1116573D01*
X1051089*
X1051581Y1117378D02*
X1051458Y1117557D01*
X1051089Y1117826*
X1053673*
X1051089Y1119078D02*
X1051212Y1118810D01*
X1051458Y1118720*
X1051704*
X1051950Y1118810*
X1052073Y1118989*
X1052197Y1119347*
X1052320Y1119615*
X1052566Y1119794*
X1052812Y1119884*
X1053181*
X1053427Y1119794*
X1053550Y1119705*
X1053673Y1119436*
Y1119078*
X1053550Y1118810*
X1053427Y1118720*
X1053181Y1118631*
X1052812*
X1052566Y1118720*
X1052320Y1118899*
X1052197Y1119168*
X1052073Y1119526*
X1051950Y1119705*
X1051704Y1119794*
X1051458*
X1051212Y1119705*
X1051089Y1119436*
Y1119078*
X857077Y1072753D02*
Y1070169D01*
Y1072753D02*
X857883D01*
X858151Y1072630*
X858240Y1072507*
X858330Y1072261*
Y1072015*
X858240Y1071769*
X858151Y1071646*
X857883Y1071523*
X857077*
X857704D02*
X858330Y1070169D01*
X859314Y1072753D02*
X860298D01*
X859762Y1071769*
X860030*
X860209Y1071646*
X860298Y1071523*
X860388Y1071154*
Y1070907*
X860298Y1070538*
X860119Y1070292*
X859851Y1070169*
X859583*
X859314Y1070292*
X859225Y1070415*
X859135Y1070661*
X861193Y1072261D02*
X861372Y1072384D01*
X861641Y1072753*
Y1070169*
X971627Y1065418D02*
Y1062835D01*
X972701*
X974848Y1064803D02*
X974759Y1065049D01*
X974580Y1065295*
X974401Y1065418*
X974043*
X973864Y1065295*
X973685Y1065049*
X973596Y1064803*
X973506Y1064434*
Y1063819*
X973596Y1063450*
X973685Y1063204*
X973864Y1062958*
X974043Y1062835*
X974401*
X974580Y1062958*
X974759Y1063204*
X974848Y1063450*
X976727Y1065049D02*
X976638Y1065295D01*
X976369Y1065418*
X976190*
X975922Y1065295*
X975743Y1064926*
X975654Y1064311*
Y1063696*
X975743Y1063204*
X975922Y1062958*
X976190Y1062835*
X976280*
X976548Y1062958*
X976727Y1063204*
X976817Y1063573*
Y1063696*
X976727Y1064065*
X976548Y1064311*
X976280Y1064434*
X976190*
X975922Y1064311*
X975743Y1064065*
X975654Y1063696*
X991702Y1091174D02*
X991523Y1091051D01*
X991344Y1090805*
X991255Y1090559*
X991165Y1090190*
Y1089574*
X991255Y1089205*
X991344Y1088959*
X991523Y1088713*
X991702Y1088590*
X992060*
X992239Y1088713*
X992418Y1088959*
X992507Y1089205*
X992597Y1089574*
Y1090190*
X992507Y1090559*
X992418Y1090805*
X992239Y1091051*
X992060Y1091174*
X991702*
X991970Y1089082D02*
X992507Y1088344D01*
X994297Y1091174D02*
X993402Y1089451D01*
X994744*
X994297Y1091174D02*
Y1088590D01*
X977855Y1068443D02*
Y1065860D01*
X978929*
X981077Y1067828D02*
X980987Y1068074D01*
X980808Y1068320*
X980629Y1068443*
X980271*
X980092Y1068320*
X979913Y1068074*
X979824Y1067828*
X979734Y1067459*
Y1066844*
X979824Y1066475*
X979913Y1066229*
X980092Y1065983*
X980271Y1065860*
X980629*
X980808Y1065983*
X980987Y1066229*
X981077Y1066475*
X982777Y1068443D02*
X981882Y1066721D01*
X983224*
X982777Y1068443D02*
Y1065860D01*
X966882Y1069036D02*
Y1066453D01*
X967955*
X970103Y1068421D02*
X970013Y1068667D01*
X969834Y1068913*
X969655Y1069036*
X969298*
X969119Y1068913*
X968940Y1068667*
X968850Y1068421*
X968761Y1068052*
Y1067437*
X968850Y1067068*
X968940Y1066822*
X969119Y1066576*
X969298Y1066453*
X969655*
X969834Y1066576*
X970013Y1066822*
X970103Y1067068*
X972071Y1069036D02*
X971177D01*
X971087Y1067929*
X971177Y1068052*
X971445Y1068175*
X971713*
X971982Y1068052*
X972161Y1067806*
X972250Y1067437*
X972161Y1067191*
X972071Y1066822*
X971892Y1066576*
X971624Y1066453*
X971356*
X971087Y1066576*
X970998Y1066699*
X970908Y1066945*
X858239Y1055458D02*
X858149Y1055704D01*
X857970Y1055950*
X857791Y1056073*
X857433*
X857255Y1055950*
X857076Y1055704*
X856986Y1055458*
X856897Y1055089*
Y1054474*
X856986Y1054105*
X857076Y1053859*
X857255Y1053613*
X857433Y1053490*
X857791*
X857970Y1053613*
X858149Y1053859*
X858239Y1054105*
X859134Y1055458D02*
Y1055581D01*
X859223Y1055827*
X859313Y1055950*
X859491Y1056073*
X859849*
X860028Y1055950*
X860118Y1055827*
X860207Y1055581*
Y1055335*
X860118Y1055089*
X859939Y1054720*
X859044Y1053490*
X860297*
X861281Y1056073D02*
X862265D01*
X861728Y1055089*
X861997*
X862176Y1054966*
X862265Y1054843*
X862355Y1054474*
Y1054228*
X862265Y1053859*
X862086Y1053613*
X861818Y1053490*
X861549*
X861281Y1053613*
X861192Y1053736*
X861102Y1053982*
X977674Y1107221D02*
X977584Y1107467D01*
X977405Y1107713*
X977226Y1107836*
X976868*
X976689Y1107713*
X976510Y1107467*
X976421Y1107221*
X976331Y1106852*
Y1106237*
X976421Y1105868*
X976510Y1105622*
X976689Y1105376*
X976868Y1105253*
X977226*
X977405Y1105376*
X977584Y1105622*
X977674Y1105868*
X978658Y1107836D02*
X979642D01*
X979105Y1106852*
X979374*
X979553Y1106729*
X979642Y1106606*
X979731Y1106237*
X979731D02*
Y1105991D01*
X979731D02*
X979642Y1105622D01*
X979463Y1105376*
X979195Y1105253*
X978926*
X978658Y1105376*
X978568Y1105499*
X978479Y1105745*
X980626Y1107221D02*
Y1107344D01*
X980716Y1107590*
X980805Y1107713*
X980984Y1107836*
X981342*
X981521Y1107713*
X981611Y1107590*
X981700Y1107344*
Y1107098*
X981611Y1106852*
X981432Y1106483*
X980537Y1105253*
X981789*
X964868Y1107823D02*
Y1105240D01*
Y1107823D02*
X965673D01*
X965942Y1107700*
X966031Y1107577*
X966121Y1107331*
Y1107085*
X966031Y1106839*
X965942Y1106716*
X965673Y1106593*
X964868*
X965494D02*
X966121Y1105240D01*
X967015Y1107208D02*
Y1107331D01*
X967105Y1107577*
X967194Y1107700*
X967373Y1107823*
X967731*
X967910Y1107700*
X968000Y1107577*
X968089Y1107331*
Y1107085*
X968000Y1106839*
X967821Y1106470*
X966926Y1105240*
X968179*
X970237Y1107823D02*
X969342Y1105240D01*
X968984Y1107823D02*
X970237D01*
X970493Y1091026D02*
Y1088443D01*
Y1091026D02*
X971298D01*
X971567Y1090903*
X971656Y1090780*
X971746Y1090534*
Y1090288*
X971656Y1090042*
X971567Y1089919*
X971298Y1089796*
X970493*
X971119D02*
X971746Y1088443D01*
X972641Y1090411D02*
Y1090534D01*
X972730Y1090780*
X972820Y1090903*
X972820D02*
X972998Y1091026D01*
X973356*
X973535Y1090903*
X973625Y1090780*
X973714Y1090534*
Y1090288*
X973625Y1090042*
X973446Y1089673*
X972551Y1088443*
X973804*
X975683Y1090657D02*
X975593Y1090903D01*
X975325Y1091026*
X975146*
X974877Y1090903*
X974699Y1090534*
X974609Y1089919*
Y1089304*
X974699Y1088812*
X974877Y1088566*
X975146Y1088443*
X975235*
X975504Y1088566*
X975683Y1088812*
X975772Y1089181*
Y1089304*
X975683Y1089673*
X975504Y1089919*
X975235Y1090042*
X975146*
X974877Y1089919*
X974699Y1089673*
X974609Y1089304*
X815639Y1117824D02*
X815550Y1118070D01*
X815371Y1118316*
X815192Y1118439*
X814834*
X814655Y1118316*
X814476Y1118070*
X814386Y1117824*
X814297Y1117455*
Y1116840*
X814386Y1116471*
X814476Y1116225*
X814655Y1115979*
X814834Y1115856*
X815192*
X815371Y1115979*
X815550Y1116225*
X815639Y1116471*
X816444Y1117947D02*
X816623Y1118070D01*
X816892Y1118439*
Y1115856*
X817876Y1118439D02*
X818860D01*
X818323Y1117455*
X818592*
X818771Y1117332*
X818860Y1117209*
X818950Y1116840*
Y1116594*
X818860Y1116225*
X818681Y1115979*
X818413Y1115856*
X818144*
X817876Y1115979*
X817786Y1116102*
X817697Y1116348*
X813906Y1112580D02*
Y1109996D01*
Y1112580D02*
X814711D01*
X814980Y1112457*
X815069Y1112334*
X815159Y1112088*
Y1111842*
X815069Y1111596*
X814980Y1111473*
X814711Y1111350*
X813906*
X814533D02*
X815159Y1109996D01*
X816143Y1112580D02*
X817127D01*
X816591Y1111596*
X816859*
X817038Y1111473*
X817127Y1111350*
X817217Y1110980*
Y1110734*
X817127Y1110365*
X816948Y1110119*
X816680Y1109996*
X816412*
X816143Y1110119*
X816054Y1110242*
X815964Y1110488*
X818112Y1111965D02*
Y1112088D01*
X818201Y1112334*
X818291Y1112457*
X818470Y1112580*
X818827*
X819006Y1112457*
X819096Y1112334*
X819185Y1112088*
Y1111842*
X819096Y1111596*
X818917Y1111227*
X818022Y1109996*
X819275*
X1047144Y1054172D02*
X1047021Y1054351D01*
X1046775Y1054530*
X1046529Y1054619*
X1046160Y1054709*
X1045545*
X1045176Y1054619*
X1044929Y1054530*
X1044683Y1054351*
X1044560Y1054172*
Y1053814*
X1044683Y1053635*
X1044929Y1053456*
X1045176Y1053366*
X1045545Y1053277*
X1046160*
X1046529Y1053366*
X1046775Y1053456*
X1047021Y1053635*
X1047144Y1053814*
Y1054172*
X1045052Y1053903D02*
X1044314Y1053366D01*
X1047144Y1051219D02*
X1044560Y1052114D01*
X1047144Y1052472D02*
Y1051219D01*
X948360Y1149638D02*
X948113Y1149549D01*
X947867Y1149370*
X947744Y1149191*
Y1148833*
X947867Y1148654*
X948113Y1148475*
X948360Y1148385*
X948729Y1148296*
X949344*
X949713Y1148385*
X949959Y1148475*
X950205Y1148654*
X950328Y1148833*
Y1149191*
X950205Y1149370*
X949959Y1149549*
X949713Y1149638*
X947744Y1151338D02*
X949467Y1150443D01*
Y1151786*
X947744Y1151338D02*
X950328D01*
X948360Y1152680D02*
X948236D01*
X947990Y1152770*
X947867Y1152859*
X947744Y1153038*
Y1153396*
X947867Y1153575*
X947990Y1153665*
X948236Y1153754*
X948483*
X948729Y1153665*
X949098Y1153486*
X950328Y1152591*
Y1153844*
X869878Y1165044D02*
X870001Y1164865D01*
X870247Y1164686*
X870493Y1164596*
X870862Y1164507*
X871477*
X871846Y1164596*
X872092Y1164686*
X872338Y1164865*
X872461Y1165044*
Y1165402*
X872338Y1165581*
X872092Y1165760*
X871846Y1165849*
X871477Y1165938*
X870862*
X870493Y1165849*
X870247Y1165760*
X870001Y1165581*
X869878Y1165402*
Y1165044*
X871969Y1165312D02*
X872707Y1165849D01*
X870370Y1166744D02*
X870247Y1166923D01*
X869878Y1167191*
X872461*
X862125Y1198962D02*
X861879Y1198873D01*
X861633Y1198694*
X861510Y1198515*
Y1198157*
X861633Y1197978*
X861879Y1197799*
X862125Y1197709*
X862494Y1197620*
X863109*
X863478Y1197709*
X863724Y1197799*
X863970Y1197978*
X864093Y1198157*
Y1198515*
X863970Y1198694*
X863724Y1198873*
X863478Y1198962*
X862002Y1199767D02*
X861879Y1199946D01*
X861510Y1200215*
X864093*
X861510Y1201467D02*
X861633Y1201199D01*
X861879Y1201110*
X862125*
X862371Y1201199*
X862494Y1201378*
X862617Y1201736*
X862740Y1202004*
X862986Y1202183*
X863232Y1202273*
X863601*
X863847Y1202183*
X863970Y1202094*
X864093Y1201825*
Y1201467*
X863970Y1201199*
X863847Y1201110*
X863601Y1201020*
X863232*
X862986Y1201110*
X862740Y1201288*
X862617Y1201557*
X862494Y1201915*
X862371Y1202094*
X862125Y1202183*
X861879*
X861633Y1202094*
X861510Y1201825*
Y1201467*
X884093Y1174656D02*
Y1172073D01*
Y1174656D02*
X884899D01*
X885167Y1174533*
X885257Y1174410*
X885346Y1174164*
Y1173918*
X885257Y1173672*
X885167Y1173549*
X884899Y1173426*
X884093D02*
X884899D01*
X885167Y1173303*
X885257Y1173180*
X885346Y1172934*
Y1172565*
X885257Y1172319*
X885167Y1172196*
X884899Y1172073*
X884093*
X886151Y1174656D02*
Y1172073D01*
X887225*
X888030Y1174164D02*
X888209Y1174287D01*
X888478Y1174656*
Y1172073*
X933363Y1195221D02*
X933117Y1195132D01*
X932871Y1194953*
X932747Y1194774*
Y1194416*
X932871Y1194237*
X933117Y1194058*
X933363Y1193969*
X933732Y1193879*
X934347*
X934716Y1193969*
X934962Y1194058*
X935208Y1194237*
X935331Y1194416*
Y1194774*
X935208Y1194953*
X934962Y1195132*
X934716Y1195221*
X933240Y1196027D02*
X933117Y1196206D01*
X932747Y1196474*
X935331*
X932747Y1198532D02*
X935331Y1197637D01*
X932747Y1197279D02*
Y1198532D01*
X910339Y1191128D02*
X910109Y1191038D01*
X909878Y1190859*
X909763Y1190680*
Y1190322*
X909878Y1190143*
X910109Y1189964*
X910339Y1189875*
X910685Y1189785*
X911261*
X911607Y1189875*
X911837Y1189964*
X912067Y1190143*
X912183Y1190322*
Y1190680*
X912067Y1190859*
X911837Y1191038*
X911607Y1191128*
X910224Y1191933D02*
X910109Y1192112D01*
X909763Y1192380*
X912183*
X910109Y1194259D02*
X909878Y1194170D01*
X909763Y1193901*
Y1193722*
X909878Y1193454*
X910224Y1193275*
X910800Y1193186*
X911376*
X911837Y1193275*
X912067Y1193454*
X912183Y1193722*
Y1193812*
X912067Y1194080*
X911837Y1194259*
X911491Y1194349*
X911376*
X911031Y1194259*
X910800Y1194080*
X910685Y1193812*
Y1193722*
X910800Y1193454*
X911031Y1193275*
X911376Y1193186*
X870917Y1045370D02*
X870827Y1045616D01*
X870648Y1045862*
X870469Y1045985*
X870111*
X869932Y1045862*
X869754Y1045616*
X869664Y1045370*
X869575Y1045001*
Y1044386*
X869664Y1044017*
X869754Y1043771*
X869932Y1043525*
X870111Y1043402*
X870469*
X870648Y1043525*
X870827Y1043771*
X870917Y1044017*
X871812Y1045370D02*
Y1045493D01*
X871901Y1045739*
X871990Y1045862*
X872169Y1045985*
X872527*
X872706Y1045862*
X872796Y1045739*
X872885Y1045493*
Y1045247*
X872796Y1045001*
X872617Y1044632*
X871722Y1043402*
X872975*
X874675Y1045985D02*
X873780Y1044263D01*
X875122*
X874675Y1045985D02*
Y1043402D01*
X860108Y1034314D02*
X860019Y1034560D01*
X859840Y1034806*
X859661Y1034929*
X859303*
X859124Y1034806*
X858945Y1034560*
X858856Y1034314*
X858766Y1033945*
Y1033329*
X858856Y1032960*
X858945Y1032714*
X859124Y1032468*
X859303Y1032345*
X859661*
X859840Y1032468*
X860019Y1032714*
X860108Y1032960*
X861003Y1034314D02*
Y1034437D01*
X861093Y1034683*
X861182Y1034806*
X861361Y1034929*
X861719*
X861898Y1034806*
X861987Y1034683*
X862077Y1034437*
Y1034191*
X861987Y1033945*
X861808Y1033575*
X860914Y1032345*
X862166*
X864135Y1034929D02*
X863240D01*
X863151Y1033822*
X863240Y1033945*
X863508Y1034068*
X863777*
X864045Y1033945*
X864224Y1033698*
X864314Y1033329*
X864224Y1033083*
X864135Y1032714*
X863956Y1032468*
X863687Y1032345*
X863419*
X863151Y1032468*
X863061Y1032591*
X862972Y1032837*
X860224Y1027286D02*
X860134Y1027532D01*
X859955Y1027778*
X859776Y1027901*
X859419*
X859240Y1027778*
X859061Y1027532*
X858971Y1027286*
X858882Y1026917*
Y1026302*
X858971Y1025933*
X859061Y1025687*
X859240Y1025441*
X859419Y1025318*
X859776*
X859955Y1025441*
X860134Y1025687*
X860224Y1025933*
X861119Y1027286D02*
Y1027409D01*
X861208Y1027655*
X861298Y1027778*
X861477Y1027901*
X861834*
X862013Y1027778*
X862103Y1027655*
X862192Y1027409*
Y1027163*
X862103Y1026917*
X861924Y1026548*
X861029Y1025318*
X862282*
X864161Y1027532D02*
X864071Y1027778D01*
X863803Y1027901*
X863624*
X863356Y1027778*
X863177Y1027409*
X863087Y1026794*
Y1026179*
X863177Y1025687*
X863356Y1025441*
X863624Y1025318*
X863713*
X863982Y1025441*
X864161Y1025687*
X864250Y1026056*
Y1026179*
X864161Y1026548*
X863982Y1026794*
X863713Y1026917*
X863624*
X863356Y1026794*
X863177Y1026548*
X863087Y1026179*
X960993Y1125242D02*
X963577D01*
X960993D02*
Y1126048D01*
X961116Y1126316*
X961239Y1126405*
X961239D02*
X961486Y1126495D01*
X961732*
X961978Y1126405*
X961978D02*
X962101Y1126316D01*
X962224Y1126048*
Y1125242*
Y1125869D02*
X963577Y1126495D01*
X961609Y1127390D02*
X961486D01*
X961239Y1127479*
X961116Y1127569*
X960993Y1127748*
Y1128106*
X961116Y1128285*
X961239Y1128374*
X961486Y1128463*
X961732*
X961978Y1128374*
X962347Y1128195*
X963577Y1127300*
Y1128553*
X960993Y1130521D02*
Y1129627D01*
X962101Y1129537*
X961978Y1129627*
X961855Y1129895*
Y1130164*
X961978Y1130432*
X962224Y1130611*
X962593Y1130700*
X962839Y1130611*
X963208Y1130521*
X963454Y1130343*
X963577Y1130074*
Y1129806*
X963454Y1129537*
X963331Y1129448*
X963085Y1129358*
X990906Y1133147D02*
X990660Y1133058D01*
X990414Y1132879*
X990291Y1132700*
Y1132342*
X990414Y1132163*
X990660Y1131984*
X990906Y1131894*
X991275Y1131805*
X991890*
X992259Y1131894*
X992505Y1131984*
X992751Y1132163*
X992874Y1132342*
Y1132700*
X992751Y1132879*
X992505Y1133058*
X992259Y1133147*
X990291Y1135116D02*
Y1134221D01*
X991398Y1134131*
X991275Y1134221*
X991152Y1134489*
Y1134758*
X991275Y1135026*
X991521Y1135205*
X991890Y1135294*
X992136Y1135205*
X992505Y1135116*
X992751Y1134937*
X992874Y1134668*
Y1134400*
X992751Y1134131*
X992628Y1134042*
X992382Y1133952*
X990291Y1136637D02*
X990414Y1136368D01*
X990783Y1136189*
X991398Y1136100*
X991767*
X992382Y1136189*
X992751Y1136368*
X992874Y1136637*
Y1136816*
X992751Y1137084*
X992382Y1137263*
X991767Y1137352*
X991398*
X990783Y1137263*
X990414Y1137084*
X990291Y1136816*
Y1136637*
X946474Y1177170D02*
X949058D01*
X946474D02*
Y1177975D01*
X946597Y1178243*
X946720Y1178333*
X946966Y1178422*
X947212*
X947458Y1178333*
X947581Y1178243*
X947704Y1177975*
Y1177170*
Y1177796D02*
X949058Y1178422D01*
X947089Y1179317D02*
X946966D01*
X946720Y1179407*
X946597Y1179496*
X946474Y1179675*
Y1180033*
X946597Y1180212*
X946720Y1180301*
X946966Y1180391*
X947212*
X947458Y1180301*
X947827Y1180123*
X949058Y1179228*
Y1180480*
X946474Y1182180D02*
X948196Y1181286D01*
Y1182628*
X946474Y1182180D02*
X949058D01*
X952949Y1178356D02*
X952702Y1178266D01*
X952456Y1178087*
X952333Y1177908*
Y1177550*
X952456Y1177371*
X952702Y1177192*
X952949Y1177103*
X953318Y1177014*
X953318D02*
X953933D01*
X953933D02*
X954302Y1177103D01*
X954548Y1177192*
X954794Y1177371*
X954917Y1177550*
Y1177908*
X954794Y1178087*
X954548Y1178266*
X954302Y1178356*
X952333Y1180056D02*
X954056Y1179161D01*
Y1180503*
X952333Y1180056D02*
X954917D01*
X952826Y1181308D02*
X952702Y1181487D01*
X952333Y1181756*
X954917*
X955615Y1177248D02*
X958198D01*
X955615D02*
Y1178053D01*
X955738Y1178322*
X955861Y1178411*
X956107Y1178501*
X956353*
X956599Y1178411*
X956722Y1178322*
X956845Y1178053*
Y1177248*
Y1177874D02*
X958198Y1178501D01*
X956230Y1179395D02*
X956107D01*
X955861Y1179485*
X955738Y1179574*
X955615Y1179753*
Y1180111*
X955738Y1180290*
X955861Y1180380*
X956107Y1180469*
X956353*
X956599Y1180380*
X956968Y1180201*
X958198Y1179306*
Y1180559*
X955615Y1181543D02*
Y1182527D01*
X956599Y1181990*
Y1182259*
X956722Y1182438*
X956845Y1182527*
X957214Y1182617*
X957460*
X957829Y1182527*
X958075Y1182348*
X958198Y1182080*
Y1181811*
X958075Y1181543*
X957952Y1181453*
X957706Y1181364*
X954669Y1184077D02*
X957253D01*
X954669D02*
Y1184882D01*
X954792Y1185150*
X954915Y1185240*
X955161Y1185329*
X955407*
X955653Y1185240*
X955776Y1185150*
X955899Y1184882*
Y1184077*
Y1184703D02*
X957253Y1185329D01*
X955284Y1186224D02*
X955161D01*
X954915Y1186314*
X954792Y1186403*
X954669Y1186582*
Y1186940*
X954792Y1187119*
X954915Y1187208*
X955161Y1187298*
X955407*
X955653Y1187208*
X956022Y1187029*
X957253Y1186135*
Y1187387*
X955161Y1188193D02*
X955038Y1188372D01*
X954669Y1188640*
X957253*
X954707Y1190065D02*
X957291D01*
X954707D02*
Y1190871D01*
X954830Y1191139*
X954953Y1191228*
X955200Y1191318*
X955446*
X955692Y1191228*
X955815Y1191139*
X955938Y1190871*
Y1190065*
Y1190692D02*
X957291Y1191318D01*
X955323Y1192213D02*
X955200D01*
X954953Y1192302*
X954830Y1192392*
X954707Y1192571*
Y1192929*
X954830Y1193108*
X954953Y1193197*
X955200Y1193286*
X955446*
X955692Y1193197*
X956061Y1193018*
X957291Y1192123*
Y1193376*
X955323Y1194271D02*
X955200D01*
X954953Y1194360*
X954830Y1194450*
X954707Y1194629*
Y1194987*
X954830Y1195166*
X954953Y1195255*
X955200Y1195344*
X955446*
X955692Y1195255*
X956061Y1195076*
X957291Y1194181*
Y1195434*
X1047078Y1173885D02*
X1046989Y1174131D01*
X1046810Y1174377*
X1046631Y1174500*
X1046273*
X1046094Y1174377*
X1045915Y1174131*
X1045826Y1173885*
X1045736Y1173516*
Y1172901*
X1045826Y1172532*
X1045915Y1172286*
X1046094Y1172039*
X1046273Y1171916*
X1046631*
X1046810Y1172039*
X1046989Y1172286*
X1047078Y1172532*
X1049047Y1174500D02*
X1048152D01*
X1048063Y1173393*
X1048152Y1173516*
X1048421Y1173639*
X1048689*
X1048957Y1173516*
X1049136Y1173270*
X1049226Y1172901*
X1049136Y1172655*
X1049047Y1172286*
X1048868Y1172039*
X1048599Y1171916*
X1048331*
X1048063Y1172039*
X1047973Y1172163*
X1047884Y1172409*
X1051194Y1174500D02*
X1050300D01*
X1050210Y1173393*
X1050300Y1173516*
X1050568Y1173639*
X1050836*
X1051105Y1173516*
X1051284Y1173270*
X1051373Y1172901*
X1051284Y1172655*
X1051194Y1172286*
X1051015Y1172039*
X1050747Y1171916*
X1050479*
X1050210Y1172039*
X1050121Y1172163*
X1050031Y1172409*
X815907Y1106552D02*
Y1103968D01*
Y1106552D02*
X816712D01*
X816981Y1106429*
X817070Y1106305*
X817160Y1106059*
Y1105813*
X817070Y1105567*
X816981Y1105444*
X816712Y1105321*
X815907*
X816533D02*
X817160Y1103968D01*
X818412Y1106552D02*
X818144Y1106429D01*
X818054Y1106182*
Y1105936*
X818144Y1105690*
X818323Y1105567*
X818681Y1105444*
X818949Y1105321*
X819128Y1105075*
X819218Y1104829*
Y1104460*
X819128Y1104214*
X819039Y1104091*
X818770Y1103968*
X818412*
X818144Y1104091*
X818054Y1104214*
X817965Y1104460*
Y1104829*
X818054Y1105075*
X818233Y1105321*
X818502Y1105444*
X818860Y1105567*
X819039Y1105690*
X819128Y1105936*
Y1106182*
X819039Y1106429*
X818770Y1106552*
X818412*
X1013443Y1176293D02*
X1016027D01*
X1013443D02*
Y1177099D01*
X1013566Y1177367*
X1013689Y1177457*
X1013935Y1177546*
X1014181*
X1014428Y1177457*
X1014551Y1177367*
X1014674Y1177099*
Y1176293*
Y1176920D02*
X1016027Y1177546D01*
X1014058Y1178441D02*
X1013935D01*
X1013689Y1178530*
X1013566Y1178620*
X1013443Y1178799*
Y1179157*
X1013566Y1179336*
X1013689Y1179425*
X1013935Y1179515*
X1014181*
X1014428Y1179425*
X1014797Y1179246*
X1016027Y1178351*
Y1179604*
X1013443Y1180946D02*
X1013566Y1180678D01*
X1013935Y1180499*
X1014551Y1180409*
X1014920*
X1015535Y1180499*
X1015904Y1180678*
X1016027Y1180946*
Y1181125*
X1015904Y1181394*
X1015535Y1181573*
X1014920Y1181662*
X1014551*
X1013935Y1181573*
X1013566Y1181394*
X1013443Y1181125*
Y1180946*
Y1165199D02*
X1016027D01*
X1013443D02*
Y1166005D01*
X1013566Y1166273*
X1013689Y1166363*
X1013935Y1166452*
X1014181*
X1014428Y1166363*
X1014551Y1166273*
X1014674Y1166005*
Y1165199*
Y1165826D02*
X1016027Y1166452D01*
X1013935Y1167257D02*
X1013812Y1167436D01*
X1013443Y1167705*
X1016027*
X1013443Y1168958D02*
X1013566Y1168689D01*
X1013812Y1168600*
X1014058*
X1014305Y1168689*
X1014428Y1168868*
X1014551Y1169226*
X1014674Y1169494*
X1014920Y1169673*
X1015166Y1169763*
X1015535*
X1015781Y1169673*
X1015904Y1169584*
X1016027Y1169315*
Y1168958*
X1015904Y1168689*
X1015781Y1168600*
X1015535Y1168510*
X1015166*
X1014920Y1168600*
X1014674Y1168779*
X1014551Y1169047*
X1014428Y1169405*
X1014305Y1169584*
X1014058Y1169673*
X1013812*
X1013566Y1169584*
X1013443Y1169315*
Y1168958*
X940813Y1113249D02*
X942066Y1110666D01*
Y1113249D02*
X940813Y1110666D01*
X942960Y1112634D02*
Y1112757D01*
X943050Y1113003*
X943139Y1113126*
X943318Y1113249*
X943676*
X943855Y1113126*
X943945Y1113003*
X944034Y1112757*
Y1112511*
X943945Y1112265*
X943766Y1111896*
X942871Y1110666*
X944124*
X971687Y1128741D02*
X971456Y1128651D01*
X971226Y1128472*
X971111Y1128293*
Y1127935*
X971226Y1127756*
X971456Y1127578*
X971687Y1127488*
X972032Y1127399*
X972032D02*
X972609D01*
X972954Y1127488*
X973185Y1127578*
X973415Y1127756*
X973530Y1127935*
Y1128293*
X973415Y1128472*
X973185Y1128651*
X972954Y1128741*
X971111Y1130441D02*
X972724Y1129546D01*
Y1130888*
X971111Y1130441D02*
X973530D01*
X971917Y1132857D02*
X972263Y1132767D01*
X972493Y1132588*
X972609Y1132320*
Y1132230*
X972493Y1131962*
X972263Y1131783*
X971917Y1131693*
X971802*
X971456Y1131783*
X971226Y1131962*
X971111Y1132230*
Y1132320*
X971226Y1132588*
X971456Y1132767*
X971917Y1132857*
X972493*
X973069Y1132767*
X973415Y1132588*
X973530Y1132320*
Y1132141*
X973415Y1131872*
X973185Y1131783*
X971531Y1154757D02*
X971300Y1154667D01*
X971070Y1154488*
X970954Y1154309*
Y1153951*
X971070Y1153772*
X971300Y1153593*
X971531Y1153504*
X971876Y1153415*
X972452*
X972798Y1153504*
X973028Y1153593*
X973259Y1153772*
X973374Y1153951*
Y1154309*
X973259Y1154488*
X973028Y1154667*
X972798Y1154757*
X970954Y1156457D02*
X972568Y1155562D01*
Y1156904*
X970954Y1156457D02*
X973374D01*
X970954Y1158246D02*
X971070Y1157978D01*
X971415Y1157799*
X971991Y1157709*
X972337*
X972913Y1157799*
X973259Y1157978*
X973374Y1158246*
Y1158425*
X973259Y1158694*
X972913Y1158873*
X972337Y1158962*
X971991*
X971415Y1158873*
X971070Y1158694*
X970954Y1158425*
Y1158246*
X863174Y1071953D02*
X862995Y1071830D01*
X862816Y1071584*
X862727Y1071338*
X862637Y1070969*
Y1070354*
X862727Y1069984*
X862816Y1069738*
X862995Y1069492*
X863174Y1069369*
X863532*
X863711Y1069492*
X863890Y1069738*
X863979Y1069984*
X864069Y1070354*
Y1070969*
X863979Y1071338*
X863890Y1071584*
X863711Y1071830*
X863532Y1071953*
X863174*
X863443Y1069861D02*
X863979Y1069123D01*
X866037Y1071953D02*
X865143D01*
X865053Y1070846*
X865143Y1070969*
X865411Y1071092*
X865679*
X865948Y1070969*
X866127Y1070723*
X866216Y1070354*
X866127Y1070107*
X866127D02*
X866037Y1069738D01*
X865858Y1069492*
X865590Y1069369*
X865322*
X865053Y1069492*
X864964Y1069615*
X864874Y1069861*
X991321Y1049785D02*
Y1047941D01*
X991232Y1047596*
X991142Y1047480*
X990963Y1047365*
X990784*
X990784D02*
X990606Y1047480D01*
X990516Y1047596*
X990427Y1047941*
Y1048172*
X993200Y1049439D02*
X993111Y1049670D01*
X992842Y1049785*
X992664*
X992395Y1049670*
X992216Y1049324*
X992127Y1048748*
Y1048172*
X992216Y1047711*
X992395Y1047480*
X992664Y1047365*
X992753*
X993021Y1047480*
X993200Y1047711*
X993290Y1048056*
Y1048172*
X993200Y1048517*
X993021Y1048748*
X992753Y1048863*
X992664*
X992395Y1048748*
X992216Y1048517*
X992127Y1048172*
X838937Y1098997D02*
Y1096414D01*
Y1098997D02*
X839742D01*
X840010Y1098874*
X840100Y1098751*
X840189Y1098505*
Y1098259*
X840100Y1098013*
X840010Y1097890*
X839742Y1097767*
X838937*
X839563D02*
X840189Y1096414D01*
X842158Y1098136D02*
X842068Y1097767D01*
X841889Y1097521*
X841621Y1097398*
X841532*
X841263Y1097521*
X841084Y1097767*
X840995Y1098136*
Y1098259*
X841084Y1098628*
X841263Y1098874*
X841532Y1098997*
X841621*
X841889Y1098874*
X842068Y1098628*
X842158Y1098136*
Y1097521*
X842068Y1096906*
X841889Y1096537*
X841621Y1096414*
X841442*
X841174Y1096537*
X841084Y1096783*
X893216Y1168099D02*
X895800D01*
X893216D02*
Y1168904D01*
X893339Y1169173*
X893462Y1169262*
X893708Y1169352*
X893954*
X894200Y1169262*
X894323Y1169173*
X894446Y1168904*
Y1168099*
Y1168725D02*
X895800Y1169352D01*
X893216Y1171052D02*
X894939Y1170157D01*
Y1171499*
X893216Y1171052D02*
X895800D01*
X893360Y1175556D02*
X893114Y1175467D01*
X892868Y1175288*
X892745Y1175109*
Y1174751*
X892868Y1174572*
X893114Y1174393*
X893360Y1174304*
X893730Y1174214*
X894345*
X894714Y1174304*
X894960Y1174393*
X895206Y1174572*
X895329Y1174751*
Y1175109*
X895206Y1175288*
X894960Y1175467*
X894714Y1175556*
X893237Y1176362D02*
X893114Y1176541D01*
X892745Y1176809*
X895329*
X892745Y1178778D02*
Y1177883D01*
X893853Y1177793*
X893730Y1177883*
X893607Y1178151*
Y1178420*
X893730Y1178688*
X893976Y1178867*
X894345Y1178956*
X894591Y1178867*
X894960Y1178778*
X895206Y1178599*
X895329Y1178330*
Y1178062*
X895206Y1177793*
X895083Y1177704*
X894837Y1177614*
X940579Y1132078D02*
Y1129494D01*
Y1132078D02*
X941384D01*
X941652Y1131955*
X941742Y1131832*
X941831Y1131586*
Y1131340*
X941742Y1131093*
X941652Y1130970*
X941384Y1130847*
X940579*
X941205D02*
X941831Y1129494D01*
X942726Y1131463D02*
Y1131586D01*
X942816Y1131832*
X942905Y1131955*
X943084Y1132078*
X943442*
X943621Y1131955*
X943710Y1131832*
X943800Y1131586*
Y1131340*
X943710Y1131093*
X943531Y1130724*
X942637Y1129494*
X943889*
X1040170Y1136798D02*
Y1138526D01*
X1040081Y1138872*
X1039902Y1139102*
X1039633Y1139217*
X1039454*
X1039186Y1139102*
X1039007Y1138872*
X1038918Y1138526*
Y1136798*
X1038023Y1137374D02*
Y1137259D01*
X1037933Y1137028*
X1037844Y1136913*
X1037665Y1136798*
X1037307*
X1037128Y1136913*
X1037039Y1137028*
X1036949Y1137259*
Y1137489*
X1037039Y1137720*
X1037218Y1138065*
X1038112Y1139217*
X1036860*
X1036054Y1137259D02*
X1035875Y1137143D01*
X1035607Y1136798*
Y1139217*
X996717Y1144712D02*
X996627Y1144958D01*
X996448Y1145204*
X996269Y1145328*
X995911*
X995732Y1145204*
X995553Y1144958*
X995464Y1144712*
X995374Y1144343*
Y1143728*
X995464Y1143359*
X995553Y1143113*
X995732Y1142867*
X995911Y1142744*
X996269*
X996448Y1142867*
X996627Y1143113*
X996717Y1143359*
X998685Y1145328D02*
X997790D01*
X997701Y1144220*
X997790Y1144343*
X998059Y1144466*
X998327*
X998596Y1144343*
X998775Y1144097*
X998864Y1143728*
X998775Y1143482*
X998685Y1143113*
X998506Y1142867*
X998238Y1142744*
X997969*
X997701Y1142867*
X997611Y1142990*
X997522Y1143236*
X999759Y1144712D02*
Y1144835D01*
X999848Y1145081*
X999938Y1145204*
X1000117Y1145328*
X1000475*
X1000654Y1145204*
X1000743Y1145081*
X1000832Y1144835*
Y1144589*
X1000743Y1144343*
X1000564Y1143974*
X999669Y1142744*
X1000922*
X954059Y1154834D02*
X953813Y1154745D01*
X953567Y1154566*
X953444Y1154387*
Y1154029*
X953567Y1153850*
X953813Y1153671*
X954059Y1153582*
X954428Y1153492*
X955043*
X955412Y1153582*
X955658Y1153671*
X955904Y1153850*
X956028Y1154029*
Y1154387*
X955904Y1154566*
X955658Y1154745*
X955412Y1154834*
X953444Y1155819D02*
Y1156803D01*
X954428Y1156266*
Y1156535*
X954551Y1156713*
X954674Y1156803*
X955043Y1156892*
X955289*
X955658Y1156803*
X955904Y1156624*
X956028Y1156356*
Y1156087*
X955904Y1155819*
X955781Y1155729*
X955535Y1155640*
X954305Y1158861D02*
X954674Y1158771D01*
X954920Y1158592*
X955043Y1158324*
Y1158235*
X954920Y1157966*
X954674Y1157787*
X954305Y1157698*
X954182*
X953813Y1157787*
X953567Y1157966*
X953444Y1158235*
Y1158324*
X953567Y1158592*
X953813Y1158771*
X954305Y1158861*
X954920*
X955535Y1158771*
X955904Y1158592*
X956028Y1158324*
Y1158145*
X955904Y1157877*
X955658Y1157787*
X1031539Y1129635D02*
X1031662Y1129456D01*
X1031908Y1129277*
X1032154Y1129187*
X1032523Y1129098*
X1033139*
X1033508Y1129187*
X1033754Y1129277*
X1034000Y1129456*
X1034123Y1129635*
Y1129993*
X1034000Y1130172*
X1033754Y1130351*
X1033508Y1130440*
X1033139Y1130529*
X1032523*
X1032154Y1130440*
X1031908Y1130351*
X1031662Y1130172*
X1031539Y1129993*
Y1129635*
X1033631Y1129903D02*
X1034369Y1130440D01*
X1031908Y1132409D02*
X1031662Y1132319D01*
X1031539Y1132051*
Y1131872*
X1031662Y1131603*
X1032031Y1131424*
X1032646Y1131335*
X1033262*
X1033754Y1131424*
X1034000Y1131603*
X1034123Y1131872*
Y1131961*
X1034000Y1132230*
X1033754Y1132409*
X1033385Y1132498*
X1033262*
X1032893Y1132409*
X1032646Y1132230*
X1032523Y1131961*
Y1131872*
X1032646Y1131603*
X1032893Y1131424*
X1033262Y1131335*
X941843Y1119431D02*
X941753Y1119677D01*
X941574Y1119923*
X941395Y1120046*
X941037*
X940858Y1119923*
X940679Y1119677*
X940590Y1119431*
X940501Y1119062*
Y1118447*
X940590Y1118078*
X940679Y1117832*
X940858Y1117586*
X941037Y1117463*
X941395*
X941574Y1117586*
X941753Y1117832*
X941843Y1118078*
X942827Y1120046D02*
X943811D01*
X943274Y1119062*
X943543*
X943722Y1118939*
X943811Y1118816*
X943901Y1118447*
Y1118201*
X943811Y1117832*
X943632Y1117586*
X943364Y1117463*
X943095*
X942827Y1117586*
X942737Y1117709*
X942648Y1117955*
X893216Y1162474D02*
X895800D01*
X893216D02*
Y1163279D01*
X893339Y1163548*
X893462Y1163637*
X893708Y1163727*
X893954*
X894200Y1163637*
X894323Y1163548*
X894446Y1163279*
Y1162474*
Y1163100D02*
X895800Y1163727D01*
X893216Y1165695D02*
Y1164800D01*
X894323Y1164711*
X894200Y1164800*
X894077Y1165069*
Y1165337*
X894200Y1165606*
X894446Y1165785*
X894815Y1165874*
X895062Y1165785*
X895431Y1165695*
X895677Y1165516*
X895800Y1165248*
Y1164979*
X895677Y1164711*
X895554Y1164621*
X895308Y1164532*
X937786Y1168538D02*
X940206D01*
X937786Y1167912D02*
Y1169164D01*
X938247Y1169969D02*
X938132Y1170148D01*
X937786Y1170417*
X940206*
X987740Y1160243D02*
X989586D01*
X989955Y1160332*
X990201Y1160511*
X990324Y1160780*
Y1160959*
X990201Y1161227*
X989955Y1161406*
X989586Y1161495*
X987740*
X988232Y1162301D02*
X988109Y1162480D01*
X987740Y1162748*
X990324*
X988232Y1163553D02*
X988109Y1163732D01*
X987740Y1164001*
X990324*
X914423Y1160106D02*
X916268D01*
X916637Y1160196*
X916884Y1160375*
X917007Y1160643*
Y1160822*
X916884Y1161090*
X916637Y1161269*
X916268Y1161359*
X914423*
Y1162343D02*
Y1163327D01*
X915407Y1162790*
Y1163059*
X915530Y1163238*
X915653Y1163327*
X916022Y1163417*
X916268*
X916637Y1163327*
X916884Y1163148*
X917007Y1162880*
Y1162611*
X916884Y1162343*
X916760Y1162254*
X916514Y1162164*
X975749Y1161319D02*
X975519Y1161230D01*
X975289Y1161051*
X975173Y1160872*
Y1160514*
X975289Y1160335*
X975519Y1160156*
X975749Y1160067*
X976095Y1159977*
X976671*
X977017Y1160067*
X977247Y1160156*
X977478Y1160335*
X977593Y1160514*
Y1160872*
X977478Y1161051*
X977247Y1161230*
X977017Y1161319*
X975173Y1163288D02*
Y1162393D01*
X976210Y1162304*
X976095Y1162393*
X975980Y1162661*
Y1162930*
X976095Y1163198*
X976325Y1163377*
X976671Y1163467*
X976902Y1163377*
X977247Y1163288*
X977478Y1163109*
X977593Y1162840*
Y1162572*
X977478Y1162304*
X977362Y1162214*
X977132Y1162125*
X975634Y1164272D02*
X975519Y1164451D01*
X975173Y1164719*
X977593*
X953462Y1108052D02*
Y1104771D01*
Y1108052D02*
X954484D01*
X954825Y1107896*
X954939Y1107740*
X955053Y1107427*
Y1107115*
X954939Y1106802*
X954825Y1106646*
X954484Y1106490*
X953462*
X954257D02*
X955053Y1104771D01*
X956303Y1108052D02*
X957553D01*
X956871Y1106802*
X957212*
X957439Y1106646*
X957553Y1106490*
X957666Y1106021*
Y1105708*
X957553Y1105240*
X957325Y1104927*
X956984Y1104771*
X956643*
X956303Y1104927*
X956189Y1105083*
X956075Y1105396*
X959388Y1091315D02*
Y1088034D01*
Y1091315D02*
X960411D01*
X960752Y1091159*
X960865Y1091003*
X960979Y1090690*
Y1090378*
X960865Y1090065*
X960752Y1089909*
X960411Y1089753*
X959388*
X960184D02*
X960979Y1088034D01*
X963365Y1090847D02*
X963252Y1091159D01*
X962911Y1091315*
X962684*
X962343Y1091159*
X962115Y1090690*
X962002Y1089909*
Y1089128*
X962115Y1088503*
X962343Y1088190*
X962684Y1088034*
X962797*
X963138Y1088190*
X963365Y1088503*
X963479Y1088972*
Y1089128*
X963365Y1089597*
X963138Y1089909*
X962797Y1090065*
X962684*
X962343Y1089909*
X962115Y1089597*
X962002Y1089128*
X815890Y1101264D02*
Y1097983D01*
Y1101264D02*
X816912D01*
X817253Y1101108*
X817367Y1100952*
X817480Y1100639*
Y1100327*
X817367Y1100014*
X817253Y1099858*
X816912Y1099702*
X815890*
X816685D02*
X817480Y1097983D01*
X818503Y1100639D02*
X818730Y1100795D01*
X819071Y1101264*
Y1097983*
X1112563Y1053868D02*
Y1051285D01*
Y1053868D02*
X1113190D01*
X1113458Y1053745*
X1113637Y1053499*
X1113726Y1053253*
X1113726D02*
X1113816Y1052884D01*
Y1052269*
X1113726Y1051900*
X1113726D02*
X1113637Y1051654D01*
X1113458Y1051408*
X1113190Y1051285*
X1112563*
X1114621Y1053376D02*
X1114800Y1053499D01*
X1115069Y1053868*
Y1051285*
X1116411Y1053868D02*
X1116142Y1053745D01*
X1115963Y1053376*
X1115874Y1052761*
Y1052392*
X1115963Y1051777*
X1116142Y1051408*
X1116411Y1051285*
X1116590*
X1116858Y1051408*
X1117037Y1051777*
X1117127Y1052392*
Y1052761*
X1117037Y1053376*
X1116858Y1053745*
X1116590Y1053868*
X1116411*
X1090454Y1053087D02*
Y1050503D01*
Y1053087D02*
X1091080D01*
X1091348Y1052964*
X1091527Y1052718*
X1091617Y1052472*
X1091706Y1052103*
Y1051488*
X1091617Y1051118*
X1091527Y1050872*
X1091348Y1050626*
X1091080Y1050503*
X1090454*
X1092512Y1052595D02*
X1092691Y1052718D01*
X1092959Y1053087*
Y1050503*
X1093764Y1052595D02*
X1093943Y1052718D01*
X1094212Y1053087*
Y1050503*
X1089047Y1098478D02*
Y1095894D01*
Y1098478D02*
X1089674D01*
X1089942Y1098355*
X1090121Y1098109*
X1090211Y1097863*
X1090300Y1097494*
Y1096879*
X1090211Y1096510*
X1090121Y1096264*
X1089942Y1096017*
X1089674Y1095894*
X1089047*
X1091105Y1097986D02*
X1091284Y1098109D01*
X1091553Y1098478*
Y1095894*
X1092448Y1097863D02*
Y1097986D01*
X1092537Y1098232*
X1092626Y1098355*
X1092805Y1098478*
X1093163*
X1093342Y1098355*
X1093432Y1098232*
X1093521Y1097986*
Y1097740*
X1093432Y1097494*
X1093253Y1097125*
X1092358Y1095894*
X1093611*
X1112485Y1098009D02*
Y1095426D01*
Y1098009D02*
X1113112D01*
X1113380Y1097886*
X1113559Y1097640*
X1113648Y1097394*
X1113738Y1097025*
Y1096410*
X1113648Y1096041*
X1113559Y1095795*
X1113380Y1095549*
X1113112Y1095426*
X1112485*
X1114543Y1097517D02*
X1114722Y1097640D01*
X1114991Y1098009*
Y1095426*
X1115975Y1098009D02*
X1116959D01*
X1116422Y1097025*
X1116691*
X1116870Y1096902*
X1116959Y1096779*
X1117049Y1096410*
Y1096164*
X1116959Y1095795*
X1116780Y1095549*
X1116512Y1095426*
X1116243*
X1115975Y1095549*
X1115885Y1095672*
X1115796Y1095918*
X953811Y1128602D02*
X956155D01*
X956624Y1128715*
X956936Y1128943*
X957093Y1129284*
Y1129511*
X956936Y1129852*
X956624Y1130079*
X956155Y1130193*
X953811*
X954593Y1131329D02*
X954436D01*
X954124Y1131443*
X953968Y1131556*
X953811Y1131784*
Y1132238*
X953968Y1132465*
X954124Y1132579*
X954436Y1132693*
X954749*
X955061Y1132579*
X955530Y1132352*
X957093Y1131215*
Y1132806*
X953811Y1134511D02*
X953968Y1134170D01*
X954436Y1133943*
X955218Y1133829*
X955686*
X956468Y1133943*
X956936Y1134170*
X957093Y1134511*
Y1134738*
X956936Y1135079*
X956468Y1135306*
X955686Y1135420*
X955218*
X954436Y1135306*
X953968Y1135079*
X953811Y1134738*
Y1134511*
X1013626Y1068907D02*
Y1066488D01*
X1013000Y1068907D02*
X1014252D01*
X1015058D02*
Y1066488D01*
Y1068907D02*
X1015863D01*
X1016131Y1068792*
X1016221Y1068677*
X1016310Y1068447*
Y1068101*
X1016221Y1067870*
X1016131Y1067755*
X1015863Y1067640*
X1015058*
X1018189Y1068562D02*
X1018100Y1068792D01*
X1017831Y1068907*
X1017652*
X1017384Y1068792*
X1017205Y1068447*
X1017115Y1067870*
X1017115D02*
Y1067294D01*
X1017115D02*
X1017205Y1066833D01*
X1017384Y1066603*
X1017652Y1066488*
X1017742*
X1018010Y1066603*
X1018189Y1066833*
X1018279Y1067179*
Y1067294*
X1018189Y1067640*
X1018010Y1067870*
X1017742Y1067986*
X1017652*
X1017384Y1067870*
X1017205Y1067640*
X1017115Y1067294*
X1013782Y1079298D02*
Y1076879D01*
X1013156Y1079298D02*
X1014408D01*
X1015214D02*
Y1076879D01*
Y1079298D02*
X1016019D01*
X1016287Y1079183*
X1016287D02*
X1016377Y1079068D01*
X1016466Y1078837*
Y1078492*
X1016377Y1078261*
X1016287Y1078146*
X1016287D02*
X1016019Y1078031D01*
X1015214*
X1018524Y1079298D02*
X1017630Y1076879D01*
X1017272Y1079298D02*
X1018524D01*
G74*
X0Y0D02*
M02*
