*
*
G04 PADS 9.5 Build Number: 522968 generated Gerber (RS-274-X) file*
G04 PC Version=2.1*
*
%IN "stm32l151_nbiot_parking"*%
*
%MOIN*%
*
%FSLAX35Y35*%
*
*
*
*
G04 PC Standard Apertures*
*
*
G04 Thermal Relief Aperture macro.*
%AMTER*
1,1,$1,0,0*
1,0,$1-$2,0,0*
21,0,$3,$4,0,0,45*
21,0,$3,$4,0,0,135*
%
*
*
G04 Annular Aperture macro.*
%AMANN*
1,1,$1,0,0*
1,0,$2,0,0*
%
*
*
G04 Odd Aperture macro.*
%AMODD*
1,1,$1,0,0*
1,0,$1-0.005,0,0*
%
*
*
G04 PC Custom Aperture Macros*
*
*
*
*
*
*
G04 PC Aperture Table*
*
%ADD049C,0.01*%
%ADD051C,0.012*%
%ADD062C,0.007*%
%ADD063C,0.005*%
%ADD064C,0.001*%
%ADD065C,0.00787*%
%ADD066C,0.00787*%
%ADD080C,0.01181*%
%ADD087C,0.004*%
%ADD138C,0.00591*%
%ADD145C,0.003*%
%ADD146C,0.00394*%
%ADD147C,0.00802*%
%ADD344C,0.0025*%
*
*
*
*
G04 PC Circuitry*
G04 Layer Name stm32l151_nbiot_parking - circuitry*
%LPD*%
*
G54D64*
G01X947799Y1121283D02*
X947781Y1121319D01*
X947636Y1121271*
X947598Y1121273*
X947473Y1121335*
X947451Y1121358*
X947389Y1121482*
X947384Y1121504*
Y1123754*
X947384D02*
X946551D01*
X946551D02*
Y1123719D01*
X946762Y1123667*
X946772Y1123663*
X946896Y1123601*
X946919Y1123578*
X946981Y1123454*
X946986Y1123432*
Y1121691*
X946972Y1121656*
X946785Y1121469*
X946778Y1121463*
X946591Y1121339*
X946573Y1121331*
X946262Y1121269*
X946252Y1121268*
X946066*
X946038Y1121276*
X945852Y1121401*
X945832Y1121426*
X945770Y1121613*
X945768Y1121619*
X945706Y1121930*
X945705Y1121940*
Y1123754*
X945705D02*
X944873D01*
X944873D02*
Y1123730D01*
X945009*
X945032Y1123725*
X945156Y1123663*
X945178Y1123640*
X945240Y1123516*
X945244Y1123506*
X945306Y1123257*
X945308Y1123245*
Y1121697*
X945366Y1121463*
X945605Y1121105*
X945770Y1120995*
X945996*
X946358Y1121116*
X946596Y1121235*
X946901Y1121540*
X946986Y1121504*
Y1120995*
X947051*
X947799Y1121283*
X944461Y1122438D02*
X944401Y1122918D01*
X944162Y1123337*
X943743Y1123696*
X943205Y1123816*
X942847Y1123756*
X942551Y1123638*
X942311Y1123398*
X942070Y1123096*
X941950Y1122736*
X941889Y1122374*
X941949Y1121894*
X942192Y1121470*
X942369Y1121233*
X942845Y1120995*
X943140*
X943504Y1121056*
X943803Y1121175*
X944101Y1121414*
X944280Y1121712*
X944401Y1122076*
X944461Y1122438*
X944002Y1122188D02*
Y1122182D01*
X943940Y1121685*
X943937Y1121672*
X943812Y1121362*
X943801Y1121345*
X943615Y1121158*
X943589Y1121145*
X943278Y1121082*
X943253Y1121084*
X942880Y1121208*
X942857Y1121225*
X942608Y1121535*
X942600Y1121549*
X942414Y1122046*
X942411Y1122058*
X942349Y1122618*
X942348Y1122623*
Y1122934*
X942352Y1122953*
X942476Y1123262*
X942537Y1123447*
X942557Y1123473*
X942744Y1123597*
X942753Y1123602*
X943064Y1123727*
X943092Y1123729*
X943403Y1123667*
X943428Y1123653*
X943677Y1123405*
X943686Y1123392*
X943935Y1122894*
X943940Y1122877*
X944002Y1122193*
Y1122188*
X941602Y1121081D02*
X941466D01*
X941444Y1121087*
X941319Y1121149*
X941306Y1121158*
X941244Y1121220*
X941232Y1121240*
X941170Y1121426*
X941167Y1121442*
Y1123052*
X941108Y1123290*
X940987Y1123531*
X940874Y1123700*
X940706Y1123756*
X940473Y1123815*
X940122Y1123697*
X939880Y1123516*
X939570Y1123268*
X939489Y1123307*
Y1125309*
X939424*
X938676Y1125021*
X938694Y1124985*
X938839Y1125033*
X938877Y1125030*
X939002Y1124968*
X939024Y1124946*
X939086Y1124821*
X939092Y1124799*
Y1121442*
X939086Y1121420*
X938962Y1121171*
X938927Y1121145*
X938656Y1121090*
Y1121057*
X939924*
Y1121081*
X939787*
X939765Y1121087*
X939641Y1121149*
X939628Y1121158*
X939566Y1121220*
X939556Y1121233*
X939494Y1121358*
X939489Y1121380*
Y1123121*
X939509Y1123161*
X939755Y1123345*
X939876Y1123467*
X939904Y1123481*
X940277Y1123543*
X940297Y1123542*
X940546Y1123480*
X940578Y1123454*
X940702Y1123205*
X940705Y1123199*
X940767Y1123012*
X940770Y1122996*
Y1121380*
X940762Y1121352*
X940637Y1121166*
X940631Y1121158*
X940569Y1121096*
X940533Y1121081*
X940335*
Y1121057*
X941602*
Y1121081*
X938370Y1123754D02*
X936108D01*
X936108D02*
Y1123109D01*
X936146*
X936259Y1123447*
X936271Y1123467*
X936395Y1123591*
X936408Y1123601*
X936533Y1123663*
X936555Y1123668*
X937736*
X937776Y1123588*
X935921Y1121115*
Y1121057*
X938370*
Y1121765*
X938335*
X938283Y1121560*
Y1121442*
X938269Y1121407*
X938082Y1121220*
X938063Y1121208*
X937876Y1121146*
X937860Y1121144*
X936555*
X936515Y1121224*
X938370Y1123697*
Y1123754*
X940836Y1129758D02*
X940775Y1130368D01*
X940532Y1130854*
X940229Y1131279*
X939809Y1131579*
X939263Y1131701*
X938460Y1131762*
X936833*
Y1131738*
X936908*
X936924Y1131735*
X937297Y1131611*
X937328Y1131580*
X937390Y1131393*
X937393Y1131377*
Y1128083*
X937388Y1128060*
X937325Y1127936*
X937316Y1127923*
X937192Y1127799*
X937169Y1127785*
X936920Y1127723*
X936908Y1127722*
X936833*
Y1127697*
X938583*
X939137Y1127759*
X939625Y1127881*
X939991Y1128064*
X940352Y1128304*
X940531Y1128604*
X940716Y1128972*
X940836Y1129334*
Y1129758*
X940252Y1129699D02*
Y1129691D01*
X940127Y1128945*
X940121Y1128927*
X939748Y1128305*
X939735Y1128291*
X939238Y1127918*
X939226Y1127912*
X938916Y1127787*
X938897Y1127784*
X938275*
X938267Y1127785*
X937894Y1127847*
X937852Y1127896*
Y1131502*
X937893Y1131551*
X938514Y1131675*
X938532*
X938905Y1131613*
X938907*
X939218Y1131551*
X939238Y1131542*
X939735Y1131169*
X939748Y1131154*
X940121Y1130533*
X940127Y1130515*
X940252Y1129706*
Y1129699*
X935573Y1123630D02*
X934814D01*
X934792Y1123635*
X934550Y1123756*
X934192Y1123816*
X933776Y1123757*
X933419Y1123519*
X933184Y1123224*
X933125Y1122813*
X933243Y1122341*
X933603Y1122040*
X933607Y1121966*
X933361Y1121721*
X933129Y1121373*
X933179Y1121224*
X933415Y1121047*
X933420Y1120972*
X933239Y1120791*
X933181Y1120674*
X933175Y1120665*
X932937Y1120368*
Y1120269*
X932992Y1120107*
X933160Y1119995*
X933584Y1119813*
X934067Y1119752*
X934735Y1119874*
X935279Y1120176*
X935514Y1120469*
X935571Y1120757*
X935514Y1120987*
X935403Y1121154*
X934991Y1121330*
X934690*
X934684Y1121331*
X934190Y1121392*
X933758*
X933742Y1121395*
X933555Y1121457*
X933526Y1121482*
X933464Y1121606*
Y1121651*
X933526Y1121775*
X933536Y1121788*
X933722Y1121975*
X933765Y1121989*
X934193Y1121928*
X934607Y1121987*
X934903Y1122224*
X935140Y1122520*
X935199Y1122872*
X935139Y1123229*
X935018Y1123471*
X935063Y1123544*
X935573*
Y1123630*
X934802Y1122748D02*
Y1122740D01*
X934739Y1122367*
X934738Y1122359*
X934675Y1122172*
X934656Y1122147*
X934469Y1122022*
X934454Y1122015*
X934205Y1121953*
X934181*
X933932Y1122015*
X933916Y1122022*
X933730Y1122147*
X933710Y1122172*
X933586Y1122545*
X933584Y1122554*
X933522Y1122989*
X933521Y1122996*
X933522Y1123006*
X933584Y1123317*
X933589Y1123330*
X933713Y1123578*
X933722Y1123591*
X933847Y1123716*
X933870Y1123729*
X934119Y1123791*
X934119D02*
X934143D01*
X934391Y1123729*
X934407Y1123722*
X934594Y1123597*
X934613Y1123572*
X934738Y1123199*
X934740Y1123190*
X934802Y1122755*
Y1122748*
X935483Y1120618D02*
X935421Y1120432D01*
X935409Y1120412*
X935223Y1120226*
X935206Y1120215*
X934895Y1120090*
X934883Y1120087*
X934385Y1120025*
X934373*
X933876Y1120087*
X933866Y1120089*
X933493Y1120214*
X933474Y1120226*
X933349Y1120350*
X933340Y1120363*
X933278Y1120487*
X933274Y1120522*
X933336Y1120771*
X933345Y1120788*
X933345D02*
X933531Y1121037D01*
X933578Y1121057*
X934010Y1120995*
X935063*
X935079Y1120992*
X935265Y1120930*
X935285Y1120918*
X935409Y1120794*
X935419Y1120781*
X935481Y1120657*
X935483Y1120618*
X936360Y1131762D02*
X934207D01*
X933907Y1130961*
X934008Y1131096*
X934018Y1131106*
X934267Y1131293*
X934281Y1131300*
X934468Y1131362*
X934483Y1131365*
X935913*
X935960Y1131299*
X934678Y1127635*
X934945*
X936360Y1131634*
Y1131762*
X932651Y1121081D02*
X932514D01*
X932479Y1121096*
X932423Y1121153*
X932306Y1121211*
X932280Y1121240*
X932218Y1121426*
X932216Y1121442*
Y1123115*
X932156Y1123352*
X932038Y1123588*
X931929Y1123698*
X931521Y1123814*
X931349Y1123757*
X931345Y1123756*
X931107Y1123696*
X930871Y1123520*
X930626Y1123214*
X930537Y1123245*
Y1123817*
X930472*
X929724Y1123529*
X929742Y1123493*
X929888Y1123541*
X929926Y1123538*
X930050Y1123476*
X930073Y1123454*
X930135Y1123330*
X930140Y1123307*
Y1121380*
X930135Y1121358*
X930073Y1121233*
X930063Y1121220*
X929939Y1121096*
X929904Y1121081*
X929705*
Y1121057*
X930972*
Y1121081*
X930836*
X930814Y1121087*
X930689Y1121149*
X930667Y1121171*
X930608Y1121288*
X930552Y1121345*
X930537Y1121380*
Y1123121*
X930560Y1123162*
X930933Y1123411*
X930944Y1123417*
X931317Y1123541*
X931349*
X931536Y1123479*
X931555Y1123467*
X931679Y1123343*
X931686Y1123335*
X931810Y1123148*
X931818Y1123121*
Y1121380*
X931810Y1121352*
X931686Y1121166*
X931656Y1121145*
X931408Y1121083*
X931395Y1121081*
X931383*
Y1121057*
X932651*
Y1121081*
X933356Y1128654D02*
X933333D01*
X933160Y1128309*
X933156Y1128301*
X932969Y1128053*
X932955Y1128040*
X932644Y1127853*
X932631Y1127848*
X932382Y1127785*
X932370Y1127784*
X931127*
X931091Y1127799*
X930967Y1127923*
X930952Y1127958*
Y1129699*
X931002Y1129749*
X932121*
X932137Y1129746*
X932323Y1129684*
X932335Y1129678*
X932522Y1129554*
X932544Y1129512*
Y1129394*
X932595Y1129189*
X932631*
Y1130395*
X932597*
X932543Y1130124*
X932529Y1130099*
X932281Y1129850*
X932245Y1129835*
X931002*
X930952Y1129885*
Y1131626*
X931002Y1131676*
X932432*
X932448Y1131673*
X932634Y1131611*
X932648Y1131604*
X932897Y1131417*
X932915Y1131393*
X932977Y1131207*
X932978Y1131201*
X933032Y1130930*
X933062*
X933007Y1131762*
X929933*
Y1131738*
X930008*
X930020Y1131737*
X930268Y1131674*
X930279Y1131671*
X930403Y1131608*
X930428Y1131580*
X930490Y1131393*
X930493Y1131377*
Y1127958*
X930470Y1127917*
X930284Y1127792*
X930268Y1127785*
X930020Y1127723*
X930008Y1127722*
X929933*
Y1127697*
X933018*
X933356Y1128654*
X929526Y1121322D02*
X929429Y1121273D01*
X929406Y1121268*
X929220*
X929175Y1121296*
X929113Y1121420*
X929108Y1121442*
Y1123237*
X929051Y1123407*
X928819Y1123697*
X928224Y1123816*
X927805Y1123756*
X927447Y1123577*
X927276Y1123406*
X927220Y1123183*
X927272Y1122973*
X927417Y1122925*
X927562Y1122973*
X927616Y1123189*
Y1123432*
X927630Y1123467*
X927755Y1123591*
X927771Y1123602*
X928082Y1123727*
X928113Y1123729*
X928362Y1123667*
X928377Y1123660*
X928564Y1123535*
X928583Y1123509*
X928646Y1123323*
X928647Y1123317*
X928709Y1123006*
X928710Y1122996*
Y1122872*
X928679Y1122826*
X928058Y1122577*
X927626Y1122392*
X927331Y1122215*
X927214Y1121981*
X927096Y1121686*
X927154Y1121397*
X927268Y1121169*
X927497Y1121054*
X927730Y1120996*
X928082Y1121055*
X928257Y1121172*
X928628Y1121481*
X928710Y1121442*
Y1121214*
X928816Y1121108*
X928978Y1121000*
X929317Y1121113*
X929526Y1121322*
X928710Y1122686D02*
Y1121629D01*
X928688Y1121587*
X928315Y1121339*
X928297Y1121331*
X927986Y1121269*
X927976Y1121268*
X927852*
X927824Y1121276*
X927638Y1121401*
X927618Y1121426*
X927494Y1121799*
X927495Y1121834*
X927619Y1122145*
X927630Y1122161*
X927755Y1122286*
X927760Y1122290*
X928009Y1122477*
X928023Y1122484*
X928207Y1122546*
X928641Y1122732*
X928710Y1122686*
X926683Y1125122D02*
X925105D01*
Y1125098*
X925179*
X925191Y1125096*
X925440Y1125034*
X925463Y1125021*
X925587Y1124897*
X925600Y1124877*
X925662Y1124691*
X925664Y1124675*
Y1123183*
X925614Y1123133*
X923625*
X923575Y1123183*
Y1124675*
X923580Y1124697*
X923642Y1124821*
X923646Y1124827*
X923770Y1125013*
X923799Y1125034*
X924048Y1125096*
X924060Y1125098*
X924135*
X924135D02*
Y1125122D01*
X924135D02*
X922556D01*
Y1125098*
X922630*
X922640Y1125097*
X922951Y1125035*
X922986Y1125008*
X923048Y1124884*
X923051Y1124877*
X923113Y1124691*
X923116Y1124675*
Y1121442*
X923113Y1121426*
X923051Y1121240*
X923026Y1121211*
X922901Y1121149*
X922891Y1121145*
X922643Y1121083*
X922630Y1121081*
X922556*
Y1121057*
X924135*
X924135D02*
Y1121081D01*
X924135D02*
X924060D01*
X924048Y1121083*
X923799Y1121145*
X923776Y1121158*
X923652Y1121283*
X923640Y1121302*
X923578Y1121489*
X923575Y1121504*
Y1122996*
X923625Y1123046*
X925614*
X925664Y1122996*
Y1121442*
X925662Y1121426*
X925600Y1121240*
X925574Y1121211*
X925450Y1121149*
X925440Y1121145*
X925191Y1121083*
X925179Y1121081*
X925105*
Y1121057*
X926683*
Y1121081*
X926609*
X926597Y1121083*
X926348Y1121145*
X926325Y1121158*
X926201Y1121283*
X926188Y1121302*
X926126Y1121489*
X926124Y1121504*
Y1124675*
X926129Y1124697*
X926191Y1124821*
X926194Y1124827*
X926319Y1125013*
X926348Y1125034*
X926597Y1125096*
X926609Y1125098*
X926683*
Y1125122*
X929564Y1128654D02*
X929541D01*
X929369Y1128309*
X929364Y1128301*
X929177Y1128053*
X929163Y1128040*
X928852Y1127853*
X928839Y1127848*
X928590Y1127785*
X928578Y1127784*
X927335*
X927299Y1127799*
X927175Y1127923*
X927160Y1127958*
Y1129699*
X927210Y1129749*
X928329*
X928345Y1129746*
X928531Y1129684*
X928543Y1129678*
X928730Y1129554*
X928752Y1129512*
Y1129394*
X928803Y1129189*
X928839*
Y1130395*
X928805*
X928751Y1130124*
X928738Y1130099*
X928489Y1129850*
X928454Y1129835*
X927210*
X927160Y1129885*
Y1131626*
X927210Y1131676*
X928640*
X928656Y1131673*
X928842Y1131611*
X928856Y1131604*
X928856D02*
X929105Y1131417D01*
X929123Y1131393*
X929185Y1131207*
X929186Y1131201*
X929240Y1130930*
X929270*
X929215Y1131762*
X926141*
Y1131738*
X926216*
X926228Y1131737*
X926476Y1131674*
X926487Y1131671*
X926611Y1131608*
X926636Y1131580*
X926698Y1131393*
X926701Y1131377*
Y1127958*
X926679Y1127917*
X926492Y1127792*
X926476Y1127785*
X926228Y1127723*
X926216Y1127722*
X926141*
Y1127697*
X929226*
X929564Y1128654*
X925357Y1129014D02*
X925297Y1129374D01*
X925178Y1129671*
X924944Y1129905*
X924643Y1130025*
X924626Y1130107*
X924872Y1130353*
X925051Y1130591*
X925110Y1130830*
X925111Y1130834*
X925169Y1131007*
X925111Y1131299*
X924995Y1131532*
X924703Y1131765*
X924289Y1131824*
X923933Y1131765*
X923636Y1131586*
X923397Y1131348*
X923237Y1131027*
X923284Y1131003*
X923632Y1131350*
X923653Y1131363*
X924088Y1131487*
X924114Y1131488*
X924363Y1131426*
X924373Y1131422*
X924622Y1131298*
X924644Y1131275*
X924768Y1131027*
X924772Y1131016*
X924834Y1130768*
Y1130743*
X924710Y1130246*
X924703Y1130231*
X924579Y1130044*
X924560Y1130027*
X924062Y1129778*
X924052Y1129775*
X923935Y1129745*
X924364Y1129623*
X924373Y1129619*
X924746Y1129433*
X924768Y1129410*
X924893Y1129162*
X924897Y1129151*
X925021Y1128654*
Y1128632*
X924959Y1128321*
X924950Y1128301*
X924764Y1128053*
X924754Y1128043*
X924505Y1127856*
X924487Y1127848*
X924239Y1127785*
X924226Y1127784*
X923978*
X923955Y1127789*
X923469Y1128033*
X923364*
X923205Y1127980*
X923163Y1127896*
X923266Y1127690*
X923487Y1127635*
X924217*
X924515Y1127755*
X924820Y1127938*
X925058Y1128116*
X925297Y1128534*
X925357Y1129014*
X920778Y1121081D02*
X920641D01*
X920606Y1121096*
X920549Y1121153*
X920432Y1121211*
X920407Y1121240*
X920345Y1121426*
X920343Y1121442*
Y1123115*
X920283Y1123352*
X920165Y1123588*
X920056Y1123698*
X919648Y1123814*
X919476Y1123757*
X919472Y1123756*
X919233Y1123696*
X918998Y1123520*
X918753Y1123214*
X918664Y1123245*
Y1123817*
X918599*
X917851Y1123529*
X917869Y1123493*
X918015Y1123541*
X918053Y1123538*
X918177Y1123476*
X918199Y1123454*
X918262Y1123330*
X918267Y1123307*
Y1121380*
X918262Y1121358*
X918199Y1121233*
X918190Y1121220*
X918066Y1121096*
X918030Y1121081*
X917832*
Y1121057*
X919099*
Y1121081*
X918963*
X918940Y1121087*
X918816Y1121149*
X918794Y1121171*
X918735Y1121288*
X918679Y1121345*
X918664Y1121380*
Y1123121*
X918686Y1123162*
X919059Y1123411*
X919071Y1123417*
X919444Y1123541*
X919476*
X919662Y1123479*
X919682Y1123467*
X919806Y1123343*
X919813Y1123335*
X919937Y1123148*
X919945Y1123121*
Y1121380*
X919937Y1121352*
X919813Y1121166*
X919783Y1121145*
X919534Y1121083*
X919522Y1121081*
X919510*
Y1121057*
X920778*
Y1121081*
X922249Y1129014D02*
X922189Y1129374D01*
X922070Y1129671*
X921836Y1129905*
X921535Y1130025*
X921518Y1130107*
X921764Y1130353*
X921942Y1130591*
X922002Y1130830*
X922003Y1130834*
X922061Y1131007*
X922003Y1131299*
X921887Y1131532*
X921595Y1131765*
X921181Y1131824*
X920825Y1131765*
X920528Y1131586*
X920289Y1131348*
X920129Y1131027*
X920176Y1131003*
X920523Y1131350*
X920545Y1131363*
X920980Y1131487*
X921006Y1131488*
X921255Y1131426*
X921265Y1131422*
X921514Y1131298*
X921536Y1131275*
X921660Y1131027*
X921664Y1131016*
X921726Y1130768*
Y1130743*
X921602Y1130246*
X921595Y1130231*
X921471Y1130044*
X921451Y1130027*
X920954Y1129778*
X920944Y1129775*
X920827Y1129745*
X921256Y1129623*
X921265Y1129619*
X921638Y1129433*
X921660Y1129410*
X921785Y1129162*
X921788Y1129151*
X921913Y1128654*
Y1128632*
X921851Y1128321*
X921842Y1128301*
X921656Y1128053*
X921646Y1128043*
X921397Y1127856*
X921379Y1127848*
X921130Y1127785*
X921118Y1127784*
X920870*
X920847Y1127789*
X920360Y1128033*
X920256*
X920097Y1127980*
X920055Y1127896*
X920158Y1127690*
X920378Y1127635*
X921109*
X921407Y1127755*
X921712Y1127938*
X921950Y1128116*
X922189Y1128534*
X922249Y1129014*
X918893Y1127722D02*
X918694D01*
X918672Y1127727*
X918547Y1127789*
X918534Y1127799*
X918410Y1127923*
X918395Y1127958*
Y1131825*
X918333*
X917393Y1131355*
X917416Y1131309*
X917689Y1131364*
X917699Y1131365*
X917824*
X917859Y1131350*
X917983Y1131226*
X917998Y1131191*
Y1127958*
X917983Y1127923*
X917859Y1127799*
X917846Y1127789*
X917722Y1127727*
X917699Y1127722*
X917501*
Y1127697*
X918893*
Y1127722*
X917483Y1121081D02*
X917347D01*
X917311Y1121096*
X917125Y1121283*
X917115Y1121296*
X917053Y1121420*
X917048Y1121442*
Y1123817*
X916983*
X916235Y1123529*
X916253Y1123493*
X916398Y1123541*
X916436Y1123538*
X916561Y1123476*
X916583Y1123454*
X916645Y1123330*
X916651Y1123307*
Y1121442*
X916645Y1121420*
X916521Y1121171*
X916499Y1121149*
X916374Y1121087*
X916352Y1121081*
X916215*
Y1121057*
X917483*
Y1121081*
X917102Y1124989D02*
X916997Y1125200D01*
X916846Y1125301*
X916638Y1125197*
X916534Y1124989*
X916635Y1124838*
X916846Y1124732*
X917000Y1124835*
X917102Y1124989*
X916344Y1129276D02*
X914890D01*
Y1128879*
X916344*
Y1129276*
X914181Y1122798D02*
X914128Y1123165D01*
X913890Y1123522*
X913596Y1123757*
X913184Y1123816*
X912703Y1123696*
X912703D02*
X912287Y1123458D01*
X912048Y1122980*
X911927Y1122372*
X911987Y1121771*
X912286Y1121352*
X912643Y1121055*
X913118Y1120996*
X913474Y1121055*
X913829Y1121292*
X914069Y1121651*
X914094Y1121726*
X914082Y1121713*
X913833Y1121527*
X913831Y1121525*
X913644Y1121401*
X913617Y1121392*
X913368*
X913361Y1121393*
X912926Y1121455*
X912898Y1121469*
X912587Y1121780*
X912581Y1121788*
X912332Y1122161*
X912324Y1122183*
X912262Y1122742*
X912261Y1122748*
X912311Y1122798*
X914181*
X913667Y1123183D02*
Y1122934D01*
X913617Y1122884*
X912311*
X912262Y1122944*
X912324Y1123255*
X912333Y1123275*
X912520Y1123524*
X912532Y1123535*
X912719Y1123660*
X912734Y1123667*
X912983Y1123729*
X913014Y1123727*
X913324Y1123602*
X913341Y1123591*
X913590Y1123343*
X913599Y1123330*
X913661Y1123205*
X913667Y1123183*
X913733Y1127722D02*
X913534D01*
X913512Y1127727*
X913388Y1127789*
X913375Y1127799*
X913250Y1127923*
X913236Y1127958*
Y1131825*
X913173*
X912234Y1131355*
X912257Y1131309*
X912530Y1131364*
X912540Y1131365*
X912664*
X912699Y1131350*
X912824Y1131226*
X912838Y1131191*
Y1127958*
X912824Y1127923*
X912699Y1127799*
X912686Y1127789*
X912562Y1127727*
X912540Y1127722*
X912341*
Y1127697*
X913733*
Y1127722*
X911578Y1121316D02*
X911391Y1121269D01*
X911357Y1121273*
X911232Y1121335*
X911210Y1121358*
X911148Y1121482*
X911142Y1121504*
Y1125309*
X911077*
X910329Y1125021*
X910347Y1124985*
X910493Y1125033*
X910531Y1125030*
X910655Y1124968*
X910678Y1124946*
X910740Y1124821*
X910745Y1124799*
Y1123618*
X910665Y1123578*
X910426Y1123757*
X910075Y1123816*
X909600Y1123697*
X909181Y1123338*
X908940Y1122855*
X908819Y1122310*
X908879Y1121769*
X909118Y1121351*
X909473Y1121055*
X909883Y1120996*
X910301Y1121115*
X910477Y1121233*
X910660Y1121415*
X910745Y1121380*
Y1120995*
X910810*
X911578Y1121290*
Y1121316*
X910745Y1122934D02*
Y1121629D01*
X910730Y1121593*
X910482Y1121345*
X910456Y1121331*
X910145Y1121269*
X910126*
X909815Y1121331*
X909794Y1121341*
X909483Y1121590*
X909469Y1121606*
X909283Y1121979*
X909278Y1121996*
X909216Y1122556*
X909215Y1122561*
X909216Y1122567*
X909278Y1123065*
X909286Y1123086*
X909535Y1123459*
X909541Y1123467*
X909727Y1123653*
X909750Y1123667*
X909999Y1123729*
X910021*
X910332Y1123667*
X910357Y1123653*
X910606Y1123405*
X910619Y1123383*
X910743Y1122948*
X910745Y1122934*
X910990Y1127900D02*
X910885Y1128110D01*
X910733Y1128211*
X910526Y1128107*
X910422Y1127900*
X910523Y1127748*
X910733Y1127643*
X910887Y1127746*
X910990Y1127900*
X908515Y1121322D02*
X908417Y1121273D01*
X908395Y1121268*
X908209*
X908164Y1121296*
X908102Y1121420*
X908096Y1121442*
Y1123237*
X908040Y1123407*
X907808Y1123697*
X907213Y1123816*
X906794Y1123756*
X906435Y1123577*
X906264Y1123406*
X906209Y1123183*
X906261Y1122973*
X906406Y1122925*
X906550Y1122973*
X906604Y1123189*
Y1123432*
X906619Y1123467*
X906743Y1123591*
X906760Y1123602*
X907071Y1123727*
X907102Y1123729*
X907350Y1123667*
X907366Y1123660*
X907552Y1123535*
X907572Y1123509*
X907634Y1123323*
X907636Y1123317*
X907698Y1123006*
X907699Y1122996*
Y1122872*
X907668Y1122826*
X907047Y1122577*
X906615Y1122392*
X906320Y1122215*
X906203Y1121981*
X906085Y1121686*
X906143Y1121397*
X906257Y1121169*
X906485Y1121054*
X906719Y1120996*
X907071Y1121055*
X907246Y1121172*
X907617Y1121481*
X907699Y1121442*
Y1121214*
X907805Y1121108*
X907967Y1121000*
X908306Y1121113*
X908515Y1121322*
X907699Y1122686D02*
Y1121629D01*
X907677Y1121587*
X907304Y1121339*
X907286Y1121331*
X906975Y1121269*
X906965Y1121268*
X906841*
X906813Y1121276*
X906627Y1121401*
X906607Y1121426*
X906483Y1121799*
X906480Y1121815*
X906484Y1121834*
X906608Y1122145*
X906619Y1122161*
X906743Y1122286*
X906749Y1122290*
X906997Y1122477*
X907012Y1122484*
X907196Y1122546*
X907629Y1122732*
X907699Y1122686*
X909071Y1127722D02*
X908872D01*
X908850Y1127727*
X908725Y1127789*
X908712Y1127799*
X908588Y1127923*
X908573Y1127958*
Y1131825*
X908511*
X907572Y1131355*
X907594Y1131309*
X907868Y1131364*
X907877Y1131365*
X908002*
X908037Y1131350*
X908161Y1131226*
X908176Y1131191*
Y1127958*
X908161Y1127923*
X908037Y1127799*
X908024Y1127789*
X907900Y1127727*
X907877Y1127722*
X907679*
Y1127697*
X909071*
Y1127722*
X905672Y1125122D02*
X904696D01*
X903094Y1121855*
X903003Y1121857*
X901525Y1125122*
X900488*
Y1125098*
X900625*
X900640Y1125095*
X900827Y1125033*
X900846Y1125021*
X900971Y1124897*
X900983Y1124877*
X901045Y1124691*
X901048Y1124675*
Y1121442*
X901042Y1121420*
X900980Y1121296*
X900971Y1121283*
X900846Y1121158*
X900823Y1121145*
X900575Y1121083*
X900562Y1121081*
X900488*
Y1121057*
X901756*
Y1121081*
X901495*
X901467Y1121090*
X901281Y1121214*
X901261Y1121240*
X901199Y1121426*
X901196Y1121442*
Y1124488*
X901292Y1124509*
X902894Y1121058*
X904558Y1124510*
X904653Y1124488*
Y1121442*
X904648Y1121420*
X904586Y1121296*
X904576Y1121283*
X904452Y1121158*
X904429Y1121145*
X904180Y1121083*
X904168Y1121081*
X904094*
Y1121057*
X905672*
Y1121081*
X905411*
X905383Y1121090*
X905197Y1121214*
X905177Y1121240*
X905115Y1121426*
X905113Y1121442*
Y1124737*
X905118Y1124759*
X905180Y1124884*
X905189Y1124897*
X905314Y1125021*
X905337Y1125034*
X905586Y1125096*
X905598Y1125098*
X905672*
Y1125122*
X906584Y1131762D02*
X905441D01*
Y1131738*
X905453*
X905469Y1131735*
X905655Y1131673*
X905662Y1131671*
X905786Y1131608*
X905811Y1131580*
X905874Y1131393*
X905876Y1131377*
Y1131191*
X905873Y1131172*
X905748Y1130862*
X904878Y1128500*
X904786Y1128498*
X903729Y1130921*
X903606Y1131168*
X903600Y1131191*
Y1131439*
X903606Y1131462*
X903668Y1131586*
X903690Y1131608*
X903814Y1131671*
X903814D02*
X903825Y1131674D01*
X904036Y1131727*
Y1131762*
X902457*
Y1131729*
X902728Y1131675*
X902753Y1131661*
X902940Y1131475*
X902949Y1131462*
X903010Y1131340*
X903133Y1131156*
X903133D02*
X903137Y1131148D01*
X904616Y1127635*
X904673*
X906028Y1131085*
X906153Y1131396*
X906157Y1131405*
X906282Y1131591*
X906305Y1131610*
X906584Y1131722*
Y1131762*
X900500Y1121057D02*
Y1121081D01*
Y1125098D02*
Y1125122D01*
X900600Y1121057D02*
Y1121089D01*
Y1125098D02*
Y1125122D01*
X900700Y1121057D02*
Y1121114D01*
Y1125075D02*
Y1125122D01*
X900800Y1121057D02*
Y1121139D01*
Y1125042D02*
Y1125122D01*
X900900Y1121057D02*
Y1121212D01*
Y1124967D02*
Y1125122D01*
X901000Y1121057D02*
Y1121335D01*
Y1124826D02*
Y1125122D01*
X901100Y1121057D02*
Y1125122D01*
X901200Y1121057D02*
Y1121423D01*
Y1124507D02*
Y1125122D01*
X901300Y1121057D02*
Y1121201D01*
Y1124491D02*
Y1125122D01*
X901400Y1121057D02*
Y1121135D01*
Y1124276D02*
Y1125122D01*
X901500Y1121057D02*
Y1121081D01*
Y1124060D02*
Y1125122D01*
X901600Y1121057D02*
Y1121081D01*
Y1123845D02*
Y1124956D01*
X901700Y1121057D02*
Y1121081D01*
Y1123630D02*
Y1124735D01*
X901800Y1123414D02*
Y1124514D01*
X901900Y1123199D02*
Y1124294D01*
X902000Y1122984D02*
Y1124073D01*
X902100Y1122768D02*
Y1123852D01*
X902200Y1122553D02*
Y1123631D01*
X902300Y1122337D02*
Y1123410D01*
X902400Y1122122D02*
Y1123189D01*
X902500Y1121907D02*
Y1122969D01*
Y1131720D02*
Y1131762D01*
X902600Y1121691D02*
Y1122748D01*
Y1131700D02*
Y1131762D01*
X902700Y1121476D02*
Y1122527D01*
Y1131680D02*
Y1131762D01*
X902800Y1121260D02*
Y1122306D01*
Y1131614D02*
Y1131762D01*
X902900Y1121071D02*
Y1122085D01*
Y1131514D02*
Y1131762D01*
X903000Y1121279D02*
Y1121864D01*
Y1131360D02*
Y1131762D01*
X903100Y1121486D02*
Y1121868D01*
Y1131205D02*
Y1131762D01*
X903200Y1121693D02*
Y1122072D01*
Y1130998D02*
Y1131762D01*
X903300Y1121901D02*
Y1122276D01*
Y1130761D02*
Y1131762D01*
X903400Y1122108D02*
Y1122479D01*
Y1130523D02*
Y1131762D01*
X903500Y1122316D02*
Y1122683D01*
Y1130286D02*
Y1131762D01*
X903600Y1122523D02*
Y1122887D01*
Y1130048D02*
Y1131762D01*
X903700Y1122730D02*
Y1123091D01*
Y1129811D02*
Y1130980D01*
Y1131613D02*
Y1131762D01*
X903800Y1122938D02*
Y1123295D01*
Y1129573D02*
Y1130759D01*
Y1131663D02*
Y1131762D01*
X903900Y1123145D02*
Y1123499D01*
Y1129336D02*
Y1130529D01*
Y1131693D02*
Y1131762D01*
X904000Y1123353D02*
Y1123703D01*
Y1129098D02*
Y1130300D01*
Y1131718D02*
Y1131762D01*
X904100Y1121057D02*
Y1121081D01*
Y1123560D02*
Y1123906D01*
Y1128861D02*
Y1130071D01*
X904200Y1121057D02*
Y1121088D01*
Y1123767D02*
Y1124110D01*
Y1128623D02*
Y1129841D01*
X904300Y1121057D02*
Y1121113D01*
Y1123975D02*
Y1124314D01*
Y1128386D02*
Y1129612D01*
X904400Y1121057D02*
Y1121138D01*
Y1124182D02*
Y1124518D01*
Y1128148D02*
Y1129382D01*
X904500Y1121057D02*
Y1121206D01*
Y1124390D02*
Y1124722D01*
Y1127911D02*
Y1129153D01*
X904600Y1121057D02*
Y1121324D01*
Y1124538D02*
Y1124926D01*
Y1127673D02*
Y1128924D01*
X904700Y1121057D02*
Y1125122D01*
Y1127704D02*
Y1128694D01*
X904800Y1121057D02*
Y1125122D01*
Y1127958D02*
Y1128479D01*
X904900Y1121057D02*
Y1125122D01*
Y1128213D02*
Y1128559D01*
X905000Y1121057D02*
Y1125122D01*
Y1128467D02*
Y1128831D01*
X905100Y1121057D02*
Y1125122D01*
Y1128722D02*
Y1129102D01*
X905200Y1121057D02*
Y1121212D01*
Y1124907D02*
Y1125122D01*
Y1128977D02*
Y1129373D01*
X905300Y1121057D02*
Y1121146D01*
Y1125007D02*
Y1125122D01*
Y1129231D02*
Y1129645D01*
X905400Y1121057D02*
Y1121083D01*
Y1125050D02*
Y1125122D01*
Y1129486D02*
Y1129916D01*
X905500Y1121057D02*
Y1121081D01*
Y1125075D02*
Y1125122D01*
Y1129740D02*
Y1130188D01*
Y1131725D02*
Y1131762D01*
X905600Y1121057D02*
Y1121081D01*
Y1125098D02*
Y1125122D01*
Y1129995D02*
Y1130459D01*
Y1131692D02*
Y1131762D01*
X905700Y1130249D02*
Y1130731D01*
Y1131652D02*
Y1131762D01*
X905800Y1130504D02*
Y1130991D01*
Y1131598D02*
Y1131762D01*
X905900Y1130758D02*
Y1131762D01*
X906000Y1131013D02*
Y1131762D01*
X906100Y1121610D02*
Y1121724D01*
Y1131264D02*
Y1131762D01*
X906200Y1121282D02*
Y1121974D01*
Y1131469D02*
Y1131762D01*
X906300Y1121147D02*
Y1122176D01*
Y1122960D02*
Y1123441D01*
Y1131608D02*
Y1131762D01*
X906400Y1121097D02*
Y1122263D01*
Y1122927D02*
Y1123541D01*
Y1131648D02*
Y1131762D01*
X906500Y1121051D02*
Y1121748D01*
Y1121875D02*
Y1122323D01*
Y1122956D02*
Y1123609D01*
Y1131688D02*
Y1131762D01*
X906600Y1121026D02*
Y1121448D01*
Y1122125D02*
Y1122383D01*
Y1123171D02*
Y1123659D01*
X906700Y1121001D02*
Y1121352D01*
Y1122242D02*
Y1122429D01*
Y1123548D02*
Y1123709D01*
X906800Y1121010D02*
Y1121285D01*
Y1122329D02*
Y1122472D01*
Y1123618D02*
Y1123757D01*
X906900Y1121026D02*
Y1121268D01*
Y1122404D02*
Y1122514D01*
Y1123658D02*
Y1123771D01*
X907000Y1121043D02*
Y1121274D01*
Y1122479D02*
Y1122557D01*
Y1123698D02*
Y1123786D01*
X907100Y1121074D02*
Y1121294D01*
Y1122514D02*
Y1122599D01*
Y1123729D02*
Y1123800D01*
X907200Y1121141D02*
Y1121314D01*
Y1122548D02*
Y1122639D01*
Y1123704D02*
Y1123814D01*
X907300Y1121216D02*
Y1121336D01*
Y1122590D02*
Y1122679D01*
Y1123679D02*
Y1123798D01*
X907400Y1121300D02*
Y1121403D01*
Y1122633D02*
Y1122719D01*
Y1123637D02*
Y1123778D01*
X907500Y1121383D02*
Y1121469D01*
Y1122676D02*
Y1122759D01*
Y1123570D02*
Y1123758D01*
X907600Y1121466D02*
Y1121536D01*
Y1122719D02*
Y1122799D01*
Y1123426D02*
Y1123738D01*
Y1131311D02*
Y1131369D01*
X907700Y1121213D02*
Y1123718D01*
Y1127697D02*
Y1127722D01*
Y1131331D02*
Y1131419D01*
X907800Y1121113D02*
Y1123698D01*
Y1127697D02*
Y1127722D01*
Y1131351D02*
Y1131469D01*
X907900Y1121045D02*
Y1123582D01*
Y1127697D02*
Y1127727D01*
Y1131365D02*
Y1131519D01*
X908000Y1121011D02*
Y1123457D01*
Y1127697D02*
Y1127777D01*
Y1131365D02*
Y1131569D01*
X908100Y1121044D02*
Y1121424D01*
Y1127697D02*
Y1127861D01*
Y1131288D02*
Y1131619D01*
X908200Y1121078D02*
Y1121269D01*
Y1127697D02*
Y1131669D01*
X908300Y1121111D02*
Y1121268D01*
Y1127697D02*
Y1131719D01*
X908400Y1121207D02*
Y1121268D01*
Y1127697D02*
Y1131769D01*
X908500Y1121307D02*
Y1121315D01*
Y1127697D02*
Y1131819D01*
X908600Y1127697D02*
Y1127911D01*
X908700Y1127697D02*
Y1127811D01*
X908800Y1127697D02*
Y1127752D01*
X908900Y1121732D02*
Y1122676D01*
Y1127697D02*
Y1127722D01*
X909000Y1121557D02*
Y1122976D01*
Y1127697D02*
Y1127722D01*
X909100Y1121382D02*
Y1123176D01*
X909200Y1121282D02*
Y1123354D01*
X909300Y1121199D02*
Y1121945D01*
Y1123107D02*
Y1123440D01*
X909400Y1121115D02*
Y1121745D01*
Y1123257D02*
Y1123526D01*
X909500Y1121051D02*
Y1121576D01*
Y1123407D02*
Y1123611D01*
X909600Y1121036D02*
Y1121496D01*
Y1123526D02*
Y1123697D01*
X909700Y1121022D02*
Y1121416D01*
Y1123626D02*
Y1123722D01*
X909800Y1121008D02*
Y1121337D01*
Y1123679D02*
Y1123747D01*
X909900Y1121001D02*
Y1121314D01*
Y1123704D02*
Y1123772D01*
X910000Y1121029D02*
Y1121294D01*
Y1123729D02*
Y1123797D01*
X910100Y1121058D02*
Y1121274D01*
Y1123713D02*
Y1123812D01*
X910200Y1121086D02*
Y1121280D01*
Y1123693D02*
Y1123795D01*
X910300Y1121115D02*
Y1121300D01*
Y1123673D02*
Y1123778D01*
X910400Y1121181D02*
Y1121320D01*
Y1123611D02*
Y1123762D01*
Y1125002D02*
Y1125048D01*
X910500Y1121256D02*
Y1121363D01*
Y1123511D02*
Y1123702D01*
Y1125035D02*
Y1125087D01*
Y1127782D02*
Y1128056D01*
X910600Y1121356D02*
Y1121463D01*
Y1123411D02*
Y1123627D01*
Y1124996D02*
Y1125125D01*
Y1127710D02*
Y1128145D01*
X910700Y1121430D02*
Y1121563D01*
Y1123099D02*
Y1123568D01*
Y1124901D02*
Y1125163D01*
Y1127660D02*
Y1128195D01*
X910800Y1120995D02*
Y1125202D01*
Y1127687D02*
Y1128167D01*
X910900Y1121030D02*
Y1125240D01*
Y1127765D02*
Y1128080D01*
X911000Y1121068D02*
Y1125279D01*
X911100Y1121106D02*
Y1125309D01*
X911200Y1121145D02*
Y1121377D01*
X911300Y1121183D02*
Y1121301D01*
X911400Y1121222D02*
Y1121272D01*
X911500Y1121260D02*
Y1121297D01*
X912000Y1121753D02*
Y1122739D01*
X912100Y1121613D02*
Y1123084D01*
X912200Y1121473D02*
Y1123284D01*
X912300Y1121341D02*
Y1122397D01*
Y1122796D02*
Y1122886D01*
Y1123133D02*
Y1123465D01*
Y1131318D02*
Y1131388D01*
X912400Y1121257D02*
Y1122058D01*
Y1122798D02*
Y1122884D01*
Y1123364D02*
Y1123522D01*
Y1127697D02*
Y1127722D01*
Y1131338D02*
Y1131438D01*
X912500Y1121174D02*
Y1121908D01*
Y1122798D02*
Y1122884D01*
Y1123497D02*
Y1123579D01*
Y1127697D02*
Y1127722D01*
Y1131358D02*
Y1131488D01*
X912600Y1121091D02*
Y1121767D01*
Y1122798D02*
Y1122884D01*
Y1123580D02*
Y1123637D01*
Y1127697D02*
Y1127746D01*
Y1131365D02*
Y1131538D01*
X912700Y1121048D02*
Y1121667D01*
Y1122798D02*
Y1122884D01*
Y1123647D02*
Y1123694D01*
Y1127697D02*
Y1127799D01*
Y1131350D02*
Y1131588D01*
X912800Y1121035D02*
Y1121567D01*
Y1122798D02*
Y1122884D01*
Y1123683D02*
Y1123720D01*
Y1127697D02*
Y1127899D01*
Y1131250D02*
Y1131638D01*
X912900Y1121023D02*
Y1121467D01*
Y1122798D02*
Y1122884D01*
Y1123708D02*
Y1123745D01*
Y1127697D02*
Y1131688D01*
X913000Y1121010D02*
Y1121444D01*
Y1122798D02*
Y1122884D01*
Y1123730D02*
Y1123770D01*
Y1127697D02*
Y1131738D01*
X913100Y1120998D02*
Y1121430D01*
Y1122798D02*
Y1122884D01*
Y1123692D02*
Y1123795D01*
Y1127697D02*
Y1131788D01*
X913200Y1121009D02*
Y1121416D01*
Y1122798D02*
Y1122884D01*
Y1123652D02*
Y1123814D01*
Y1127697D02*
Y1131825D01*
X913300Y1121026D02*
Y1121402D01*
Y1122798D02*
Y1122884D01*
Y1123612D02*
Y1123799D01*
Y1127697D02*
Y1127873D01*
X913400Y1121042D02*
Y1121392D01*
Y1122798D02*
Y1122884D01*
Y1123532D02*
Y1123785D01*
Y1127697D02*
Y1127783D01*
X913500Y1121072D02*
Y1121392D01*
Y1122798D02*
Y1122884D01*
Y1123432D02*
Y1123771D01*
Y1127697D02*
Y1127733D01*
X913600Y1121139D02*
Y1121392D01*
Y1122798D02*
Y1122884D01*
Y1123328D02*
Y1123754D01*
Y1127697D02*
Y1127722D01*
X913700Y1121206D02*
Y1121438D01*
Y1122798D02*
Y1123674D01*
Y1127697D02*
Y1127722D01*
X913800Y1121272D02*
Y1121504D01*
Y1122798D02*
Y1123594D01*
X913900Y1121398D02*
Y1121577D01*
Y1122798D02*
Y1123507D01*
X914000Y1121548D02*
Y1121652D01*
Y1122798D02*
Y1123357D01*
X914100Y1122798D02*
Y1123207D01*
X914900Y1128879D02*
Y1129276D01*
X915000Y1128879D02*
Y1129276D01*
X915100Y1128879D02*
Y1129276D01*
X915200Y1128879D02*
Y1129276D01*
X915300Y1128879D02*
Y1129276D01*
X915400Y1128879D02*
Y1129276D01*
X915500Y1128879D02*
Y1129276D01*
X915600Y1128879D02*
Y1129276D01*
X915700Y1128879D02*
Y1129276D01*
X915800Y1128879D02*
Y1129276D01*
X915900Y1128879D02*
Y1129276D01*
X916000Y1128879D02*
Y1129276D01*
X916100Y1128879D02*
Y1129276D01*
X916200Y1128879D02*
Y1129276D01*
X916300Y1121057D02*
Y1121081D01*
Y1123508D02*
Y1123554D01*
Y1128879D02*
Y1129276D01*
X916400Y1121057D02*
Y1121100D01*
Y1123542D02*
Y1123592D01*
X916500Y1121057D02*
Y1121150D01*
Y1123507D02*
Y1123631D01*
X916600Y1121057D02*
Y1121329D01*
Y1123420D02*
Y1123669D01*
Y1124890D02*
Y1125121D01*
X916700Y1121057D02*
Y1123708D01*
Y1124805D02*
Y1125228D01*
X916800Y1121057D02*
Y1123746D01*
Y1124755D02*
Y1125278D01*
X916900Y1121057D02*
Y1123785D01*
Y1124769D02*
Y1125265D01*
X917000Y1121057D02*
Y1123817D01*
Y1124836D02*
Y1125194D01*
X917100Y1121057D02*
Y1121326D01*
Y1124986D02*
Y1124994D01*
X917200Y1121057D02*
Y1121207D01*
X917300Y1121057D02*
Y1121107D01*
X917400Y1121057D02*
Y1121081D01*
Y1131342D02*
Y1131358D01*
X917500Y1131326D02*
Y1131408D01*
X917600Y1127697D02*
Y1127722D01*
Y1131346D02*
Y1131458D01*
X917700Y1127697D02*
Y1127722D01*
Y1131365D02*
Y1131508D01*
X917800Y1127697D02*
Y1127766D01*
Y1131365D02*
Y1131558D01*
X917900Y1121057D02*
Y1121081D01*
Y1123503D02*
Y1123548D01*
Y1127697D02*
Y1127840D01*
Y1131309D02*
Y1131608D01*
X918000Y1121057D02*
Y1121081D01*
Y1123536D02*
Y1123586D01*
Y1127697D02*
Y1131658D01*
X918100Y1121057D02*
Y1121130D01*
Y1123515D02*
Y1123625D01*
Y1127697D02*
Y1131708D01*
X918200Y1121057D02*
Y1121235D01*
Y1123453D02*
Y1123663D01*
Y1127697D02*
Y1131758D01*
X918300Y1121057D02*
Y1123702D01*
Y1127697D02*
Y1131808D01*
X918400Y1121057D02*
Y1123740D01*
Y1127697D02*
Y1127937D01*
X918500Y1121057D02*
Y1123779D01*
Y1127697D02*
Y1127833D01*
X918600Y1121057D02*
Y1123817D01*
Y1127697D02*
Y1127763D01*
X918700Y1121057D02*
Y1121324D01*
Y1123171D02*
Y1123197D01*
Y1127697D02*
Y1127722D01*
X918800Y1121057D02*
Y1121162D01*
Y1123238D02*
Y1123272D01*
Y1127697D02*
Y1127722D01*
X918900Y1121057D02*
Y1121107D01*
Y1123305D02*
Y1123397D01*
X919000Y1121057D02*
Y1121081D01*
Y1123371D02*
Y1123521D01*
X919100Y1123426D02*
Y1123596D01*
X919200Y1123460D02*
Y1123671D01*
X919300Y1123493D02*
Y1123713D01*
X919400Y1123526D02*
Y1123738D01*
X919500Y1123533D02*
Y1123765D01*
X919600Y1121057D02*
Y1121099D01*
Y1123500D02*
Y1123798D01*
X919700Y1121057D02*
Y1121124D01*
Y1123449D02*
Y1123799D01*
X919800Y1121057D02*
Y1121153D01*
Y1123349D02*
Y1123771D01*
X919900Y1121057D02*
Y1121297D01*
Y1123204D02*
Y1123742D01*
X920000Y1121057D02*
Y1123714D01*
X920100Y1121057D02*
Y1123653D01*
Y1127806D02*
Y1127981D01*
X920200Y1121057D02*
Y1123518D01*
Y1127680D02*
Y1128014D01*
Y1131027D02*
Y1131169D01*
X920300Y1121057D02*
Y1123285D01*
Y1127655D02*
Y1128033D01*
Y1131127D02*
Y1131359D01*
X920400Y1121057D02*
Y1121262D01*
Y1127635D02*
Y1128013D01*
Y1131227D02*
Y1131459D01*
X920500Y1121057D02*
Y1121177D01*
Y1127635D02*
Y1127963D01*
Y1131327D02*
Y1131559D01*
X920600Y1121057D02*
Y1121102D01*
Y1127635D02*
Y1127913D01*
Y1131379D02*
Y1131630D01*
X920700Y1121057D02*
Y1121081D01*
Y1127635D02*
Y1127863D01*
Y1131407D02*
Y1131690D01*
X920800Y1127635D02*
Y1127813D01*
Y1131436D02*
Y1131750D01*
X920900Y1127635D02*
Y1127784D01*
Y1129724D02*
Y1129764D01*
Y1131465D02*
Y1131777D01*
X921000Y1127635D02*
Y1127784D01*
Y1129696D02*
Y1129801D01*
Y1131489D02*
Y1131794D01*
X921100Y1127635D02*
Y1127784D01*
Y1129667D02*
Y1129851D01*
Y1131464D02*
Y1131810D01*
X921200Y1127672D02*
Y1127803D01*
Y1129639D02*
Y1129901D01*
Y1131439D02*
Y1131821D01*
X921300Y1127712D02*
Y1127828D01*
Y1129602D02*
Y1129951D01*
Y1131404D02*
Y1131807D01*
X921400Y1127752D02*
Y1127858D01*
Y1129552D02*
Y1130001D01*
Y1131354D02*
Y1131793D01*
X921500Y1127810D02*
Y1127933D01*
Y1129502D02*
Y1130088D01*
Y1131304D02*
Y1131778D01*
X921600Y1127870D02*
Y1128008D01*
Y1129452D02*
Y1129999D01*
Y1130189D02*
Y1130240D01*
Y1131147D02*
Y1131761D01*
X921700Y1127930D02*
Y1128112D01*
Y1129331D02*
Y1129959D01*
Y1130289D02*
Y1130639D01*
Y1130873D02*
Y1131681D01*
X921800Y1128004D02*
Y1128245D01*
Y1129105D02*
Y1129919D01*
Y1130401D02*
Y1131601D01*
X921900Y1128079D02*
Y1128566D01*
Y1128705D02*
Y1129841D01*
Y1130534D02*
Y1131505D01*
X922000Y1128203D02*
Y1129741D01*
Y1130821D02*
Y1131305D01*
X922100Y1128378D02*
Y1129596D01*
X922200Y1128623D02*
Y1129307D01*
X922600Y1121057D02*
Y1121081D01*
Y1125098D02*
Y1125122D01*
X922700Y1121057D02*
Y1121097D01*
Y1125085D02*
Y1125122D01*
X922800Y1121057D02*
Y1121122D01*
Y1125065D02*
Y1125122D01*
X922900Y1121057D02*
Y1121148D01*
Y1125045D02*
Y1125122D01*
X923000Y1121057D02*
Y1121198D01*
Y1124980D02*
Y1125122D01*
X923100Y1121057D02*
Y1121387D01*
Y1124730D02*
Y1125122D01*
X923200Y1121057D02*
Y1125122D01*
Y1127823D02*
Y1127969D01*
X923300Y1121057D02*
Y1125122D01*
Y1127682D02*
Y1128011D01*
Y1131019D02*
Y1131153D01*
X923400Y1121057D02*
Y1125122D01*
Y1127657D02*
Y1128033D01*
Y1131119D02*
Y1131350D01*
X923500Y1121057D02*
Y1125122D01*
Y1127635D02*
Y1128017D01*
Y1131219D02*
Y1131450D01*
X923600Y1121057D02*
Y1121421D01*
Y1123040D02*
Y1123140D01*
Y1124737D02*
Y1125122D01*
Y1127635D02*
Y1127967D01*
Y1131319D02*
Y1131550D01*
X923700Y1121057D02*
Y1121234D01*
Y1123046D02*
Y1123133D01*
Y1124908D02*
Y1125122D01*
Y1127635D02*
Y1127917D01*
Y1131376D02*
Y1131625D01*
X923800Y1121057D02*
Y1121145D01*
Y1123046D02*
Y1123133D01*
Y1125034D02*
Y1125122D01*
Y1127635D02*
Y1127867D01*
Y1131405D02*
Y1131685D01*
X923900Y1121057D02*
Y1121120D01*
Y1123046D02*
Y1123133D01*
Y1125059D02*
Y1125122D01*
Y1127635D02*
Y1127817D01*
Y1131434D02*
Y1131745D01*
X924000Y1121057D02*
Y1121095D01*
Y1123046D02*
Y1123133D01*
Y1125084D02*
Y1125122D01*
Y1127635D02*
Y1127784D01*
Y1129727D02*
Y1129762D01*
Y1131462D02*
Y1131776D01*
X924100Y1121057D02*
Y1121081D01*
Y1123046D02*
Y1123133D01*
Y1125098D02*
Y1125122D01*
Y1127635D02*
Y1127784D01*
Y1129698D02*
Y1129797D01*
Y1131489D02*
Y1131792D01*
X924200Y1123046D02*
Y1123133D01*
Y1127635D02*
Y1127784D01*
Y1129670D02*
Y1129847D01*
Y1131466D02*
Y1131809D01*
X924300Y1123046D02*
Y1123133D01*
Y1127669D02*
Y1127801D01*
Y1129641D02*
Y1129897D01*
Y1131441D02*
Y1131822D01*
X924400Y1123046D02*
Y1123133D01*
Y1127709D02*
Y1127826D01*
Y1129606D02*
Y1129947D01*
Y1131408D02*
Y1131808D01*
X924500Y1123046D02*
Y1123133D01*
Y1127749D02*
Y1127853D01*
Y1129556D02*
Y1129997D01*
Y1131358D02*
Y1131794D01*
X924600Y1123046D02*
Y1123133D01*
Y1127806D02*
Y1127927D01*
Y1129506D02*
Y1130076D01*
Y1131308D02*
Y1131780D01*
X924700Y1123046D02*
Y1123133D01*
Y1127866D02*
Y1128002D01*
Y1129456D02*
Y1130003D01*
Y1130181D02*
Y1130226D01*
Y1131163D02*
Y1131765D01*
X924800Y1123046D02*
Y1123133D01*
Y1127926D02*
Y1128101D01*
Y1129347D02*
Y1129963D01*
Y1130281D02*
Y1130606D01*
Y1130905D02*
Y1131687D01*
X924900Y1123046D02*
Y1123133D01*
Y1127998D02*
Y1128234D01*
Y1129138D02*
Y1129923D01*
Y1130390D02*
Y1131607D01*
X925000Y1123046D02*
Y1123133D01*
Y1128073D02*
Y1128525D01*
Y1128738D02*
Y1129849D01*
Y1130523D02*
Y1131521D01*
X925100Y1123046D02*
Y1123133D01*
Y1128189D02*
Y1129749D01*
Y1130788D02*
Y1131321D01*
X925200Y1121057D02*
Y1121085D01*
Y1123046D02*
Y1123133D01*
Y1125094D02*
Y1125122D01*
Y1128364D02*
Y1129617D01*
X925300Y1121057D02*
Y1121110D01*
Y1123046D02*
Y1123133D01*
Y1125069D02*
Y1125122D01*
Y1128558D02*
Y1129356D01*
X925400Y1121057D02*
Y1121135D01*
Y1123046D02*
Y1123133D01*
Y1125044D02*
Y1125122D01*
X925500Y1121057D02*
Y1121174D01*
Y1123046D02*
Y1123133D01*
Y1124984D02*
Y1125122D01*
X925600Y1121057D02*
Y1121241D01*
Y1123046D02*
Y1123133D01*
Y1124876D02*
Y1125122D01*
X925700Y1121057D02*
Y1125122D01*
X925800Y1121057D02*
Y1125122D01*
X925900Y1121057D02*
Y1125122D01*
X926000Y1121057D02*
Y1125122D01*
X926100Y1121057D02*
Y1125122D01*
X926200Y1121057D02*
Y1121283D01*
Y1124835D02*
Y1125122D01*
Y1127697D02*
Y1127722D01*
Y1131738D02*
Y1131762D01*
X926300Y1121057D02*
Y1121183D01*
Y1124985D02*
Y1125122D01*
Y1127697D02*
Y1127741D01*
Y1131718D02*
Y1131762D01*
X926400Y1121057D02*
Y1121132D01*
Y1125047D02*
Y1125122D01*
Y1127697D02*
Y1127766D01*
Y1131693D02*
Y1131762D01*
X926500Y1121057D02*
Y1121107D01*
Y1125072D02*
Y1125122D01*
Y1127697D02*
Y1127798D01*
Y1131664D02*
Y1131762D01*
X926600Y1121057D02*
Y1121082D01*
Y1125097D02*
Y1125122D01*
Y1127697D02*
Y1127864D01*
Y1131614D02*
Y1131762D01*
X926700Y1127697D02*
Y1127949D01*
Y1131386D02*
Y1131762D01*
X926800Y1127697D02*
Y1131762D01*
X926900Y1127697D02*
Y1131762D01*
X927000Y1127697D02*
Y1131762D01*
X927100Y1121666D02*
Y1121696D01*
Y1127697D02*
Y1131762D01*
X927200Y1121304D02*
Y1121946D01*
Y1127697D02*
Y1127898D01*
Y1129748D02*
Y1129836D01*
Y1131675D02*
Y1131762D01*
X927300Y1121153D02*
Y1122153D01*
Y1122964D02*
Y1123430D01*
Y1127697D02*
Y1127798D01*
Y1129749D02*
Y1129835D01*
Y1131676D02*
Y1131762D01*
X927400Y1121103D02*
Y1122257D01*
Y1122930D02*
Y1123530D01*
Y1127697D02*
Y1127784D01*
Y1129749D02*
Y1129835D01*
Y1131676D02*
Y1131762D01*
X927500Y1121053D02*
Y1121781D01*
Y1121847D02*
Y1122317D01*
Y1122952D02*
Y1123604D01*
Y1127697D02*
Y1127784D01*
Y1129749D02*
Y1129835D01*
Y1131676D02*
Y1131762D01*
X927600Y1121028D02*
Y1121481D01*
Y1122097D02*
Y1122377D01*
Y1123126D02*
Y1123654D01*
Y1127697D02*
Y1127784D01*
Y1129749D02*
Y1129835D01*
Y1131676D02*
Y1131762D01*
X927700Y1121003D02*
Y1121359D01*
Y1122231D02*
Y1122424D01*
Y1123537D02*
Y1123704D01*
Y1127697D02*
Y1127784D01*
Y1129749D02*
Y1129835D01*
Y1131676D02*
Y1131762D01*
X927800Y1121008D02*
Y1121293D01*
Y1122320D02*
Y1122467D01*
Y1123614D02*
Y1123754D01*
Y1127697D02*
Y1127784D01*
Y1129749D02*
Y1129835D01*
Y1131676D02*
Y1131762D01*
X927900Y1121024D02*
Y1121268D01*
Y1122395D02*
Y1122510D01*
Y1123654D02*
Y1123770D01*
Y1127697D02*
Y1127784D01*
Y1129749D02*
Y1129835D01*
Y1131676D02*
Y1131762D01*
X928000Y1121041D02*
Y1121272D01*
Y1122470D02*
Y1122552D01*
Y1123694D02*
Y1123784D01*
Y1127697D02*
Y1127784D01*
Y1129749D02*
Y1129835D01*
Y1131676D02*
Y1131762D01*
X928100Y1121067D02*
Y1121292D01*
Y1122510D02*
Y1122594D01*
Y1123730D02*
Y1123798D01*
Y1127697D02*
Y1127784D01*
Y1129749D02*
Y1129835D01*
Y1131676D02*
Y1131762D01*
X928200Y1121133D02*
Y1121312D01*
Y1122543D02*
Y1122634D01*
Y1123707D02*
Y1123813D01*
Y1127697D02*
Y1127784D01*
Y1129749D02*
Y1129835D01*
Y1131676D02*
Y1131762D01*
X928300Y1121207D02*
Y1121332D01*
Y1122586D02*
Y1122674D01*
Y1123682D02*
Y1123801D01*
Y1127697D02*
Y1127784D01*
Y1129749D02*
Y1129835D01*
Y1131676D02*
Y1131762D01*
X928400Y1121291D02*
Y1121395D01*
Y1122628D02*
Y1122714D01*
Y1123644D02*
Y1123781D01*
Y1127697D02*
Y1127784D01*
Y1129728D02*
Y1129835D01*
Y1131676D02*
Y1131762D01*
X928500Y1121374D02*
Y1121462D01*
Y1122671D02*
Y1122754D01*
Y1123578D02*
Y1123761D01*
Y1127697D02*
Y1127784D01*
Y1129695D02*
Y1129861D01*
Y1131676D02*
Y1131762D01*
X928600Y1121457D02*
Y1121529D01*
Y1122714D02*
Y1122794D01*
Y1123460D02*
Y1123741D01*
Y1127697D02*
Y1127788D01*
Y1129641D02*
Y1129961D01*
Y1131676D02*
Y1131762D01*
X928700Y1121473D02*
Y1121598D01*
Y1122716D02*
Y1122842D01*
Y1123053D02*
Y1123721D01*
Y1127697D02*
Y1127813D01*
Y1129574D02*
Y1130061D01*
Y1131659D02*
Y1131762D01*
X928800Y1121125D02*
Y1123701D01*
Y1127697D02*
Y1127838D01*
Y1129203D02*
Y1130368D01*
Y1131625D02*
Y1131762D01*
X928900Y1121052D02*
Y1123596D01*
Y1127697D02*
Y1127882D01*
Y1131571D02*
Y1131762D01*
X929000Y1121007D02*
Y1123471D01*
Y1127697D02*
Y1127942D01*
Y1131496D02*
Y1131762D01*
X929100Y1121041D02*
Y1123260D01*
Y1127697D02*
Y1128002D01*
Y1131421D02*
Y1131762D01*
X929200Y1121074D02*
Y1121272D01*
Y1127697D02*
Y1128083D01*
Y1131132D02*
Y1131762D01*
X929300Y1121107D02*
Y1121268D01*
Y1127906D02*
Y1128216D01*
X929400Y1121196D02*
Y1121268D01*
Y1128190D02*
Y1128372D01*
X929500Y1121296D02*
Y1121309D01*
Y1128473D02*
Y1128572D01*
X929800Y1121057D02*
Y1121081D01*
Y1123512D02*
Y1123558D01*
X929900Y1121057D02*
Y1121081D01*
Y1123544D02*
Y1123597D01*
X930000Y1121057D02*
Y1121157D01*
Y1123501D02*
Y1123635D01*
Y1127697D02*
Y1127722D01*
Y1131738D02*
Y1131762D01*
X930100Y1121057D02*
Y1121288D01*
Y1123399D02*
Y1123673D01*
Y1127697D02*
Y1127743D01*
Y1131716D02*
Y1131762D01*
X930200Y1121057D02*
Y1123712D01*
Y1127697D02*
Y1127768D01*
Y1131691D02*
Y1131762D01*
X930300Y1121057D02*
Y1123750D01*
Y1127697D02*
Y1127803D01*
Y1131660D02*
Y1131762D01*
X930400Y1121057D02*
Y1123789D01*
Y1127697D02*
Y1127870D01*
Y1131610D02*
Y1131762D01*
X930500Y1121057D02*
Y1123817D01*
Y1127697D02*
Y1131762D01*
X930600Y1121057D02*
Y1121297D01*
Y1123189D02*
Y1123197D01*
Y1127697D02*
Y1131762D01*
X930700Y1121057D02*
Y1121144D01*
Y1123256D02*
Y1123306D01*
Y1127697D02*
Y1131762D01*
X930800Y1121057D02*
Y1121094D01*
Y1123323D02*
Y1123431D01*
Y1127697D02*
Y1131762D01*
X930900Y1121057D02*
Y1121081D01*
Y1123389D02*
Y1123541D01*
Y1127697D02*
Y1131762D01*
X931000Y1123435D02*
Y1123616D01*
Y1127697D02*
Y1127890D01*
Y1129749D02*
Y1129835D01*
Y1131676D02*
Y1131762D01*
X931100Y1123469D02*
Y1123691D01*
Y1127697D02*
Y1127792D01*
Y1129749D02*
Y1129835D01*
Y1131676D02*
Y1131762D01*
X931200Y1123502D02*
Y1123720D01*
Y1127697D02*
Y1127784D01*
Y1129749D02*
Y1129835D01*
Y1131676D02*
Y1131762D01*
X931300Y1123535D02*
Y1123745D01*
Y1127697D02*
Y1127784D01*
Y1129749D02*
Y1129835D01*
Y1131676D02*
Y1131762D01*
X931400Y1121057D02*
Y1121082D01*
Y1123524D02*
Y1123774D01*
Y1127697D02*
Y1127784D01*
Y1129749D02*
Y1129835D01*
Y1131676D02*
Y1131762D01*
X931500Y1121057D02*
Y1121106D01*
Y1123491D02*
Y1123807D01*
Y1127697D02*
Y1127784D01*
Y1129749D02*
Y1129835D01*
Y1131676D02*
Y1131762D01*
X931600Y1121057D02*
Y1121131D01*
Y1123422D02*
Y1123792D01*
Y1127697D02*
Y1127784D01*
Y1129749D02*
Y1129835D01*
Y1131676D02*
Y1131762D01*
X931700Y1121057D02*
Y1121187D01*
Y1123313D02*
Y1123763D01*
Y1127697D02*
Y1127784D01*
Y1129749D02*
Y1129835D01*
Y1131676D02*
Y1131762D01*
X931800Y1121057D02*
Y1121337D01*
Y1123163D02*
Y1123735D01*
Y1127697D02*
Y1127784D01*
Y1129749D02*
Y1129835D01*
Y1131676D02*
Y1131762D01*
X931900Y1121057D02*
Y1123706D01*
Y1127697D02*
Y1127784D01*
Y1129749D02*
Y1129835D01*
Y1131676D02*
Y1131762D01*
X932000Y1121057D02*
Y1123627D01*
Y1127697D02*
Y1127784D01*
Y1129749D02*
Y1129835D01*
Y1131676D02*
Y1131762D01*
X932100Y1121057D02*
Y1123465D01*
Y1127697D02*
Y1127784D01*
Y1129749D02*
Y1129835D01*
Y1131676D02*
Y1131762D01*
X932200Y1121057D02*
Y1123177D01*
Y1127697D02*
Y1127784D01*
Y1129725D02*
Y1129835D01*
Y1131676D02*
Y1131762D01*
X932300Y1121057D02*
Y1121214D01*
Y1127697D02*
Y1127784D01*
Y1129692D02*
Y1129869D01*
Y1131676D02*
Y1131762D01*
X932400Y1121057D02*
Y1121164D01*
Y1127697D02*
Y1127790D01*
Y1129635D02*
Y1129969D01*
Y1131676D02*
Y1131762D01*
X932500Y1121057D02*
Y1121084D01*
Y1127697D02*
Y1127815D01*
Y1129568D02*
Y1130069D01*
Y1131656D02*
Y1131762D01*
X932600Y1121057D02*
Y1121081D01*
Y1127697D02*
Y1127840D01*
Y1129189D02*
Y1130395D01*
Y1131623D02*
Y1131762D01*
X932700Y1127697D02*
Y1127887D01*
Y1131565D02*
Y1131762D01*
X932800Y1127697D02*
Y1127947D01*
Y1131490D02*
Y1131762D01*
X932900Y1127697D02*
Y1128007D01*
Y1131415D02*
Y1131762D01*
X933000Y1120101D02*
Y1120446D01*
Y1127697D02*
Y1128094D01*
Y1131092D02*
Y1131762D01*
X933100Y1120034D02*
Y1120571D01*
Y1127929D02*
Y1128227D01*
X933200Y1119977D02*
Y1120713D01*
Y1121208D02*
Y1121479D01*
Y1122511D02*
Y1123245D01*
Y1128212D02*
Y1128388D01*
X933300Y1119934D02*
Y1120443D01*
Y1120626D02*
Y1120852D01*
Y1121133D02*
Y1121629D01*
Y1122293D02*
Y1123370D01*
Y1128496D02*
Y1128588D01*
X933400Y1119892D02*
Y1120299D01*
Y1120862D02*
Y1120952D01*
Y1121058D02*
Y1121760D01*
Y1122209D02*
Y1123495D01*
X933500Y1119849D02*
Y1120211D01*
Y1120996D02*
Y1121535D01*
Y1121723D02*
Y1121860D01*
Y1122126D02*
Y1123573D01*
X933600Y1119811D02*
Y1120178D01*
Y1121054D02*
Y1121442D01*
Y1121853D02*
Y1121960D01*
Y1122043D02*
Y1122503D01*
Y1123352D02*
Y1123639D01*
X933700Y1119798D02*
Y1120145D01*
Y1121039D02*
Y1121409D01*
Y1121953D02*
Y1122203D01*
Y1123552D02*
Y1123706D01*
X933800Y1119786D02*
Y1120111D01*
Y1121025D02*
Y1121392D01*
Y1121984D02*
Y1122100D01*
Y1123669D02*
Y1123760D01*
X933900Y1119773D02*
Y1120084D01*
Y1121011D02*
Y1121392D01*
Y1121970D02*
Y1122033D01*
Y1123736D02*
Y1123774D01*
X934000Y1119761D02*
Y1120072D01*
Y1120996D02*
Y1121392D01*
Y1121955D02*
Y1121998D01*
Y1123761D02*
Y1123789D01*
Y1131085D02*
Y1131210D01*
X934100Y1119758D02*
Y1120059D01*
Y1120995D02*
Y1121392D01*
Y1121941D02*
Y1121973D01*
Y1123786D02*
Y1123803D01*
Y1131168D02*
Y1131477D01*
X934200Y1119776D02*
Y1120047D01*
Y1120995D02*
Y1121391D01*
Y1121929D02*
Y1121952D01*
Y1123777D02*
Y1123815D01*
Y1131243D02*
Y1131743D01*
X934300Y1119795D02*
Y1120034D01*
Y1120995D02*
Y1121379D01*
Y1121943D02*
Y1121977D01*
Y1123752D02*
Y1123798D01*
Y1131307D02*
Y1131762D01*
X934400Y1119813D02*
Y1120027D01*
Y1120995D02*
Y1121366D01*
Y1121958D02*
Y1122002D01*
Y1123726D02*
Y1123781D01*
Y1131340D02*
Y1131762D01*
X934500Y1119831D02*
Y1120039D01*
Y1120995D02*
Y1121354D01*
Y1121972D02*
Y1122043D01*
Y1123660D02*
Y1123765D01*
Y1131365D02*
Y1131762D01*
X934600Y1119849D02*
Y1120052D01*
Y1120995D02*
Y1121341D01*
Y1121986D02*
Y1122110D01*
Y1123592D02*
Y1123731D01*
Y1131365D02*
Y1131762D01*
X934700Y1119867D02*
Y1120064D01*
Y1120995D02*
Y1121330D01*
Y1122061D02*
Y1122246D01*
Y1123311D02*
Y1123681D01*
Y1127635D02*
Y1127698D01*
Y1131365D02*
Y1131762D01*
X934800Y1119910D02*
Y1120077D01*
Y1120995D02*
Y1121330D01*
Y1122141D02*
Y1122730D01*
Y1122767D02*
Y1123632D01*
Y1127635D02*
Y1127983D01*
Y1131365D02*
Y1131762D01*
X934900Y1119965D02*
Y1120092D01*
Y1120995D02*
Y1121330D01*
Y1122221D02*
Y1123630D01*
Y1127635D02*
Y1128269D01*
Y1131365D02*
Y1131762D01*
X935000Y1120021D02*
Y1120132D01*
Y1120995D02*
Y1121326D01*
Y1122345D02*
Y1123630D01*
Y1127790D02*
Y1128555D01*
Y1131365D02*
Y1131762D01*
X935100Y1120076D02*
Y1120172D01*
Y1120985D02*
Y1121283D01*
Y1122470D02*
Y1123308D01*
Y1123544D02*
Y1123630D01*
Y1128072D02*
Y1128841D01*
Y1131365D02*
Y1131762D01*
X935200Y1120132D02*
Y1120212D01*
Y1120952D02*
Y1121240D01*
Y1123544D02*
Y1123630D01*
Y1128355D02*
Y1129126D01*
Y1131365D02*
Y1131762D01*
X935300Y1120202D02*
Y1120303D01*
Y1120903D02*
Y1121198D01*
Y1123544D02*
Y1123630D01*
Y1128638D02*
Y1129412D01*
Y1131365D02*
Y1131762D01*
X935400Y1120327D02*
Y1120403D01*
Y1120803D02*
Y1121155D01*
Y1123544D02*
Y1123630D01*
Y1128920D02*
Y1129698D01*
Y1131365D02*
Y1131762D01*
X935500Y1120452D02*
Y1121008D01*
Y1123544D02*
Y1123630D01*
Y1129203D02*
Y1129983D01*
Y1131365D02*
Y1131762D01*
X935600Y1129485D02*
Y1130269D01*
Y1131365D02*
Y1131762D01*
X935700Y1129768D02*
Y1130555D01*
Y1131365D02*
Y1131762D01*
X935800Y1130051D02*
Y1130841D01*
Y1131365D02*
Y1131762D01*
X935900Y1130333D02*
Y1131126D01*
Y1131365D02*
Y1131762D01*
X936000Y1121057D02*
Y1121220D01*
Y1130616D02*
Y1131762D01*
X936100Y1121057D02*
Y1121353D01*
Y1130898D02*
Y1131762D01*
X936200Y1121057D02*
Y1121487D01*
Y1123271D02*
Y1123754D01*
Y1131181D02*
Y1131762D01*
X936300Y1121057D02*
Y1121620D01*
Y1123496D02*
Y1123754D01*
Y1131464D02*
Y1131762D01*
X936400Y1121057D02*
Y1121753D01*
Y1123595D02*
Y1123754D01*
X936500Y1121057D02*
Y1121887D01*
Y1123646D02*
Y1123754D01*
X936600Y1121057D02*
Y1121144D01*
Y1121337D02*
Y1122020D01*
Y1123668D02*
Y1123754D01*
X936700Y1121057D02*
Y1121144D01*
Y1121470D02*
Y1122153D01*
Y1123668D02*
Y1123754D01*
X936800Y1121057D02*
Y1121144D01*
Y1121604D02*
Y1122287D01*
Y1123668D02*
Y1123754D01*
X936900Y1121057D02*
Y1121144D01*
Y1121737D02*
Y1122420D01*
Y1123668D02*
Y1123754D01*
Y1127697D02*
Y1127722D01*
Y1131738D02*
Y1131762D01*
X937000Y1121057D02*
Y1121144D01*
Y1121870D02*
Y1122553D01*
Y1123668D02*
Y1123754D01*
Y1127697D02*
Y1127743D01*
Y1131710D02*
Y1131762D01*
X937100Y1121057D02*
Y1121144D01*
Y1122004D02*
Y1122687D01*
Y1123668D02*
Y1123754D01*
Y1127697D02*
Y1127768D01*
Y1131677D02*
Y1131762D01*
X937200Y1121057D02*
Y1121144D01*
Y1122137D02*
Y1122820D01*
Y1123668D02*
Y1123754D01*
Y1127697D02*
Y1127807D01*
Y1131643D02*
Y1131762D01*
X937300Y1121057D02*
Y1121144D01*
Y1122270D02*
Y1122953D01*
Y1123668D02*
Y1123754D01*
Y1127697D02*
Y1127907D01*
Y1131610D02*
Y1131762D01*
X937400Y1121057D02*
Y1121144D01*
Y1122404D02*
Y1123087D01*
Y1123668D02*
Y1123754D01*
Y1127697D02*
Y1131762D01*
X937500Y1121057D02*
Y1121144D01*
Y1122537D02*
Y1123220D01*
Y1123668D02*
Y1123754D01*
Y1127697D02*
Y1131762D01*
X937600Y1121057D02*
Y1121144D01*
Y1122670D02*
Y1123353D01*
Y1123668D02*
Y1123754D01*
Y1127697D02*
Y1131762D01*
X937700Y1121057D02*
Y1121144D01*
Y1122804D02*
Y1123487D01*
Y1123668D02*
Y1123754D01*
Y1127697D02*
Y1131762D01*
X937800Y1121057D02*
Y1121144D01*
Y1122937D02*
Y1123754D01*
Y1127697D02*
Y1131762D01*
X937900Y1121057D02*
Y1121154D01*
Y1123070D02*
Y1123754D01*
Y1127697D02*
Y1127846D01*
Y1131552D02*
Y1131762D01*
X938000Y1121057D02*
Y1121187D01*
Y1123204D02*
Y1123754D01*
Y1127697D02*
Y1127829D01*
Y1131572D02*
Y1131762D01*
X938100Y1121057D02*
Y1121238D01*
Y1123337D02*
Y1123754D01*
Y1127697D02*
Y1127812D01*
Y1131592D02*
Y1131762D01*
X938200Y1121057D02*
Y1121338D01*
Y1123470D02*
Y1123754D01*
Y1127697D02*
Y1127796D01*
Y1131612D02*
Y1131762D01*
X938300Y1121057D02*
Y1121627D01*
Y1123604D02*
Y1123754D01*
Y1127697D02*
Y1127784D01*
Y1131632D02*
Y1131762D01*
X938400Y1127697D02*
Y1127784D01*
Y1131652D02*
Y1131762D01*
X938500Y1127697D02*
Y1127784D01*
Y1131672D02*
Y1131759D01*
X938600Y1127699D02*
Y1127784D01*
Y1131664D02*
Y1131752D01*
X938700Y1121057D02*
Y1121099D01*
Y1124987D02*
Y1125030D01*
Y1127710D02*
Y1127784D01*
Y1131647D02*
Y1131744D01*
X938800Y1121057D02*
Y1121119D01*
Y1125020D02*
Y1125069D01*
Y1127721D02*
Y1127784D01*
Y1131631D02*
Y1131736D01*
X938900Y1121057D02*
Y1121139D01*
Y1125019D02*
Y1125107D01*
Y1127733D02*
Y1127784D01*
Y1131614D02*
Y1131728D01*
X939000Y1121057D02*
Y1121247D01*
Y1124969D02*
Y1125146D01*
Y1127744D02*
Y1127821D01*
Y1131594D02*
Y1131721D01*
X939100Y1121057D02*
Y1125184D01*
Y1127755D02*
Y1127861D01*
Y1131574D02*
Y1131713D01*
X939200Y1121057D02*
Y1125223D01*
Y1127775D02*
Y1127901D01*
Y1131554D02*
Y1131705D01*
X939300Y1121057D02*
Y1125261D01*
Y1127800D02*
Y1127965D01*
Y1131495D02*
Y1131692D01*
X939400Y1121057D02*
Y1125299D01*
Y1127825D02*
Y1128040D01*
Y1131420D02*
Y1131670D01*
X939500Y1121057D02*
Y1121346D01*
Y1123152D02*
Y1123276D01*
Y1127850D02*
Y1128115D01*
Y1131345D02*
Y1131648D01*
X939600Y1121057D02*
Y1121186D01*
Y1123229D02*
Y1123292D01*
Y1127875D02*
Y1128190D01*
Y1131270D02*
Y1131626D01*
X939700Y1121057D02*
Y1121119D01*
Y1123304D02*
Y1123372D01*
Y1127918D02*
Y1128265D01*
Y1131195D02*
Y1131603D01*
X939800Y1121057D02*
Y1121081D01*
Y1123390D02*
Y1123452D01*
Y1127968D02*
Y1128392D01*
Y1131068D02*
Y1131581D01*
X939900Y1121057D02*
Y1121081D01*
Y1123480D02*
Y1123531D01*
Y1128018D02*
Y1128559D01*
Y1130901D02*
Y1131514D01*
X940000Y1123497D02*
Y1123606D01*
Y1128070D02*
Y1128726D01*
Y1130734D02*
Y1131443D01*
X940100Y1123514D02*
Y1123681D01*
Y1128137D02*
Y1128892D01*
Y1130568D02*
Y1131371D01*
X940200Y1123530D02*
Y1123724D01*
Y1128203D02*
Y1129380D01*
Y1130043D02*
Y1131300D01*
X940300Y1123541D02*
Y1123757D01*
Y1128270D02*
Y1131179D01*
X940400Y1121057D02*
Y1121081D01*
Y1123516D02*
Y1123790D01*
Y1128385D02*
Y1131039D01*
X940500Y1121057D02*
Y1121081D01*
Y1123491D02*
Y1123808D01*
Y1128551D02*
Y1130899D01*
X940600Y1121057D02*
Y1121127D01*
Y1123410D02*
Y1123783D01*
Y1128741D02*
Y1130719D01*
X940700Y1121057D02*
Y1121260D01*
Y1123210D02*
Y1123758D01*
Y1128941D02*
Y1130519D01*
X940800Y1121057D02*
Y1123725D01*
Y1129225D02*
Y1130120D01*
X940900Y1121057D02*
Y1123662D01*
X941000Y1121057D02*
Y1123506D01*
X941100Y1121057D02*
Y1123306D01*
X941200Y1121057D02*
Y1121336D01*
X941300Y1121057D02*
Y1121165D01*
X941400Y1121057D02*
Y1121109D01*
X941500Y1121057D02*
Y1121081D01*
X941600Y1121057D02*
Y1121081D01*
X941900Y1122289D02*
Y1122437D01*
X942000Y1121805D02*
Y1122887D01*
X942100Y1121630D02*
Y1123134D01*
X942200Y1121459D02*
Y1123259D01*
X942300Y1121325D02*
Y1123384D01*
X942400Y1121218D02*
Y1122156D01*
Y1123073D02*
Y1123487D01*
X942500Y1121168D02*
Y1121816D01*
Y1123335D02*
Y1123587D01*
X942600Y1121118D02*
Y1121550D01*
Y1123502D02*
Y1123657D01*
X942700Y1121068D02*
Y1121420D01*
Y1123568D02*
Y1123697D01*
X942800Y1121018D02*
Y1121295D01*
Y1123621D02*
Y1123737D01*
X942900Y1120995D02*
Y1121202D01*
Y1123661D02*
Y1123765D01*
X943000Y1120995D02*
Y1121168D01*
Y1123701D02*
Y1123782D01*
X943100Y1120995D02*
Y1121135D01*
Y1123728D02*
Y1123798D01*
X943200Y1121005D02*
Y1121102D01*
Y1123708D02*
Y1123815D01*
X943300Y1121022D02*
Y1121087D01*
Y1123688D02*
Y1123795D01*
X943400Y1121038D02*
Y1121107D01*
Y1123668D02*
Y1123772D01*
X943500Y1121055D02*
Y1121127D01*
Y1123582D02*
Y1123750D01*
X943600Y1121094D02*
Y1121148D01*
Y1123482D02*
Y1123728D01*
X943700Y1121134D02*
Y1121243D01*
Y1123364D02*
Y1123706D01*
X943800Y1121174D02*
Y1121343D01*
Y1123164D02*
Y1123647D01*
X943900Y1121253D02*
Y1121581D01*
Y1122964D02*
Y1123562D01*
X944000Y1121333D02*
Y1122166D01*
Y1122217D02*
Y1123476D01*
X944100Y1121413D02*
Y1123390D01*
X944200Y1121579D02*
Y1123270D01*
X944300Y1121773D02*
Y1123095D01*
X944400Y1122073D02*
Y1122920D01*
X944900Y1123730D02*
Y1123754D01*
X945000Y1123730D02*
Y1123754D01*
X945100Y1123691D02*
Y1123754D01*
X945200Y1123597D02*
Y1123754D01*
X945300Y1123283D02*
Y1123754D01*
X945400Y1121412D02*
Y1123754D01*
X945500Y1121262D02*
Y1123754D01*
X945600Y1121112D02*
Y1123754D01*
X945700Y1121042D02*
Y1123754D01*
X945800Y1120995D02*
Y1121523D01*
X945900Y1120995D02*
Y1121369D01*
X946000Y1120996D02*
Y1121302D01*
X946100Y1121030D02*
Y1121268D01*
X946200Y1121063D02*
Y1121268D01*
X946300Y1121096D02*
Y1121276D01*
X946400Y1121137D02*
Y1121296D01*
X946500Y1121187D02*
Y1121316D01*
X946600Y1121239D02*
Y1121345D01*
Y1123707D02*
Y1123754D01*
X946700Y1121339D02*
Y1121411D01*
Y1123682D02*
Y1123754D01*
X946800Y1121439D02*
Y1121484D01*
Y1123649D02*
Y1123754D01*
X946900Y1121539D02*
Y1121584D01*
Y1123599D02*
Y1123754D01*
X947000Y1120995D02*
Y1123754D01*
X947100Y1121014D02*
Y1123754D01*
X947200Y1121052D02*
Y1123754D01*
X947300Y1121091D02*
Y1123754D01*
X947400Y1121129D02*
Y1121460D01*
X947500Y1121168D02*
Y1121322D01*
X947600Y1121206D02*
Y1121272D01*
X947700Y1121244D02*
Y1121292D01*
*
G04 PC Custom Flashes*
G04 Layer Name stm32l151_nbiot_parking - flashes*
%LPD*%
*
*
G04 PC Circuitry*
G04 Layer Name stm32l151_nbiot_parking - circuitry*
%LPD*%
*
G54D49*
X917297Y1078118D02*
Y1060401D01*
X905486*
Y1078118*
X917297*
X914694Y1068104D02*
G75*
G03X907894I-3400J-0D01*
G01X880213Y1036502D02*
X884150D01*
Y1040439*
X1014330Y1144124D02*
G03X1014330I-1803J0D01*
G01X931047Y1078118D02*
Y1060401D01*
X919236*
Y1078118*
X931047*
X928444Y1068104D02*
G03X921644I-3400J-0D01*
G01X874015Y1201431D02*
X938776D01*
X874015Y1134302D02*
Y1201431D01*
X938776Y1134302D02*
Y1201431D01*
X874015Y1134302D02*
X938776D01*
X874015Y1201431D02*
X938776D01*
Y1134302D02*
Y1201431D01*
X874015Y1134302D02*
X938776D01*
X874015D02*
Y1201431D01*
X935218Y1137428D02*
Y1149094D01*
Y1137428D02*
X935569Y1137077D01*
X945222*
X945218Y1137081D02*
X945222Y1137077D01*
X945218Y1137081D02*
Y1151695D01*
Y1157360D02*
Y1173581D01*
X935218Y1157360D02*
X935218D01*
Y1177518*
X945218Y1172613D02*
Y1198203D01*
X935218Y1172622D02*
Y1198213D01*
X945218Y1147613D02*
Y1173203D01*
X935218Y1147622D02*
Y1173213D01*
X945218Y1147400D02*
Y1156652D01*
Y1147400D02*
X945218D01*
X935218D02*
Y1198213D01*
X945209*
X945218Y1198203*
Y1147400D02*
Y1198203D01*
X884208Y1079479D02*
Y1080479D01*
X1007753Y1073836D02*
Y1072836D01*
X969343Y1159690D02*
Y1149848D01*
X961469*
Y1159690*
X969343*
X967806Y1156169D02*
X963606D01*
Y1153969*
X861339Y1042362D02*
Y1049362D01*
X854339*
Y1042362*
X861339Y1039362D02*
Y1032362D01*
X854339*
Y1039362*
X774179Y1174943D02*
Y1192659D01*
X785990*
Y1174943*
X774179*
X776782Y1184957D02*
G03X783582I3400J-0D01*
G01X957402Y1087809D02*
Y1094809D01*
X950402*
Y1087809*
X957402Y1084809D02*
Y1077809D01*
X950402*
Y1084809*
X969683Y1061901D02*
X962683D01*
Y1054901*
X969683*
X972683Y1061901D02*
X979683D01*
Y1054901*
X972683*
X829501Y1183468D02*
Y1184468D01*
X891850Y1083199D02*
Y1082199D01*
X957402Y1063514D02*
X939686D01*
Y1075325*
X957402*
Y1063514*
X947388Y1066117D02*
G03Y1072917I0J3400D01*
G01X1079799Y1031344D02*
Y1013627D01*
X1067988*
Y1031344*
X1079799*
X1077196Y1021330D02*
G03X1070396I-3400J-0D01*
G01X1037646Y1004091D02*
X1019930D01*
Y1015902*
X1037646*
Y1004091*
X1027632Y1006695D02*
G03Y1013495I0J3400D01*
G01X959257Y1163281D02*
Y1145564D01*
X947446*
Y1163281*
X959257*
X956654Y1153267D02*
G03X949854I-3400J-0D01*
G54D51*
G01X855847Y1113177D02*
Y1183177D01*
X865847*
Y1116177*
X862847Y1113177*
X855847*
X898357Y1009781D02*
X847176D01*
Y1070804*
X896420*
X898357Y1066899*
Y1009781*
X900865Y1034322D02*
X943365D01*
Y1024322*
X903865*
X900865Y1027322*
Y1034322*
X834811Y1064786D02*
X844811D01*
Y1034786*
X837811*
X834811Y1037786*
Y1064786*
X1070494Y1073355D02*
G03X1070494I-23622J0D01*
G01X1039550Y1100269D02*
X1034431D01*
X1036998Y1098269D02*
Y1102269D01*
X764654Y1215597D02*
X829772D01*
Y1205597*
X767654*
X764654Y1208597*
Y1215597*
G54D62*
X860018Y1039919D02*
G03X855659Y1039930I-2179J114D01*
G01X956082Y1085366D02*
G03X951722Y1085377I-2180J114D01*
G01X972126Y1060580D02*
G03X972115Y1056221I-114J-2179D01*
G01X1049630Y1014615D02*
Y1030364D01*
X1065378D02*
Y1014615D01*
X1116794Y1016961D02*
G03X1116794I-15748J0D01*
G54D63*
G01X927211Y1046964D02*
X932011D01*
Y1051964*
X927211*
X924811Y1046964D02*
X920011D01*
Y1051964*
X924811*
X980635Y1173145D02*
Y1177231D01*
G03X975635I-2500J-2589*
G01Y1173145*
X980635Y1170745D02*
Y1166327D01*
X975632Y1166329D02*
G03X980632Y1166325I2503J3656D01*
G01X975635Y1166327D02*
Y1170745D01*
X1035358Y1033826D02*
X1040158D01*
Y1038826*
X1035358*
X1032958Y1033826D02*
X1028158D01*
Y1038826*
X1032958*
X824086Y1195278D02*
X819286D01*
Y1190278*
X824086*
X826486Y1195278D02*
X831286D01*
Y1190278*
X826486*
X881109Y1104447D02*
X885909D01*
Y1109447*
X881109*
X878709Y1104447D02*
X873909D01*
Y1109447*
X878709*
X881109Y1110353D02*
X885909D01*
Y1115353*
X881109*
X878709Y1110353D02*
X873909D01*
Y1115353*
X878709*
X881109Y1098542D02*
X885909D01*
Y1103542*
X881109*
X878709Y1098542D02*
X873909D01*
Y1103542*
X878709*
X881109Y1086731D02*
X885195D01*
G03Y1091731I-2589J2500*
G01X881109*
X878709Y1086731D02*
X874291D01*
X874293Y1091734D02*
G03X874289Y1086734I3656J-2503D01*
G01X874291Y1091731D02*
X878709D01*
X881109Y1092636D02*
X885909D01*
Y1097636*
X881109*
X878709Y1092636D02*
X873909D01*
Y1097636*
X878709*
X924811Y1057476D02*
X920011D01*
Y1052476*
X924811*
X927211Y1057476D02*
X932011D01*
Y1052476*
X927211*
X1004726Y1015713D02*
Y1010913D01*
X1009726*
Y1015713*
X1004726Y1018113D02*
Y1022913D01*
X1009726*
Y1018113*
X998786Y1017513D02*
X1003586D01*
Y1022513*
X998786*
X996386Y1017513D02*
X991586D01*
Y1022513*
X996386*
X980044Y1137371D02*
X975958D01*
G03Y1132371I2589J-2500*
G01X980044*
X982444Y1137371D02*
X986862D01*
X986860Y1132368D02*
G03X986864Y1137368I-3656J2503D01*
G01X986862Y1132371D02*
X982444D01*
X1027480Y1135496D02*
X1031566D01*
G03Y1140496I-2589J2500*
G01X1027480*
X1025080Y1135496D02*
X1020662D01*
X1020664Y1140499D02*
G03X1020660Y1135499I3656J-2503D01*
G01X1020662Y1140496D02*
X1025080D01*
X958823Y1104937D02*
X954737D01*
G03Y1099937I2589J-2500*
G01X958823*
X961223Y1104937D02*
X965641D01*
X965639Y1099934D02*
G03X965643Y1104934I-3656J2503D01*
G01X965641Y1099937D02*
X961223D01*
X1048909Y1139170D02*
X1052995D01*
G03Y1144170I-2589J2500*
G01X1048909*
X1046509Y1139170D02*
X1042091D01*
X1042093Y1144174D02*
G03X1042088Y1139174I3656J-2504D01*
G01X1042091Y1144170D02*
X1046509D01*
Y1163670D02*
X1042423D01*
G03Y1158670I2588J-2500*
G01X1046509*
X1048909Y1163670D02*
X1053327D01*
X1053324Y1158666D02*
G03X1053329Y1163666I-3655J2504D01*
G01X1053327Y1158670D02*
X1048909D01*
X894870Y1051630D02*
Y1055716D01*
G03X889870I-2500J-2589*
G01Y1051630*
X894870Y1049230D02*
Y1044812D01*
X889867Y1044814D02*
G03X894867Y1044809I2503J3656D01*
G01X889870Y1044812D02*
Y1049230D01*
X874265Y1201431D02*
G03X874265I-250J0D01*
G01X939026D02*
G03X939026I-250J0D01*
G01X874265Y1134302D02*
G03X874265I-250J0D01*
G01Y1201431D02*
G03X874265I-250J0D01*
G01X939026Y1134302D02*
G03X939026I-250J0D01*
G01Y1201431D02*
G03X939026I-250J0D01*
G01X874265Y1134302D02*
G03X874265I-250J0D01*
G01X939026D02*
G03X939026I-250J0D01*
G01X874265Y1201431D02*
G03X874265I-250J0D01*
G01X939026D02*
G03X939026I-250J0D01*
G01Y1134302D02*
G03X939026I-250J0D01*
G01Y1201431D02*
G03X939026I-250J0D01*
G01X874265Y1134302D02*
G03X874265I-250J0D01*
G01X939026D02*
G03X939026I-250J0D01*
G01X874265D02*
G03X874265I-250J0D01*
G01Y1201431D02*
G03X874265I-250J0D01*
G01X935468Y1137428D02*
G03X935468I-250J0D01*
G01Y1149094D02*
G03X935468I-250J0D01*
G01Y1137428D02*
G03X935468I-250J0D01*
G01X935819Y1137077D02*
G03X935819I-250J0D01*
G03X935819I-250J0*
G01X945472D02*
G03X945472I-250J0D01*
G01X945468Y1137081D02*
G03X945468I-250J0D01*
G01X945472Y1137077D02*
G03X945472I-250J0D01*
G01X945468Y1137081D02*
G03X945468I-250J0D01*
G01Y1151695D02*
G03X945468I-250J0D01*
G01Y1157360D02*
G03X945468I-250J0D01*
G01Y1173581D02*
G03X945468I-250J0D01*
G01X935468Y1157360D02*
G03X935468I-250J0D01*
G03X935468I-250J0*
G03X935468I-250J0*
G01Y1177518D02*
G03X935468I-250J0D01*
G01X945468Y1172613D02*
G03X945468I-250J0D01*
G01Y1198203D02*
G03X945468I-250J0D01*
G01X935468Y1172622D02*
G03X935468I-250J0D01*
G01Y1198213D02*
G03X935468I-250J0D01*
G01X945468Y1147613D02*
G03X945468I-250J0D01*
G01Y1173203D02*
G03X945468I-250J0D01*
G01X935468Y1147622D02*
G03X935468I-250J0D01*
G01Y1173213D02*
G03X935468I-250J0D01*
G01X945468Y1147400D02*
G03X945468I-250J0D01*
G01Y1156652D02*
G03X945468I-250J0D01*
G01Y1147400D02*
G03X945468I-250J0D01*
G03X945468I-250J0*
G01X935468D02*
G03X935468I-250J0D01*
G01Y1198213D02*
G03X935468I-250J0D01*
G03X935468I-250J0*
G01X945459D02*
G03X945459I-250J0D01*
G03X945459I-250J0*
G01X945468Y1198203D02*
G03X945468I-250J0D01*
G01Y1147400D02*
G03X945468I-250J0D01*
G01Y1198203D02*
G03X945468I-250J0D01*
G01X875208Y1076979D02*
Y1074479D01*
X880208*
X875208Y1082979D02*
Y1085479D01*
X880208*
X814763Y1190830D02*
Y1194916D01*
G03X809763I-2500J-2589*
G01Y1190830*
X814763Y1188430D02*
Y1184012D01*
X809760Y1184014D02*
G03X814760Y1184010I2503J3656D01*
G01X809763Y1184012D02*
Y1188430D01*
X1046509Y1175479D02*
X1042423D01*
G03Y1170479I2588J-2500*
G01X1046509*
X1048909Y1175479D02*
X1053327D01*
X1053324Y1170476D02*
G03X1053329Y1175476I-3655J2503D01*
G01X1053327Y1170479D02*
X1048909D01*
X1027429Y1129426D02*
X1032229D01*
Y1134426*
X1027429*
X1025029Y1129426D02*
X1020229D01*
Y1134426*
X1025029*
X1039762Y1026551D02*
G03X1039762I-788J0D01*
G01X1048444Y1033826D02*
X1053244D01*
Y1038826*
X1048444*
X1046044Y1033826D02*
X1041244D01*
Y1038826*
X1046044*
X1016753Y1076336D02*
Y1078836D01*
X1011753*
X1016753Y1070336D02*
Y1067836D01*
X1011753*
X981236Y1059826D02*
Y1055740D01*
G03X986236I2500J2589*
G01Y1059826*
X981236Y1062226D02*
Y1066644D01*
X986239Y1066642D02*
G03X981239Y1066647I-2503J-3656D01*
G01X986236Y1066644D02*
Y1062226D01*
X1048444Y1039593D02*
X1052530D01*
G03Y1044593I-2589J2500*
G01X1048444*
X1046044Y1039593D02*
X1041626D01*
X1041628Y1044596D02*
G03X1041624Y1039596I3656J-2503D01*
G01X1041626Y1044593D02*
X1046044D01*
X864351Y1050917D02*
X868437D01*
G03Y1055917I-2588J2500*
G01X864351*
X861951Y1050917D02*
X857533D01*
X857536Y1055920D02*
G03X857531Y1050920I3655J-2503D01*
G01X857533Y1055917D02*
X861951D01*
X808857Y1190830D02*
Y1194916D01*
G03X803857I-2500J-2589*
G01Y1190830*
X808857Y1188430D02*
Y1184012D01*
X803854Y1184014D02*
G03X808854Y1184010I2503J3656D01*
G01X803857Y1184012D02*
Y1188430D01*
X802952Y1190830D02*
Y1194916D01*
G03X797952I-2500J-2589*
G01Y1190830*
X802952Y1188430D02*
Y1184012D01*
X797949Y1184014D02*
G03X802949Y1184010I2503J3656D01*
G01X797952Y1184012D02*
Y1188430D01*
X975989Y1099937D02*
X980789D01*
Y1104937*
X975989*
X973589Y1099937D02*
X968789D01*
Y1104937*
X973589*
X948304Y1086110D02*
Y1090196D01*
G03X943304I-2500J-2589*
G01Y1086110*
X948304Y1083710D02*
Y1079292D01*
X943301Y1079294D02*
G03X948301Y1079290I2503J3656D01*
G01X943304Y1079292D02*
Y1083710D01*
X979436Y1051966D02*
X974636D01*
Y1046966*
X979436*
X981836Y1051966D02*
X986636D01*
Y1046966*
X981836*
X968605Y1045165D02*
Y1041079D01*
G03X973605I2500J2589*
G01Y1045165*
X968605Y1047565D02*
Y1051983D01*
X973608Y1051981D02*
G03X968608Y1051985I-2503J-3656D01*
G01X973605Y1051983D02*
Y1047565D01*
X967433D02*
Y1052365D01*
X962433*
Y1047565*
X967433Y1045165D02*
Y1040365D01*
X962433*
Y1045165*
X967233Y1038913D02*
X962433D01*
Y1033913*
X967233*
X969633Y1038913D02*
X974433D01*
Y1033913*
X969633*
X967233Y1032692D02*
X962433D01*
Y1027692*
X967233*
X969633Y1032692D02*
X974433D01*
Y1027692*
X969633*
X913762Y1046964D02*
X917848D01*
G03Y1051964I-2589J2500*
G01X913762*
X911362Y1046964D02*
X906944D01*
X906946Y1051967D02*
G03X906942Y1046967I3656J-2503D01*
G01X906944Y1051964D02*
X911362D01*
X927211Y1041452D02*
X932011D01*
Y1046452*
X927211*
X924811Y1041452D02*
X920011D01*
Y1046452*
X924811*
X820501Y1180968D02*
Y1178468D01*
X825501*
X820501Y1186968D02*
Y1189468D01*
X825501*
X881745Y1022742D02*
Y1027542D01*
X876745*
Y1022742*
X881745Y1020342D02*
Y1015542D01*
X876745*
Y1020342*
X876120Y1022742D02*
Y1026828D01*
G03X871120I-2500J-2589*
G01Y1022742*
X876120Y1020342D02*
Y1015924D01*
X871117Y1015926D02*
G03X876117Y1015922I2503J3656D01*
G01X871120Y1015924D02*
Y1020342D01*
X1046509Y1169575D02*
X1041709D01*
Y1164575*
X1046509*
X1048909Y1169575D02*
X1053709D01*
Y1164575*
X1048909*
X937920Y1066161D02*
Y1070247D01*
G03X932920I-2500J-2589*
G01Y1066161*
X937920Y1063761D02*
Y1059343D01*
X932917Y1059345D02*
G03X937917Y1059340I2503J3656D01*
G01X932920Y1059343D02*
Y1063761D01*
X967545Y1068775D02*
X963459D01*
G03Y1063775I2589J-2500*
G01X967545*
X969945Y1068775D02*
X974363D01*
X974361Y1063772D02*
G03X974366Y1068772I-3656J2503D01*
G01X974363Y1063775D02*
X969945D01*
X900850Y1085699D02*
Y1088199D01*
X895850*
X900850Y1079699D02*
Y1077199D01*
X895850*
X1048909Y1152764D02*
X1052995D01*
G03Y1157764I-2589J2500*
G01X1048909*
X1046509Y1152764D02*
X1042091D01*
X1042093Y1157767D02*
G03X1042088Y1152767I3656J-2503D01*
G01X1042091Y1157764D02*
X1046509D01*
X887370Y1022742D02*
Y1027542D01*
X882370*
Y1022742*
X887370Y1020342D02*
Y1015542D01*
X882370*
Y1020342*
X942380Y1056964D02*
Y1036964D01*
X951829*
Y1056964*
X948105*
X946105D02*
G03X948105I1000J-0D01*
G01X946105D02*
X942380D01*
X1042627Y1024060D02*
Y1019974D01*
G03X1047627I2500J2589*
G01Y1024060*
X1042627Y1026460D02*
Y1030878D01*
X1047630Y1030876D02*
G03X1042630Y1030880I-2503J-3656D01*
G01X1047627Y1030878D02*
Y1026460D01*
X998786Y1011607D02*
X1003586D01*
Y1016607*
X998786*
X996386Y1011607D02*
X991586D01*
Y1016607*
X996386*
X1016521Y1021955D02*
Y1017155D01*
X1021521*
Y1021955*
X1016521Y1024355D02*
Y1029155D01*
X1021521*
Y1024355*
X1027302D02*
Y1029155D01*
X1022302*
Y1024355*
X1027302Y1021955D02*
Y1017155D01*
X1022302*
Y1021955*
X867175Y1122943D02*
Y1120599D01*
X867289Y1120130*
X867516Y1119818*
X867857Y1119661*
X868084*
X868425Y1119818*
X868652Y1120130*
X868766Y1120599*
Y1122943*
X869902Y1122161D02*
Y1122318D01*
X870016Y1122630*
X870130Y1122786*
X870357Y1122943*
X870812*
X871039Y1122786*
X871152Y1122630*
X871266Y1122318*
Y1122005*
X871152Y1121693*
X870925Y1121224*
X869789Y1119661*
X871380*
X872630Y1122943D02*
X873880D01*
X873198Y1121693*
X873539*
X873766Y1121536*
X873880Y1121380*
X873993Y1120911*
Y1120599*
X873880Y1120130*
X873652Y1119818*
X873312Y1119661*
X872971*
X872630Y1119818*
X872516Y1119974*
X872402Y1120286*
X767240Y1196671D02*
Y1194171D01*
X767126Y1193702*
X767013Y1193546*
X766785Y1193390*
X766558*
X766331Y1193546*
X766217Y1193702*
X766104Y1194171*
Y1194484*
X768263Y1196046D02*
X768490Y1196202D01*
X768831Y1196671*
Y1193390*
X770081Y1196671D02*
X771331D01*
X770649Y1195421*
X770990*
X771217Y1195265*
X771331Y1195109*
X771445Y1194640*
Y1194327*
X771331Y1193859*
X771104Y1193546*
X770763Y1193390*
X770422*
X770081Y1193546*
X769967Y1193702*
X769854Y1194015*
G54D64*
G54D65*
X780173Y1170531D02*
X840331D01*
Y1091791*
X777339*
Y1167697*
X780173Y1170531*
X1029364Y1151481D02*
X1047364D01*
Y1145481*
X1033364*
Y1147481*
X1031364*
Y1145481*
X1029364*
Y1151481*
X909382Y1083715D02*
X926882D01*
Y1093715*
X909382*
Y1083715*
X945780Y1054752D02*
G03X945780I-1181J0D01*
G01X963773Y1090666D02*
Y1073166D01*
X973773*
Y1090666*
X963773*
G54D66*
X1013027Y1142124D02*
X991027D01*
X990027*
Y1166624*
X1014527*
Y1143624*
X1013027Y1142124*
X1057017Y1010274D02*
Y1011062D01*
X1045600*
Y1010274*
Y1004762D02*
Y1003975D01*
X1057017*
Y1004762*
X1049277Y1011062D02*
Y1003975D01*
G54D80*
X763780Y1055118D02*
Y1216535D01*
X830709*
Y1204724*
X1059843*
Y1145669*
X1118110*
Y1094488*
X1066929*
Y1055118*
X1118110*
Y1000000*
X862205*
X803150Y1055118*
X763780*
X947347Y1203583D02*
X1007207D01*
Y1179932*
X947347*
Y1203583*
X1008730Y1203329D02*
X1058649D01*
Y1179678*
X1008730*
Y1203329*
X1066032Y1143215D02*
X1116146D01*
Y1119857*
X1066032*
Y1143215*
X953030Y1024003D02*
X988712D01*
Y1000410*
X953030*
Y1024003*
G54D87*
X926441Y1048244D02*
Y1050854D01*
X926371Y1049474D02*
G03Y1048174I-237J-650D01*
G01X926411Y1049584D02*
X925281Y1050714D01*
X979005Y1171785D02*
G03X977545I-730J-0D01*
G01X1034588Y1035106D02*
Y1037716D01*
X1034518Y1036336D02*
G03Y1035036I-236J-650D01*
G01X1034558Y1036446D02*
X1033428Y1037576D01*
X824856Y1193998D02*
Y1191388D01*
X824926Y1192768D02*
G03Y1194068I236J650D01*
G01X824886Y1192658D02*
X826016Y1191528D01*
X880339Y1105727D02*
Y1108337D01*
X880269Y1106957D02*
G03Y1105657I-237J-650D01*
G01X880309Y1107067D02*
X879179Y1108197D01*
X880339Y1111633D02*
Y1114243D01*
X880269Y1112863D02*
G03Y1111563I-237J-650D01*
G01X880309Y1112973D02*
X879179Y1114103D01*
X880339Y1099822D02*
Y1102432D01*
X880269Y1101052D02*
G03Y1099752I-237J-650D01*
G01X880309Y1101162D02*
X879179Y1102292D01*
X879749Y1088361D02*
G03Y1089821I-0J730D01*
G01X880339Y1093916D02*
Y1096526D01*
X880269Y1095146D02*
G03Y1093846I-237J-650D01*
G01X880309Y1095256D02*
X879179Y1096386D01*
X925581Y1056196D02*
Y1053586D01*
X925651Y1054966D02*
G03Y1056266I236J650D01*
G01X925611Y1054856D02*
X926741Y1053726D01*
X1006006Y1016483D02*
X1008616D01*
X1007236Y1016553D02*
G03X1005936I-650J237D01*
G01X1007346Y1016513D02*
X1008476Y1017643D01*
X998016Y1018793D02*
Y1021403D01*
X997946Y1020023D02*
G03Y1018723I-236J-650D01*
G01X997986Y1020133D02*
X996856Y1021263D01*
X981404Y1135741D02*
G03Y1134281I-0J-730D01*
G01X1026120Y1137126D02*
G03Y1138586I0J730D01*
G01X960183Y1103307D02*
G03Y1101847I-0J-730D01*
G01X1047549Y1140800D02*
G03Y1142260I-0J730D01*
G01X1047869Y1162040D02*
G03Y1160580I-0J-730D01*
G01X893240Y1050270D02*
G03X891780I-730J-0D01*
G01X813133Y1189470D02*
G03X811673I-730J0D01*
G01X1047869Y1173849D02*
G03Y1172389I-0J-730D01*
G01X1026659Y1130706D02*
Y1133316D01*
X1026589Y1131936D02*
G03Y1130636I-237J-650D01*
G01X1026629Y1132046D02*
X1025499Y1133176D01*
X1047674Y1035106D02*
Y1037716D01*
X1047604Y1036336D02*
G03Y1035036I-236J-650D01*
G01X1047644Y1036446D02*
X1046514Y1037576D01*
X982866Y1061186D02*
G03X984326I730J0D01*
G01X1047084Y1041223D02*
G03Y1042683I0J730D01*
G01X862991Y1052547D02*
G03Y1054007I0J730D01*
G01X807227Y1189470D02*
G03X805767I-730J0D01*
G01X801322D02*
G03X799862I-730J0D01*
G01X975219Y1101217D02*
Y1103827D01*
X975149Y1102447D02*
G03Y1101147I-237J-650D01*
G01X975189Y1102557D02*
X974059Y1103687D01*
X946674Y1084750D02*
G03X945214I-730J0D01*
G01X980206Y1050686D02*
Y1048076D01*
X980276Y1049456D02*
G03Y1050756I237J650D01*
G01X980236Y1049346D02*
X981366Y1048216D01*
X970235Y1046525D02*
G03X971695I730J-0D01*
G01X966153Y1046795D02*
X963543D01*
X964923Y1046725D02*
G03X966223I650J-237D01*
G01X964813Y1046765D02*
X963683Y1045635D01*
X968003Y1037633D02*
Y1035023D01*
X968073Y1036403D02*
G03Y1037703I237J650D01*
G01X968033Y1036293D02*
X969163Y1035163D01*
X968003Y1031412D02*
Y1028802D01*
X968073Y1030182D02*
G03Y1031482I237J650D01*
G01X968033Y1030072D02*
X969163Y1028942D01*
X912402Y1048594D02*
G03Y1050054I-0J730D01*
G01X926441Y1042732D02*
Y1045342D01*
X926371Y1043962D02*
G03Y1042662I-237J-650D01*
G01X926411Y1044072D02*
X925281Y1045202D01*
X880465Y1021972D02*
X877855D01*
X879235Y1021902D02*
G03X880535I650J-237D01*
G01X879125Y1021942D02*
X877995Y1020812D01*
X874490Y1021382D02*
G03X873030I-730J-0D01*
G01X1047279Y1168295D02*
Y1165685D01*
X1047349Y1167065D02*
G03Y1168365I236J650D01*
G01X1047309Y1166955D02*
X1048439Y1165825D01*
X936290Y1064801D02*
G03X934830I-730J-0D01*
G01X968905Y1067145D02*
G03Y1065685I0J-730D01*
G01X1047549Y1154394D02*
G03Y1155854I-0J730D01*
G01X886090Y1021972D02*
X883480D01*
X884860Y1021902D02*
G03X886160I650J-237D01*
G01X884750Y1021942D02*
X883620Y1020812D01*
X1044257Y1025420D02*
G03X1045717I730J-0D01*
G01X998016Y1012887D02*
Y1015497D01*
X997946Y1014117D02*
G03Y1012817I-236J-650D01*
G01X997986Y1014227D02*
X996856Y1015357D01*
X1017801Y1022725D02*
X1020411D01*
X1019031Y1022795D02*
G03X1017731I-650J237D01*
G01X1019141Y1022755D02*
X1020271Y1023885D01*
X1026022Y1023585D02*
X1023412D01*
X1024792Y1023515D02*
G03X1026092I650J-236D01*
G01X1024682Y1023555D02*
X1023552Y1022425D01*
X851929Y1201078D02*
Y1198495D01*
X853003*
X855150Y1200463D02*
X855061Y1200709D01*
X854882Y1200955*
X854703Y1201078*
X854345*
X854166Y1200955*
X853987Y1200709*
X853898Y1200463*
X853808Y1200094*
Y1199479*
X853898Y1199110*
X853987Y1198864*
X854166Y1198618*
X854345Y1198495*
X854703*
X854882Y1198618*
X855061Y1198864*
X855150Y1199110*
X856045Y1200463D02*
Y1200586D01*
X856135Y1200832*
X856224Y1200955*
X856403Y1201078*
X856761*
X856940Y1200955*
X857029Y1200832*
X857119Y1200586*
Y1200340*
X857029Y1200094*
X856850Y1199725*
X855956Y1198495*
X857208*
X863710Y1200926D02*
Y1198343D01*
X864784*
X866931Y1200311D02*
X866842Y1200557D01*
X866663Y1200803*
X866484Y1200926*
X866126*
X865947Y1200803*
X865768Y1200557*
X865678Y1200311*
X865589Y1199942*
Y1199327*
X865678Y1198958*
X865768Y1198712*
X865947Y1198466*
X866126Y1198343*
X866484*
X866663Y1198466*
X866842Y1198712*
X866931Y1198958*
X867915Y1200926D02*
X868900D01*
X868363Y1199942*
X868631*
X868810Y1199819*
X868900Y1199696*
X868989Y1199327*
Y1199081*
X868900Y1198712*
X868721Y1198466*
X868452Y1198343*
X868184*
X867915Y1198466*
X867826Y1198589*
X867736Y1198835*
X858465Y1195768D02*
Y1193185D01*
X859538*
X861686Y1195153D02*
X861596Y1195399D01*
X861418Y1195645*
X861239Y1195768*
X860881*
X860702Y1195645*
X860523Y1195399*
X860433Y1195153*
X860344Y1194784*
Y1194169*
X860433Y1193800*
X860523Y1193554*
X860702Y1193308*
X860881Y1193185*
X861239*
X861418Y1193308*
X861596Y1193554*
X861686Y1193800*
X862491Y1195276D02*
X862670Y1195399D01*
X862939Y1195768*
Y1193185*
G54D138*
X988660Y1023697D02*
X850865D01*
Y1109918*
X988660*
Y1023697*
X832361D02*
X1005589D01*
Y1118186*
X832361*
Y1023697*
X1040640Y1028520D02*
X1028829D01*
Y1021827*
X1040640*
Y1028520*
X982820Y1028533D02*
X986041D01*
X956441Y1030619D02*
Y1026522D01*
X954831Y1028571D02*
X958052D01*
X838984Y1066891D02*
X841400D01*
X825948Y1051232D02*
Y1047744D01*
Y1051232D02*
X827155D01*
X827558Y1051066*
X827692Y1050900*
X827827Y1050568*
Y1050235*
X827692Y1049903*
X827558Y1049737*
X827155Y1049571*
X825948*
X826887D02*
X827827Y1047744D01*
X829034Y1051232D02*
X830914Y1047744D01*
Y1051232D02*
X829034Y1047744D01*
X826694Y1041378D02*
Y1037890D01*
X825755Y1041378D02*
X827634D01*
X828842D02*
X830721Y1037890D01*
Y1041378D02*
X828842Y1037890D01*
X1029529Y1124047D02*
Y1120559D01*
X1031408Y1124047D02*
X1029529Y1121722D01*
X1030200Y1122552D02*
X1031408Y1120559D01*
X1032884Y1124047D02*
X1034361D01*
X1033555Y1122718*
X1033958*
X1034226Y1122552*
X1034361Y1122386*
X1034495Y1121888*
Y1121556*
X1034361Y1121057*
X1034092Y1120725*
X1033690Y1120559*
X1033287*
X1032884Y1120725*
X1032750Y1120891*
X1032616Y1121223*
X1040331Y1123286D02*
X1040197Y1123618D01*
X1039928Y1123950*
X1039660Y1124117*
X1039123*
X1038854Y1123950*
X1038586Y1123618*
X1038452Y1123286*
X1038318Y1122788*
Y1121957*
X1038452Y1121459*
X1038586Y1121127*
X1038854Y1120795*
X1039123Y1120629*
X1039660*
X1039928Y1120795*
X1040197Y1121127*
X1040331Y1121459*
X1042344Y1124117D02*
X1042076Y1123950D01*
X1041807Y1123618*
X1041673Y1123286*
X1041539Y1122788*
Y1121957*
X1041673Y1121459*
X1041807Y1121127*
X1042076Y1120795*
X1042344Y1120629*
X1042881*
X1043149Y1120795*
X1043418Y1121127*
X1043552Y1121459*
X1043686Y1121957*
Y1122788*
X1043552Y1123286*
X1043418Y1123618*
X1043149Y1123950*
X1042881Y1124117*
X1042344*
X1044894D02*
Y1120629D01*
Y1124117D02*
X1045968Y1120629D01*
X1047042Y1124117D02*
X1045968Y1120629D01*
X1047042Y1124117D02*
Y1120629D01*
X1050689Y1124201D02*
Y1120713D01*
X1052568Y1124201D02*
X1050689Y1121875D01*
X1051360Y1122706D02*
X1052568Y1120713D01*
X1053910Y1123370D02*
Y1123536D01*
X1054044Y1123868*
X1054179Y1124034*
X1054447Y1124201*
X1054984*
X1055252Y1124034*
X1055387Y1123868*
X1055521Y1123536*
Y1123204*
X1055387Y1122872*
X1055118Y1122374*
X1053776Y1120713*
X1055655*
X1059455Y1124106D02*
Y1120618D01*
X1061334Y1124106D02*
X1059455Y1121781D01*
X1060126Y1122611D02*
X1061334Y1120618D01*
X1062542Y1123442D02*
X1062811Y1123608D01*
X1063213Y1124106*
Y1120618*
X929748Y1115620D02*
Y1112133D01*
X930956Y1115620D02*
Y1112133D01*
Y1115620D02*
X932701D01*
X930956Y1113960D02*
X932030D01*
X934714Y1115620D02*
X934446Y1115454D01*
X934177Y1115122*
X934043Y1114790*
X933909Y1114292*
Y1113461*
X934043Y1112963*
X934177Y1112631*
X934446Y1112299*
X934714Y1112133*
X935251*
X935519Y1112299*
X935788Y1112631*
X935922Y1112963*
X936056Y1113461*
Y1114292*
X935922Y1114790*
X935788Y1115122*
X935519Y1115454*
X935251Y1115620*
X934714*
X935117Y1112797D02*
X935922Y1111800D01*
X920311Y1115699D02*
Y1112211D01*
Y1115699D02*
X922190Y1112211D01*
Y1115699D02*
Y1112211D01*
X925411Y1114869D02*
X925277Y1115201D01*
X925009Y1115533*
X924740Y1115699*
X924203*
X923935Y1115533*
X923666Y1115201*
X923532Y1114869*
X923398Y1114370*
Y1113540*
X923532Y1113042*
X923666Y1112710*
X923935Y1112377*
X924203Y1112211*
X924740*
X925009Y1112377*
X925277Y1112710*
X925411Y1113042*
X910248Y1115699D02*
Y1112211D01*
Y1115699D02*
X912127Y1112211D01*
Y1115699D02*
Y1112211D01*
X915348Y1114869D02*
X915214Y1115201D01*
X914946Y1115533*
X914677Y1115699*
X914140*
X913872Y1115533*
X913603Y1115201*
X913469Y1114869*
X913335Y1114370*
Y1113540*
X913469Y1113042*
X913603Y1112710*
X913872Y1112377*
X914140Y1112211*
X914677*
X914946Y1112377*
X915214Y1112710*
X915348Y1113042*
X849525Y1160164D02*
Y1156676D01*
Y1160164D02*
X850733D01*
X851136Y1159998*
X851270Y1159832*
X851404Y1159499*
Y1159167*
X851270Y1158835*
X851136Y1158669*
X850733Y1158503*
X849525*
X850464D02*
X851404Y1156676D01*
X852612Y1160164D02*
X854491Y1156676D01*
Y1160164D02*
X852612Y1156676D01*
X849894Y1169987D02*
Y1166499D01*
X848954Y1169987D02*
X850833D01*
X852041D02*
X853920Y1166499D01*
Y1169987D02*
X852041Y1166499D01*
X850978Y1147994D02*
X853394D01*
X852081Y1139330D02*
Y1136340D01*
X850873Y1137835D02*
X853289D01*
X856049Y1108912D02*
Y1105424D01*
Y1108912D02*
X856988D01*
X857391Y1108746*
X857659Y1108414*
X857793Y1108081*
X857928Y1107583*
Y1106753*
X857793Y1106254*
X857659Y1105922*
X857391Y1105590*
X856988Y1105424*
X856049*
X859136Y1108912D02*
Y1105424D01*
X862223Y1108414D02*
X861954Y1108746D01*
X861551Y1108912*
X861015*
X860612Y1108746*
X860343Y1108414*
Y1108081*
X860478Y1107749*
X860612Y1107583*
X860880Y1107417*
X861686Y1107085*
X861954Y1106919*
X862088Y1106753*
X862223Y1106420*
X862223D02*
Y1105922D01*
X862223D02*
X861954Y1105590D01*
X861551Y1105424*
X861015*
X860612Y1105590*
X860343Y1105922*
X865444Y1108081D02*
X865309Y1108414D01*
X865041Y1108746*
X864773Y1108912*
X864236*
X863967Y1108746*
X863699Y1108414*
X863565Y1108081*
X863430Y1107583*
Y1106753*
X863565Y1106254*
X863699Y1105922*
X863967Y1105590*
X864236Y1105424*
X864773*
X865041Y1105590*
X865309Y1105922*
X865444Y1106254*
X868499Y1130279D02*
Y1126791D01*
Y1130279D02*
X869707D01*
X870109Y1130113*
X870243Y1129947*
X870243D02*
X870378Y1129615D01*
Y1129117*
X870243Y1128784*
X870243D02*
X870109Y1128618D01*
X869707Y1128452*
X868499*
X871586Y1130279D02*
X872257Y1126791D01*
X872928Y1130279D02*
X872257Y1126791D01*
X872928Y1130279D02*
X873599Y1126791D01*
X874270Y1130279D02*
X873599Y1126791D01*
X875478Y1130279D02*
Y1126791D01*
Y1130279D02*
X876686D01*
X877089Y1130113*
X877223Y1129947*
X877357Y1129615*
Y1129283*
X877223Y1128951*
X877089Y1128784*
X876686Y1128618*
X875478*
X876417D02*
X877357Y1126791D01*
X880578Y1129449D02*
X880444Y1129781D01*
X880175Y1130113*
X879907Y1130279*
X879370*
X879102Y1130113*
X878833Y1129781*
X878699Y1129449*
X878565Y1128951*
Y1128120*
X878699Y1127622*
X878833Y1127290*
X879102Y1126957*
X879370Y1126791*
X879907*
X880175Y1126957*
X880444Y1127290*
X880578Y1127622*
X844606Y1179994D02*
X844338Y1180326D01*
X843935Y1180492*
X843398*
X842995Y1180326*
X842727Y1179994*
Y1179661*
X842861Y1179329*
X842995Y1179163*
X843264Y1178997*
X844069Y1178665*
X844338Y1178499*
X844472Y1178333*
X844606Y1178000*
Y1177502*
X844338Y1177170*
X843935Y1177004*
X843398*
X842995Y1177170*
X842727Y1177502*
X846754Y1180492D02*
Y1177004D01*
X845814Y1180492D02*
X847693D01*
X849975D02*
X848901Y1177004D01*
X849975Y1180492D02*
X851048Y1177004D01*
X849304Y1178167D02*
X850646D01*
X853196Y1180492D02*
Y1177004D01*
X852256Y1180492D02*
X854135D01*
X1039293Y1177511D02*
Y1174521D01*
X1038085Y1176016D02*
X1040501D01*
X1015235Y1176045D02*
X1017651D01*
X1020696Y1177739D02*
Y1174251D01*
Y1177739D02*
X1021635D01*
X1022038Y1177573*
X1022306Y1177240*
X1022440Y1176908*
X1022575Y1176410*
Y1175579*
X1022440Y1175081*
X1022306Y1174749*
X1022038Y1174417*
X1021635Y1174251*
X1020696*
X1023783Y1177739D02*
Y1174251D01*
X1025796Y1177739D02*
X1025527Y1177573D01*
X1025259Y1177240*
X1025125Y1176908*
X1024990Y1176410*
Y1175579*
X1025125Y1175081*
X1025259Y1174749*
X1025527Y1174417*
X1025796Y1174251*
X1026333*
X1026601Y1174417*
X1026869Y1174749*
X1027004Y1175081*
X1027138Y1175579*
Y1176410*
X1027004Y1176908*
X1026869Y1177240*
X1026601Y1177573*
X1026333Y1177739*
X1025796*
X1030637Y1176965D02*
X1030502Y1177297D01*
X1030234Y1177629*
X1029966Y1177795*
X1029429*
X1029160Y1177629*
X1028892Y1177297*
X1028758Y1176965*
X1028623Y1176466*
Y1175636*
X1028758Y1175138*
X1028892Y1174805*
X1029160Y1174473*
X1029429Y1174307*
X1029966*
X1030234Y1174473*
X1030502Y1174805*
X1030637Y1175138*
X1031845Y1177795D02*
Y1174307D01*
X1033455*
X1034663Y1177795D02*
Y1174307D01*
X1036542Y1177795D02*
X1034663Y1175470D01*
X1035334Y1176300D02*
X1036542Y1174307D01*
X997932Y1178474D02*
Y1175484D01*
X996724Y1176979D02*
X999140D01*
X986671Y1176520D02*
X989086D01*
X948824Y1177614D02*
X948690Y1177946D01*
X948422Y1178279*
X948153Y1178445*
X947616*
X947348Y1178279*
X947079Y1177946*
X946945Y1177614*
X946811Y1177116*
Y1176285*
X946945Y1175787*
X947079Y1175455*
X947348Y1175123*
X947616Y1174957*
X948153*
X948422Y1175123*
X948690Y1175455*
X948824Y1175787*
X950032Y1178445D02*
Y1174957D01*
X951911Y1178445D02*
X950032Y1176119D01*
X950703Y1176950D02*
X951911Y1174957D01*
X953253Y1177614D02*
Y1177780D01*
X953388Y1178112*
X953522Y1178279*
X953790Y1178445*
X954327*
X954596Y1178279*
X954730Y1178112*
X954864Y1177780*
Y1177448*
X954730Y1177116*
X954461Y1176618*
X953119Y1174957*
X954998*
X957132Y1178296D02*
Y1174808D01*
X956193Y1178296D02*
X958072D01*
X959280D02*
X961159Y1174808D01*
Y1178296D02*
X959280Y1174808D01*
X963190Y1178463D02*
Y1174975D01*
Y1178463D02*
X964398D01*
X964801Y1178297*
X964935Y1178131*
X965069Y1177799*
Y1177466*
X964935Y1177134*
X964801Y1176968*
X964398Y1176802*
X963190*
X964130D02*
X965069Y1174975D01*
X966277Y1178463D02*
X968156Y1174975D01*
Y1178463D02*
X966277Y1174975D01*
X769970Y1203711D02*
Y1200722D01*
X768762Y1202217D02*
X771178D01*
X776031Y1202194D02*
X778447D01*
X799647Y1204047D02*
Y1200559D01*
Y1204047D02*
X800855D01*
X801258Y1203881*
X801392Y1203715*
X801526Y1203383*
Y1203050*
X801392Y1202718*
X801258Y1202552*
X800855Y1202386*
X799647*
X800586D02*
X801526Y1200559D01*
X802734Y1204047D02*
X804613Y1200559D01*
Y1204047D02*
X802734Y1200559D01*
X792281Y1203959D02*
Y1200471D01*
X791341Y1203959D02*
X793220D01*
X794428D02*
X796307Y1200471D01*
Y1203959D02*
X794428Y1200471D01*
X783805Y1203108D02*
X783670Y1203440D01*
X783402Y1203772*
X783134Y1203938*
X783134D02*
X782597D01*
X782328Y1203772*
X782060Y1203440*
X781926Y1203108*
X781791Y1202609*
Y1201779*
X781926Y1201281*
X782060Y1200948*
X782328Y1200616*
X782597Y1200450*
X783134*
X783134D02*
X783402Y1200616D01*
X783670Y1200948*
X783805Y1201281*
X785013Y1203938D02*
Y1200450D01*
X786892Y1203938D02*
X785013Y1201613D01*
X785684Y1202443D02*
X786892Y1200450D01*
X788234Y1203108D02*
Y1203274D01*
X788368Y1203606*
X788502Y1203772*
X788771Y1203938*
X789307*
X789576Y1203772*
X789710Y1203606*
X789844Y1203274*
Y1202942*
X789710Y1202609*
X789442Y1202111*
X788099Y1200450*
X788099D02*
X789979D01*
X814881Y1204212D02*
Y1200724D01*
X816760Y1204212D02*
X814881Y1201887D01*
X815552Y1202718D02*
X816760Y1200724D01*
X818102Y1203382D02*
Y1203548D01*
X818236Y1203880*
X818370Y1204046*
X818639Y1204212*
X819175*
X819444Y1204046*
X819578Y1203880*
X819712Y1203548*
Y1203216*
X819578Y1202884*
X819310Y1202385*
X817968Y1200724*
X819847*
X807282Y1204198D02*
Y1200710D01*
X809161Y1204198D02*
X807282Y1201873D01*
X807953Y1202703D02*
X809161Y1200710D01*
X810369Y1203534D02*
X810638Y1203700D01*
X811040Y1204198*
Y1200710*
X824970Y1204187D02*
Y1200699D01*
X826849Y1204187D02*
X824970Y1201862D01*
X825641Y1202693D02*
X826849Y1200699D01*
X828325Y1204187D02*
X829802D01*
X828996Y1202859*
X829399*
X829667Y1202693*
X829802Y1202526*
X829936Y1202028*
Y1201696*
X829802Y1201198*
X829533Y1200866*
X829131Y1200699*
X828728*
X828325Y1200866*
X828191Y1201032*
X828057Y1201364*
G54D145*
X820202Y1081203D02*
X823252D01*
G03Y1085203I-3464J2000*
G01X820202*
X817702Y1081203D02*
X814652D01*
Y1085203D02*
G03Y1081203I2857J-2000D01*
G01Y1085203D02*
X817702D01*
X818353Y1082202D02*
G03X818351Y1084202I287J1001D01*
G01X852597Y1191407D02*
Y1188357D01*
G03X856597I2000J3464*
G01Y1191407*
X852597Y1193907D02*
Y1196957D01*
X856597D02*
G03X852597I-2000J-2857D01*
G01X856597D02*
Y1193907D01*
X853597Y1193256D02*
G03X855597Y1193258I1000J-287D01*
G01X864472Y1191407D02*
Y1188357D01*
G03X868472I2000J3464*
G01Y1191407*
X864472Y1193907D02*
Y1196957D01*
X868472D02*
G03X864472I-2000J-2857D01*
G01X868472D02*
Y1193907D01*
X865472Y1193256D02*
G03X867472Y1193258I1000J-287D01*
G01X819465Y1076047D02*
Y1072997D01*
G03X823465I2000J3464*
G01Y1076047*
X819465Y1078547D02*
Y1081597D01*
X823465D02*
G03X819465I-2000J-2856D01*
G01X823465D02*
Y1078547D01*
X820465Y1077896D02*
G03X822465Y1077898I1000J-287D01*
G01X820202Y1069392D02*
X823252D01*
X823252D02*
G03Y1073392I-3464J2000D01*
G01X823252D02*
X820202D01*
X817702Y1069392D02*
X814652D01*
Y1073392D02*
G03Y1069392I2857J-2000D01*
G01Y1073392D02*
X817702D01*
X818353Y1070391D02*
G03X818351Y1072391I287J1001D01*
G01X859285Y1192157D02*
X856235D01*
G03Y1188157I3464J-2000*
G01X859285*
X861785Y1192157D02*
X864835D01*
Y1188157D02*
G03Y1192157I-2857J2000D01*
G01Y1188157D02*
X861785D01*
X861134Y1191157D02*
G03X861136Y1189157I-287J-1000D01*
G54D146*
G01X818025Y1055764D02*
Y1063441D01*
X824915*
Y1055764*
X818025*
X905866Y1021037D02*
X908282D01*
X917423Y1022528D02*
Y1019428D01*
X916215Y1020978D02*
X918631D01*
X934948Y1022034D02*
X935663Y1019709D01*
X936379Y1022034D02*
X935663Y1019709D01*
X937184Y1022034D02*
Y1019709D01*
Y1022034D02*
X937990D01*
X938258Y1021923*
X938348Y1021813*
X938348D02*
X938437Y1021591D01*
Y1021259*
X938348Y1021037*
X938258Y1020927*
X937990Y1020816*
X937184*
X939869Y1022034D02*
Y1019709D01*
X939242Y1022034D02*
X940495D01*
X942016D02*
X941300Y1019709D01*
X942016Y1022034D02*
X942732Y1019709D01*
X941569Y1020484D02*
X942464D01*
X944164Y1022034D02*
Y1019709D01*
X943537Y1022034D02*
X944790D01*
X922714D02*
X923430Y1019709D01*
X924146Y1022034D02*
X923430Y1019709D01*
X925577Y1022034D02*
Y1019709D01*
X924951Y1022034D02*
X926204D01*
X927009D02*
Y1020373D01*
X927098Y1020041*
X927277Y1019819*
X927546Y1019709*
X927725*
X927993Y1019819*
X928172Y1020041*
X928262Y1020373*
Y1022034*
X929067D02*
Y1019709D01*
Y1022034D02*
X930319Y1019709D01*
Y1022034D02*
Y1019709D01*
X931125Y1022034D02*
Y1019709D01*
Y1022034D02*
X932288D01*
X931125Y1020927D02*
X931841D01*
X931125Y1019709D02*
X932288D01*
G54D147*
X1091146Y1029761D02*
Y1033561D01*
X1088946Y1031661D02*
X1092746D01*
G54D344*
X905918Y1081563D02*
X905829Y1081809D01*
X905650Y1082055*
X905471Y1082178*
X905113*
X904934Y1082055*
X904755Y1081809*
X904666Y1081563*
X904576Y1081194*
Y1080579*
X904666Y1080209*
X904755Y1079963*
X904934Y1079717*
X905113Y1079594*
X905471*
X905650Y1079717*
X905829Y1079963*
X905918Y1080209*
X907887Y1082178D02*
X906992D01*
X906903Y1081071*
X906992Y1081194*
X907261Y1081317*
X907529*
X907797Y1081194*
X907976Y1080948*
X908066Y1080579*
X907976Y1080332*
X907887Y1079963*
X907708Y1079717*
X907440Y1079594*
X907171*
X906903Y1079717*
X906813Y1079840*
X906724Y1080086*
X909766Y1082178D02*
X908871Y1080455D01*
X910213*
X909766Y1082178D02*
Y1079594D01*
X907492Y1044854D02*
Y1042270D01*
Y1044854D02*
X908297D01*
X908566Y1044731*
X908655Y1044608*
X908745Y1044362*
Y1044116*
X908655Y1043870*
X908566Y1043747*
X908297Y1043624*
X907492*
X908118D02*
X908745Y1042270D01*
X909550Y1044362D02*
X909729Y1044485D01*
X909997Y1044854*
Y1042270*
X911966Y1043993D02*
X911877Y1043624D01*
X911698Y1043378*
X911429Y1043255*
X911340*
X911071Y1043378*
X910892Y1043624*
X910803Y1043993*
Y1044116*
X910892Y1044485*
X911071Y1044731*
X911340Y1044854*
X911429*
X911698Y1044731*
X911877Y1044485*
X911966Y1043993*
Y1043378*
X911877Y1042762*
X911698Y1042393*
X911429Y1042270*
X911250*
X910982Y1042393*
X910892Y1042639*
X971088Y1176362D02*
X970998Y1176608D01*
X970819Y1176854*
X970640Y1176977*
X970282*
X970103Y1176854*
X969924Y1176608*
X969835Y1176362*
X969745Y1175993*
Y1175378*
X969835Y1175009*
X969924Y1174763*
X970103Y1174517*
X970282Y1174394*
X970640*
X970819Y1174517*
X970998Y1174763*
X971088Y1175009*
X971893Y1176485D02*
X972072Y1176608D01*
X972340Y1176977*
Y1174394*
X973682Y1176977D02*
X973414Y1176854D01*
X973235Y1176485*
X973146Y1175870*
Y1175501*
X973235Y1174886*
X973414Y1174517*
X973682Y1174394*
X973861*
X974130Y1174517*
X974309Y1174886*
X974398Y1175501*
Y1175870*
X974309Y1176485*
X974130Y1176854*
X973861Y1176977*
X973682*
X1017879Y1063576D02*
Y1061157D01*
X1017253Y1063576D02*
X1018506D01*
X1019311D02*
Y1061157D01*
Y1063576D02*
X1020116D01*
X1020385Y1063461*
X1020474Y1063346*
X1020564Y1063116*
Y1062770*
X1020474Y1062539*
X1020385Y1062424*
X1020116Y1062309*
X1019311*
X1022443Y1063231D02*
X1022353Y1063461D01*
X1022085Y1063576*
X1021906*
X1021637Y1063461*
X1021458Y1063116*
X1021369Y1062539*
Y1061963*
X1021458Y1061502*
X1021637Y1061272*
X1021906Y1061157*
X1021995*
X1022264Y1061272*
X1022443Y1061502*
X1022532Y1061848*
Y1061963*
X1022443Y1062309*
X1022264Y1062539*
X1021995Y1062655*
X1021906*
X1021637Y1062539*
X1021458Y1062309*
X1021369Y1061963*
X853383Y1060041D02*
Y1058073D01*
X853294Y1057704*
X853204Y1057581*
X853025Y1057458*
X852846*
X852667Y1057581*
X852578Y1057704*
X852489Y1058073*
Y1058319*
X854368Y1060041D02*
X855352D01*
X854815Y1059057*
X855083*
X855262Y1058934*
X855352Y1058811*
X855441Y1058442*
Y1058196*
X855352Y1057827*
X855173Y1057581*
X854904Y1057458*
X854636*
X854368Y1057581*
X854278Y1057704*
X854189Y1057950*
X1028241Y1042464D02*
Y1039881D01*
Y1042464D02*
X1029046D01*
X1029314Y1042341*
X1029404Y1042218*
X1029493Y1041972*
Y1041726*
X1029404Y1041480*
X1029314Y1041357*
X1029046Y1041234*
X1028241*
X1028867D02*
X1029493Y1039881D01*
X1030478Y1042464D02*
X1031462D01*
X1030925Y1041480*
X1031193*
X1031372Y1041357*
X1031462Y1041234*
X1031551Y1040865*
Y1040619*
X1031462Y1040250*
X1031283Y1040004*
X1031014Y1039881*
X1030746*
X1030478Y1040004*
X1030388Y1040127*
X1030299Y1040373*
X1033430Y1042095D02*
X1033341Y1042341D01*
X1033072Y1042464*
X1032893*
X1032625Y1042341*
X1032446Y1041972*
X1032357Y1041357*
Y1040742*
X1032446Y1040250*
X1032625Y1040004*
X1032893Y1039881*
X1032983*
X1033251Y1040004*
X1033430Y1040250*
X1033520Y1040619*
Y1040742*
X1033430Y1041111*
X1033251Y1041357*
X1032983Y1041480*
X1032893*
X1032625Y1041357*
X1032446Y1041111*
X1032357Y1040742*
X945075Y1027839D02*
Y1025496D01*
X945189Y1025027*
X945416Y1024714*
X945757Y1024558*
X945984*
X946325Y1024714*
X946552Y1025027*
X946666Y1025496*
Y1027839*
X947802Y1027058D02*
Y1027214D01*
X947916Y1027527*
X948029Y1027683*
X948257Y1027839*
X948711*
X948939Y1027683*
X949052Y1027527*
X949166Y1027214*
Y1026902*
X949052Y1026589*
X948825Y1026121*
X947689Y1024558*
X949279*
X950416Y1027058D02*
Y1027214D01*
X950529Y1027527*
X950643Y1027683*
X950870Y1027839*
X951325*
X951552Y1027683*
X951666Y1027527*
X951779Y1027214*
Y1026902*
X951666Y1026589*
X951439Y1026121*
X950302Y1024558*
X951893*
X819329Y1198546D02*
Y1195962D01*
Y1198546D02*
X820135D01*
X820403Y1198423*
X820493Y1198300*
X820582Y1198053*
Y1197807*
X820493Y1197561*
X820403Y1197438*
X820135Y1197315*
X819329*
X819956D02*
X820582Y1195962D01*
X821566Y1198546D02*
X822551D01*
X822014Y1197561*
X822282*
X822461Y1197438*
X822551Y1197315*
X822640Y1196946*
Y1196700*
X822551Y1196331*
X822372Y1196085*
X822103Y1195962*
X821835*
X821566Y1196085*
X821477Y1196208*
X821387Y1196454*
X823445Y1198053D02*
X823624Y1198177D01*
X823893Y1198546*
Y1195962*
X771868Y1094981D02*
Y1093135D01*
X771957Y1092766*
X772136Y1092520*
X772405Y1092397*
X772584*
X772852Y1092520*
X773031Y1092766*
X773121Y1093135*
Y1094981*
X774373D02*
X774105Y1094858D01*
X774015Y1094612*
Y1094366*
X774105Y1094120*
X774284Y1093997*
X774642Y1093874*
X774910Y1093751*
X775089Y1093505*
X775179Y1093259*
Y1092889*
X775089Y1092643*
X775000Y1092520*
X774731Y1092397*
X774373*
X774105Y1092520*
X774015Y1092643*
X773926Y1092889*
Y1093259*
X774015Y1093505*
X774194Y1093751*
X774463Y1093874*
X774821Y1093997*
X775000Y1094120*
X775089Y1094366*
Y1094612*
X775000Y1094858*
X774731Y1094981*
X774373*
X873172Y1108897D02*
X869891D01*
X873172D02*
Y1107875D01*
X873016Y1107534*
X872860Y1107420*
X872547Y1107307*
X872235*
X871922Y1107420*
X871766Y1107534*
X871610Y1107875*
Y1108897*
Y1108102D02*
X869891Y1107307D01*
X872703Y1104920D02*
X873016Y1105034D01*
X873172Y1105375*
Y1105602*
X873016Y1105943*
X872547Y1106170*
X871766Y1106284*
X870985*
X870360Y1106170*
X870047Y1105943*
X869891Y1105602*
Y1105488*
X870047Y1105147*
X870360Y1104920*
X870828Y1104807*
X870985*
X871453Y1104920*
X871766Y1105147*
X871922Y1105488*
Y1105602*
X871766Y1105943*
X871453Y1106170*
X870985Y1106284*
X869088Y1114852D02*
X865807D01*
X869088D02*
Y1113829D01*
X868932Y1113488*
X868776Y1113374*
X868463Y1113261*
X868151*
X867838Y1113374*
X867682Y1113488*
X867526Y1113829*
Y1114852*
Y1114056D02*
X865807Y1113261D01*
X869088Y1112011D02*
Y1110761D01*
X867838Y1111443*
Y1111102*
X867682Y1110874*
X867526Y1110761*
X867057Y1110647*
X866745*
X866276Y1110761*
X865963Y1110988*
X865807Y1111329*
Y1111670*
X865963Y1112011*
X866120Y1112124*
X866432Y1112238*
X868391Y1104194D02*
X865807D01*
X868391D02*
Y1103389D01*
X868268Y1103120*
X868145Y1103031*
X867899Y1102942*
X867653*
X867406Y1103031*
X867283Y1103120*
X867160Y1103389*
Y1104194*
Y1103568D02*
X865807Y1102942D01*
X867776Y1102047D02*
X867899D01*
X868145Y1101957*
X868268Y1101868*
X868391Y1101689*
Y1101331*
X868268Y1101152*
X868145Y1101063*
X867899Y1100973*
X867653*
X867406Y1101063*
X867037Y1101241*
X865807Y1102136*
Y1100884*
X868391Y1098826D02*
X865807Y1099720D01*
X868391Y1100078D02*
Y1098826D01*
X867962Y1090894D02*
X868208Y1090984D01*
X868454Y1091162*
X868577Y1091341*
Y1091699*
X868454Y1091878*
X868208Y1092057*
X867962Y1092147*
X867593Y1092236*
X866978*
X866609Y1092147*
X866363Y1092057*
X866116Y1091878*
X865993Y1091699*
Y1091341*
X866116Y1091162*
X866363Y1090984*
X866609Y1090894*
X868577Y1089910D02*
Y1088926D01*
X867593Y1089462*
Y1089194*
X867470Y1089015*
X867347Y1088926*
X866978Y1088836*
X866732*
X866363Y1088926*
X866116Y1089105*
X865993Y1089373*
Y1089641*
X866116Y1089910*
X866240Y1089999*
X866240D02*
X866486Y1090089D01*
X867962Y1087941D02*
X868085D01*
X868331Y1087852*
X868454Y1087762*
X868577Y1087583*
Y1087225*
X868454Y1087047*
X868331Y1086957*
X868085Y1086868*
X867839*
X867593Y1086957*
X867224Y1087136*
X865993Y1088031*
Y1086778*
X872883Y1097793D02*
X870299D01*
X872883D02*
Y1096987D01*
X872760Y1096719*
X872637Y1096629*
X872391Y1096540*
X872145*
X871899Y1096629*
X871776Y1096719*
X871653Y1096987*
Y1097793*
Y1097166D02*
X870299Y1096540D01*
X872268Y1095645D02*
X872391D01*
X872637Y1095556*
X872760Y1095466*
X872883Y1095287*
Y1094929*
X872760Y1094750*
X872637Y1094661*
X872391Y1094571*
X872145*
X871899Y1094661*
X871530Y1094840*
X870299Y1095735*
Y1094482*
X872514Y1092603D02*
X872760Y1092692D01*
X872883Y1092961*
Y1093140*
X872760Y1093408*
X872391Y1093587*
X871776Y1093677*
X871161*
X870669Y1093587*
X870422Y1093408*
X870299Y1093140*
Y1093050*
X870422Y1092782*
X870669Y1092603*
X871038Y1092513*
X871161*
X871530Y1092603*
X871776Y1092782*
X871899Y1093050*
Y1093140*
X871776Y1093408*
X871530Y1093587*
X871161Y1093677*
X885553Y1035590D02*
Y1033744D01*
X885643Y1033375*
X885822Y1033129*
X886090Y1033006*
X886269*
X886537Y1033129*
X886716Y1033375*
X886806Y1033744*
Y1035590*
X887790D02*
X888774D01*
X888237Y1034605*
X888506*
X888685Y1034482*
X888774Y1034359*
X888864Y1033990*
Y1033744*
X888774Y1033375*
X888595Y1033129*
X888327Y1033006*
X888058*
X887790Y1033129*
X887701Y1033252*
X887611Y1033498*
X914398Y1056197D02*
Y1053613D01*
Y1056197D02*
X915203D01*
X915471Y1056073*
X915561Y1055950*
X915650Y1055704*
Y1055458*
X915561Y1055212*
X915471Y1055089*
X915203Y1054966*
X914398*
X915024D02*
X915650Y1053613D01*
X916456Y1055704D02*
X916635Y1055827D01*
X916903Y1056197*
Y1053613*
X918156Y1056197D02*
X917887Y1056073D01*
X917798Y1055827*
Y1055581*
X917887Y1055335*
X918066Y1055212*
X918424Y1055089*
X918693Y1054966*
X918872Y1054720*
X918961Y1054474*
Y1054105*
X918872Y1053859*
X918782Y1053736*
X918514Y1053613*
X918156*
X917887Y1053736*
X917798Y1053859*
X917708Y1054105*
Y1054474*
X917798Y1054720*
X917977Y1054966*
X918245Y1055089*
X918603Y1055212*
X918782Y1055335*
X918872Y1055581*
Y1055827*
X918782Y1056073*
X918514Y1056197*
X918156*
X1010351Y1013715D02*
Y1011132D01*
Y1013715D02*
X1011157D01*
X1011425Y1013592*
X1011514Y1013469*
X1011604Y1013223*
Y1012977*
X1011514Y1012731*
X1011425Y1012608*
X1011157Y1012485*
X1010351*
X1010978D02*
X1011604Y1011132D01*
X1013572Y1012854D02*
X1013483Y1012485D01*
X1013304Y1012239*
X1013036Y1012116*
X1012946*
X1012678Y1012239*
X1012499Y1012485*
X1012409Y1012854*
Y1012977*
X1012499Y1013346*
X1012678Y1013592*
X1012946Y1013715*
X1013036*
X1013304Y1013592*
X1013483Y1013346*
X1013572Y1012854*
Y1012239*
X1013483Y1011624*
X1013304Y1011255*
X1013036Y1011132*
X1012857*
X1012588Y1011255*
X1012499Y1011501*
X992388Y1027626D02*
Y1025042D01*
Y1027626D02*
X993194D01*
X993462Y1027503*
X993552Y1027380*
X993641Y1027134*
Y1026887*
X993552Y1026641*
X993462Y1026518*
X993194Y1026395*
X992388*
X993015D02*
X993641Y1025042D01*
X994894Y1027626D02*
X994625Y1027503D01*
X994536Y1027257*
Y1027010*
X994625Y1026764*
X994804Y1026641*
X995162Y1026518*
X995431Y1026395*
X995610Y1026149*
X995699Y1025903*
Y1025534*
X995610Y1025288*
X995520Y1025165*
X995252Y1025042*
X994894*
X994625Y1025165*
X994536Y1025288*
X994446Y1025534*
Y1025903*
X994536Y1026149*
X994715Y1026395*
X994983Y1026518*
X995341Y1026641*
X995520Y1026764*
X995610Y1027010*
Y1027257*
X995520Y1027503*
X995252Y1027626*
X994894*
X830823Y1084903D02*
X828239D01*
Y1083830*
X830208Y1081682D02*
X830454Y1081772D01*
X830700Y1081951*
X830823Y1082130*
X830823D02*
Y1082487D01*
X830700Y1082666*
X830454Y1082845*
X830208Y1082935*
X829839Y1083024*
X829223*
X828854Y1082935*
X828608Y1082845*
X828362Y1082666*
X828239Y1082487*
Y1082130*
X828239D02*
X828362Y1081951D01*
X828608Y1081772*
X828854Y1081682*
X830823Y1079714D02*
Y1080608D01*
X829716Y1080698*
X829839Y1080608*
X829962Y1080340*
Y1080072*
X829839Y1079803*
X829593Y1079624*
X829223Y1079535*
X828977Y1079624*
X828608Y1079714*
X828362Y1079893*
X828239Y1080161*
Y1080429*
X828362Y1080698*
X828485Y1080787*
X828731Y1080877*
X977117Y1140075D02*
X977028Y1140321D01*
X976849Y1140567*
X976670Y1140690*
X976312*
X976133Y1140567*
X975954Y1140321*
X975864Y1140075*
X975775Y1139705*
Y1139090*
X975864Y1138721*
X975954Y1138475*
X976133Y1138229*
X976312Y1138106*
X976670*
X976849Y1138229*
X977028Y1138475*
X977117Y1138721*
X977922Y1140198D02*
X978101Y1140321D01*
X978370Y1140690*
Y1138106*
X979265Y1140075D02*
Y1140198D01*
X979265D02*
X979354Y1140444D01*
X979443Y1140567*
X979622Y1140690*
X979980*
X980159Y1140567*
X980249Y1140444*
X980338Y1140198*
Y1139951*
X980249Y1139705*
X980070Y1139336*
X979175Y1138106*
X980428*
X1035052Y1138514D02*
X1034963Y1138760D01*
X1034784Y1139006*
X1034605Y1139129*
X1034247*
X1034068Y1139006*
X1033889Y1138760*
X1033799Y1138514*
X1033710Y1138145*
Y1137529*
X1033799Y1137160*
X1033889Y1136914*
X1034068Y1136668*
X1034247Y1136545*
X1034605*
X1034784Y1136668*
X1034963Y1136914*
X1035052Y1137160*
X1035857Y1138637D02*
X1036036Y1138760D01*
X1036305Y1139129*
Y1136545*
X1037110Y1138637D02*
X1037289Y1138760D01*
X1037557Y1139129*
Y1136545*
X955681Y1107881D02*
X955591Y1108127D01*
X955412Y1108373*
X955233Y1108496*
X954875*
X954696Y1108373*
X954517Y1108127*
X954428Y1107881*
X954338Y1107512*
Y1106896*
X954428Y1106527*
X954517Y1106281*
X954696Y1106035*
X954875Y1105912*
X955233*
X955412Y1106035*
X955591Y1106281*
X955681Y1106527*
X957381Y1108496D02*
X956486Y1106773D01*
X957828*
X957381Y1108496D02*
Y1105912D01*
X958812Y1108496D02*
X959797D01*
X959260Y1107512*
X959528*
X959707Y1107389*
X959797Y1107266*
X959886Y1106896*
Y1106650*
X959797Y1106281*
X959618Y1106035*
X959349Y1105912*
X959081*
X958812Y1106035*
X958723Y1106158*
X958633Y1106404*
X1014877Y1142418D02*
Y1140690D01*
X1014966Y1140344*
X1015145Y1140114*
X1015414Y1139999*
X1015593*
X1015861Y1140114*
X1016040Y1140344*
X1016130Y1140690*
Y1142418*
X1016935Y1141957D02*
X1017114Y1142073D01*
X1017382Y1142418*
Y1139999*
X928261Y1081543D02*
X928171Y1081789D01*
X927992Y1082035*
X927814Y1082158*
X927456*
X927277Y1082035*
X927098Y1081789*
X927008Y1081543*
X926919Y1081174*
Y1080559*
X927008Y1080190*
X927098Y1079944*
X927277Y1079698*
X927456Y1079575*
X927814*
X927992Y1079698*
X928171Y1079944*
X928261Y1080190*
X930229Y1082158D02*
X929335D01*
X929245Y1081051*
X929335Y1081174*
X929603Y1081297*
X929872*
X930140Y1081174*
X930319Y1080928*
X930408Y1080559*
X930319Y1080313*
X930229Y1079944*
X930050Y1079698*
X929782Y1079575*
X929514*
X929245Y1079698*
X929156Y1079821*
X929066Y1080067*
X931393Y1082158D02*
X932377D01*
X931840Y1081174*
X932108*
X932287Y1081051*
X932377Y1080928*
X932466Y1080559*
Y1080313*
X932377Y1079944*
X932198Y1079698*
X931929Y1079575*
X931661*
X931393Y1079698*
X931303Y1079821*
X931214Y1080067*
X1056637Y1142233D02*
X1056547Y1142479D01*
X1056368Y1142725*
X1056189Y1142848*
X1055831*
X1055652Y1142725*
X1055473Y1142479*
X1055384Y1142233*
X1055295Y1141864*
Y1141249*
X1055384Y1140880*
X1055473Y1140634*
X1055473D02*
X1055652Y1140387D01*
X1055831Y1140264*
X1056189*
X1056368Y1140387*
X1056547Y1140634*
X1056547D02*
X1056637Y1140880D01*
X1058337Y1142848D02*
X1057442Y1141126D01*
X1058784*
X1058337Y1142848D02*
Y1140264D01*
X1056480Y1161921D02*
X1056391Y1162167D01*
X1056212Y1162413*
X1056033Y1162536*
X1055675*
X1055496Y1162413*
X1055317Y1162167*
X1055228Y1161921*
X1055138Y1161552*
Y1160936*
X1055228Y1160567*
X1055317Y1160321*
X1055496Y1160075*
X1055675Y1159952*
X1056033*
X1056212Y1160075*
X1056391Y1160321*
X1056480Y1160567*
X1058449Y1161675D02*
X1058359Y1161305D01*
X1058359D02*
X1058180Y1161059D01*
X1057912Y1160936*
X1057823*
X1057554Y1161059*
X1057375Y1161305*
X1057375D02*
X1057286Y1161675D01*
Y1161798*
X1057375Y1162167*
X1057554Y1162413*
X1057823Y1162536*
X1057912*
X1058180Y1162413*
X1058359Y1162167*
X1058449Y1161675*
Y1161059*
X1058359Y1160444*
X1058180Y1160075*
X1057912Y1159952*
X1057733*
X1057465Y1160075*
X1057375Y1160321*
X891465Y1042025D02*
X891376Y1042271D01*
X891197Y1042517*
X891018Y1042640*
X890660*
X890481Y1042517*
X890302Y1042271*
X890213Y1042025*
X890123Y1041656*
Y1041041*
X890213Y1040672*
X890302Y1040426*
X890302D02*
X890481Y1040179D01*
X890660Y1040056*
X891018*
X891197Y1040179*
X891376Y1040426*
X891376D02*
X891465Y1040672D01*
X892271Y1042148D02*
X892450Y1042271D01*
X892718Y1042640*
Y1040056*
X894418Y1042640D02*
X893523Y1040918D01*
X894865*
X894418Y1042640D02*
Y1040056D01*
X837473Y1069360D02*
X835504D01*
X835135Y1069450*
X835012Y1069539*
X834889Y1069718*
Y1069897*
X835012Y1070076*
X835135Y1070166*
X835504Y1070255*
X835750*
X836981Y1068555D02*
X837104Y1068376D01*
X837473Y1068108*
X834889*
X837473Y1066766D02*
X837350Y1067034D01*
X836981Y1067213*
X836365Y1067302*
X835996*
X835381Y1067213*
X835012Y1067034*
X834889Y1066766*
Y1066587*
X835012Y1066318*
X835381Y1066139*
X835996Y1066050*
X836365*
X836981Y1066139*
X837350Y1066318*
X837473Y1066587*
Y1066766*
X869864Y1148720D02*
X871592D01*
X871938Y1148809*
X872168Y1148988*
X872283Y1149256*
Y1149435*
X872168Y1149704*
X871938Y1149883*
X871592Y1149972*
X869864*
X870325Y1150778D02*
X870209Y1150956D01*
X869864Y1151225*
X872283*
X869864Y1153193D02*
Y1152299D01*
X870901Y1152209*
X870786Y1152299*
X870670Y1152567*
Y1152836*
X870786Y1153104*
X871016Y1153283*
X871362Y1153372*
X871592Y1153283*
X871938Y1153193*
X872168Y1153014*
X872283Y1152746*
Y1152478*
X872168Y1152209*
X872053Y1152120*
X871823Y1152030*
X1063580Y1054177D02*
Y1052208D01*
X1063490Y1051839*
X1063401Y1051716*
X1063222Y1051593*
X1063043*
X1062864Y1051716*
X1062775Y1051839*
X1062685Y1052208*
Y1052454*
X1065548Y1053316D02*
X1065459Y1052947D01*
X1065280Y1052700*
X1065011Y1052577*
X1064922*
X1064654Y1052700*
X1064475Y1052947*
X1064385Y1053316*
Y1053439*
X1064475Y1053808*
X1064654Y1054054*
X1064922Y1054177*
X1065011*
X1065280Y1054054*
X1065459Y1053808*
X1065548Y1053316*
Y1052700*
X1065459Y1052085*
X1065280Y1051716*
X1065011Y1051593*
X1064832*
X1064832D02*
X1064564Y1051716D01*
X1064475Y1051962*
X827205Y1080158D02*
X824621D01*
Y1079084*
X826590Y1076937D02*
X826836Y1077026D01*
X827082Y1077205*
X827205Y1077384*
Y1077742*
X827082Y1077921*
X826836Y1078100*
X826590Y1078189*
X826221Y1078279*
X825605*
X825236Y1078189*
X824990Y1078100*
X824744Y1077921*
X824621Y1077742*
Y1077384*
X824744Y1077205*
X824990Y1077026*
X825236Y1076937*
X826836Y1075058D02*
X827082Y1075147D01*
X827205Y1075416*
Y1075595*
X827082Y1075863*
X826713Y1076042*
X826097Y1076131*
X825482*
X824990Y1076042*
X824744Y1075863*
X824621Y1075595*
Y1075505*
X824744Y1075237*
X824990Y1075058*
X825359Y1074968*
X825482*
X825851Y1075058*
X826097Y1075237*
X826221Y1075505*
Y1075595*
X826097Y1075863*
X825851Y1076042*
X825482Y1076131*
X873031Y1076584D02*
X872908Y1076763D01*
X872662Y1076942*
X872415Y1077031*
X872046Y1077121*
X872046D02*
X871431D01*
X871431D02*
X871062Y1077031D01*
X870816Y1076942*
X870570Y1076763*
X870447Y1076584*
Y1076226*
X870570Y1076047*
X870816Y1075868*
X871062Y1075778*
X871431Y1075689*
X872046*
X872415Y1075778*
X872662Y1075868*
X872908Y1076047*
X873031Y1076226*
Y1076584*
X870939Y1076315D02*
X870201Y1075778D01*
X873031Y1073989D02*
X871308Y1074884D01*
Y1073541*
X873031Y1073989D02*
X870447D01*
X830230Y1073930D02*
X827646D01*
Y1072856*
X829615Y1070708D02*
X829861Y1070798D01*
X830107Y1070977*
X830230Y1071156*
Y1071514*
X830107Y1071693*
X829861Y1071872*
X829615Y1071961*
X829245Y1072051*
X828630*
X828261Y1071961*
X828015Y1071872*
X827769Y1071693*
X827646Y1071514*
Y1071156*
X827769Y1070977*
X828015Y1070798*
X828261Y1070708*
X830230Y1069008D02*
X828507Y1069903D01*
Y1068561*
X830230Y1069008D02*
X827646D01*
X810807Y1198955D02*
X810717Y1199201D01*
X810538Y1199448*
X810359Y1199571*
X810001*
X809822Y1199448*
X809644Y1199201*
X809554Y1198955*
X809465Y1198586*
Y1197971*
X809554Y1197602*
X809644Y1197356*
X809822Y1197110*
X810001Y1196987*
X810359*
X810538Y1197110*
X810717Y1197356*
X810807Y1197602*
X811702Y1198955D02*
Y1199078D01*
X811791Y1199324*
X811880Y1199448*
X812059Y1199571*
X812417*
X812596Y1199448*
X812686Y1199324*
X812775Y1199078*
Y1198832*
X812686Y1198586*
X812507Y1198217*
X811612Y1196987*
X812865*
X813849Y1199571D02*
X814833D01*
X814296Y1198586*
X814565*
X814744Y1198463*
X814833Y1198340*
X814923Y1197971*
Y1197725*
X814833Y1197356*
X814654Y1197110*
X814386Y1196987*
X814117*
X813849Y1197110*
X813759Y1197233*
X813670Y1197479*
X1055766Y1173713D02*
X1055677Y1173959D01*
X1055498Y1174205*
X1055319Y1174328*
X1054961*
X1054782Y1174205*
X1054603Y1173959*
X1054513Y1173713*
X1054424Y1173344*
Y1172728*
X1054513Y1172359*
X1054603Y1172113*
X1054782Y1171867*
X1054961Y1171744*
X1055319*
X1055498Y1171867*
X1055677Y1172113*
X1055766Y1172359*
X1056571Y1173836D02*
X1056750Y1173959D01*
X1057019Y1174328*
Y1171744*
X1058003Y1174328D02*
X1058987D01*
X1058450Y1173344*
X1058719*
X1058898Y1173220*
X1058987Y1173097*
X1059077Y1172728*
Y1172482*
X1058987Y1172113*
X1058808Y1171867*
X1058540Y1171744*
X1058271*
X1058003Y1171867*
X1057914Y1171990*
X1057824Y1172236*
X1033494Y1133241D02*
Y1130657D01*
Y1133241D02*
X1034300D01*
X1034568Y1133118*
X1034657Y1132995*
X1034747Y1132748*
Y1132502*
X1034657Y1132256*
X1034568Y1132133*
X1034300Y1132010*
X1033494*
X1034121D02*
X1034747Y1130657D01*
X1035731Y1133241D02*
X1036715D01*
X1036179Y1132256*
X1036447*
X1036626Y1132133*
X1036715Y1132010*
X1036805Y1131641*
Y1131395*
X1036715Y1131026*
X1036536Y1130780*
X1036536D02*
X1036268Y1130657D01*
X1036000*
X1035731Y1130780*
X1035642Y1130903*
X1035552Y1131149*
X1037700Y1132625D02*
Y1132748D01*
X1037789Y1132995*
X1037879Y1133118*
X1038058Y1133241*
X1038416*
X1038594Y1133118*
X1038684Y1132995*
X1038773Y1132748*
Y1132502*
X1038684Y1132256*
X1038505Y1131887*
X1037610Y1130657*
X1038863*
X1021620Y1036898D02*
Y1035053D01*
X1021709Y1034684*
X1021888Y1034438*
X1022157Y1034315*
X1022336*
X1022604Y1034438*
X1022783Y1034684*
X1022873Y1035053*
Y1036898*
X1023678Y1036406D02*
X1023857Y1036529D01*
X1024125Y1036898*
Y1034315*
X1026094Y1036037D02*
X1026004Y1035668D01*
X1025825Y1035422*
X1025557Y1035299*
X1025467*
X1025199Y1035422*
X1025020Y1035668*
X1024931Y1036037*
Y1036160*
X1025020Y1036529*
X1025199Y1036775*
X1025467Y1036898*
X1025557*
X1025825Y1036775*
X1026004Y1036529*
X1026094Y1036037*
Y1035422*
X1026004Y1034807*
X1025825Y1034438*
X1025557Y1034315*
X1025378*
X1025110Y1034438*
X1025020Y1034684*
X1054041Y1040059D02*
Y1037475D01*
Y1040059D02*
X1054846D01*
X1055114Y1039936*
X1055204Y1039813*
X1055293Y1039567*
Y1039321*
X1055204Y1039074*
X1055114Y1038951*
X1054846Y1038828*
X1054041*
X1054667D02*
X1055293Y1037475D01*
X1056278Y1040059D02*
X1057262D01*
X1056725Y1039074*
X1056993*
X1057172Y1038951*
X1057262Y1038828*
X1057351Y1038459*
Y1038213*
X1057262Y1037844*
X1057083Y1037598*
X1056814Y1037475*
X1056546*
X1056278Y1037598*
X1056188Y1037721*
X1056099Y1037967*
X1059409Y1040059D02*
X1058515Y1037475D01*
X1058157Y1040059D02*
X1059409D01*
X1018543Y1079587D02*
X1018364Y1079464D01*
X1018185Y1079218*
X1018096Y1078972*
X1018006Y1078603*
Y1077988*
X1018096Y1077619*
X1018185Y1077373*
X1018364Y1077127*
X1018543Y1077004*
X1018901*
X1019080Y1077127*
X1019259Y1077373*
X1019349Y1077619*
X1019438Y1077988*
Y1078603*
X1019349Y1078972*
X1019259Y1079218*
X1019080Y1079464*
X1018901Y1079587*
X1018543*
X1018812Y1077496D02*
X1019349Y1076758D01*
X1021496Y1079587D02*
X1020601Y1077004D01*
X1020243Y1079587D02*
X1021496D01*
X982300Y1070812D02*
X982211Y1071058D01*
X982032Y1071305*
X981853Y1071428*
X981495*
X981316Y1071305*
X981137Y1071058*
X981048Y1070812*
X980958Y1070443*
Y1069828*
X981048Y1069459*
X981137Y1069213*
X981316Y1068967*
X981495Y1068844*
X981853*
X982032Y1068967*
X982211Y1069213*
X982300Y1069459*
X984000Y1071428D02*
X983106Y1069705D01*
X984448*
X984000Y1071428D02*
Y1068844D01*
X985342Y1070812D02*
Y1070935D01*
X985432Y1071181*
X985521Y1071305*
X985700Y1071428*
X986058*
X986237Y1071305*
X986327Y1071181*
X986416Y1070935*
Y1070689*
X986327Y1070443*
X986148Y1070074*
X985253Y1068844*
X986506*
X1042418Y1047482D02*
X1042329Y1047728D01*
X1042150Y1047974*
X1041971Y1048097*
X1041613*
X1041434Y1047974*
X1041255Y1047728*
X1041166Y1047482*
X1041076Y1047113*
Y1046497*
X1041166Y1046128*
X1041255Y1045882*
X1041434Y1045636*
X1041613Y1045513*
X1041971*
X1042150Y1045636*
X1042329Y1045882*
X1042418Y1046128*
X1044118Y1048097D02*
X1043224Y1046374D01*
X1044566*
X1044118Y1048097D02*
Y1045513D01*
X1045818Y1048097D02*
X1045550Y1047974D01*
X1045461Y1047728*
Y1047482*
X1045550Y1047236*
X1045729Y1047113*
X1046087Y1046989*
X1046087D02*
X1046355Y1046866D01*
X1046534Y1046620*
X1046624Y1046374*
Y1046005*
X1046534Y1045759*
X1046445Y1045636*
X1046176Y1045513*
X1045818*
X1045550Y1045636*
X1045461Y1045759*
X1045371Y1046005*
Y1046374*
X1045461Y1046620*
X1045639Y1046866*
X1045908Y1046989*
X1045908D02*
X1046266Y1047113D01*
X1046445Y1047236*
X1046534Y1047482*
Y1047728*
X1046445Y1047974*
X1046176Y1048097*
X1045818*
X962974Y1165820D02*
Y1163236D01*
Y1165820D02*
X963779D01*
X964047Y1165697*
X964137Y1165574*
X964226Y1165328*
Y1165082*
X964137Y1164836*
X964047Y1164713*
X963779Y1164590*
X962974D02*
X963779D01*
X964047Y1164467*
X964137Y1164344*
X964226Y1164097*
Y1163728*
X964137Y1163482*
X964047Y1163359*
X963779Y1163236*
X962974*
X965032Y1165820D02*
Y1163236D01*
X966105*
X966911Y1165328D02*
X967090Y1165451D01*
X967358Y1165820*
Y1163236*
X865588Y1058879D02*
X865498Y1059126D01*
X865319Y1059372*
X865140Y1059495*
X864783*
X864604Y1059372*
X864425Y1059126*
X864335Y1058879*
X864246Y1058510*
Y1057895*
X864335Y1057526*
X864425Y1057280*
X864604Y1057034*
X864783Y1056911*
X865140*
X865319Y1057034*
X865498Y1057280*
X865588Y1057526*
X866393Y1059002D02*
X866572Y1059126D01*
X866841Y1059495*
Y1056911*
X868899Y1059495D02*
X868004Y1056911D01*
X867646Y1059495D02*
X868899D01*
X856944Y1030111D02*
X856854Y1030342D01*
X856675Y1030572*
X856496Y1030688*
X856139*
X855960Y1030572*
X855781Y1030342*
X855691Y1030111*
X855691D02*
X855602Y1029766D01*
Y1029190*
X855691Y1028844*
X855781Y1028614*
X855960Y1028383*
X856139Y1028268*
X856496*
X856675Y1028383*
X856854Y1028614*
X856944Y1028844*
X857749Y1030227D02*
X857928Y1030342D01*
X858196Y1030688*
Y1028268*
X860076Y1030342D02*
X859986Y1030572D01*
X859718Y1030688*
X859539*
X859270Y1030572*
X859091Y1030227*
X859002Y1029651*
Y1029075*
X859091Y1028614*
X859270Y1028383*
X859539Y1028268*
X859628*
X859897Y1028383*
X860076Y1028614*
X860165Y1028959*
Y1029075*
X860076Y1029420*
X859897Y1029651*
X859628Y1029766*
X859539*
X859270Y1029651*
X859091Y1029420*
X859002Y1029075*
X805031Y1198924D02*
X804942Y1199170D01*
X804763Y1199416*
X804584Y1199539*
X804226*
X804047Y1199416*
X803868Y1199170*
X803778Y1198924*
X803689Y1198555*
Y1197940*
X803778Y1197571*
X803868Y1197324*
X804047Y1197078*
X804226Y1196955*
X804584*
X804763Y1197078*
X804942Y1197324*
X805031Y1197571*
X805926Y1198924D02*
Y1199047D01*
X806015Y1199293*
X806105Y1199416*
X806284Y1199539*
X806642*
X806821Y1199416*
X806910Y1199293*
X807000Y1199047*
Y1198801*
X806910Y1198555*
X806731Y1198186*
X805836Y1196955*
X807089*
X808789Y1199539D02*
X807894Y1197817D01*
X809237*
X808789Y1199539D02*
Y1196955D01*
X799019Y1198883D02*
X798930Y1199129D01*
X798751Y1199375*
X798572Y1199498*
X798214*
X798035Y1199375*
X797856Y1199129*
X797767Y1198883*
X797677Y1198514*
Y1197899*
X797767Y1197530*
X797856Y1197284*
X798035Y1197038*
X798214Y1196915*
X798572*
X798751Y1197038*
X798930Y1197284*
X799019Y1197530*
X799914Y1198883D02*
Y1199006D01*
X800004Y1199252*
X800093Y1199375*
X800272Y1199498*
X800630*
X800809Y1199375*
X800898Y1199252*
X800988Y1199006*
Y1198760*
X800898Y1198514*
X800719Y1198145*
X799825Y1196915*
X801077*
X803046Y1199498D02*
X802151D01*
X802062Y1198391*
X802151Y1198514*
X802419Y1198637*
X802688*
X802956Y1198514*
X803135Y1198268*
X803225Y1197899*
X803135Y1197653*
X803046Y1197284*
X802867Y1197038*
X802598Y1196915*
X802330*
X802062Y1197038*
X801972Y1197161*
X801883Y1197407*
X775279Y1195703D02*
X775190Y1195949D01*
X775011Y1196196*
X774832Y1196319*
X774474*
X774295Y1196196*
X774116Y1195949*
X774026Y1195703*
X773937Y1195334*
Y1194719*
X774026Y1194350*
X774116Y1194104*
X774295Y1193858*
X774474Y1193735*
X774832*
X775011Y1193858*
X775190Y1194104*
X775279Y1194350*
X776174Y1195703D02*
Y1195826D01*
X776263Y1196073*
X776353Y1196196*
X776532Y1196319*
X776890*
X777069Y1196196*
X777158Y1196073*
X777248Y1195826*
Y1195580*
X777158Y1195334*
X776979Y1194965*
X776084Y1193735*
X777337*
X779216Y1195949D02*
X779127Y1196196D01*
X778858Y1196319*
X778679*
X778411Y1196196*
X778232Y1195826*
X778142Y1195211*
Y1194596*
X778232Y1194104*
X778411Y1193858*
X778679Y1193735*
X778769*
X779037Y1193858*
X779216Y1194104*
X779306Y1194473*
Y1194596*
X779216Y1194965*
X779037Y1195211*
X778769Y1195334*
X778679*
X778411Y1195211*
X778232Y1194965*
X778142Y1194596*
X981739Y1103652D02*
Y1101069D01*
Y1103652D02*
X982545D01*
X982813Y1103529*
X982902Y1103406*
X982992Y1103160*
Y1102914*
X982902Y1102668*
X982813Y1102545*
X982545Y1102422*
X981739*
X982366D02*
X982992Y1101069D01*
X983887Y1103037D02*
Y1103160D01*
X983976Y1103406*
X984066Y1103529*
X984245Y1103652*
X984603*
X984782Y1103529*
X984871Y1103406*
X984960Y1103160*
Y1102914*
X984871Y1102668*
X984692Y1102299*
X983797Y1101069*
X985050*
X987018Y1103652D02*
X986124D01*
X986034Y1102545*
X986124Y1102668*
X986392Y1102791*
X986661*
X986929Y1102668*
X987108Y1102422*
X987197Y1102053*
X987108Y1101807*
X987018Y1101438*
X986839Y1101192*
X986571Y1101069*
X986303*
X986034Y1101192*
X985945Y1101315*
X985855Y1101561*
X944353Y1094346D02*
X944264Y1094592D01*
X944085Y1094838*
X943906Y1094961*
X943548*
X943369Y1094838*
X943190Y1094592*
X943100Y1094346*
X943011Y1093977*
Y1093362*
X943100Y1092993*
X943190Y1092747*
X943369Y1092501*
X943548Y1092378*
X943906*
X944085Y1092501*
X944264Y1092747*
X944353Y1092993*
X946322Y1094961D02*
X945427D01*
X945337Y1093854*
X945427Y1093977*
X945695Y1094100*
X945964*
X946232Y1093977*
X946411Y1093731*
X946501Y1093362*
X946411Y1093116*
X946322Y1092747*
X946143Y1092501*
X945874Y1092378*
X945606*
X945337Y1092501*
X945248Y1092624*
X945158Y1092870*
X947843Y1094961D02*
X947574Y1094838D01*
X947395Y1094469*
X947306Y1093854*
Y1093485*
X947395Y1092870*
X947574Y1092501*
X947843Y1092378*
X948022*
X948290Y1092501*
X948469Y1092870*
X948559Y1093485*
Y1093854*
X948469Y1094469*
X948290Y1094838*
X948022Y1094961*
X947843*
X989649Y1051019D02*
Y1048435D01*
Y1051019D02*
X990454D01*
X990723Y1050895*
X990812Y1050772*
X990902Y1050526*
Y1050280*
X990812Y1050034*
X990723Y1049911*
X990454Y1049788*
X989649*
X990275D02*
X990902Y1048435D01*
X991796Y1050403D02*
Y1050526D01*
X991886Y1050772*
X991975Y1050895*
X992154Y1051019*
X992512*
X992691Y1050895*
X992781Y1050772*
X992870Y1050526*
Y1050280*
X992781Y1050034*
X992602Y1049665*
X991707Y1048435*
X992960*
X994660Y1051019D02*
X993765Y1049296D01*
X995107*
X994660Y1051019D02*
Y1048435D01*
X976715Y1041419D02*
X976625Y1041666D01*
X976446Y1041912*
X976267Y1042035*
X975909*
X975730Y1041912*
X975551Y1041666*
X975462Y1041419*
X975372Y1041050*
Y1040435*
X975462Y1040066*
X975551Y1039820*
X975730Y1039574*
X975909Y1039451*
X976267*
X976446Y1039574*
X976625Y1039820*
X976715Y1040066*
X978415Y1042035D02*
X977520Y1040312D01*
X978862*
X978415Y1042035D02*
Y1039451D01*
X979667Y1041543D02*
X979846Y1041666D01*
X980115Y1042035*
Y1039451*
X975451Y1045609D02*
Y1043025D01*
Y1045609D02*
X976256D01*
X976524Y1045486*
X976614Y1045363*
X976703Y1045117*
Y1044870*
X976614Y1044624*
X976524Y1044501*
X976256Y1044378*
X975451*
X976077D02*
X976703Y1043025D01*
X977598Y1044994D02*
Y1045117D01*
X977687Y1045363*
X977777Y1045486*
X977956Y1045609*
X978314*
X978493Y1045486*
X978582Y1045363*
X978672Y1045117*
Y1044870*
X978582Y1044624*
X978403Y1044255*
X977509Y1043025*
X978761*
X979745Y1045609D02*
X980730D01*
X980193Y1044624*
X980461*
X980640Y1044501*
X980730Y1044378*
X980819Y1044009*
Y1043763*
X980730Y1043394*
X980551Y1043148*
X980282Y1043025*
X980014*
X979745Y1043148*
X979656Y1043271*
X979567Y1043517*
X975646Y1037504D02*
Y1034920D01*
Y1037504D02*
X976451D01*
X976720Y1037381*
X976809Y1037258*
X976899Y1037012*
Y1036765*
X976809Y1036519*
X976720Y1036396*
X976451Y1036273*
X975646*
X976272D02*
X976899Y1034920D01*
X977793Y1036888D02*
Y1037012D01*
X977883Y1037258*
X977972Y1037381*
X978151Y1037504*
X978509*
X978688Y1037381*
X978778Y1037258*
X978867Y1037012*
Y1036765*
X978778Y1036519*
X978599Y1036150*
X977704Y1034920*
X978957*
X979762Y1037012D02*
X979941Y1037135D01*
X980209Y1037504*
Y1034920*
X975646Y1031684D02*
Y1029100D01*
Y1031684D02*
X976451D01*
X976720Y1031561*
X976809Y1031438*
X976899Y1031192*
Y1030945*
X976809Y1030699*
X976720Y1030576*
X976451Y1030453*
X975646*
X976272D02*
X976899Y1029100D01*
X977793Y1031068D02*
Y1031192D01*
X977883Y1031438*
X977972Y1031561*
X978151Y1031684*
X978509*
X978688Y1031561*
X978778Y1031438*
X978867Y1031192*
Y1030945*
X978778Y1030699*
X978599Y1030330*
X977704Y1029100*
X978957*
X979851Y1031068D02*
Y1031192D01*
X979941Y1031438*
X980030Y1031561*
X980209Y1031684*
X980567*
X980746Y1031561*
X980836Y1031438*
X980925Y1031192*
Y1030945*
X980836Y1030699*
X980657Y1030330*
X979762Y1029100*
X981015*
X907630Y1055617D02*
X907540Y1055863D01*
X907361Y1056109*
X907182Y1056232*
X906824*
X906645Y1056109*
X906466Y1055863*
X906377Y1055617*
X906287Y1055248*
Y1054633*
X906377Y1054263*
X906466Y1054017*
X906645Y1053771*
X906824Y1053648*
X907182*
X907361Y1053771*
X907540Y1054017*
X907630Y1054263*
X909598Y1056232D02*
X908703D01*
X908614Y1055125*
X908703Y1055248*
X908972Y1055371*
X909240*
X909509Y1055248*
X909688Y1055002*
X909777Y1054633*
X909688Y1054386*
X909598Y1054017*
X909419Y1053771*
X909151Y1053648*
X908882*
X908614Y1053771*
X908524Y1053894*
X908435Y1054140*
X911746Y1056232D02*
X910851D01*
X910761Y1055125*
X910851Y1055248*
X911119Y1055371*
X911388*
X911656Y1055248*
X911835Y1055002*
X911924Y1054633*
X911835Y1054386*
X911746Y1054017*
X911567Y1053771*
X911298Y1053648*
X911030*
X910761Y1053771*
X910672Y1053894*
X910582Y1054140*
X913902Y1044796D02*
Y1042213D01*
Y1044796D02*
X914707D01*
X914975Y1044673*
X915065Y1044550*
X915154Y1044304*
Y1044058*
X915065Y1043812*
X914975Y1043689*
X914707Y1043566*
X913902*
X914528D02*
X915154Y1042213D01*
X916049Y1044181D02*
Y1044304D01*
X916139Y1044550*
X916228Y1044673*
X916407Y1044796*
X916765*
X916944Y1044673*
X917033Y1044550*
X917123Y1044304*
Y1044058*
X917033Y1043812*
X916854Y1043443*
X915960Y1042213*
X917212*
X918554Y1044796D02*
X918286Y1044673D01*
X918107Y1044304*
X918018Y1043689*
Y1043320*
X918107Y1042705*
X918286Y1042336*
X918554Y1042213*
X918733*
X919002Y1042336*
X919181Y1042705*
X919270Y1043320*
Y1043689*
X919181Y1044304*
X919002Y1044673*
X918733Y1044796*
X918554*
X1055451Y1149567D02*
X1056703Y1146983D01*
Y1149567D02*
X1055451Y1146983D01*
X1057598Y1148952D02*
Y1149075D01*
X1057688Y1149321*
X1057777Y1149444*
X1057956Y1149567*
X1058314*
X1058493Y1149444*
X1058582Y1149321*
X1058672Y1149075*
Y1148829*
X1058582Y1148583*
X1058404Y1148214*
X1057509Y1146983*
X1058761*
X952681Y1097940D02*
X952591Y1098170D01*
X952412Y1098401*
X952233Y1098516*
X951875*
X951697Y1098401*
X951518Y1098170*
X951428Y1097940*
X951339Y1097594*
Y1097018*
X951428Y1096672*
X951518Y1096442*
X951697Y1096212*
X951875Y1096096*
X952233*
X952412Y1096212*
X952591Y1096442*
X952681Y1096672*
X954381Y1098516D02*
X953486Y1096903D01*
X954828*
X954381Y1098516D02*
Y1096096D01*
X956797Y1097709D02*
X956707Y1097364D01*
X956528Y1097133*
X956260Y1097018*
X956170*
X955902Y1097133*
X955723Y1097364*
X955634Y1097709*
Y1097825*
X955723Y1098170*
X955902Y1098401*
X956170Y1098516*
X956260*
X956528Y1098401*
X956707Y1098170*
X956797Y1097709*
Y1097133*
X956707Y1096557*
X956528Y1096212*
X956260Y1096096*
X956081*
X955812Y1096212*
X955723Y1096442*
X960898Y1067684D02*
X961128Y1067774D01*
X961359Y1067953*
X961474Y1068132*
Y1068490*
X961359Y1068669*
X961128Y1068847*
X960898Y1068937*
X960552Y1069026*
X959976*
X959630Y1068937*
X959400Y1068847*
X959169Y1068669*
X959054Y1068490*
Y1068132*
X959169Y1067953*
X959400Y1067774*
X959630Y1067684*
X961474Y1065984D02*
X959861Y1066879D01*
Y1065537*
X961474Y1065984D02*
X959054D01*
X961474Y1064195D02*
X961359Y1064463D01*
X961013Y1064642*
X960437Y1064732*
X960091*
X959515Y1064642*
X959169Y1064463*
X959054Y1064195*
Y1064016*
X959169Y1063747*
X959515Y1063568*
X960091Y1063479*
X960437*
X961013Y1063568*
X961359Y1063747*
X961474Y1064016*
Y1064195*
X816440Y1189589D02*
X816261Y1189466D01*
X816082Y1189220*
X815992Y1188974*
X815903Y1188605*
Y1187989*
X815903D02*
X815992Y1187620D01*
X816082Y1187374*
X816261Y1187128*
X816440Y1187005*
X816798*
X816977Y1187128*
X817156Y1187374*
X817245Y1187620*
X817335Y1187989*
X817335D02*
Y1188605D01*
X817245Y1188974*
X817156Y1189220*
X816977Y1189466*
X816798Y1189589*
X816440*
X816708Y1187497D02*
X817245Y1186759D01*
X819303Y1189589D02*
X818408D01*
X818319Y1188482*
X818408Y1188605*
X818677Y1188728*
X818945*
X819214Y1188605*
X819393Y1188359*
X819482Y1187989*
X819482D02*
X819393Y1187743D01*
X819303Y1187374*
X819124Y1187128*
X818856Y1187005*
X818587*
X818319Y1187128*
X818229Y1187251*
X818140Y1187497*
X809917Y1060998D02*
Y1059155D01*
X809827Y1058809*
X809738Y1058694*
X809559Y1058579*
X809380*
X809201Y1058694*
X809112Y1058809*
X809022Y1059155*
Y1059385*
X811796Y1060653D02*
X811706Y1060883D01*
X811438Y1060998*
X811259*
X810991Y1060883*
X810812Y1060538*
X810722Y1059961*
Y1059385*
X810812Y1058924*
X810991Y1058694*
X811259Y1058579*
X811349*
X811617Y1058694*
X811796Y1058924*
X811885Y1059270*
Y1059385*
X811796Y1059731*
X811617Y1059961*
X811349Y1060077*
X811259*
X810991Y1059961*
X810812Y1059731*
X810722Y1059385*
X877995Y1013950D02*
Y1011367D01*
Y1013950D02*
X878800D01*
X879069Y1013827*
X879158Y1013704*
X879248Y1013458*
Y1013212*
X879158Y1012966*
X879069Y1012843*
X878800Y1012720*
X877995*
X878621D02*
X879248Y1011367D01*
X880948Y1013950D02*
X880053Y1012228D01*
X881395*
X880948Y1013950D02*
Y1011367D01*
X872580Y1013198D02*
X872490Y1013444D01*
X872311Y1013690*
X872132Y1013814*
X871774*
X871595Y1013690*
X871416Y1013444*
X871327Y1013198*
X871238Y1012829*
X871238D02*
Y1012214D01*
X871238D02*
X871327Y1011845D01*
X871416Y1011599*
X871595Y1011353*
X871774Y1011230*
X872132*
X872311Y1011353*
X872490Y1011599*
X872580Y1011845*
X873385Y1013321D02*
X873564Y1013444D01*
X873832Y1013814*
Y1011230*
X875801Y1013814D02*
X874906D01*
X874817Y1012706*
X874906Y1012829*
X875175Y1012952*
X875443*
X875711Y1012829*
X875890Y1012583*
X875980Y1012214*
X875890Y1011968*
X875801Y1011599*
X875622Y1011353*
X875353Y1011230*
X875085*
X874817Y1011353*
X874727Y1011476*
X874638Y1011722*
X1055216Y1168395D02*
Y1165812D01*
Y1168395D02*
X1056022D01*
X1056290Y1168272*
X1056380Y1168149*
X1056469Y1167903*
Y1167657*
X1056380Y1167411*
X1056290Y1167288*
X1056022Y1167165*
X1055216*
X1055843D02*
X1056469Y1165812D01*
X1057364Y1167780D02*
Y1167903D01*
X1057453Y1168149*
X1057543Y1168272*
X1057722Y1168395*
X1058080*
X1058259Y1168272*
X1058348Y1168149*
X1058438Y1167903*
Y1167657*
X1058348Y1167411*
X1058169Y1167042*
X1057274Y1165812*
X1058527*
X909420Y1097655D02*
Y1095926D01*
X909510Y1095581*
X909689Y1095350*
X909957Y1095235*
X910136*
X910405Y1095350*
X910584Y1095581*
X910673Y1095926*
Y1097655*
X911568Y1097079D02*
Y1097194D01*
X911657Y1097424*
X911747Y1097539*
X911926Y1097655*
X912284*
X912463Y1097539*
X912552Y1097424*
X912642Y1097194*
Y1096963*
X912552Y1096733*
X912373Y1096387*
X911478Y1095235*
X912731*
X913536Y1097194D02*
X913715Y1097309D01*
X913984Y1097655*
Y1095235*
X934081Y1074716D02*
X933991Y1074962D01*
X933812Y1075208*
X933634Y1075331*
X933276*
X933097Y1075208*
X932918Y1074962*
X932828Y1074716*
X932739Y1074347*
Y1073732*
X932828Y1073362*
X932828D02*
X932918Y1073116D01*
X933097Y1072870*
X933276Y1072747*
X933634*
X933812Y1072870*
X933991Y1073116*
X934081Y1073362*
X936049Y1075331D02*
X935155D01*
X935065Y1074224*
X935155Y1074347*
X935423Y1074470*
X935691*
X935960Y1074347*
X936139Y1074101*
X936228Y1073732*
X936139Y1073486*
X936049Y1073116*
X935870Y1072870*
X935602Y1072747*
X935334*
X935065Y1072870*
X934976Y1072993*
X934886Y1073239*
X937123Y1074716D02*
Y1074839D01*
X937213Y1075085*
X937302Y1075208*
X937481Y1075331*
X937839*
X938018Y1075208*
X938107Y1075085*
X938197Y1074839*
Y1074593*
X938107Y1074347*
X937928Y1073978*
X937034Y1072747*
X938286*
X978369Y1067607D02*
X978615Y1067696D01*
X978861Y1067875*
X978984Y1068054*
Y1068412*
X978861Y1068591*
X978615Y1068770*
X978369Y1068859*
X978000Y1068949*
X977385*
X977016Y1068859*
X976770Y1068770*
X976524Y1068591*
X976401Y1068412*
Y1068054*
X976524Y1067875*
X976770Y1067696*
X977016Y1067607*
X978984Y1066622D02*
Y1065638D01*
X978000Y1066175*
Y1065906*
X977877Y1065727*
X977754Y1065638*
X977385Y1065549*
X977139*
X976770Y1065638*
X976524Y1065817*
X976401Y1066085*
Y1066354*
X976524Y1066622*
X976647Y1066712*
X976893Y1066801*
X978123Y1063580D02*
X977754Y1063670D01*
X977508Y1063848*
X977385Y1064117*
Y1064206*
X977508Y1064475*
X977754Y1064654*
X978123Y1064743*
X978246*
X978615Y1064654*
X978861Y1064475*
X978984Y1064206*
Y1064117*
X978861Y1063848*
X978615Y1063670*
X978123Y1063580*
X977508*
X976893Y1063670*
X976524Y1063848*
X976401Y1064117*
Y1064296*
X976524Y1064564*
X976770Y1064654*
X902851Y1088615D02*
X902672Y1088492D01*
X902493Y1088246*
X902403Y1088000*
X902314Y1087631*
Y1087016*
X902403Y1086647*
X902493Y1086401*
X902672Y1086155*
X902672D02*
X902851Y1086031D01*
X903208*
X903387Y1086155*
X903387D02*
X903566Y1086401D01*
X903656Y1086647*
X903745Y1087016*
Y1087631*
X903656Y1088000*
X903566Y1088246*
X903387Y1088492*
X903208Y1088615*
X902851*
X903119Y1086524D02*
X903656Y1085785D01*
X905624Y1088246D02*
X905535Y1088492D01*
X905266Y1088615*
X905087*
X904819Y1088492*
X904640Y1088123*
X904551Y1087508*
Y1086893*
X904640Y1086401*
X904819Y1086155*
X904819D02*
X905087Y1086031D01*
X905177*
X905445Y1086155*
X905445D02*
X905624Y1086401D01*
X905714Y1086770*
Y1086893*
X905624Y1087262*
X905445Y1087508*
X905177Y1087631*
X905087*
X904819Y1087508*
X904640Y1087262*
X904551Y1086893*
X1056480Y1155749D02*
X1056391Y1155995D01*
X1056212Y1156241*
X1056033Y1156364*
X1055675*
X1055496Y1156241*
X1055317Y1155995*
X1055228Y1155749*
X1055138Y1155380*
Y1154764*
X1055228Y1154395*
X1055317Y1154149*
X1055496Y1153903*
X1055675Y1153780*
X1056033*
X1056212Y1153903*
X1056391Y1154149*
X1056480Y1154395*
X1057465Y1156364D02*
X1058449D01*
X1057912Y1155380*
X1058180*
X1058359Y1155257*
X1058449Y1155134*
X1058538Y1154764*
Y1154518*
X1058449Y1154149*
X1058270Y1153903*
X1058002Y1153780*
X1057733*
X1057465Y1153903*
X1057375Y1154026*
X1057286Y1154272*
X883249Y1014028D02*
Y1011445D01*
Y1014028D02*
X884054D01*
X884322Y1013905*
X884412Y1013782*
X884501Y1013536*
Y1013290*
X884412Y1013044*
X884322Y1012921*
X884054Y1012798*
X883249*
X883875D02*
X884501Y1011445D01*
X886470Y1014028D02*
X885575D01*
X885486Y1012921*
X885486D02*
X885575Y1013044D01*
X885843Y1013167*
X886112*
X886380Y1013044*
X886559Y1012798*
X886649Y1012429*
X886559Y1012183*
X886470Y1011814*
X886291Y1011568*
X886022Y1011445*
X885754*
X885486Y1011568*
X885486D02*
X885396Y1011691D01*
X885307Y1011937*
X887554Y1060471D02*
Y1058052D01*
X886928Y1060471D02*
X888181D01*
X888986Y1060010D02*
X889165Y1060125D01*
X889433Y1060471*
Y1058052*
X942171Y1060998D02*
Y1059153D01*
X942261Y1058784*
X942440Y1058538*
X942708Y1058415*
X942887*
X943155Y1058538*
X943334Y1058784*
X943424Y1059153*
Y1060998*
X944229Y1060506D02*
X944408Y1060629D01*
X944676Y1060998*
Y1058415*
X945482Y1060506D02*
X945661Y1060629D01*
X945929Y1060998*
Y1058415*
X940409Y1077717D02*
X940179Y1077627D01*
X939948Y1077448*
X939833Y1077269*
Y1076911*
X939948Y1076732*
X940179Y1076553*
X940409Y1076464*
X940755Y1076374*
X941331*
X941677Y1076464*
X941907Y1076553*
X942138Y1076732*
X942253Y1076911*
Y1077269*
X942138Y1077448*
X941907Y1077627*
X941677Y1077717*
X939833Y1079685D02*
Y1078790D01*
X940870Y1078701*
X940755Y1078790*
X940640Y1079059*
Y1079327*
X940755Y1079596*
X940985Y1079774*
X941331Y1079864*
X941562Y1079774*
X941907Y1079685*
X942138Y1079506*
X942253Y1079238*
Y1078969*
X942138Y1078701*
X942022Y1078611*
X941792Y1078522*
X940294Y1080669D02*
X940179Y1080848D01*
X939833Y1081117*
X942253*
X1068947Y1035140D02*
X1068857Y1035386D01*
X1068678Y1035632*
X1068499Y1035755*
X1068142*
X1067963Y1035632*
X1067784Y1035386*
X1067694Y1035140*
X1067605Y1034771*
Y1034155*
X1067694Y1033786*
X1067784Y1033540*
X1067963Y1033294*
X1068142Y1033171*
X1068499*
X1068678Y1033294*
X1068857Y1033540*
X1068947Y1033786*
X1070647Y1035755D02*
X1069752Y1034032D01*
X1071094*
X1070647Y1035755D02*
Y1033171D01*
X1073152Y1035755D02*
X1072258Y1033171D01*
X1071900Y1035755D02*
X1073152D01*
X1014232Y1005933D02*
X1014143Y1006179D01*
X1013964Y1006425*
X1013785Y1006548*
X1013427*
X1013248Y1006425*
X1013069Y1006179*
X1012979Y1005933*
X1012890Y1005564*
Y1004949*
X1012979Y1004580*
X1013069Y1004334*
X1013248Y1004088*
X1013427Y1003965*
X1013785*
X1013964Y1004088*
X1014143Y1004334*
X1014232Y1004580*
X1015932Y1006548D02*
X1015037Y1004826D01*
X1016380*
X1015932Y1006548D02*
Y1003965D01*
X1018348Y1006548D02*
X1017453D01*
X1017364Y1005441*
X1017453Y1005564*
X1017722Y1005687*
X1017990*
X1018259Y1005564*
X1018438Y1005318*
X1018527Y1004949*
X1018438Y1004703*
X1018348Y1004334*
X1018169Y1004088*
X1017901Y1003965*
X1017632*
X1017364Y1004088*
X1017274Y1004211*
X1017185Y1004457*
X1043193Y1017387D02*
X1043079Y1017700D01*
X1042852Y1018012*
X1042625Y1018168*
X1042170*
X1041943Y1018012*
X1041715Y1017700*
X1041602Y1017387*
X1041488Y1016918*
Y1016137*
X1041602Y1015668*
X1041715Y1015356*
X1041943Y1015043*
X1042170Y1014887*
X1042625*
X1042852Y1015043*
X1043079Y1015356*
X1043193Y1015668*
X1045352Y1018168D02*
X1044215Y1015981D01*
X1045920*
X1045352Y1018168D02*
Y1014887D01*
X1048306Y1017700D02*
X1048193Y1018012D01*
X1047852Y1018168*
X1047625*
X1047284Y1018012*
X1047056Y1017543*
X1046943Y1016762*
Y1015981*
X1047056Y1015356*
X1047284Y1015043*
X1047625Y1014887*
X1047738*
X1048079Y1015043*
X1048306Y1015356*
X1048420Y1015825*
Y1015981*
X1048306Y1016450*
X1048079Y1016762*
X1047738Y1016918*
X1047625*
X1047284Y1016762*
X1047056Y1016450*
X1046943Y1015981*
X992618Y1010483D02*
Y1007202D01*
Y1010483D02*
X993641D01*
X993982Y1010327*
X994095Y1010171*
X994209Y1009858*
Y1009546*
X994095Y1009233*
X993982Y1009077*
X993641Y1008921*
X992618*
X993414D02*
X994209Y1007202D01*
X995232Y1009858D02*
X995459Y1010015D01*
X995800Y1010483*
Y1007202*
X1014199Y1033101D02*
Y1029820D01*
Y1033101D02*
X1015221D01*
X1015562Y1032945*
X1015676Y1032789*
X1015790Y1032476*
Y1032164*
X1015676Y1031851*
X1015562Y1031695*
X1015221Y1031539*
X1014199*
X1014994D02*
X1015790Y1029820D01*
X1017040Y1033101D02*
X1018290D01*
X1017608Y1031851*
X1017949*
X1018176Y1031695*
X1018290Y1031539*
X1018403Y1031070*
Y1030757*
X1018290Y1030289*
X1018062Y1029976*
X1017721Y1029820*
X1017381*
X1017040Y1029976*
X1016926Y1030132*
X1016812Y1030445*
X1020562Y1033101D02*
X1019426Y1030914D01*
X1021131*
X1020562Y1033101D02*
Y1029820D01*
X1021756Y1033104D02*
Y1029823D01*
Y1033104D02*
X1022778D01*
X1023119Y1032948*
X1023233Y1032791*
X1023346Y1032479*
Y1032166*
X1023233Y1031854*
X1023119Y1031698*
X1022778Y1031541*
X1021756*
X1022551D02*
X1023346Y1029823D01*
X1024596Y1033104D02*
X1025846D01*
X1025165Y1031854*
X1025506*
X1025506D02*
X1025733Y1031698D01*
X1025846Y1031541*
X1025960Y1031073*
Y1030760*
X1025846Y1030291*
X1025619Y1029979*
X1025278Y1029823*
X1024937*
X1024596Y1029979*
X1024483Y1030135*
X1024369Y1030448*
X1028460Y1033104D02*
X1027324D01*
X1027210Y1031698*
X1027324Y1031854*
X1027665Y1032010*
X1028006*
X1028006D02*
X1028346Y1031854D01*
X1028574Y1031541*
X1028687Y1031073*
X1028574Y1030760*
X1028460Y1030291*
X1028233Y1029979*
X1027892Y1029823*
X1027551*
X1027210Y1029979*
X1027096Y1030135*
X1026983Y1030448*
X1058445Y1036738D02*
Y1033457D01*
X1059809*
X1062536Y1035957D02*
X1062422Y1036269D01*
X1062195Y1036582*
X1061968Y1036738*
X1061513*
X1061286Y1036582*
X1061059Y1036269*
X1060945Y1035957*
X1060831Y1035488*
Y1034707*
X1060945Y1034238*
X1061059Y1033925*
X1061286Y1033613*
X1061513Y1033457*
X1061968*
X1062195Y1033613*
X1062422Y1033925*
X1062536Y1034238*
X1064127Y1036738D02*
X1063786Y1036582D01*
X1063672Y1036269*
Y1035957*
X1063786Y1035644*
X1064013Y1035488*
X1064468Y1035332*
X1064809Y1035175*
X1065036Y1034863*
X1065149Y1034550*
Y1034082*
X1065036Y1033769*
X1064922Y1033613*
X1064581Y1033457*
X1064127*
X1063786Y1033613*
X1063672Y1033769*
X1063559Y1034082*
Y1034550*
X1063672Y1034863*
X1063899Y1035175*
X1064240Y1035332*
X1064695Y1035488*
X1064922Y1035644*
X1065036Y1035957*
Y1036269*
X1064922Y1036582*
X1064581Y1036738*
X1064127*
X1039403Y1013738D02*
Y1010621D01*
Y1013738D02*
X1040199D01*
X1040540Y1013590*
X1040767Y1013293*
X1040880Y1012996*
X1040994Y1012551*
Y1011809*
X1040880Y1011363*
X1040767Y1011066*
X1040540Y1010769*
X1040540D02*
X1040199Y1010621D01*
X1039403*
X1043608Y1013738D02*
X1042471Y1010621D01*
X1042017Y1013738D02*
X1043608D01*
X979025Y1083043D02*
Y1080699D01*
X979138Y1080230*
X979365Y1079918*
X979706Y1079761*
X979934*
X980275Y1079918*
X980502Y1080230*
X980615Y1080699*
Y1083043*
X981752Y1082261D02*
Y1082418D01*
X981865Y1082730*
X981979Y1082886*
X982206Y1083043*
X982661*
X982888Y1082886*
X983002Y1082730*
X983115Y1082418*
Y1082105*
X983002Y1081793*
X982775Y1081324*
X981638Y1079761*
X983229*
X984934Y1083043D02*
X984593Y1082886D01*
X984365Y1082418*
X984252Y1081636*
Y1081168*
X984365Y1080386*
X984593Y1079918*
X984934Y1079761*
X985161*
X985502Y1079918*
X985729Y1080386*
X985843Y1081168*
Y1081636*
X985729Y1082418*
X985502Y1082886*
X985161Y1083043*
X984934*
X1017547Y1085314D02*
Y1082894D01*
X1016921Y1085314D02*
X1018174D01*
X1018979D02*
Y1082894D01*
Y1085314D02*
X1019784D01*
X1020053Y1085198*
X1020142Y1085083*
X1020232Y1084853*
Y1084507*
X1020142Y1084277*
X1020053Y1084161*
X1019784Y1084046*
X1018979*
X1022290Y1085314D02*
X1021395Y1082894D01*
X1021037Y1085314D02*
X1022290D01*
X1082537Y1004989D02*
X1082423Y1005301D01*
X1082196Y1005614*
X1081969Y1005770*
X1081514*
X1081287Y1005614*
X1081059Y1005301*
X1080946Y1004989*
X1080832Y1004520*
Y1003739*
X1080946Y1003270*
X1081059Y1002958*
X1081287Y1002645*
X1081514Y1002489*
X1081969*
X1082196Y1002645*
X1082423Y1002958*
X1082537Y1003270*
X1085037Y1005770D02*
X1083900D01*
X1083787Y1004364*
X1083900Y1004520*
X1084241Y1004676*
X1084582*
X1084923Y1004520*
X1085150Y1004208*
X1085264Y1003739*
X1085150Y1003426*
X1085037Y1002958*
X1084809Y1002645*
X1084469Y1002489*
X1084128*
X1083787Y1002645*
X1083673Y1002801*
X1083559Y1003114*
X1087650Y1005301D02*
X1087537Y1005614D01*
X1087196Y1005770*
X1086969*
X1086628Y1005614*
X1086400Y1005145*
X1086287Y1004364*
Y1003583*
X1086400Y1002958*
X1086628Y1002645*
X1086969Y1002489*
X1087082*
X1087423Y1002645*
X1087650Y1002958*
X1087764Y1003426*
Y1003583*
X1087650Y1004051*
X1087423Y1004364*
X1087082Y1004520*
X1086969*
X1086628Y1004364*
X1086400Y1004051*
X1086287Y1003583*
X948742Y1166483D02*
X948653Y1166729D01*
X948474Y1166975*
X948295Y1167098*
X947937*
X947758Y1166975*
X947579Y1166729*
X947490Y1166483*
X947400Y1166114*
Y1165499*
X947490Y1165130*
X947579Y1164884*
X947758Y1164637*
X947937Y1164514*
X948295*
X948474Y1164637*
X948653Y1164884*
X948742Y1165130*
X949548Y1166606D02*
X949727Y1166729D01*
X949995Y1167098*
Y1164514*
X951248Y1167098D02*
X950979Y1166975D01*
X950890Y1166729*
Y1166483*
X950979Y1166237*
X951158Y1166114*
X951516Y1165991*
X951785Y1165868*
X951964Y1165622*
X952053Y1165376*
Y1165007*
X951964Y1164760*
X951874Y1164637*
X951606Y1164514*
X951248*
X950979Y1164637*
X950890Y1164760*
X950800Y1165007*
Y1165376*
X950890Y1165622*
X951069Y1165868*
X951337Y1165991*
X951695Y1166114*
X951874Y1166237*
X951964Y1166483*
Y1166729*
X951874Y1166975*
X951606Y1167098*
X951248*
G74*
X0Y0D02*
M02*
